<?xml version="1.0" encoding="utf-8"?>
<!-- Generator: Adobe Illustrator 19.2.1, SVG Export Plug-In . SVG Version: 6.00 Build 0)  -->
<svg version="1.1" id="Layer_1" xmlns="http://www.w3.org/2000/svg" xmlns:xlink="http://www.w3.org/1999/xlink" x="0px" y="0px"
	 viewBox="0 0 841 756" style="enable-background:new 0 0 841 756;" xml:space="preserve">
<style type="text/css">
	.st0{opacity:0.35;}
	.st1{fill:#AFB1B4;}
</style>
<g class="st0">
	<path class="st1" d="M798.5,259.4c0,1.5,0,2.9,0,4.4c0.2,0,0.4,0.1,0.6,0.1c0.4-1.2,0.7-2.4,1.1-3.6c2.5,5.3-1.2,38.5-4.1,41.1
		c0.3,1.5,1,2.7,0.7,3.7c-2.1,7.4-4,14.9-6.8,22.1c-3.3,8.3-7.2,16.4-11.3,24.3c-2.6,5.1-3.3,10-3.2,15.7
		c0.1,11.4-1.1,22.9-1.6,34.4c-0.2,3.6,0,7.2-0.2,10.8c-0.6,9.5-1.4,19.1-2,28.6c-0.3,4.6-0.5,9.2-0.5,13.8
		c-0.1,9.3,0,18.6-0.6,27.9c-0.8-6.3-2.1-12.7-2.2-19c-0.3-13.2-0.5-26.4,0.2-39.6c0.8-15.3,2.8-30.5,4.1-45.8
		c0.4-4.3,0.1-8.7,0.1-14c-1.4,2.6-2.7,4.4-3.4,6.3c-4.3,12.5-8.7,25-12.5,37.7c-1.3,4.2-0.9,8.9-1.1,13.4c-0.4,9.2-0.6,18.4-1,27.5
		c-0.1,2.8-0.7,5.6-1.4,8.4c-2.4-10.1-3.2-20.3-2.6-30.5c0.2-4.2,0.7-8.5,0.9-12.7c0.4-10,3.3-19.4,6.4-28.7
		c2.4-7.1,2.9-14.3,2.5-21.7c-0.5-9.4-0.3-18.7-0.5-28.1c-0.2-6-0.7-12.1-1-18.1c-0.2-5.2-0.1-10.5-0.6-15.7
		c-0.6-7.2-1.7-14.4-2.6-21.5c-0.4-3.4-0.8-6.8-2-10.1c-0.8,7.6-1.6,15.3-2.6,22.9c-0.9,7.1-2.2,14.2-2.9,21.4
		c-0.8,7.1-0.4,14.3-1.8,21.2c-1.7,8.6-1.2,17.1-1.2,25.6c0,6.7,0.1,13.4-0.1,20.1c-0.1,5.4-0.6,10.7-0.6,16.1
		c0,7.3,0.4,14.7,0.5,22c0.1,6,0.2,11.9,0,17.9c-0.3,8-0.9,16-1.1,24c-0.1,5.2,0.4,10.4,0.4,15.7c0,4-0.4,7.9-0.7,11.9
		c-0.2,2.4-0.1,5-3,6.2c-0.5,0.2-0.5,1.6-0.9,3.1c1.3-0.8,1.9-1.1,2.9-1.8c-1.6,10.9-3.1,21.3-4.6,31.8c-0.1,0-0.2,0.1-0.3,0.1
		c-0.1-1.7-0.3-3.4-0.3-5c0.1-12,0.1-24,0.3-36c0.2-7.2,1.1-14.5,1.1-21.7c0.1-14-0.6-28-0.3-42c0.5-26.4,1-52.8,2.2-79.1
		c0.8-17.6,2.8-35.1,4.5-52.6c0.6-5.7,1.8-11.3,2.9-16.9c1.2-6.4,2.6-12.9,3.8-19.3c0.2-1,0.4-2,0.2-3c-1.5-8.5-3.1-16.9-4.6-25.4
		c-0.7-3.9-1.4-7.8-1.6-11.9c1.2,3.3,2.5,6.6,3.7,9.8c0.2-0.1,0.5-0.1,0.7-0.2c-0.4-2.4-0.9-4.9-1.3-7.3c0.3-0.1,0.6-0.2,0.8-0.3
		c2.3,6.3,4.6,12.7,7,19.1c3-9.7,6.2-19.7,9.3-29.7c0.3,0,0.5,0.1,0.8,0.1c0.1,0.6,0.3,1.3,0.1,1.9c-2.4,10.7-4.9,21.4-7.1,32.1
		c-0.4,2.1,0,4.3,0,6.5c0,1.7,0.1,3.4,0.2,5.7c1,0.6,2.6,1.4,1.3,4.3c-0.6,1.5,2.2,4.8,1.5,5.8c-2,2.9,0.4,2.3,1.8,2.9
		c-0.7,0.8-1.3,1.6-2.4,2.8c1.4-0.2,2.2-0.3,2.6-0.3c0.8,2.9,1.6,5.7,2.4,8.6c0.2,0.7,0.3,1.5,0.1,2c-1.2,2.3-0.5,3.4,1.4,5.4
		c1.7,1.9,1.5,5.7,1.9,8.6c0.4,3.1,0.5,6.1,0.6,9.2c0,1.5-0.3,3-0.4,3.6c1.7,7.1,1.1,13.7,2.1,20.2c8.3-22.5,16.6-45,24.9-67.6
		C798,259.4,798.3,259.4,798.5,259.4z M766.4,362.8c18.6-26.3,27.1-56,29.6-87.6C786.4,304.5,772.1,332.2,766.4,362.8z M763.9,307.6
		c0,4.9-0.1,9.2,0.1,13.5c0.1,2.1,1.2,4.1,1.2,6.2c0.2,5-1.5,9.9-0.8,15.1c0.5,4.1,0.1,8.3,0.1,12.9c0.6-1,1.2-1.8,1.4-2.7
		c0.8-3.1,1.7-6.2,2.2-9.4c0.8-4.9,2-9.8,1.7-14.6c-0.8-11.2-2.2-22.3-3.7-33.5c-0.7-5.1-2.1-10.2-3.2-15.3c-0.4,0-0.8,0.1-1.2,0.1
		c0.5,7.5,4,15,1.1,22.6c0.6,0.4,1.2,0.7,2.1,1.2c-1.3,0.9-2.2,1.6-3.5,2.6C762.5,307,763.4,307.4,763.9,307.6z M759.9,271.2
		c0,2.5,0,5,0,7.6C762.2,278.3,762.2,278.3,759.9,271.2z"/>
	<path class="st1" d="M692.8,325.7c3.3,2,4.2,6.8-0.9,13.3c1.3,0,2.5,0,4,0c-0.8,0.9-1.5,1.7-1.4,1.6c1,2.3,1.6,4,2.3,5.6
		c-0.2,0.1-0.4,0.3-0.6,0.4c-0.7-0.6-1.4-1.1-2.9-2.3c1.1,3.7,2,6.4,2.7,9.1c0.3,1,0.4,2.2,0.2,3.2c-0.5,2.5-0.6,2.5,2.8,2.8
		c-3.4,2.2-3.4,4.1-0.8,6.9c1.2,1.3,0.2,4.4,0.4,6.6c1.2,10.7,2.6,21.4,3.6,32.1c0.6,6,0.4,12.1,0.9,18.1c0.2,2.8,1.4,5.6,1.4,8.4
		c0.2,6.4-0.3,12.8-0.1,19.2c0.1,5.7,0.8,11.5,0.8,17.2c0,4.8-0.4,9.7-0.6,14.5c-0.1,3.5-0.2,7-0.3,10.5c-0.1,2.2-0.1,4.4-0.3,6.6
		c-0.1,1.3-0.2,2.5-0.5,3.9c-0.2,4.1-0.3,8.1-0.6,12.2c-0.3,4.3-0.8,8.5-1.2,12.7c-0.3,0-0.7,0-1,0c0-4.3-0.1-8.5,0-12.8
		c0.1-4.6,0.5-9.2,0.7-13.7c0.4-8.4-1.3-16.8-0.5-25.2c0.1-1.2-1.2-2.5-1.4-3.9c-0.1-0.9,0.9-1.9,0.9-2.8c0.1-3.2,0.1-6.4,0.1-9.6
		c0-1,0.1-2.2-0.3-3.1c-0.5-1.2-1.4-2.2-2.7-3c0.9-6.6-1.2-13.2-2.1-19.9c1-0.6,2-1.1,3-1.7c-0.1-0.3-0.2-0.6-0.4-0.9
		c-0.8,0.2-1.7,0.4-3.3,0.7c1-1.5,1.6-2.5,2.3-3.5c-0.3,0-0.7,0.1-1,0.1c-0.4-3.6-1-7.2-1.2-10.8c-0.2-2.8,0.4-5.6,0.1-8.4
		c-1-10.2-2-20.4-3.6-30.5c-2.4-15.9-5-31.8-8.2-47.5c-2.2-10.8-5.5-21.4-8.4-32.1c-0.1-0.4-0.4-0.8-0.7-1.2
		c-0.4-0.1-0.8-0.1-1.2-0.2c-3.1,11.7-6.2,23.4-9.3,35.2c-3.1,11.9-6.5,23.6-9.3,35.6c-2.7,11.4-3.7,23.2-6,35.9
		c2.2,2.8-0.8,7.1-1,11.3c-0.1,2.9-1.5,5.6-1.7,8.5c-1.1,14.6-2.5,29.2-2.9,43.8c-0.3,12.3,0.8,24.7,1.2,37.1
		c0.1,2.5-0.4,4.9-0.4,7.4c0,4.3,0.3,8.5,0.5,12.8c0,0.7,0,1.5-0.6,2.3c-0.6-5.3-1.1-10.6-1.7-15.9c-0.3-3.2-0.3-6.4-0.9-9.6
		c-1.3-7.1-1.8-14.2-0.5-21.4c0.3-1.5-1.4-3.2-1.4-4.9c-0.2-6.8-0.2-13.7-0.1-20.5c0-1.4,0.7-2.9,0.3-4.2c-0.3-3.6-0.5-7.1-0.8-10.7
		c-1.2-9.5-0.1-19-0.4-28.8c1.2,0.1,2,0.1,2.9,0.1c0,1.6,0,3.1,0,5.1c1.4-1,2.2-1.5,3.4-2.4c-1.8-2.1-3.4-4-5-5.9
		c-0.4,0.2-0.9,0.4-1.3,0.6c0.3-3.3,0.6-6.6,0.8-9.9c0.3-5.1,0.4-10.3,1-15.4c0.8-7.7,1.8-15.4,2.8-23.1c1.2-9.7,2.3-19.4,3.8-29.1
		c2.2-13.9,4.1-27.8,9.2-41c1.4-3.7,3-7.4,3.8-11.2c0.7-3.8,3-6.2,5.5-8.8c4.6-4.7,9.7-4.6,14.4,0c1.6,1.6,3.8,2.6,5.7,3.8
		c1.6,1,3.2,2,4.6,3.2c-4.2-0.2-4.7,0.3-3.5,4.4c1.1,3.7,2.4,7.2,3.6,10.9c0.2,0.6-0.2,1.4-0.2,2c0.1,1.4,0.4,2.7,0.7,4.1
		c0.2,1.1,1.2,2.7,0.8,3.1c-2.7,2.8-0.5,4.4,1.1,6.3c0.9,1.1,2,2.5,1.9,3.8C694.1,317.1,693.4,321.1,692.8,325.7z M646.7,381.1
		c0.5-3.1,0.7-5.8,1.4-8.4c2.5-9.1,5.3-18.2,7.8-27.3c4.3-15.4,8.3-30.9,12.6-46.2c0.9-3.2,2.6-6,2.9-9.7c0.3-3.5,3.1-6.8,5.1-10
		c1.6-2.5,0-4-1.6-4.9c-1.8-1.1-4.5-2.5-5.9,0.2c-2.3,4.6-7.2,7.6-7.6,13.2c-0.2,2.7-0.9,5.4-1.5,8c-1.2,4.8-2.6,9.6-3.7,14.5
		c-1.5,6.6-2.9,13.3-4.3,19.9c-0.3,1.6-0.6,3.3-0.8,4.9c-0.7,6.1-1.3,12.1-2,18.2c-0.4,3.3-1.1,6.5-1.5,9.7
		c-0.2,1.5,0.4,3.1,0.1,4.6c-1.1,4.7-2.4,9.4-3.6,14C644.8,381.8,645.8,381.5,646.7,381.1z M686.9,316c0.3-1.1,0.8-3.1,1-4.1
		c-0.9-2.9-1.8-5.1-2.3-7.4c-1.5-6.3-3-12.6-4.5-19.5c-4.3,5.7-4.6,6.7-3.6,9.1C680.7,301.5,683.9,308.9,686.9,316z M690.4,330.3
		c0.4-0.1,0.8-0.2,1.2-0.3c-1.1-3.4-2.3-6.7-3.4-10.1c-0.3,0.1-0.6,0.2-0.9,0.3C688.3,323.6,689.4,326.9,690.4,330.3z"/>
	<path class="st1" d="M767.7,571c2.2,3,2.5,6.1,0.8,9.5c-0.4,0.8-0.2,2-0.3,3c-0.2,2.2-0.7,4.4-0.7,6.6c0,2.5-0.2,4.8-2.1,6.7
		c-0.2,0.2,1.1,1.7,1.9,2.9c3.1-8,5.9-15.4,9-23.5c1.1,1.3,1.6,1.6,1.7,2c0.4,5,1.3,10,1,14.9c-0.6,9.7-1.9,19.5-3,29.2
		c-0.5,4.4-2.6,9-1.8,12.9c0.9,4.1-1,7.9,0.1,11.8c0.4,1.6-0.7,3.7-1.2,6.4c1.6,4.6-1.1,10-1.8,15.8c2,1,3.1,2.4,1.2,5.2
		c-0.7,1-0.1,3.1,0.2,4.6c0.5,3.2,1.2,6.3,1.9,9.5c-3.1,0.7-5.3,1.2-8,1.9c-4.5-4.8-4.3-11.4-4.2-18c0.2-9.2,0.3-18.4,0.7-27.6
		c0.1-3.7,0.7-7.4,1-11.1c0.1-1-0.4-2-0.6-3c-0.6,0-1.1,0.1-1.7,0.1c0,6.3,0,12.6,0,18.5c-1.1,1.8-5.8,2-1.6,5.1
		c1,0.8,0.3,3.9,0.3,6c-0.1,3.6-0.1,7.3-0.4,10.9c-0.1,1.5-1,2.9-1.6,4.6c5.2,3.4-0.1,8.5,1.9,12.6c-5.8,1.3-7.4,0.8-8.2-4.4
		c-1.1-6.8-1.6-13.8-1.7-20.7c-0.1-7.4,0.4-14.7,0.7-22.1c0.4-8.5,0.8-17,1.6-25.5c0.7-7.6,2-15.1,3-22.7c1.3-9.2,2.5-18.3,4-27.4
		c0.2-1.3,1.2-2.5,1.8-3.6c-0.2-2-0.8-4.3-0.4-6.4c2.1-13.9,4.2-27.8,6.7-41.6c1.5-8.3,3.4-16.6,5.4-24.8c1.7-7.1,3.8-14.2,5.8-21.5
		c0.4,0.7,1.4,1.5,1.5,2.5c0.6,6.8,1.5,13.6,1.4,20.4c-0.1,5-2.2,10-2,14.9c0.2,4.8-3.9,8.3-2.5,13.4c0.7,2.4-1.3,5.5-2,8.3
		c-0.8,3.6-2.9,7.6-2,10.7c1.1,3.8-1.4,6.5-0.9,10.1c0.4,2.7-1.4,5.8-0.9,9.1c0.2,1.7-1.2,3.6-1.8,5.5c-0.4,1.2-0.5,2.5-0.6,3.8
		c-0.2,1.5-0.2,2.9-0.3,4.4C768.5,570.8,768.1,570.9,767.7,571z M765.1,612.6c-0.9,0.8-1.6,1.5-2.4,2.1c0.4,0.4,0.8,0.8,1.2,1.1
		c0.6-0.8,1.6-1.6,1.8-2.5c0.8-4.3,1.4-8.6,2.1-13.1C764.7,602.7,763.1,610.7,765.1,612.6z M761.4,624c4.3-1.2,4.5-1.9,3.1-6.8
		C763.3,619.8,762.3,621.9,761.4,624z"/>
	<path class="st1" d="M568.3,411.4c3.1,2.4,3.1,5.8,0,9.3c0.8,0.1,1.4,0.2,2.5,0.4c-0.5,2.5-1.4,5-1.4,7.5c0.1,2.8,1,5.7,1.5,8.5
		c0.4,2.1,0.1,4.3,0.4,6.5c0.9,6.4,0.7,12.9,0.9,19.4c0.2,4.6,0.5,9.2,0.6,13.8c0.1,5.3,0,10.6,0,15.9c-0.5,0-0.9,0-1.4,0
		c0-1.8,0.1-3.6,0-5.4c-1.4-15.6-3.2-31.2-4.3-46.8c-0.8-10.6-1.1-21.2-1-31.8c0-15.8,0.3-31.7,0.9-47.5c0.4-10.1,1.4-20.2,2.5-30.2
		c1.3-11.7,2.6-23.5,4.6-35.1c1.3-7.9,3.9-15.6,5.8-23.5c1.3-5.4,2.6-10.9,3.7-16.3c2.3-11.1,4.5-22.2,6.7-33.2
		c2.7-13.7,5.3-27.4,8.2-41c2-9.3,4.4-18.5,7.4-27.7c-0.3,2.7-0.7,5.5-0.7,8.2c-0.1,9.5,0.1,18.9-0.1,28.4
		c-0.2,7.3-0.7,14.6-1.4,21.9c-0.7,7.1-1.6,14.2-2.8,21.3c-1.4,8-3,16-4.8,24c-1.4,6.4-3.1,12.7-4.9,19c-1.8,6.5-3.8,13-5.5,19.5
		c-1.6,6.1-3,12.3-4.5,18.5c-1,4-1.6,8.1-3.2,11.8c-3.1,7.2-2.6,14.8-3.4,22.3c-0.9,8.6-1.6,17.3-2.4,26c-0.7,7.8-0.7,15.5-0.6,23.3
		c0.1,3.3-0.4,6.7-0.9,10C570.4,409.4,569.2,410.3,568.3,411.4z M601.8,190.3c-0.4-0.1-0.8-0.1-1.2-0.2c-2.7,16-5,32.1-8.3,48
		c-3.3,16-7.5,31.8-11.4,47.6c0.3,0.1,0.7,0.1,1,0.2C593,255,597.5,222.7,601.8,190.3z"/>
	<path class="st1" d="M543.4,350.5c1.4,3.9,2.9,7.8,4.3,11.6c-1,0.4-1.7,0.7-2.4,1c0.6,0.5,1.2,1,1.7,1.6c1.2,1.2,2.3,2.5,3.3,3.5
		c-1,1.5-1.7,2.5-1.8,2.7c1.7,2.6,3.4,4.3,4,6.4c2.4,8.1,4.6,16.2,6.5,24.4c0.9,3.8,1.1,7.9,1,11.8c0,1.3-1.7,2.7-3,4.6
		c1.5-0.2,2.8-0.3,4.3-0.4c-0.1,0.7-0.1,1.3-0.2,2c-0.2,1.2-1,2.9-0.5,3.7c2.4,3.6,2.2,7.4,1.3,11.3c-0.2,0.8,0.1,1.7,0.3,2.5
		c0.8,5.1,1.8,10.2,2.5,15.4c0.2,1.2-0.6,2.5-0.7,2.7c0.3,2.3,0.7,3.7,0.7,5c0.3,6.6,1,13.3,0.8,19.9c-0.3,8,2,16.1-0.7,24.2
		c-0.6,1.8,1,4.3,1.1,6.5c0.2,4.2,0.4,8.4,0.1,12.5c-0.4,5.4-0.3,10.7,0.7,16.1c0.9,4.7,1.1,9.6,1.7,14.3c0.8,6,1.6,12.1,2.8,18
		c0.8,4.1,0.1,6-4.4,8.3c-1.3-6.3-2.6-12.5-3.7-18.7c-0.8-4.4-1.6-8.9-2.1-13.3c-1-9.2-2.2-18.5-2.4-27.8c-0.5-18.5-0.4-37-0.6-55.5
		c0-4-0.7-8-0.7-11.9c0.1-14.5-2.8-28.7-4.2-43c-0.8-7.9-3.3-15.4-4.7-23.2c-1.9-10.8-3.8-21.5-5.7-32.3c-0.2-1.1-0.4-2.1-0.7-3.2
		C542.6,350.9,543,350.7,543.4,350.5z"/>
	<path class="st1" d="M801,402.6c-0.1,5,4.4,9.1-0.6,13.4c-0.6,0.5-0.2,2.5,0.2,3.7c1,3,1.1,3-2.5,3.8c0.7,1.6,1.4,3,1.9,4.2
		c-0.8,0.7-1.9,1.6-3.4,2.8c1.6,1,2.7,1.7,3.9,2.5c0.6,3.9,0,7.5-2.7,10.9c-0.5,0.6,1.6,3.4,2.7,5.7c0.1,1.3,0.6,3.6,0.2,5.7
		c-0.3,1.8-1.6,3.4-2.9,4.8c-1.5,1.6,5.7,3.6-0.1,4.9c0.4,8.7-1.4,16.9-2.9,25.1c-1.5,8.7-3.2,17.3-5.6,25.9
		c3.3-20.4,0.4-41.2,3.8-62.3c-1.7-2-1.2-8.6,1.9-13.4c-3.1-1.5-2.6-3.1-1.2-6.1c1.5-3.2,1.5-7.2,1.6-10.8
		c0.6-20.4,4.8-40.1,10.1-59.7c1.5-5.5,2.9-11,3.6-16.8c-1,2.6-1.9,5.2-3.1,7.7c-1.5,3.3-3.4,6.4-5,9.7c-0.6,1.4-0.4,3.2-1.1,4.6
		c-3.4,7.8-7.1,15.4-10.3,23.2c-2.2,5.3-3.9,10.9-5.4,16.5c-0.8,2.9-0.6,6-1.2,8.9c-0.8,3.9-2.1,7.7-2.9,11.5
		c-0.5,2.5-0.3,5.2-0.5,7.8c-0.5,6.5-0.9,13.1-1.7,19.6c-2.1-6.4-1.5-13-1-19.5c1.6-20.7,7.1-40.6,14.9-59.6
		c8.4-20.5,17.8-40.6,26.7-60.8c0.1-0.3,0.4-0.5,1.3-1.6c-2,9-0.8,17.8-5.3,25.2c-0.4,2.9-0.6,5.8-1.2,8.6
		c-1.3,5.9-2.9,11.7-4.4,17.6c-1.7,6.5-3.5,13-5,19.5c-0.5,2,0,4.1-0.3,6.1c-0.3,2.3-2.2,4.9-1.4,6.6
		C803.5,401.1,802.2,401.9,801,402.6z"/>
	<path class="st1" d="M605.8,518.5c0.8,0.9,4.3,1.7,1.4,4.7c-0.1,0.1,0,0.5,0.1,0.7c3.3,3.4,1.7,7.2,1.2,11
		c-0.1,1.2,0.9,2.5,1.4,3.8c-2.4,0.9-2.2,0.8-2.7-1.5c-1.1-5.4-2.6-10.8-3.5-16.2c-2.1-12.5-4.1-25-6-37.5
		c-0.9-6.5-1.1-13.2-2.1-19.7c-0.4-2.7-1.9-5.1-2.8-7.8c-0.4-1.1-0.2-2.4-0.3-3.6c-0.4-4.3-0.8-8.6-1.3-12.9
		c0.6-0.1,1.2-0.2,1.7-0.2c0.2,2.9,0.4,5.8,0.6,8.7c0.3,0,0.5,0,0.8,0c0.2-4.2,0.4-8.3,0.6-12.8c-1.5,0.8-2.6,1.5-4.3,2.4
		c-0.1-1.7-0.2-3-0.3-4.6c2.9,0.4,6.1,1.1,4.8-3.4c-1.8,0.4-3.5,0.7-4.9,1c0-10.5,0-20.7,0-30.8c0.6,0,1.3,0,1.9-0.1c0,2,0,4,0,6.4
		c0.3,0.1,1.1,0.4,2,0.8c-1,2.6-1.9,5.2-2.9,7.8c-0.2,0.5-0.4,1.3-0.2,1.4c4,3.3,0.8,6.7,0.5,10.2c-0.1,0.7,1.1,1.5,1.7,2.3
		c0.8-0.7,2.2-1.4,2.3-2.2c0.8-5.1,1.7-10.1,1.9-15.3c1.1-19.8,2.2-39.7,2.9-59.5c0.3-8.2-0.4-16.5-0.7-24.7c0-0.9-0.4-1.8-0.7-3.1
		c-1.5,8.5-3.2,16.4-4.3,24.5c-0.6,4.2-0.2,8.6-0.4,12.9c-0.2,4.4-0.6,8.8-1,13.2c0,0.4-1.2,0.8-1.3,0.8c2.9,8.5,1.5,16.2-2.9,23.7
		c0.6-15.7,0.4-31.5,2-47.1c1.6-16,4.2-32,9.1-46.7c0.6,6.8,1.3,14,1.9,21.3c0.6,6.8,1.5,13.7,1.3,20.5c-0.2,10.8-0.9,21.6-1.6,32.4
		c-1.3,20.8-3.5,41.6-3.9,62.4c-0.2,13.6,2,27.3,3.4,40.8c0.9,8.2,2.2,16.4,3.5,24.6c0.3,1.8,1.6,3.4,1.8,5.2
		C606.7,513.9,606.2,515.7,605.8,518.5z"/>
	<path class="st1" d="M790.8,715.7c-3.1,0.6-5.4,1-7.8,1.4c-4.9-5.8-4.4-13.3-4.6-20.7c-0.1-3.5-0.9-7-1.3-10.5
		c-0.1-1.2-0.7-3-0.2-3.5c3.8-3.3,2.1-7.9,3.2-11.9c2-6.9,3-14,5-20.8c1.3-4.6,3.5-9,5.4-13.4c0.3-0.7,1.3-1.1,2-1.6
		c0.5,0.8,1.2,1.5,1.4,2.3c2,9.2,1,18.1-1.4,27.1c-0.6,2.4-0.3,4.9-0.8,7.3c-0.4,2.2-1.2,4.2-1.9,6.9c0.2,0.5,1.3,2,1.3,3.5
		c0.1,5.3-0.3,10.6-0.3,15.9C790.7,703.8,790.8,709.9,790.8,715.7z"/>
	<path class="st1" d="M743.1,141.1c-2.4,6.1-4.5,12.3-7.2,18.3c-6.1,13.9-9.3,28.5-12.7,43.2c-1.5,6.7-3.4,13.3-4.7,20
		c-0.8,4.4-0.8,8.9-1.4,13.3c-0.9,7.1-1.7,14.2-3.1,21.2c-1.9,9.5-2.8,19.1-2.3,28.8c0.5,9,0.4,18.1,0.3,27.1
		c-0.2,11.8-0.8,23.6-1.8,35.4c-0.2-3-0.5-6.1-0.6-9.1c-0.3-9.9-0.8-19.8-0.8-29.7c0-14.4-0.1-28.8,0.8-43.2
		c0.9-14.9,2-29.8,4.7-44.4c2.7-14.7,7.6-29,11-43.6c3.1-13.6,11.2-24.9,16.3-37.5c0.1-0.2,0.4-0.2,0.6-0.4
		C742.6,140.7,742.9,140.9,743.1,141.1z"/>
	<path class="st1" d="M629.3,521.4c-2.3-5.4-2.1-11.2-2.5-16.9c-0.5-6.9-2-13.8-2.9-20.7c-1.6-12.3-5.6-24-8.6-36
		c-0.1-0.2-0.3-0.4-1.3-0.5c0.5,6.1,0.8,12.2,1.5,18.3c0.7,6.3,1.5,12.5,2.6,18.7c1,6.1,2.2,12.2,3.6,18.3
		c1.3,6.1,2.9,12.1,4.4,18.2c-0.4,0.1-0.8,0.2-1.3,0.3c-2-8.5-4.1-16.9-6-25.4c-4-18-5.9-36.2-7.1-54.5c-0.8-11.6-2-23.1-3-34.7
		c-0.1-0.6,0-1.2,0.4-1.8c2.3,3.7,3.1,7.7,3.6,11.9c0.7,5.1,1.8,10.2,2.6,15.3c0.6,3.5,0.7,7.2,1.5,10.6c0.8,3.3,2.2,6.5,3.6,9.6
		c0.7,1.6,2.5,10.7,2.7,13c0.1,1.1,1.6,2.1,2.6,3.3c0.5,3.5,1,7.4,1.6,11.9c-0.1,0.3-0.7,1.5-1.3,2.7c0.2,0.2,0.4,0.3,0.7,0.5
		c0.9-0.4,1.8-0.8,3.3-1.4c-0.6,1.2-1,1.9-1.5,3c0.7,0.2,1.4,0.5,1.7,0.6c0,4.5,0,9,0,13.8c0,0,0.7,0.1,2,0.4
		c-1.1,0.6-1.7,0.9-2.4,1.3c0.6,2.2,1.1,4.2,1.7,6.4c-0.5,0.2-1.4,0.6-2.2,0.9c1.1,1.7,2.2,3.1,2.9,4.6c0.3,0.9-0.2,2.1-0.4,3.1
		c-0.1,0.8-0.5,1.7-0.2,2.3C633.5,521.6,631.6,521.6,629.3,521.4L629.3,521.4z"/>
	<path class="st1" d="M531,384.1c1.2,2.8,2.8,5.4,3.6,8.3c1,3.7,0.5,8.2,2.5,11.1c2,3,3.2,6,4,9.3c1.7,7.3,3.6,14.6,5.1,22
		c0.7,3.5,0.8,7.1,1.2,10.6c0.5,3.9,1.1,7.8,1.7,11.7c0.6,3.5,2.2,7.2,1.8,10.6c-0.6,6,2.5,11.1,2.7,16.7c0.2,3.3,1,6.6,1.2,10
		c0.1,1-0.9,2.1-1.5,3.4c0.4,0.1,1.2,0.3,1.7,0.4c0.9,13.9,2.7,27.8,0.6,41.7c-4.6-52.5-12.9-104.4-25.8-155.5
		C530.3,384.5,530.7,384.3,531,384.1z"/>
	<path class="st1" d="M722,487.6c1.9,5.4,3.5,10,5.3,15.1c-0.3,0.1-1.1,0.6-1.2,0.7c1,5.4,1.9,10.3,2.8,15.4c-1.6,0.9-4.9,0.7-4,4.5
		c1.1,0,2.2,0,2.8,0c0,2.6,0.3,5-0.1,7.2c-0.2,1.5-1.3,2.9-2.1,4.2c-2.1,3.1-1.8,4.8,1.8,7c-1.3,0.1-2.1,0.4-2.8,0.3
		c-2.7-0.3-5.5-0.3-8.1-1.1c-1.5-0.4-2.6-2-3.9-3.1c0.7-0.8,1.5-1.5,2-2.4c0.5-1.1,1.4-3,1-3.6c-2.8-3.7-0.5-7.5-0.3-11.1
		c0.3-4.8,1.6-9.5,2.4-14.3c0.9-5.2,1.7-10.5,2.6-15.7C720.3,489.7,721.1,488.9,722,487.6z"/>
	<path class="st1" d="M684,461.3c-1.1,1.7-0.8,3.5,1.2,5.3c1.3,1.2,1.9,2,0,3.8c-3,2.8,0.8,2.4,2,3.1c-0.1,1.7-0.3,3.2-0.4,4.9
		c-0.9,0.4-1.9,0.8-2.3,0.9c0,1.9-0.3,3.5,0.1,4.8c0.9,3.3,2.2,6.4,3.3,9.8c-3.3,1.4-1.4,4-0.4,6.4c0.3,0.8,0.7,1.6,1.1,2.4
		c-3.6,1.6-0.8,4.6-1.5,7.1c-1.2,0.2-2.5,0.4-4.3,0.8c0.4-3.4,0.9-6.4,1.2-9.4c0.1-0.9-0.3-1.9-0.6-2.8c-0.1-0.4-1-0.7-1-1
		c-0.1-4.3-0.1-8.6-0.2-12.9c-0.1-2.2,0-4.4-0.7-6.5c-0.7-2.4,0.1-8,2.2-10.2c-1-0.5-1.9-1-2.6-1.4c-3-28.4-6.7-56.6-12.4-84.6
		c1.8,4.4,3.9,8.7,5.2,13.2c1.9,6.7,3.4,13.5,4.6,20.4c0.9,4.8,0.8,9.8,1.5,14.6c0.5,3.4,2,6.6,2.5,9.9c0.6,4.5,0.5,9.1,0.8,13.7
		C683.3,456.2,683.7,458.8,684,461.3z"/>
	<path class="st1" d="M657.1,482.9c4.2,7.4,0.7,15.6,4.9,22.3c-1.9,0.1-2.9,0.2-3.8,0.2c0.5,0.7,1.3,1.5,1.3,2.2
		c-0.1,2.1-0.4,4.2-0.8,7c3.2,3.5,3.3,4.1,0.1,10.3c-1.2,2.3-1.1,4.1,0,6.2c0.5,0.9,0.7,2.1,0.5,3c-0.8,3.7-1.9,7.3-2.9,11
		c-0.4-1-0.8-2.2-1.2-3.5c-0.2,0-0.5,0-0.7-0.1c-0.3,1.4-0.5,2.9-0.8,4c0-10.2-0.6-20.8,0.2-31.3
		C654.7,504.2,653.4,493.9,657.1,482.9z"/>
	<path class="st1" d="M409.1,688.8c8-27,15.6-52.9,23.2-78.8c0.4,0.1,0.7,0.2,1.1,0.2c-0.4,2.6-0.7,5.3-1.3,7.9
		c-2.8,11.5-5.8,22.9-8.6,34.4c-2.1,8.7-4.1,17.4-6.1,26.1C416.4,682.9,414,686.1,409.1,688.8z"/>
	<path class="st1" d="M740.3,693.3c-4.7-5.3-6.8-11.9-5.7-19.3c0.2-1.4,1.3-3.2,2.5-3.9c0.8-0.5,2.7,0.3,3.8,1.1
		c5.9,3.9,7.5,9.9,8,16.5c0.3,3.2-1.4,3.8-3.8,4.3C743.7,692.3,742.2,692.8,740.3,693.3z"/>
	<path class="st1" d="M685.2,170.9c-0.7,6.7-1.4,13.5-2,20.2c-1.3,0.3-2.6,0.6-4.7,1.1c1.5,1.2,2.4,1.8,3,2.3c0.4,2.9-5.2,4.6-1,7.8
		c-1.2,1.7-2.5,3.4-3.9,5.3c1.1,0.5,2.1,0.9,2.9,1.2c-0.7,1.1-1.2,2.3-2.1,3.2c-0.6,0.6-1.6,0.8-2.4,1.1c-0.3-0.7-0.8-1.5-0.7-2.2
		c0.8-6.1,1.3-12.3,2.7-18.3c1.7-7.4,4.2-14.6,6.4-21.9C684.1,170.7,684.7,170.8,685.2,170.9z"/>
	<path class="st1" d="M500.4,468.3c-0.6-0.6-1.7-1.1-1.8-1.7c-0.4-4.3-0.4-8.6-1-12.9c-0.5-3.6-1.8-7-2.6-10.5
		c-1.2-5.4-2.4-10.9-3.5-16.3c0.3-0.2,0.7-0.3,1-0.5c1.6,3,3.5,5.9,4.6,9.1c1.5,4.4,2.7,8.9,3.5,13.4c0.3,1.4-0.9,3-1.5,4.9
		c1.2-0.2,2.3-0.3,4.2-0.5c-2,1.3-3.2,2.1-4.5,2.9c0,0.3,0,0.5,0.1,0.8c1.2,0.1,2.4,0.1,4.7,0.2
		C502.4,461.1,501.4,464.7,500.4,468.3L500.4,468.3z"/>
	<path class="st1" d="M628,535.9c0.8-0.4,1.9-1,3.2-1.6c1.6,4.7,1.6,9.1,0.4,13.7c-0.9,3.3-0.8,6.9-1.2,10.3
		c-0.3,3.2-0.7,6.3-1.6,9.5c-2.9-5.1-0.8-10.4-0.7-15.6C628,546.9,628,541.5,628,535.9z"/>
	<path class="st1" d="M491.8,688.7c3.6,3.5,7.2,6.9,10.5,10.1c-0.9,2.6-1.6,4.4-2.4,6.8c-2.8-2.2-5.6-4.3-8.3-6.5
		c-3.6-3.1-0.2-6.6-0.8-9.9C491.1,689,491.5,688.8,491.8,688.7z"/>
	<path class="st1" d="M679.3,217.3c-1.5,0.9-2.3,1.5-2.7,1.8c0,2.6-0.6,5,0.1,6.9c1.4,4-0.4,7.1-1.5,10.6c-0.3,1.2-0.5,2.4-0.8,4.4
		c-0.4-0.6-1.5-1.4-1.5-2.1c0.4-8,1-16,1.6-24.1c0.5-0.1,1-0.3,1.6-0.4C677,215.2,677.9,216,679.3,217.3z"/>
	<path class="st1" d="M802.2,504.9c1.7-6.5,3.5-13,5.4-20C808.8,489.7,806.3,499.2,802.2,504.9z"/>
	<path class="st1" d="M629.2,521.3c1.3,3.6,2.6,7.2,4.1,11.1c-1.9-0.4-3.2-0.6-4.1-0.8c-0.5-1.9-1.3-3.7-1.3-5.5
		C627.9,524.6,628.8,523,629.2,521.3C629.3,521.4,629.2,521.3,629.2,521.3z"/>
	<path class="st1" d="M504.1,495.2c0.2,0-0.7,0-1.6,0c-0.9-8.1-0.9-8.1,2.2-7.1C504.5,490.4,504.3,492.6,504.1,495.2z"/>
	<path class="st1" d="M500.4,468.4c1.2,0.6,2.3,1.2,3.9,2c-1.4,0.9-2.5,1.5-4,2.4c1.4,0.8,2.4,1.4,3.8,2.2c-0.8,1.3-1.6,2.4-2.4,3.5
		c-0.4-0.1-0.8-0.1-1.2-0.2C500.4,474.9,500.4,471.6,500.4,468.4C500.4,468.3,500.4,468.4,500.4,468.4z"/>
	<path class="st1" d="M761.4,126c5.5,0.5,4.9,3.9,4.5,8.2C764.1,131,762.8,128.5,761.4,126z"/>
	<path class="st1" d="M512.5,713.1c3.3,0.5,7.6-0.8,9,5C517.9,716.1,515.2,714.6,512.5,713.1z"/>
	<path class="st1" d="M502.3,498c1,1.1,2,2.2,3.4,3.7c-0.5,0.9-1.3,2.2-2.6,4.3C502.8,502.8,502.5,500.3,502.3,498z"/>
	<g>
		<path class="st1" d="M518.3,637.7c1.8,0.4,2.9-0.2,2.9-2.2c0.1-2.6,0.3-5.2,0.6-8.8c1.5,1.4,3,2.3,3.8,3.6
			c3.3,5.3,4.9,11,4.8,17.4c-0.1,4.2,0.6,8.4,0.7,12.6c0.1,5.1-1,10.4,0.1,15.2c1.3,5.7,0.5,10.8-0.9,16.6c-1.9-1.9-3.8-2.7-5.2,0.5
			c-3.9-3.6-3.8-8.1-3.8-12.5c0.1-4.5,0.9-9.1,0.6-13.6c-0.1-1.7-2.3-3.3-3.6-5.1c-0.7,0.8-1.1,1.1-1,1.2c1.9,3.6,3.4,7.2,0.9,11.3
			c-0.5,0.8,1.8,3.1,1.4,4c-2,4.5,2.5,8.5-0.1,13.6c-1.6-1.6-3.2-3.1-5.4-5.2c0,2.8,0,4.5,0,6.3c-0.4,0.1-0.7,0.2-1.1,0.3
			c-1.8-4.1-3.6-8.3-5.7-12.9c-0.8-0.3-2.3-0.8-4.1-1.5c0,1.1,0,2,0,2.9c-0.5-0.1-0.7-0.2-0.9-0.3c-7-7.7-8.9-17.9-12.6-27.1
			c-2.1-5.2-3.3-10.7-4.8-16.1c-2.6-9.2-5.3-18.4-7.7-27.7c-0.8-3.1-0.1-6.9-1.5-9.6c-2.5-5-0.1-11.1-2.5-14.9
			c-2.1-3.3-0.9-6.3-2-9.3c-2.1-5.9-1.7-12.7-2.4-19.1c-0.2-1.4-0.6-2.9-0.5-4.3c0.2-7,0.5-14.1,0.8-21.1c0.1-2.1,0.4-4.2,0.6-6.4
			c0.4-0.1,0.8-0.2,1.2-0.3c0.9,1.1,2.3,2.1,2.5,3.2c1.1,6.3,1.8,12.6,2.7,18.9c0.1,0.6,0.9,1.2,0.9,1.8c0.1,2,2.4,4.1-0.3,6
			c-0.4,0.3-0.3,1.7,0,2.2c1.7,2.8,2.3,5.4,0.2,8.3c-0.4,0.5-0.1,1.5-0.1,2.3c0.5,0.2,0.9,0.5,1.4,0.7c0.4-1.1,0.7-2.1,1.1-3.2
			c0.5,0.3,0.9,0.6,1.4,0.9c-0.8,2.8-1.5,5.6-2.3,8.4c-0.4,1.5-2.2,3.5,1.4,3.5c0.4,0,1,1.2,1.2,2c0.8,3.2,1.3,6.4,2.2,9.5
			c0.2,0.8,1.6,1.3,2.8,2.2c-2.9,0.7-5.1,1.2-7.4,1.8c0.1,0.6,0.1,1.2,0.2,1.9c2,0.3,3.9,0.6,6.6,1c-4.5,1.8,3.2,7-3.1,9
			c1.4,0.2,2.8,0.5,4.8,0.8c-2,1-3.6,1.8-6.1,3.1c4.2,1,7,1.9,5.7,6.2c-0.2,0.6,1.2,1.7,1.9,2.6c-2,4.2-2,4.2,4.2,7.8
			c-1.2,0.8-2.2,1.6-3.5,2.5c0.6,0.8,1.2,1.5,1.6,2.2c0.3,0.7,0.4,1.4,0.7,2.8c-0.5,0.3-1.5,1-2.5,1.7c0.1,0.4,0.2,0.7,0.3,1.1
			c1.5,0.1,3,0.1,4.4,0.3c1,0.2,2.1,0.6,2.7,1.3c0.3,0.3-0.5,1.6-1,2.4c-1.1,1.8-2.2,3.6-3.1,5.1c2.7,0.5,4.7,0.9,6.8,1.3
			c-0.9,4.5-2.3,8.7,1.2,11.4c0.9,2.9,1.3,5.5,2.5,7.6c1.3,2.2,2.3,3.9,0.3,4.7c1.7,1.6,3.5,3.3,5.3,5c0.9-1.4-2.1-6.1,2.7-7.8
			c-2.9-2.8-2.8-5.9-2.6-9.5c0.4-4.8-0.7-9.8-0.9-14.7c-0.1-2.6-1.7-6,4.1-6.2c-1.8-1.6-2.9-2.6-4.5-4c0.7-1.5,1.6-3.3,2.6-5.4
			c-3.6-3.8-3.5-8.8-3-14.3c0.3-3.2-1.3-6.6-1.6-9.9c-0.5-4.9-0.7-9.9-1-14.9c-0.1-1.3-0.6-2.6-0.7-3.9c-0.4-9.7-0.7-19.5-1-29.2
			c0-0.3,0.2-0.7,0.8-2.2c1.3,1.8,2.8,3,3.1,4.4c2,7.5,4.8,14.9,4.5,23c-0.1,3,0.8,6.2,2,8.9c0.9,2-2.9,4.6,1,6c-2,0.7-4,1.3-6,2
			c0,0.5-0.1,1-0.1,1.4c2.4,0.8,4.9,1.6,6.9,2.3c-0.5,2.9-1,6.4-1.6,10.2c-0.6-0.4-1.6-0.9-2.9-1.7c-0.8,1.3-1.7,2.5-3,4.6
			c3.6-0.9,6.5-2,6.7,1.8c-0.8,1-2.1,1.8-1.9,2.4c0.4,1.7,1.2,3.4,2.1,4.9c0.7,1.2,1.8,2.3,2.6,3.2c-0.5,0.9-1.2,2.2-2,3.5
			c1,0.3,2,0.6,3.3,1c-0.8,1.6-1.8,3.5-3.1,5.9c1.6,0,2.4,0,3.2,0c-1.1,0.8-2.1,1.7-3.8,3c1.8,0.5,3.4,0.9,5,1.3
			c1.1,4.3-2.4,1.4-3.4,2c-1.1,3.1,0.3,4.1,3.2,4.4c-1.4,0.7-2.8,1.5-4.4,2.3c0.7,1.4,1,3.1,2.1,4.1c0.9,0.9,2.5,1,3.8,1.5
			c0.2-1.1,0.6-2.3,0.5-3.4c0-2.9-1-6-0.2-8.5C522.5,640.7,521.1,639.1,518.3,637.7z"/>
		<path class="st1" d="M358.2,610.8c-1.1,0.1-2.1,0.2-3.2,0.3c-0.2,0.3-0.4,0.6-0.6,0.9c2.6,1.9,5.2,3.8,7.7,5.7
			c-0.5,0.9-1,1.9-1.6,2.9c1.8,0.3,3.5,0.7,5.4,1c-0.9,0.4-1.8,0.8-3.3,1.5c1.6,0.8,2.6,1.3,3.6,1.8c-0.9,0.9-1.7,1.6-2.4,2.3
			c2.9,1.8,5.3,3.3,7,4.4c0.6,3.5,1.2,6.8,1.8,10.4c0,0-0.7,1-1.4,1.9c-2.2,2.4-1.4,4.4,1.3,5.1c3.9,1.1,4.2,3.3,2.6,6.4
			c2.8,0.7,3.2,0.2,4-3.4c0.4-2,0.9-4,1.3-6c0.4,0.1,0.9,0.1,1.3,0.2c-0.7,4.3-0.7,8.8-2.4,12.7c-1.7,3.8,0.9,8.8-4.1,12
			c0.5-3.4,0.9-6.5,1.4-9.5c-0.5-0.1-1-0.2-1.5-0.3c-0.8,1.8-1.2,4.4-2.7,5.2c-1.3,0.7-3.7-0.5-6.5-1c-0.8-5.6-1.5-12-2.7-18.2
			c-1.6-8.9-4.1-17.5-7.8-25.9c-3.6-8.2-9.6-14.6-13.9-22.2c-1.4-2.5-4.6-3.9-7.1-5.8c-3.8,3.4-0.7,6.4,0.1,8.9
			c1.7,5.3,4.6,10.2,6.5,15.4c0.8,2,0.3,4.5,0.5,6.8c0.1,0.7,0.6,1.4,0.8,2.1c0.6-0.3,1.4-0.5,1.8-1c2.1-2.7,3.4-1.6,5.2,0.6
			c4.1,5.2,3.9,10.6,1.9,16.4c-0.4,1,0.2,2.4,0.4,3.6c0.3,1.3,0.7,2.5,1.1,3.7c-0.3,0.4-0.6,0.7-0.9,1.1c-1.2-0.7-2.7-1-3.6-2
			c-4-4.8-8.9-8-14.9-9.5c-0.6-0.1-1.3-0.3-1.7-0.6c-0.9-0.6-2.4-1.5-2.3-2.1c0.2-1,1.3-1.9,2.2-3c-1.2-3.9-2.4-8.2-3.6-12.5
			c-0.2-0.7-0.2-1.8,0.2-2.2c2.5-2.4,1-4.8,0.6-7.4c-0.9-6-1.2-12-1.9-18c-0.2-1.3-1.1-2.5-1.9-4c0.3-1,4.4-2,0.2-3.9
			c1.2-4.3-2.7-7.1-3.4-10.8c-0.6-3.1-1.5-6.2-2.5-10.5c2,1.2,3.5,1.6,4.4,2.7c2.8,3.4,4.6,7.2,3.9,11.7c-0.4,2.7,3.3,10.2,5.9,11
			c10.4,3.3,17.2,10.9,23.5,19.3c0.4,0.5,1.3,0.7,2,1C358.6,610.2,358.4,610.5,358.2,610.8z"/>
		<path class="st1" d="M391.1,66.2c-3.6-3.5-7.2-7.1-10.9-10.7c-0.3,0.3-0.7,0.6-1,0.9c2.7,6.3,5.4,12.5,7.9,18.8
			c0.4,1,0.2,2.2,0.3,3.3c0.2,1.2,0,2.7,0.7,3.5c3.5,3.9,0.5,7.6,0,11.4c0,0.2-0.6,0.3-0.4,0.3c-1.9-6.1-3.8-12.3-5.9-18.4
			c-1.5-4.5-3-9.1-5-13.5c-1.4-3.1-3-6.5-5.5-8.8c-1.4-1.4-5-1.8-6.9-1c-4.6,1.8-9.2,4-13.1,7c-4.1,3.1-7.6,7-10.9,10.9
			c-2,2.3-3.6,5.1-4.9,7.9c-2.6,5.9-5,12-7,18.1c-0.9,2.8-0.6,6-0.9,9.1c0,0.5,0.2,1.2,0,1.4c-3.9,4.2-1.8,9-1.5,13.7
			c0.3,5.7,0.1,11.4-0.4,17.1c-0.4-2.4-0.8-4.8-1.1-7.3c-1.8-16.4-2.8-32.9,2.4-49c1.7-5.4,5-10.5,6-16.1c0.9-5.1,2.9-9.2,6.1-12.7
			c2.9-3.2,6.2-6.3,9.7-8.8c6.4-4.6,17.3-1.3,23.4,4.3c1.3,1.2,3,2.2,4.6,2.8c6.7,2.4,11.4,6.9,14,13.5c0.2,0.6,0.3,1.2,0.4,1.8
			C391.3,65.9,391.1,66.3,391.1,66.2z M367.1,48.5c-2.5-3.9-7.1-6.1-11-5.2c-5.6,1.3-10.2,4.3-13.6,8.7c-7.8,10-10,22.5-14.3,34
			c1.7-2.4,3.1-4.9,4.1-7.5c3-8.3,7.5-15.7,14.3-21.4c5.2-4.4,11-7.8,18.3-7.6C365.6,49.6,366.4,48.9,367.1,48.5z"/>
		<path class="st1" d="M461.9,213.3c-0.2-3.9-0.2-7.8-0.5-11.6c-0.2-2.3-1.6-5.1-0.7-6.6c1.6-2.6-0.5-4.3-0.4-6.4
			c0.4-6.9,0.6-13.9,0.7-20.8c0.1-2.7-0.3-5.5-0.4-8.2c-0.3-8.1-0.6-16.1-0.8-24.2c-0.2-9-0.3-17.9-0.3-26.9c0-1.8,0.5-3.6,0.9-5.7
			c0.8-0.1,1.7-0.2,2.8-0.4c0.3,2.1,0.5,3.9,0.8,5.8c0.4,0,0.9,0,1.3,0c2.2-16.5,1.3-33.3,2.1-49.9c0.9-16.8,1.3-33.6,1.9-50.7
			c0.7,3.3,1.7,6.5,2.1,9.7c0.5,3.9,0.6,7.8,0.6,11.7c-0.1,7.2-0.3,14.5-0.5,21.7c-0.1,4.9-0.2,9.8-0.4,14.8
			c-0.2,6.1-0.4,12.2-0.6,18.2c-0.3,7.3-0.6,14.5-1.1,21.8c-0.4,7.2-0.9,14.4-1.5,21.5c-0.1,1.1-0.8,2.2-1.9,3.3
			c-3-6.5-0.6-13.3-1.8-20.4c-0.5,0.9-1.1,1.8-1.3,2.8c-0.6,2.3-0.9,4.6-1.3,6.9c-0.2,1.1-0.9,2.8-0.5,3.2c1.6,1.5,1.4,2.9,0.4,4.4
			c-2.1,3.2,1.4,6.2,0.3,9.7c-1,3.1-0.2,6.7-0.1,10.1c0.1,1.2,0.6,2.4,1,4.3c2.9-6.7-1.2-14.1,4-19.8c1.6,1.1,3.5,1.6,1.2,3.8
			c-0.7,0.7-1.1,2.9-0.6,3.4c2.3,2.4,0.6,4.5,0.3,6.9c-0.7,5.4-2.7,10.7-1.8,16.2c0.1,0.4,0,0.8-0.1,1.1c-2,6.2-2.5,15.1-1.8,22.1
			c0.3,2.7-0.6,5.6-0.7,8.4c-0.1,3.7,0,7.4,0,11.1c0,2.8-0.1,5.6-0.2,8.4C463.1,213.1,462.3,213.2,461.9,213.3L461.9,213.3z"/>
		<path class="st1" d="M302.5,461.9c0.1,1.8,0.3,3.6,0.4,5.4c0.2,1.6,0.5,3.2,0.5,4.8c0.1,8.3,1,16.5,3.1,24.7
			c1.6,6.2,2.6,12.7,2.9,19.2c0.2,3.9,1.6,7.5,1.6,11.4c0,2-0.5,4-0.7,6.3c2.4,2.3,4,22.8,1.7,26.1c3.1,2.5,1.8,9.3-1.5,12.6
			c1.1,0.4,2,0.8,3.1,1.2c0,1,0.3,2.2,0,3.2c-2.5,7.1-1.1,14.4-1,21.7c0,1.3-0.4,2.6-0.5,3.9c0,2,0.1,4.1,0.1,6.1
			c0,4,0.3,8.2-0.4,12.1c-0.7,4.1,0.1,9.1-5.2,11.3c-0.4-0.4-0.9-0.6-0.9-0.8c0.4-3.8,0.9-7.6,1.3-11.5c0.1-0.5,0.4-1.2,0.2-1.6
			c-2-3-0.8-6.2-0.5-9.3c0.2-3,0.4-5.9,0.5-8.9c0.1-2.7,0-5.4,0-8c1.6,0.1,2.7,0.2,3.7,0.2c-3.5-1-3.4-3.4-3.4-6.1
			c-0.1-8.2-0.3-16.3-0.5-24.5c-0.1-2.9-0.5-5.7-0.7-7.9c0.8-0.7,1.7-1.1,1.7-1.6c0-4.3-0.6-8.6-0.3-12.8c0.5-6.7-1-13.1-1.3-19.7
			c-0.3-6.8-0.9-13.7-1.6-20.5c-1-9.8-2.3-19.5-3.3-29.3c-0.3-2.4,0-4.9,0-7.3C301.8,462,302.1,461.9,302.5,461.9z"/>
		<path class="st1" d="M506.8,186.3c-5.6-26-8.8-52.4-9.4-79.1c0,8.3,0,16.6,0,24.9c0,1.4-0.4,2.8-0.6,4.1c-0.1,0.3-0.4,0.7-0.4,1
			c3.1,11.6,0.6,23.7,2.5,35.4c1.1,6.8,1.9,13.7,2.4,20.6c0.4,5.7,0.1,11.4,0.1,17.2c-0.3,0-0.6,0.1-1,0.1c-0.2-0.4-0.5-0.7-0.5-1.1
			c-6.2-40.6-10.1-81.3-2.8-122.4c0.4,3.6,0.8,7.3,1.2,10.9c1,9.6,2,19.2,2.9,28.9c0.6,6.3,1.1,12.6,1.6,19c0,0.2,0,0.5,0,0.7
			c1.3,7.6,2.9,15.1,3.7,22.8C507.3,174.8,506.8,180.6,506.8,186.3z"/>
		<path class="st1" d="M391.8,635.4c-1-8.7-2-17.4-2.9-26c0.2-0.3,0.5-0.5,0.7-0.8c1.4,1,3.3,1.6,4,2.9c2.5,4.8,4.7,9.8,6.8,14.8
			c0.3,0.8-0.3,2.1-0.8,3c-0.9,1.6-2,3-3.2,4.7C395.2,634.4,393.4,634.9,391.8,635.4z"/>
		<path class="st1" d="M477.9,641.2c0.5,3.6,3.1,6.7,1.5,10.8c-0.3,0.6,0.6,1.6,0.7,2.4c0.4,2.6,0.6,5.3,1,8
			c0.6,4.1,1.4,8.3,1.9,12.4c0.2,1.4-0.1,2.9-0.2,4.2c-1.9-0.4-3.7-0.8-5.8-1.3c0-11.7,0-24,0-36.3
			C477.3,641.3,477.6,641.2,477.9,641.2z"/>
		<path class="st1" d="M465.4,24.7c-0.5,11.2-1,22.5-1.4,33.7c-0.1,3.8,0,7.6-0.3,11.3c-0.1,1.3-1.2,2.5-1.9,3.7
			c-0.3-0.2-0.7-0.3-1-0.5c1.1-16.1,2.1-32.2,3.2-48.4C464.5,24.7,464.9,24.7,465.4,24.7z"/>
		<path class="st1" d="M345.8,516.2c0.5-4,1.1-8,1.6-12.1c0-0.4,0.3-1,0.2-1c-3.2-2-1.4-5.5-2.3-8.2c-0.6-2,0-4.3-0.3-6.4
			c-0.3-2.7-1-5.4-1.6-8.2c2.8-0.1,3.5,1.2,3.2,3.9c-0.2,1.8,0.3,3.7,0.5,5.6c0.1,0.5,0.7,1,0.5,1.3c-2.5,4.4,1.2,8.3,1.2,12.4
			c-0.1,4.3-0.8,8.7-1.2,13C347,516.4,346.4,516.3,345.8,516.2z"/>
		<path class="st1" d="M380.4,662.8c6-0.1,9,4.8,7.2,10.5c-1.7,0.6-3.1,1.1-5,1.8C381.9,671.2,381.1,667.1,380.4,662.8z"/>
		<path class="st1" d="M463.2,77.1c-0.2,4.2-0.3,7.3-0.6,10.4c-0.1,0.8-0.8,1.6-1.1,2.4c-0.2,0.6-0.5,1.3-0.4,1.9
			c0.6,2.2,1.5,4.2,2,6.4c0.2,0.6-0.5,1.5-0.7,2.2c-0.7-0.5-1.8-0.9-1.9-1.6c-0.8-3.7-1.4-7.2,0-11.2c1-2.7-0.3-6.2-0.4-9.4
			c0-1,0.8-2,1.2-3C462.2,76.1,463,76.9,463.2,77.1z"/>
		<path class="st1" d="M412.4,503.3c0.4-3.6,0.8-6.4,1.1-9.2C416.9,494.7,416.9,496.3,412.4,503.3z"/>
		<path class="st1" d="M414.4,473.9c1.2,2.5,2,3.9,2.5,5.3c0.2,0.7-0.2,1.7-0.5,2.4c-0.1,0.2-1.2,0.2-1.3,0
			c-0.4-0.6-0.6-1.3-0.6-1.9C414.4,478.1,414.4,476.5,414.4,473.9z"/>
		<g>
			<path class="st1" d="M275.3,514.7c-1.3,0.3-2.7,0.6-4,0.9c-0.1,0.3-0.3,0.7-0.4,1c1.7,0.7,3.4,1.3,5,2c0.3,1.9,0.6,4.2,1,6.5
				c0.4,3.3,0.8,6.6,1.3,9.9c0.2,1.6,0.8,3.1,1,4.6c0.1,0.5-0.5,1.1-0.5,1.7c-0.1,4.2,0,8.4,0.3,12.4c-0.6,2.7-1.2,5.3-1.9,8.1
				c-0.6-0.3-1.3-0.6-2.5-1.2c0.1,0.9-0.1,1.8,0.3,2.1c2.9,3,2.4,5.3-1.4,7.1c-1.2,0.6-2.2,1.8-4,3.3c2.7,0.6,4.1,0.9,6.1,1.2
				c-2.1,1.4-3.6,2.4-5,3.3c-3-1,1.1-6.7-4.5-5.9c-0.3,1.2-0.7,2.4-1,3.6c-0.4-0.1-0.8-0.2-1.2-0.3c0.8-6.1,1.6-12.1,2.4-18.6
				c0.3-0.1,1.2-0.2,2-0.4c0.1-0.3,0.2-0.5,0.3-0.8c-0.9-0.5-1.9-1-2.6-1.3c3.1-23.7-0.8-46.9-5.6-70c2.4,0.2,4.6,0.4,7,0.6
				c-1,1.4-2,2.7-3.4,4.7c2.3,0.4,3.7,0.6,5.7,1c0.3,2.4,0.4,5.1,0.9,7.7c0.2,1.1,1.3,2,1.6,3c0.5,2.5,0.6,5.1,1.1,7.5
				C273.6,510.6,274.5,512.3,275.3,514.7z"/>
			<path class="st1" d="M264.7,477.8c0.1,1.1,0.3,2.5,0.5,4.2c-1.9,0.1-3.5,0.2-4.7,0.2c-3.8-9.9-7.6-19.7-11.6-30.3
				c7.3,6,7.8,15.2,13,20.2c-0.6,2.4-1,3.9-1.4,5.4C261.6,477.6,262.8,477.7,264.7,477.8z"/>
			<g>
				<path class="st1" d="M132.1,317.4c0.3,4,0.8,8.1,1,12.1c0.3,5.3,0.1,10.6,0.7,15.9c0.7,6.8,2.1,13.5,3.1,20.3
					c0.2,1.4,0.4,2.9,0.1,4.3c-1.3,6.3,0.6,12.2,2.1,18.2c1,4,2.2,8,2.8,12.1c0.4,2.7-0.3,5.5-0.3,8.3c0,2.5,0.4,5,0.5,7.5
					c0,0.5-0.2,1.1-0.8,1.6c-7.1-39.8-14.7-79.5-8.8-120.1c3.3,1.5,3.8,4.9,4.2,8.1c0.9,8.3,1.7,16.5,2.5,24.8
					c0.1,1.4-0.3,2.9-0.4,3.8c1.7,5.2,3.4,10,4.8,14.9c0.4,1.3-0.5,2.8-0.3,4.2c0.9,5.9,2.1,11.7,2.9,17.6c0.2,1.5-1.1,3.1-0.9,4.6
					c0.6,3.7,1.5,7.3,2.6,10.9c1.2,4,1.8,7.8,1,12c-0.4,2,0.1,4.3,0.6,6.4c3,12.8,3.7,26,4.4,39.1c0.3,5,0.9,9.9,1.2,14.8
					c0.2,2.9,1.1,5.3,1.4,8c0.2,2.3-0.5,4.6-0.8,6.9c-0.5,0-0.9,0-1.4,0c-0.8-4.3-1.6-8.6-2.3-12.9c-0.5-3-1.1-6-1.3-9.1
					c-0.4-5.2-0.4-10.5-1-15.8c-0.7-5.6-2.1-11.2-2.8-16.8c-1.4-11.1-2.6-22.2-3.7-33.3c-0.5-5.4,0.4-11.3-1.3-16.3
					c-2.4-7.2-2.6-14.6-4.2-21.9c-1.9-9.1-2.9-18.3-4.3-27.5c-0.1-0.9-0.5-1.8-0.8-2.7C132.7,317.3,132.4,317.3,132.1,317.4z"/>
				<path class="st1" d="M68.3,423.2c-0.1,0-0.3,0-0.4-0.1c-3.3-5.2-9.6-6.4-13.9-10.3c-0.7-0.6-0.9-1.7-1.5-2.4
					c-0.9-1.1-2.2-3.1-3-2.9c-2.9,0.6-4-1-5.3-3c-0.8-1.2-2-2-3.1-3c0.2-0.3,0.4-0.6,0.6-1c2.4,1.1,4.8,2.2,7.1,3.4
					c9.9,5,20.1,9.5,29.7,15.1c3.2,1.9,6.8,3.5,9.9,6.4c3.4,3.2,6.6,7.7,12.2,8.5c1.7,0.2,4,2.5,4.4,4.2c0.7,3.3,2.8,4,5.9,4.2
					c-1.4,2.6-0.5,3.4,2,4.2c3.7,1.1,3.8,1.7,8,6.8c0.3,0.3,1.3,0.1,1.6,0.5c1,1.2,1.8,2.5,2.1,4.2c4.1,1.5,6.7,4.2,6.5,9
					c0,0.5,1,1.6,1.4,1.6c2.9-0.2,2.8,1.6,3,3.6c0.1,1.2,1.2,2.3,2.1,3.8c-1.2,1-1.5,2.5,2.4,3.1c-1.5,0.9-2.2,1.3-3.4,2
					c1.3,0.9,2.4,1.7,3.6,2.5c0,1.2,0,2.5,0,3.8c-0.4-0.1-0.8,0-0.8-0.2c-2.6-5-6.7-8.8-9.5-13.7c-2.1-3.9-4.1-8.5-8.7-10.9
					c-1.1-0.6-1.3-2.9-2-4.5c-0.4-1-1.3-2.7-1.4-2.7c-3.3,1.3-4.4-1.9-6-3.2c-6.2-5.2-11.8-11-18-16c-6.8-5.5-13.9-10.5-21-15.5
					c-1.3-0.9-3.1-1.2-5.5-2.1C67.7,420.3,67.9,421.8,68.3,423.2L68.3,423.2z"/>
				<path class="st1" d="M178.1,358.7c5.1,5.4,4,10.8,1.1,15.4c1.8,4.9,3,9.3,1.2,14.6c-0.9,2.8,0.8,6.3,0.8,9.5
					c0,4.2,1.3,8.6-1.9,12.5c-1.2,1.5-0.8,4.3-0.9,6.5c-0.1,3.1,1.1,7-0.4,9c-2.3,3.3-0.9,7.7-2.8,9.6c-2.6,2.6-1.4,5.8-3.8,8.7
					c0-3-0.1-5.4,0-7.8c0.5-7.6,1.2-15.3,1.6-22.9c0.6-11.7,1.1-23.4,1.5-35.2c0.2-6.1,0.2-12.1,0.6-18.2c0.1-1.3,1.3-2.5,2-3.7
					C177.5,357.5,177.8,358.1,178.1,358.7z"/>
				<path class="st1" d="M178.1,358.7c-0.3-0.6-0.6-1.2-0.9-1.8c-0.7-3.9-1.8-7.7-1.9-11.6c-0.8-17.8-0.9-35.6-2.2-53.3
					c-1-14.3-3.4-28.5-5.1-42.7c-0.1-0.9-0.2-1.9-0.2-2.8c0.3-0.1,0.7-0.1,1-0.2c1.3,5.8,2.9,11.6,3.8,17.6
					c0.8,5.6,3.6,11.1,1.6,17.4c0.9,3.1,2.2,6.8,2.9,10.5c0.3,1.8-0.6,3.8-0.9,5.7c-0.1,0.7,0,1.6,0.3,2.3c0.9,2.4,1.9,4.9,2.9,7.5
					c-4.4,1.6-1.6,4.6-0.9,6.3c1.5,3.4,2.4,6.4,0.1,9.7c-0.3,0.5-0.1,1.7,0.3,2.3c1.7,2.9,1.8,5.9,1.9,9.3c0.1,3.2-3.2,6.8,0.4,10.2
					c1.1,1.1,0,4.3,0,6.5c0,1.6,0,3.2,0,4.8C180.9,358.3,180.5,359.9,178.1,358.7z"/>
				<path class="st1" d="M105.6,526.1c-1.2,1-2.3,1.9-3.7,3.1c2.1,1.2,3.7,2.2,5.4,3.2c-0.7,1.4-1.4,2.7-2.2,4.3
					c6,4.8-0.5,9.3-0.5,14c-1.9-1.4-4.8-7.1-3.6-8.7c3-4.1-0.6-6.6-1.9-9.4c-1.6-3.4-3-6.5-1.7-9.7c-1.2-1.5-2.3-2.9-3.3-4.3
					c-2.1-2.9-4-5.9-6.3-8.7c-3.2-3.9-6.6-7.7-10.5-12.2c2.9,1.5,5.8,2.4,7.8,4.2c4,3.6,9.2,6.1,10.8,11.9c0.2,0.6,1.9,0.6,2.4,1.2
					c1.7,2.3,3.2,4.7,4.7,7.1C104,523.4,104.8,524.6,105.6,526.1z"/>
				<g>
					<path class="st1" d="M419.9,377.4c0.4-4.6,0.9-8.7,1-12.9c0.3-9.7,0.7-19.4,0.6-29c-0.1-11.7-0.6-23.4-1.2-35.1
						c-0.7-14-1.7-28-2.4-42.1c-0.6-11.7-0.5-23.4-1.3-35.1c-1-14.5-2.4-29-3.8-43.5c-0.9-9.4-2.1-18.9-3.1-28.3
						c-0.3-2.4-0.7-4.8-1.1-7.2c0.4-0.1,0.8-0.1,1.2-0.2c0.7,4.2,1.6,8.5,2.2,12.7c1.1,8.7,2.1,17.5,3.1,26.2
						c1,8.6,2.1,17.2,2.8,25.9c1,11.2,1.7,22.5,2.5,33.7c0.7,9.6,1.4,19.2,2.1,28.9c0.4,5.6,0.4,11.2,0.8,16.8
						c0.3,5.5,1.2,10.9,1.1,16.4c-0.1,8.8-0.7,17.7-1,26.5c-0.2,6.2-0.1,12.4-0.3,18.6c-0.4,9.5-1,19-1.4,28.6
						c-0.4,10.9-0.7,21.9-0.8,32.8c-0.1,12.6,0.3,25.2,0.1,37.8c-0.1,6.4-1,12.8-1.9,19.2c-0.2,1.2-1.9,2.3-2.9,3.4
						c-0.4-0.3-0.8-0.5-1.2-0.8c0.3-5.4,0.6-10.8,0.8-16.2c0.2-4.4,0.5-8.7,0.6-13.1c0.1-12.2,0.2-24.4,0.2-36.6
						c0-14.9,0.1-29.8-0.3-44.6c-0.4-14.4-1.6-28.7-2.2-43.1c-0.8-16.9-1.3-33.9-2.1-50.8c-0.5-10.4-1.4-20.8-2-31.2
						c-0.4-6.2-0.4-12.4-1-18.5c-1-10.9-2.2-21.9-3.5-32.8c-1.2-9.5-2.5-19.1-4.1-28.5c-0.8-4.5-2.4-8.9-3.5-13.3
						c-0.2-0.7-0.1-1.4,0.2-2.1c6,10.3,8.9,21.5,10.3,33.1c0.9,7.1,2.1,14.1,3,21.2c0.5,3.6,0.4,7.3,0.7,11
						c0.7,7.4,1.7,14.7,2.2,22.1c0.5,7.7,0.6,15.4,0.9,23.1c0.6,10.9,1.2,21.9,1.9,32.8c0.3,5.2,0.9,10.3,0.9,15.5
						c0,9.4-0.4,18.7-0.3,28.1c0,4.7,0.9,9.4,1,14.1c0.2,11.9,0.2,23.8,0.3,35.8C419,376.6,419.3,376.8,419.9,377.4z"/>
					<path class="st1" d="M235.8,268.5c-2.1-6.2-0.7-12.2,0.9-18c2.5-9,6.2-17.7,11.5-25.4c5.8-8.4,11-12.5,22.5-8.2
						c7.7,2.9,12.8,8,16.5,15c2.8,5.2,6.1,10.3,8.4,15.7c1.7,4.1,2.2,8.8,3.2,13.3c-0.4,0.1-0.7,0.2-1.1,0.2
						c-2.2-5.5-3.9-11.3-6.6-16.6c-4.1-7.9-7.9-16.2-15.5-21.6c-4.8-3.4-10.2-4.9-15.8-3.8c-2.6,0.5-5.1,3.3-6.9,5.6
						c-9.5,12.2-15.5,25.9-16.4,41.6C236.3,267,236,267.8,235.8,268.5z"/>
					<g>
						<path class="st1" d="M378.5,232.3c-0.4,4.4-0.6,8.9-1.2,13.3c-0.6,4.3-1.7,8.5-2.6,12.7c-0.9,4.6-1.8,9.1-2.6,13.7
							c-1.5,9.6-3,19.1-4.3,28.8c-1,7.6-1.6,15.3-2.2,23c-0.6,7.1-1.2,14.3-1.7,21.4c-0.2,2.8,0,5.7,0,8.5c0.4,0.1,0.7,0.1,1.1,0.2
							c1.1-5,2.3-10,3.4-15c0.6-2.9,1-5.9,1.7-8.8c0.3-1.1,1.4-1.9,2-2.8c0-2.3-0.4-4.8,0.1-7.2c2-10.7,4.4-21.4,6.2-32.2
							c2.2-13.7,4.1-27.5,5.8-41.3c1.7-13.8,2.9-27.7,4.3-41.6c0.6-5.6,1-11.2,1.6-16.7c0-0.4,0.2-0.9,0.3-1.3
							c0,6.5,0.2,12.9-0.1,19.3c-0.4,8.1-1.1,16.1-1.8,24.2c-1,10.7-2,21.5-3.1,32.2c-0.4,4-0.5,8.2-1.9,11.9
							c-2.7,7.2-0.7,14.7-2.7,22c-2.9,10.6-4.5,21.6-6.4,32.4c-0.9,5.3-1.1,10.8-2,16.2c-1,5.9-2.6,11.8-3.7,17.7
							c-1,5.5-2,11.1-2.4,16.7c-0.7,8.8-1.3,17.7-1.1,26.6c0.1,5.2,2,10.3,3,15.5c0.9,4.4,1.7,8.9,2.6,13.3c0.5,2.3,1,4.6,1.5,6.8
							c1,4.4,2.2,8.7,3,13.1c0.4,2.2,0.1,4.5,0.3,6.7c0.2,1.5,0.8,2.9,1.3,4.5c-0.7,0.8-1.7,1.9-3,3.5c2,0.3,3.2,0.5,4.8,0.8
							c1.1,6.2,2.2,12.4,3.3,18.9c-0.4,0.6-3.2,0.5-0.4,2.8c1.9,1.5,2.3,5.3,2.6,8.1c0.6,5.6,0.6,11.3,0.8,16.9
							c0,0.4-0.4,0.9-0.7,1.2c-2,1.6-2.2,2.6,0.7,3.4c0.7,0.2,1.4,1.8,1.5,2.8c0.4,5.1,0.6,10.3,0.7,15.4c0,1.1-1,2.2-1.3,2.8
							c1.7,4.6,4.7,8.6,1.3,13.3c-0.3,0.4-0.1,1.2,0,1.8c0.7,3.8,0.5,7.4-0.5,11.2c-0.4,1.4,0.6,3.1,1,4.8c-1.5-0.9-2.7-1.6-3.8-2.2
							c-0.1,0-0.9,1.2-0.9,1.3c1.2,1.3,2.4,2.4,3.5,3.5c0,2.4,0,4.9,0,7.4c0,3.7-0.1,7.5-0.2,11.2c-0.1,3.6-0.9,7.4-0.2,10.8
							c0.7,3.8,0.6,6.7-3,8.8c-0.7,0.4-1.2,1.3-2.4,2.6c5.3-0.8,5,2.6,5.5,5.3c0.4,2.5,0.9,4.9,0.9,7.4c0,3.4-0.5,6.9-0.8,10.4
							c-1.7,0.1-3,0.2-4.4,0.2c-2.9,0-5.2-0.9-5.7-4.1c-0.8-5-1.3-10-2.3-14.9c-1.4-6.8-3.2-13.6-4.8-20.3c-0.3-1.2-0.5-2.5-0.4-3.9
							c6.5,3.3,11,7.8,10.8,15.7c0.3,0.1,0.7,0.2,1,0.2c0.7-1.4,1.9-2.7,2.1-4.1c0.5-4,2.5-7.8,0.4-12.1c-0.8-1.7,0.3-4.3,0.1-6.5
							c-0.5-6.6-1.2-13.1-1.8-19.7c-0.4-4.2-0.3-8.5-1-12.7c-1.3-7.4-3.2-14.7-4.5-22.1c-2.1-11.5-3.9-23-5.9-34.6
							c-0.9-5.4-2.5-10.8-2.5-16.2c-0.1-6.2-2.9-11.7-3-17.9c-0.1-4.9-0.9-9.8-1.4-14.7c-0.4-4.1-1-8.3-1.3-12.4
							c-0.6-6.9-1.1-13.7-1.6-20.6c-0.5-7.4-0.3-14.9-1.3-22.2c-0.9-6.5-3.1-12.7-4.8-19.1c0-0.1-0.2-0.2-0.2-0.3
							c-2.4-10.7-4.7-21.3-7.2-32c-1.8-7.7-4.1-15.3-5.8-22.9c-1.7-7.3-3-14.6-4.4-22c-1.1-5.8-1.9-11.5-2.3-17.6
							c0.8,1.9,1.8,3.8,2.2,5.8c1.2,6,1.9,12.1,3.2,18.1c0.9,4.1,2.3,8,3.4,12.1c1.1,4.3,2,8.6,3.1,12.9c0.8,3.3,1.8,6.6,2.6,9.8
							c0.8,3.3,1.5,6.5,2.2,9.8c1.3,6.6,3.1,12.9,5.6,19.2c1.4,3.4,1,7.4,1.5,11.2c0.1,0.8,0.6,1.6,1.8,2.3c0-3.9-0.2-7.7,0.1-11.6
							c0.4-5.7,1.3-11.4,1.8-17.1c0.2-3.1-0.6-6.2-0.2-9.3c1.4-12.1,3.1-24.1,4.6-36.2c0.6-5.3,0.4-10.8,1.2-16
							c1.6-10.8,3.7-21.6,5.6-32.4c0.3-2,0.5-4,0.8-5.9c1.5-7.8,3-15.6,4.6-23.4C377.7,232.6,378.2,232.5,378.5,232.3L378.5,232.3z
							 M384.1,530.4c-0.9-1.6-1.8-2.5-1.9-3.6c-0.8-5.8-1.2-11.6-2-17.4c-1.2-8.8-2.5-17.6-3.6-26.5c-0.2-1.6,0.5-3.3,0.8-5.8
							c-0.6-0.9-2.4-2.5-2.8-4.5c-1.6-7.6-2.6-15.4-4.1-23c-0.6-3-1.8-5.8-2.7-8.7c-0.3,0.1-0.7,0.2-1,0.3c0.7,4.8,2.2,9.6,1.9,14.4
							c-0.6,7.7,2.3,14.7,2.6,22.2c0.2,5.4,2.1,10.7,2.9,16.1c1.1,7.8,1.9,15.6,2.9,23.4c0.6,4.8,1.8,9.6,1.6,14.3
							c-0.2,5.1,2,9.7,1.7,14.7c-0.1,2.4,0.5,4.8,0.9,7.2c0.2,0.9,0.8,1.7,1.2,2.6c0.6-5.8,0.9-11.4,0.5-16.9
							C382.6,535.9,381.3,532.7,384.1,530.4z"/>
						<path class="st1" d="M345.2,465.9c-2.2,0.9-3,1.4-1.3,3.7c1.5,2,1.6,5,2,7.6c0.1,0.5-1.4,1.2-3,2.5c-0.7-6.9-1.3-12.9-2-18.9
							c-0.7-6.6-2.1-13.2-2.2-19.8c-0.1-6.7-1.7-13.1-2.3-19.6c-0.6-6.4-2.2-12.7-3.2-19.1c-1.6-9.8-3.1-19.7-4.5-29.5
							c-1-7-1.7-14-2.8-20.9c-0.7-4.2-1.8-8.4-2.9-12.6c-2.2-8.6-4.4-17.3-6.8-25.9c-0.9-3.4-2.4-6.6-3.7-9.9
							c0.4-0.1,0.7-0.3,1.1-0.4c2.3,6.1,4.7,12.2,6.7,18.4c2.3,6.9,4.4,13.9,6.2,21c1.2,4.9,2,9.9,2.7,14.8
							c2,12.7,3.7,25.4,5.8,38.1c1.7,10.1,4.1,20.1,5.8,30.2c0.6,3.3-0.1,6.8,0,10.2c0.1,2.3,0.9,4.7,1.1,7
							c0.8,6.7,1.4,13.5,2.2,20.3C344.5,464,344.9,464.8,345.2,465.9z"/>
						<path class="st1" d="M303.4,359.2c0.2,1.9,0.5,3.8,0.6,5.7c0.2,5.6,0.5,11.2,0.2,16.7c-0.2,3.5-1.7,6.9-2,10.4
							c-0.3,2.7,0.4,5.5,0.7,9.1c-1.6,2.9-2.2,7-1,11.4c0.2,0.7,0.7,1.6,0.5,2.1c-1.9,4.4,0.3,8.5,0.4,12.8c0.1,4.5-0.7,9-1,13.5
							c-0.1,1.3,0.6,2.6,0.6,3.9c0,3.2-0.3,6.4-0.2,9.6c0.1,1.8,0.8,3.5,1.6,6.7c-1.5-1.1-2.9-1.7-3-2.4c-0.5-9.1-0.7-18.3-1.1-27.4
							c-0.2-5.2-0.8-10.4-0.7-15.6c0.1-8.4,0.5-16.9,1-25.3c0.3-5.5,0.9-11,1.4-16.5c0.4-4.9,0.8-9.8,1.1-14.6
							C302.8,359.3,303.1,359.3,303.4,359.2z"/>
					</g>
					<path class="st1" d="M211.8,326.9c-5,5.4,2,10,1.3,15.7c-1.1-0.3-2.3-0.7-3.4-1.1c-0.8,1-1.7,1.9-3.2,3.7
						c0.5-16.6,0.9-32.2,1.4-47.7c0.3-0.2,0.5-0.4,0.8-0.7c0.9,1.2,2.2,2.2,2.5,3.5c0.8,3.4,1.1,6.9,1.5,10.4c0,0.4-0.9,0.8-1,1.3
						c-0.2,0.8-0.4,2.4-0.2,2.4c3.4,1,2,3.4,1.7,5.5c-0.2,1.5,0,3.1-0.7,5c-0.6-1.4-1.1-2.9-1.7-4.3c-0.1,0-0.3,0.1-0.4,0.1
						C210.7,322.8,211.2,324.8,211.8,326.9z"/>
					<path class="st1" d="M206.7,361.8c0.1,1,0.3,2.1,0.4,3.3c1.2-1.2,2.2-2.2,3.2-3.2c0.3,0.3,0.7,0.5,1,0.8
						c-1.6,2.7-3,5.5,0.1,8.5c-2.7,0.3-5,0.5-7.6,0.8c0.6-3.4,1.1-6.9,1.7-10.3C205.9,361.7,206.3,361.7,206.7,361.8z"/>
					<path class="st1" d="M210,359.1c-1.5-0.2-2.9-0.4-4.5-0.6c0.2-1.5,0.3-3,0.4-4.5c0.1-1.5,0-3,0-4.4c2.2-0.8,4.1-1.5,5.5-2
						C211,351.6,210.5,355.4,210,359.1z"/>
					<path class="st1" d="M206.5,376.9c0.7-0.6,1.7-1.5,3-2.6c1.4,5.6-1.4,9.3-4.7,13.1c-0.9-1.5-1.7-2.8-2.6-4.3
						c1.8-0.4,3.8-0.3,4.4-1.1C207.3,380.9,206.6,379,206.5,376.9z"/>
				</g>
				<path class="st1" d="M157.3,491.9c0.9,10.6,1.7,21.2,2.6,31.8c-0.2,0.1-0.4,0.2-0.6,0.3c-0.5-1.2-1.4-2.4-1.4-3.7
					c-0.4-5.9-0.5-11.8-0.7-17.7c-0.1-3.6-0.3-7.1-0.5-10.7C156.9,491.9,157.1,491.9,157.3,491.9z"/>
				<path class="st1" d="M206,391.5c-1.7,4.9-3.3,9.5-4.9,14.1c-0.3,0-0.5,0-0.8,0c0.6-4.4,1-8.8,1.9-13.1
					C202.3,391.9,204.8,391.8,206,391.5z"/>
				<path class="st1" d="M87.5,440.2c-3.8-3.2-7.6-6.3-11.4-9.5c0.2-0.3,0.4-0.6,0.7-1c0.7-0.1,1.7-0.4,2.1-0.1
					c3.3,3.1,6.5,6.3,9.8,9.4C88.3,439.5,87.9,439.8,87.5,440.2z"/>
				<path class="st1" d="M68.2,423.3c1.8-2,3.3-1.4,4.8,0.5c0.8,1.1,1.8,2.1,2.2,3.9c-2.3-1.5-4.6-3-6.9-4.5
					C68.3,423.2,68.2,423.3,68.2,423.3z"/>
				<path class="st1" d="M146,447c-0.8-3.8-1.5-7.6-2.3-11.4c0.3-0.1,0.7-0.1,1-0.2c0.7,3.8,1.4,7.6,2.1,11.4
					C146.6,446.8,146.3,446.9,146,447z"/>
			</g>
		</g>
	</g>
</g>
</svg>
