<?xml version="1.0" encoding="utf-8"?>
<!-- Generator: Adobe Illustrator 19.2.1, SVG Export Plug-In . SVG Version: 6.00 Build 0)  -->
<svg version="1.1" id="Layer_1" xmlns="http://www.w3.org/2000/svg" xmlns:xlink="http://www.w3.org/1999/xlink" x="0px" y="0px"
	 viewBox="0 0 45 45" style="enable-background:new 0 0 45 45;" xml:space="preserve">
<title>Button</title>
<path d="M22.5,0C10.1,0,0,10.1,0,22.5S10.1,45,22.5,45C34.9,45,45,34.9,45,22.5C45,10.1,34.9,0,22.5,0C22.5,0,22.5,0,22.5,0z
	 M25.4,37.7h-6.5v-6.2h6.5V37.7z M25.5,27.1v1.5h-6.9v-2.1c0-5.6,6.5-6.6,6.5-10C25,15,23.8,13.9,22.3,14c0,0,0,0,0,0
	c-1.5,0.2-2.8,0.8-3.9,1.8l-4-4.8c2.3-2.3,5.5-3.5,8.7-3.4c4.6,0,9.6,2.8,9.6,8.1C32.6,22.4,25.5,23.4,25.5,27.1z"/>
</svg>
