<?xml version="1.0" encoding="utf-8"?>
<!-- Generator: Adobe Illustrator 19.2.1, SVG Export Plug-In . SVG Version: 6.00 Build 0)  -->
<svg version="1.1" id="Layer_1" xmlns="http://www.w3.org/2000/svg" xmlns:xlink="http://www.w3.org/1999/xlink" x="0px" y="0px"
	 viewBox="0 0 73.5 65.5" style="enable-background:new 0 0 73.5 65.5;" xml:space="preserve">
<style type="text/css">
	.st0{fill:#231F20;}
	.st1{opacity:0.17;}
	.st2{clip-path:url(#SVGID_2_);fill:#231F20;}
</style>
<g>
	<path class="st0" d="M23,0.4c-11.8,0-21.4,9.6-21.4,21.5c0,3.1,0.7,4.8,1.9,8.8h0l19.4,34.8l19.7-34.9c1.2-2.7,1.9-5.7,1.9-8.8
		C44.4,10,34.8,0.4,23,0.4 M38.4,23.7H25v13.5c0,0.5-0.5,0.9-1,0.9c-0.5,0-1-0.4-1-0.9V23.7H7.6c-0.5,0-0.9-0.5-0.9-1
		c0-0.5,0.4-1,0.9-1H23V6.3c0-0.5,0.5-0.9,1-0.9c0.5,0,1,0.4,1,0.9v15.3h13.4c0.5,0,0.9,0.5,0.9,1C39.3,23.2,38.9,23.7,38.4,23.7"/>
	<g class="st1">
		<g>
			<defs>
				<rect id="SVGID_1_" x="22.6" y="41.2" width="50.9" height="24.2"/>
			</defs>
			<clipPath id="SVGID_2_">
				<use xlink:href="#SVGID_1_"  style="overflow:visible;"/>
			</clipPath>
			<path class="st2" d="M61.3,41.2c-11.8,0-26.8,3.7-33.9,8.1c-1.9,1.1-2,2.4-3,3.4h0l-1.8,12.7l40.3-12.9c2.8-1,5.2-2.1,7.1-3.3
				C77,44.7,73.1,41.2,61.3,41.2 M63.4,50.7H48.9l-8.6,4.7c-0.3,0.2-1,0-1.5,0c-0.5,0-0.7,0.3-0.4,0.1l8.6-4.8H32.6
				c-0.5,0-0.7-0.3-0.4-0.5c0.3-0.2,1-0.5,1.5-0.5h14.5l8.6-5.8c0.3-0.2,1-0.6,1.5-0.6c0.5,0,0.7,0.5,0.4,0.7L50,49.7h14.5
				c0.5,0,0.7,0.3,0.4,0.5C64.6,50.4,63.9,50.7,63.4,50.7"/>
		</g>
	</g>
</g>
</svg>
