<?xml version="1.0" encoding="utf-8"?>
<!-- Generator: Adobe Illustrator 19.2.1, SVG Export Plug-In . SVG Version: 6.00 Build 0)  -->
<svg version="1.1" id="Layer_1" xmlns="http://www.w3.org/2000/svg" xmlns:xlink="http://www.w3.org/1999/xlink" x="0px" y="0px"
	 viewBox="0 0 46.5 46.6" style="enable-background:new 0 0 46.5 46.6;" xml:space="preserve">
<style type="text/css">
	.st0{opacity:0.7;fill:#FFFFFF;}
	.st1{opacity:0.88;fill:none;stroke:#010101;stroke-width:5;stroke-linecap:round;stroke-miterlimit:10;}
	.st2{fill:#FFFFFF;}
	.st3{opacity:0.8;}
	.st4{opacity:0.88;fill-rule:evenodd;clip-rule:evenodd;fill:#FFFFFF;}
	.st5{fill:#010101;}
	.st6{display:none;}
	.st7{display:inline;opacity:0.7;fill:#FFFFFF;}
	.st8{fill:none;stroke:#000000;stroke-width:2;stroke-linecap:round;stroke-miterlimit:10;}
</style>
<path class="st0" d="M-553.8,827c-13.5,0-24.5,11-24.5,24.5s11,24.5,24.5,24.5s24.5-11,24.5-24.5S-540.2,827-553.8,827z M-538,852.4
	h-15.1v14.9c0,0.4-0.1,0.7-0.5,0.7s-0.5-0.3-0.5-0.7v-14.9h-15.4c-0.4,0-0.7-0.1-0.7-0.5s0.3-0.5,0.7-0.5h15.4v-15.6
	c0-0.4,0.1-0.7,0.5-0.7s0.5,0.3,0.5,0.7v15.6h15.1c0.4,0,0.7,0.1,0.7,0.5S-537.6,852.4-538,852.4z"/>
<path class="st1" d="M3.6,410.6"/>
<text transform="matrix(1 0 0 1 -162.4829 421.3918)" class="st2" style="font-family:'MuseoSans-900'; font-size:13px;">NEOLITIC REVOLUTION</text>
<text transform="matrix(1 0 0 1 -138.4976 470.4087)" class="st2" style="font-family:'MuseoSans-900'; font-size:13px;">ORIGINS OF WHEAT</text>
<text transform="matrix(1 0 0 1 -177.3931 519.4253)" class="st2" style="font-family:'MuseoSans-900'; font-size:13px;">BRANDING AGRICULTURE</text>
<text transform="matrix(1 0 0 1 -183.5034 568.4419)" class="st2" style="font-family:'MuseoSans-900'; font-size:13px;">WHEAT’S DOMESTICATION</text>
<text transform="matrix(1 0 0 1 -140.0708 617.4585)" class="st2" style="font-family:'MuseoSans-900'; font-size:13px;">FROM SEED TO CITY</text>
<text transform="matrix(1 0 0 1 -134.4553 666.4756)" class="st2" style="font-family:'MuseoSans-900'; font-size:13px;">CULTURE &amp; WHEAT</text>
<text transform="matrix(1 0 0 1 -183.5939 715.4922)" class="st2" style="font-family:'MuseoSans-900'; font-size:13px;">SPREAD OF A REVOLUTION</text>
<text transform="matrix(1 0 0 1 -139.2131 764.5088)" class="st2" style="font-family:'MuseoSans-900'; font-size:13px;">WHEAT’S DIASPORA</text>
<text transform="matrix(1 0 0 1 -77.9319 -58.3008)" style="opacity:0.8;fill:#FFFFFF; font-family:'Heuristica-Italic'; font-size:15px;">scroll down</text>
<text transform="matrix(1 0 0 1 -83.4318 28.669)" style="opacity:0.8;fill:#FFFFFF; font-family:'Heuristica-Italic'; font-size:15px;">instructions</text>
<rect x="-43.9" y="804.6" class="st4" width="85.7" height="85.7"/>
<text transform="matrix(1 0 0 1 -30.7607 851.5479)" class="st5" style="font-family:'MuseoSans-300'; font-size:12.2008px;">ESPAÑOL</text>
<path class="st0" d="M23.4-79.6C13.3-79.6,5-71.4,5-61.2s8.2,18.4,18.4,18.4c10.2,0,18.4-8.2,18.4-18.4S33.6-79.6,23.4-79.6z
	 M36.3-60.8L24.1-48.6c-0.2,0.2-0.4,0.3-0.7,0.3c-0.3,0-0.5-0.1-0.7-0.3L10.6-60.8c-0.4-0.4-0.4-1,0-1.4c0.4-0.4,1-0.4,1.4,0
	l10.5,10.5v-21.3c0-0.5,0.4-1,1-1c0.5,0,1,0.4,1,1v21.3l10.5-10.5c0.4-0.4,1-0.4,1.4,0C36.7-61.8,36.7-61.2,36.3-60.8z"/>
<g class="st6">
	<path class="st7" d="M23.4,4.5c-10.3,0-18.6,8.3-18.6,18.6s8.3,18.6,18.6,18.6s18.6-8.3,18.6-18.6S33.7,4.5,23.4,4.5z M21.1,37
		c-1.4,0-2.2-1-2.2-2.2c0-1.6,1-2.6,2.5-2.6c1.4,0,2.2,1,2.2,2.2C23.6,35.9,22.6,37,21.1,37z M27.1,20.3c-2.5,1.3-4.4,2.6-4.4,4.6
		c0,1.7,1.2,2.2,2.5,2.2c0.7,0,1.2-0.1,1.7-0.1l0.2,0.7c-0.8,0.6-2.5,1.2-3.8,1.2c-1.9,0-4-0.9-4-3.3c0-1.8,1.4-3.2,4-4.8
		c3.7-2.2,5.2-4.9,5.2-7.4c0-1.6-0.7-2.8-2.3-2.8c-1.9,0-3,1.9-3.9,4c-0.2,0.4-0.5,0.7-1.2,0.7c-0.6,0-1.7-0.6-1.7-1.7
		c0-1.6,2.2-4.4,6.6-4.4c3.7,0,6.1,2,6.1,4.9C32,17.4,30.1,18.8,27.1,20.3z"/>
</g>
<path class="st0" d="M27.7,403.1c-7.8,0-14.2,6.3-14.2,14.2s6.3,14.2,14.2,14.2s14.2-6.3,14.2-14.2S35.6,403.1,27.7,403.1z
	 M36.8,419.6l-6,6c-0.2,0.2-0.6,0.4-0.9,0.4s-0.6-0.1-0.9-0.4c-0.5-0.5-0.5-1.3,0-1.7l3.9-3.9H22.8c-0.7,0-1.2-0.5-1.2-1.2v-9.5
	c0-0.7,0.5-1.2,1.2-1.2s1.2,0.5,1.2,1.2v8.3H33l-3.9-3.9c-0.5-0.5-0.5-1.3,0-1.7c0.5-0.5,1.3-0.5,1.7,0l6,6c0.2,0.2,0.4,0.5,0.4,0.9
	C37.1,419.1,37,419.4,36.8,419.6z"/>
<path class="st0" d="M27.7,452.1c-7.8,0-14.2,6.3-14.2,14.2s6.3,14.2,14.2,14.2s14.2-6.3,14.2-14.2S35.6,452.1,27.7,452.1z
	 M36.8,468.6l-6,6c-0.2,0.2-0.6,0.4-0.9,0.4s-0.6-0.1-0.9-0.4c-0.5-0.5-0.5-1.3,0-1.7L33,469H22.8c-0.7,0-1.2-0.5-1.2-1.2v-9.5
	c0-0.7,0.5-1.2,1.2-1.2s1.2,0.5,1.2,1.2v8.3H33l-3.9-3.9c-0.5-0.5-0.5-1.3,0-1.7c0.5-0.5,1.3-0.5,1.7,0l6,6c0.2,0.2,0.4,0.5,0.4,0.9
	C37.1,468.1,37,468.4,36.8,468.6z"/>
<path class="st0" d="M27.7,501.1c-7.8,0-14.2,6.3-14.2,14.2c0,7.8,6.3,14.2,14.2,14.2s14.2-6.3,14.2-14.2
	C41.9,507.4,35.6,501.1,27.7,501.1z M36.8,517.6l-6,6c-0.2,0.2-0.6,0.4-0.9,0.4s-0.6-0.1-0.9-0.4c-0.5-0.5-0.5-1.3,0-1.7L33,518
	H22.8c-0.7,0-1.2-0.5-1.2-1.2v-9.5c0-0.7,0.5-1.2,1.2-1.2s1.2,0.5,1.2,1.2v8.3H33l-3.9-3.9c-0.5-0.5-0.5-1.3,0-1.7
	c0.5-0.5,1.3-0.5,1.7,0l6,6c0.2,0.2,0.4,0.5,0.4,0.9C37.1,517.1,37,517.4,36.8,517.6z"/>
<path class="st0" d="M27.7,550.1c-7.8,0-14.2,6.3-14.2,14.2c0,7.8,6.3,14.2,14.2,14.2s14.2-6.3,14.2-14.2
	C41.9,556.5,35.6,550.1,27.7,550.1z M36.8,566.6l-6,6c-0.2,0.2-0.6,0.4-0.9,0.4s-0.6-0.1-0.9-0.4c-0.5-0.5-0.5-1.3,0-1.7L33,567
	H22.8c-0.7,0-1.2-0.5-1.2-1.2v-9.5c0-0.7,0.5-1.2,1.2-1.2s1.2,0.5,1.2,1.2v8.3H33l-3.9-3.9c-0.5-0.5-0.5-1.3,0-1.7
	c0.5-0.5,1.3-0.5,1.7,0l6,6c0.2,0.2,0.4,0.5,0.4,0.9C37.1,566.1,37,566.4,36.8,566.6z"/>
<path class="st0" d="M27.7,599.1c-7.8,0-14.2,6.3-14.2,14.2c0,7.8,6.3,14.2,14.2,14.2s14.2-6.3,14.2-14.2
	C41.9,605.5,35.6,599.1,27.7,599.1z M36.8,615.7l-6,6c-0.2,0.2-0.6,0.4-0.9,0.4s-0.6-0.1-0.9-0.4c-0.5-0.5-0.5-1.3,0-1.7L33,616
	H22.8c-0.7,0-1.2-0.5-1.2-1.2v-9.5c0-0.7,0.5-1.2,1.2-1.2s1.2,0.5,1.2,1.2v8.3H33l-3.9-3.9c-0.5-0.5-0.5-1.3,0-1.7
	c0.5-0.5,1.3-0.5,1.7,0l6,6c0.2,0.2,0.4,0.5,0.4,0.9C37.1,615.1,37,615.4,36.8,615.7z"/>
<path class="st0" d="M27.7,648.1c-7.8,0-14.2,6.3-14.2,14.2c0,7.8,6.3,14.2,14.2,14.2s14.2-6.3,14.2-14.2
	C41.9,654.5,35.6,648.1,27.7,648.1z M36.8,664.7l-6,6c-0.2,0.2-0.6,0.4-0.9,0.4s-0.6-0.1-0.9-0.4c-0.5-0.5-0.5-1.3,0-1.7L33,665
	H22.8c-0.7,0-1.2-0.5-1.2-1.2v-9.5c0-0.7,0.5-1.2,1.2-1.2s1.2,0.5,1.2,1.2v8.3H33l-3.9-3.9c-0.5-0.5-0.5-1.3,0-1.7
	c0.5-0.5,1.3-0.5,1.7,0l6,6c0.2,0.2,0.4,0.5,0.4,0.9C37.1,664.1,37,664.5,36.8,664.7z"/>
<path class="st0" d="M27.7,697.2c-7.8,0-14.2,6.3-14.2,14.2c0,7.8,6.3,14.2,14.2,14.2s14.2-6.3,14.2-14.2
	C41.9,703.5,35.6,697.2,27.7,697.2z M36.8,713.7l-6,6c-0.2,0.2-0.6,0.4-0.9,0.4s-0.6-0.1-0.9-0.4c-0.5-0.5-0.5-1.3,0-1.7L33,714
	H22.8c-0.7,0-1.2-0.5-1.2-1.2v-9.5c0-0.7,0.5-1.2,1.2-1.2s1.2,0.5,1.2,1.2v8.3H33l-3.9-3.9c-0.5-0.5-0.5-1.3,0-1.7
	c0.5-0.5,1.3-0.5,1.7,0l6,6c0.2,0.2,0.4,0.5,0.4,0.9C37.1,713.2,37,713.5,36.8,713.7z"/>
<path class="st0" d="M27.7,746.2c-7.8,0-14.2,6.3-14.2,14.2c0,7.8,6.3,14.2,14.2,14.2s14.2-6.3,14.2-14.2
	C41.9,752.5,35.6,746.2,27.7,746.2z M36.8,762.7l-6,6c-0.2,0.2-0.6,0.4-0.9,0.4s-0.6-0.1-0.9-0.4c-0.5-0.5-0.5-1.3,0-1.7l3.9-3.9
	H22.8c-0.7,0-1.2-0.5-1.2-1.2v-9.5c0-0.7,0.5-1.2,1.2-1.2s1.2,0.5,1.2,1.2v8.3H33l-3.9-3.9c-0.5-0.5-0.5-1.3,0-1.7
	c0.5-0.5,1.3-0.5,1.7,0l6,6c0.2,0.2,0.4,0.5,0.4,0.9C37.1,762.2,37,762.5,36.8,762.7z"/>
<g>
	<line class="st8" x1="5.5" y1="5.3" x2="41.5" y2="41.3"/>
	<line class="st8" x1="41.5" y1="5.3" x2="5.5" y2="41.3"/>
</g>
</svg>
