<?xml version="1.0" encoding="utf-8"?>
<!-- Generator: Adobe Illustrator 19.2.1, SVG Export Plug-In . SVG Version: 6.00 Build 0)  -->
<svg version="1.1" id="Layer_1" xmlns="http://www.w3.org/2000/svg" xmlns:xlink="http://www.w3.org/1999/xlink" x="0px" y="0px"
	 viewBox="0 0 45 45" style="enable-background:new 0 0 45 45;" xml:space="preserve">
<style type="text/css">
	.st0{fill:#020202;}
</style>
<path class="st0" d="M22.5,0C10.1,0,0,10.1,0,22.5S10.1,45,22.5,45S45,34.9,45,22.5S34.9,0,22.5,0z M25.4,37.7h-6.5v-6.2h6.5V37.7z
	 M25.5,27.1v1.5h-6.9v-2.1c0-5.6,6.5-6.6,6.5-10c0-1.4-1.4-2.4-2.9-2.4c-2,0-3.9,1.8-3.9,1.8l-4-4.8c0,0,3.1-3.4,8.6-3.4
	c4.6,0,9.6,2.8,9.6,8.1C32.6,22.4,25.5,23.4,25.5,27.1z"/>
</svg>
