<?xml version="1.0" encoding="utf-8"?>
<!-- Generator: Adobe Illustrator 19.2.1, SVG Export Plug-In . SVG Version: 6.00 Build 0)  -->
<svg version="1.1" id="Layer_1" xmlns="http://www.w3.org/2000/svg" xmlns:xlink="http://www.w3.org/1999/xlink" x="0px" y="0px"
	 viewBox="0 0 63.5 91.5" style="enable-background:new 0 0 63.5 91.5;" xml:space="preserve">
<style type="text/css">
	.st0{fill-rule:evenodd;clip-rule:evenodd;fill:#7D7D7D;}
	.st1{fill-rule:evenodd;clip-rule:evenodd;fill:#A3A3A2;}
	.st2{fill-rule:evenodd;clip-rule:evenodd;fill:#8B8A8A;}
	.st3{fill:#676868;}
	.st4{fill-rule:evenodd;clip-rule:evenodd;fill:#676868;}
</style>
<g>
	<g>
		<polygon class="st2" points="40.4,59.1 40.4,59.1 40.4,59 40.2,59 39.8,59.2 39.8,59.4 39.9,59.4 40.3,59.2 		"/>
	</g>
	<g>
		<path class="st2" d="M53.1,34c0.5-0.2,1-0.6,1.5-1c2-1.7,3.8-3.6,5.5-5.6c1-1.2,2-2.5,3.5-3c-3.5,0.2-6.8-1.4-9.9-2.9
			c-3.1-1.5-6.5-3.4-7.9-6.6c-0.1-0.2-0.2-0.4-0.1-0.6c0.1-0.3,0.5-0.4,0.8-0.6c0.3-0.2,0.3-0.7,0-0.7c-0.7,0.3-1.5,0.7-2.2,0.7
			c-0.8,0-1.6-0.5-1.8-1.3c0-0.3,0-0.6,0.1-0.9c0.4-1.3,1.4-2.4,2.7-3l-0.5-0.8c-0.9-0.9-1.9-1.9-2.8-2.8c-1-1-2-2-3.2-2.7
			c-1.2-0.7-2.6-1.1-4-1c-0.2,0-0.4,0-0.7,0c-0.5,0-1,0.1-1.4,0.1c-0.4,0-0.9,0-1.3-0.1C30.6,0.8,30,0,29.2,0
			c0.1,0.8-0.5,1.6-1.3,1.8c-0.7-0.7-1.8-0.4-2.7-0.1C25,1.8,24.8,1.9,24.7,2c-0.1,0.2-0.1,0.4-0.1,0.6c-0.2,1.2-1.8,2-1.8,3.2
			c0,0.4,0.2,0.7,0,1.1c-0.1,0.2-0.3,0.3-0.4,0.5c-0.7,0.6-1.2,1.2-1.8,1.9c-0.7,0.8-1.4,1.7-1.3,2.8c0,0.4,0.1,0.8,0.1,1.2
			c-0.1,0.4-0.4,0.8-0.8,0.7c-0.2-0.1-0.4-0.2-0.6-0.2c-0.2,0-0.3,0.3-0.4,0.5c-0.6,1.5-1.1,3-1,4.6c0.1,1,0.3,2.1-0.3,2.8
			c-0.5,0.5-1.4,0.5-2.1,0.4c-0.1,0-0.3-0.1-0.4,0c-0.1,0-0.3,0.2-0.3,0.3c-0.5,0.7-0.7,1.5-0.7,2.3c0.8-0.4,1.7-0.1,2.3,0.4
			s1.2,1.2,1.7,1.8c0.7,0.7,1.5,1.3,2.3,1.7c0.1,0.1,0.2,0.1,0.3,0.2c0.1,0.1,0.1,0.3,0,0.5c-0.1,1.3,0.4,2.6,1.4,3.4l0.3,0.4
			c-3.9,3-8.3,6.2-13.1,5.6c-0.5-0.1-1-0.1-1.5,0c-1.5,0.4-1.7,2.4-1.5,3.9c0.6-0.1,1.2,0.2,1.5,0.6c-0.4,2.3-3.5,3.1-4.7,5.1
			c-0.6,1-0.7,2.2-0.8,3.3c-0.1,1.4-0.3,2.7-0.4,4.1c1.2,0.4,2.6,0,3.3-1c0.7,1,1.4,2.2,1,3.3c-0.2,0.6-0.7,1-1,1.6
			c-0.3,0.6-0.2,1.4,0.4,1.6c0.2,0.1,0.3,0.1,0.5,0.2c0.4,0.3,0.3,0.9,0,1.3c-0.8,1.3-2.1,2.3-3.5,2.9c-0.4,0.2-0.9,0.3-1.1,0.7
			C0,66.8,0,67,0,67.3c0.2,2.2,0.5,4.4,1.6,6.4c0.6,1.1,1.4,2,2.1,3c0.8,1.1,1.3,2.4,2.2,3.4c2.2,2.7,5.8,3.6,9.2,4
			c0.6,0.1,1.3,0.2,1.8,0.5c1.2,0.8,1.4,2.5,1.3,3.9c0,0.4,0,0.9,0.1,1.3c0.4,0.9,1.5,1.2,2.5,1.3c1.4,0.2,2.8,0.4,4.2,0.3
			c0.8-0.1,1.6-0.2,2.3-0.4c3.7-0.8,7.4-1.7,10.8-3.1l0,0l0-0.1L38,87.7l-0.2-0.2l-0.6-0.4L36.9,87l-0.2-0.2l-0.3,0l-0.1-0.2
			L36,86.4l-0.5-0.1l0.2-0.3l0-0.3l-0.2-0.4l-0.1-0.5l-0.2-0.6l0.1-0.7l-0.7-0.9l0.1-0.1l0-0.2l-0.4-0.5l-0.3-1l0-0.3l0.1-0.4
			l0.3-0.8l0-0.7l-0.3-0.2L34,78.7l0-0.9l0.2-0.6l0.3-0.5l0.3-0.3l0.1-0.3l-0.3-0.5L34,75.3l-0.2-0.4l-0.4-0.4l-0.2-0.2L33,74.1
			l-0.4-0.4l-0.1-0.4l-0.2-0.5l0.1-0.7l0.3-0.9l0.2-0.4l0.3-1l0.1-0.2l0.1-0.3l0-0.3l0.3-0.7l0.1-0.3l0-0.1l0.2-0.2l0.3,0.1l0.4-0.5
			l0.5-1.1l0.1-0.1l0.1-0.2l0.2-0.3l0-0.1l0.1-0.1l0.2-0.4l0.1-0.7l0.1-0.1l0.1-0.3l0.2-0.3l0.4-0.3l0-0.3l0.2-0.5l-0.1-0.7l0.1-0.4
			l0.2-0.2l0.4-0.3l0.8-0.1l0.6-0.5l0-0.2l0.3-0.2l0.1-0.3l-0.1-0.2l-0.1-0.4l0.1,0.1l0.1,0l0.1-0.2l0.1-0.1l0.2,0.1l0.2,0l0.6-0.1
			l0.4-0.3l0.5-0.6l0.3-0.3c-0.9-0.8-1.6-2-1.8-3.2c-0.1-0.7-0.1-1.4-0.1-2.1c-0.1-1.5-0.6-2.9-0.9-4.4c-0.4-2.4-0.2-4.8,0.5-7.1
			c0.2-0.6,0.5-1.2,0.9-1.7c0.5-0.6,1.3-1,2-1.4c2.7-1.4,5.5-2.8,8.6-3.2C51.9,34.3,52.5,34.2,53.1,34z"/>
	</g>
	<g>
		<polygon class="st2" points="35.3,70.5 35.5,70.6 35.6,70.6 35.8,70.5 36,70 36,69.6 36,69.1 36,69 36,68.8 35.7,68.9 35.3,68.9 
			35.4,69.5 35.2,70.4 		"/>
	</g>
	<g>
		<polygon class="st2" points="33.9,73.5 34.1,73.5 34.3,73.8 34.5,73.7 34.6,74 34.7,74.1 34.8,74.1 35,74 35,73.9 34.7,73.1 
			34.7,73.1 34.5,72.9 34.3,72.4 34.2,71.9 34.1,71.6 33.9,72 33.7,72.3 33.7,72.8 33.6,73.1 		"/>
	</g>
	<g>
		<polygon class="st2" points="35.2,79.3 35.3,79.4 35.5,79.3 35.6,79.1 35.9,79.1 36.1,78.5 36.1,78.2 36.1,78.3 35.9,78.5 
			35.5,78.8 35.3,79.1 35.1,79.2 		"/>
	</g>
</g>
</svg>
