<?xml version="1.0" encoding="utf-8"?>
<!-- Generator: Adobe Illustrator 19.2.1, SVG Export Plug-In . SVG Version: 6.00 Build 0)  -->
<svg version="1.1" id="Layer_1" xmlns="http://www.w3.org/2000/svg" xmlns:xlink="http://www.w3.org/1999/xlink" x="0px" y="0px"
	 viewBox="0 0 229.8 130.5" style="enable-background:new 0 0 229.8 130.5;" xml:space="preserve">
<style type="text/css">
	.st0{fill-rule:evenodd;clip-rule:evenodd;fill:#7D7D7D;}
	.st1{fill-rule:evenodd;clip-rule:evenodd;fill:#A3A3A2;}
	.st2{fill-rule:evenodd;clip-rule:evenodd;fill:#8B8A8A;}
	.st3{fill:#676868;}
	.st4{fill-rule:evenodd;clip-rule:evenodd;fill:#676868;}
</style>
<g>
	<g>
		<g>
			<path class="st3" d="M89.2,42.8c0,0.1,0,0.2,0,0.2C89.3,43,89.3,42.9,89.2,42.8z"/>
		</g>
		<g>
			<path class="st3" d="M120.6,48.8c0.3-0.5,0.7-0.7,1.2-1c0.6-0.4,1.2-0.7,1.8-1.1c0.5-0.3,1-0.6,1.5-0.4c0.5,0.1,1.1,0.7,1.5,0.4
				c0.4-0.4-0.6-1-0.5-1.6c0.1-0.4,0.6-0.5,1-0.6c0.5-0.2,0.8-0.8,0.8-1.4c0-0.6-0.4-1.1-0.8-1.4c-0.5-0.4-1.2-0.6-1.6-1
				c-0.6-0.6-0.7-1.6-1.4-2c-1.3-0.8-3,0.9-4.5,0.4c-0.5-0.2-1-0.6-1.5-0.4c0,1-1.1,1.7-2.1,2s-2.1,0.5-2.8,1.2
				c-0.4,0.4-0.7,1.1-1.2,1.2c-0.2,0-0.4,0-0.6,0.2c-0.1,0.1-0.2,0.3-0.2,0.5c-0.2,0.5-0.8,0.8-1.3,0.8c-0.5,0.1-1.1,0.1-1.6,0.3
				c-0.3,0.1-0.6,0.4-0.4,0.7c0.2,0.3,0.6,0.1,1,0.1c0.8,0,1,1.2,0.4,1.8c-0.5,0.6-1.3,0.6-2.1,0.7c-1,0.1-1.9,0.1-2.9,0.2
				c-0.7,0-1.3,0.1-2,0.1c-0.7,0.1-1.4,0.1-2.1-0.1c-0.7-0.2-1.4-0.6-1.6-1.2c-0.2-0.5-0.2-1-0.2-1.5c0-0.4,0-0.8,0-1.2
				c0-0.4,0-0.9-0.3-1.1c-0.5-0.3-0.9,0.2-1.3,0.4c-0.5,0.2-0.7,0.2-1.3,0.2c-0.3,0-4.5-0.3-4.4-0.6c-0.2,0.4-0.7,0.7-1.1,0.6
				c-0.4-0.1-0.6-0.4-0.7-0.7c-0.1,0.2-0.5,0.4-0.8,0.2c-0.3-0.2-0.5-0.7-0.8-0.9c-0.4-0.3-1-0.1-1.5-0.2c-0.5,0-1.1-0.6-0.8-1
				c-1.1,0.1-2.2-0.4-2.8-1.2c-0.4-0.5-0.6-1-1.1-1.4c-0.5-0.4-1.3-0.3-1.5,0.2c-0.9-2-3.7-2.4-5.2-4c-0.5-0.5-1.1-1.2-1.7-1
				c0.1,0.9-0.9,1.7-1.7,1.4c-0.7-0.2-1-0.9-1.4-1.5c-0.9-1.3-2.2-2.2-3.7-2.7c-0.6-0.2-1.3-0.3-1.8-0.7c-1-0.7-1.1-2-1.6-3.2
				c-0.5-1.3-1.4-2.5-2.7-3.1c-0.2-0.1-0.4-0.2-0.6-0.2c-0.5,0-0.8,0.5-1.2,0.5c-0.6,0.1-1-0.6-1.4-1c-0.3-0.3-0.7-0.4-1.1-0.5
				c-0.8-0.1-1.6,0.4-2.1,1s-0.8,1.4-0.9,2.2c-0.8,0-1.5-0.2-2.2-0.4c-1.3-0.5-2.5-1.4-3.6-2.3c-0.3-0.3-0.7-0.5-0.9-0.9
				c-0.2-0.4-0.2-0.8-0.3-1.2c-0.1-0.8-0.2-1.6-0.2-2.4c-0.1-0.9-0.1-2,0.6-2.6c0.5-0.4,1.3-0.8,1-1.4c-1.2-0.2-0.6-1.8-1.5-2.2
				c-1.1-0.5-2.2-1.1-3.3-1.9c-0.1-0.1-0.2-0.1-0.3-0.2c-0.3-0.3-0.1-0.8,0.2-1.1c0.3-0.3,0.7-0.5,1-0.8c0.2-0.2,0.4-0.5,0.7-0.7
				c0.4-0.3,1-0.1,1.5-0.2c0.5-0.2,0.8-0.6,1.2-0.8c0.4-0.1,0.8-0.1,1.1-0.2c0.4-0.1,1.2-1.5,1.1-1.9c-0.1-0.4-0.6-0.4-1-0.4
				c-2.5,0.1-5.1,0.8-7.3,1.9c-0.3,0.1-0.6,0.3-0.8,0.1c-0.2-0.1-0.3-0.3-0.4-0.6c-0.4-1-0.7-1.9-1.1-2.9c-0.4-1-0.8-2-1.6-2.6
				c-0.8-0.6-2.3-0.5-2.6,0.5c-0.4,1,0.4,2.5-0.6,3c-0.6,0.3-1.3-0.1-1.9,0.2c-0.5,0.3-0.5,1-1,1.3c-0.6,0.3-1.3-0.2-1.9-0.2
				C27.7,5.1,26.9,6,26,6.1c-0.6,0.1-1.1-0.2-1.6-0.4c-1.1-0.4-2.3-0.8-3.5-1c-2-0.4-4.4-0.3-5.9,1.2c-0.7,0.7-1.2,1.6-1.6,2.5
				c-0.4,1-0.9,1.9-1.3,2.9c-1,0-1.9,0.1-2.9,0.1c-0.2,2-2.8,3.3-4.5,2.2C4,13.2,3.1,12.5,2.5,13c-0.1,0.1-0.2,0.3-0.3,0.5
				c-0.7,1.8-1.4,3.6-2.1,5.5c-0.1,0.2-0.1,0.4,0,0.5c0.1,0.1,0.3,0.1,0.5,0.1c0.7,0.2,0.3,1.1-0.1,1.7c-1.1,1.9-0.4,4.3,0.4,6.4
				c0.3,0.7,0.5,1.4,1.2,1.7c0.5,0.3,1.1,0.2,1.6,0.6c0.9,0.7,0.3,2.2-0.6,3s-1.9,1.7-1.8,2.8c0.1,0.8,0.8,1.4,1.5,1.9
				c2.6,1.9,5.4,4.3,5.3,7.4c0,0.2,0,0.5,0.2,0.6C8.5,46,8.7,45.9,8.9,46c0.7,0.1,1,1,0.8,1.6c-0.2,0.6-0.9,1.1-1.6,1.2
				c-0.4,0.1-0.9,0.1-1.3,0.1c-0.5,0.1-1,0.3-1.4,0.6C4.3,50.5,4,52,3.7,53.4c-0.2,1-0.4,2-0.6,3l0.4,0.1l0.3-0.2L4,56.2l0.7,0.2
				l0.6,0L6,56.3l0.2-0.2l0.2-0.1l0.2,0.1l0.2,0.2L7,56.3l0.2-0.2l0.4-0.2l0.3,0l1.2,0.1l0.5-0.1l0.4,0.1l0.7,0.1l0-0.3l0.2-0.2
				l0.6-0.1l0.7,0.2l0.2,0l0.2-0.2l0.2,0.1l0.1,0.1l1.3,0.4l0.2,0.1l0.2,0.1l0.4-0.5l1,0l1.2-0.2l0.9,0.1l0.7-0.2l1.2-0.2l0.3,0
				l0.3,0.1l0.2,0l-0.2-0.1L20.7,55l-0.8,0.1l0.1-0.2l0.2-0.1l0.4,0l0.4,0.1l0.4,0.3l0.1,0.4l0.4,0.6l0,0.4l-0.1,0.7l0.1,0.2
				l1.4,0.3l0.2,0.1l0.4,1.4l0.1,0.4l0,0.3l0.2,0.3l0.2,0.1l0.1,0.1l0.1,0.1l0.1,0.3l0.2,0.2l0.3-0.1l0,0.2l0.1,0.2l0.5-0.1l0.1-0.3
				l0.3,0.3l0.2,0l0.1-0.1l0.1,0.1l0.2,0.2l0.1-0.2l0.1-0.2l0.1,0.5l0.2,0.5l0.4-0.1l0.3-0.3l0.2-0.2l0.5-0.2L29,61l-0.5,0.4
				l-0.6,0.5l-0.1,0.2l0.4,0.8l0.4,0.6l0.6,0.5l1.4,0.7l1.5,0.3l0.3-0.1l0.4-0.3l0.9-0.3l0.3-0.1l0.2,0l0.3,0.1l0.1-0.1l0.1-0.2
				l0.1-0.2l0.2,0L35,64l0,0.1l-0.3,0.1l-0.4,0.6l-0.5,0.9l-0.3,0.1l-0.3,0l-0.6,0.3l-0.3-0.1l-0.2,0.2l-0.4,0l-0.9,0.4l-0.1-0.1
				l-0.2-0.1l-0.2-0.3L30,66.2l-0.2,0.2l0,0.3l0.1,0.3l0.6,0.7l0.7,0.5l0.5,0.6l0.7,0.6l1,1.2l0.3,0.3l1.2,0.9l0.8,0.4l0.6,0.1
				l0.5-0.1l1.3-0.5l0.6-0.4l1.5-0.7l0.2-0.2l0.6-1.1l0-0.5l-0.2-0.2l-0.1-0.2l-0.2-0.1l-0.2-0.1l0.1-0.1l0.1-0.2l0.2-0.2l0.3-0.2
				l0.1-0.2l0.1-0.4L41,66.8l-0.2-0.1l0.5,0l0.4,0.1l0.5-0.1l0.4,0.1l0.4,0.1L42.6,67l-0.3,0l-0.3,0.1L42,67.8l0.3,0.1l0.3,0
				L42.4,68l-0.2,0.2L42,68.8l1,0l0.5-0.1l0.5-0.2l-0.3,0.2L43,69.1l-0.3,0.2l-0.4,0.3l0.2,0l0.2-0.1l-0.2,0.1L42.3,70l0.2,0.7
				l0.2,0.2l0.2,0l0,0.1l0.1,0.5l0.1,0.4l0.1,0.6l0,0.4l-0.6,1.7l-0.1,0.9l0,0.1l0.1,0.1l0.1,0.6l0.2,0.2l-0.1,0.2l0,0.1l0.1,0.2
				l0.7,0.3L43,77.4l-0.2,0.2l-0.1,0.1v0.5l0.2,0.4l0.3-0.1l0.3-0.5l0.1,0.5l-0.1,0.3l-0.3,0.5l-0.1,0.3l0,0.1l0.1,0.2l0.1,0.7
				l0.1,0.4l0.1,0.6l0.2,0.7l0.4,1l0,0.3l0.3,1.2l0.3,2.6l0.4,1.1l0.1,0.3l0.5,0.6L46,90l0.2,0.2l0.3,0l-0.2,0.3l0.1,0.1l0.1,0.3
				l0.3,0.4h-0.5l0.3,0.2l0.2,0.8l0.3,0.4l0.2,0.2l0.5,0.7l0.2,0.2l0.2,0.3l0.2,0.3l0,0.3l0.2,0.7l0,0.2l0.1,0.4l0.4,0.7l0.2,0.6
				l0,0.3l0,0.3l0.3,1.5l0.1,0.3l0.2,0.5l0.3,1l0.9,1.8l0.1,0.1l0.3,0.2l0.4,0.5l0.4,0.4l0.4,0.8l0.3,0.4l0.4,1.1l0.3,0.9l0.6,1.3
				l0.1,0.3l0.3,0.4l0,0.1l0,0.3l0.1,0.2l0.1,0l0.3,0.3l0.4,1.3l-0.1,0.1l-0.2-0.1l0-0.6l-0.1-0.4l-0.2-0.3l-0.1-0.1L55,111l0.1,0.8
				l0.3,0.7l0.1,0.1l0.1,0.1l0.1,0.1l0,0.2l0.2,0.6l0.2,0.2l1.2,1.5l0.3,0.3l0.8,0.6l0.7,0.2l0.2-0.2l0.6-0.2l1-0.7l0.2-0.4l0-0.5
				l0.2-0.8l0.3-0.3l0.5-0.4l1.9-0.6l0.8,0l0.7,0.2l-0.2-0.2l-0.3-0.1l-0.6-0.1l-0.3-0.1l-0.2-0.2l-0.1-0.2l0.1-0.4l0.2-0.4l0.9-1.2
				l0-0.5l0.2-0.3l0.3-0.2l0.5-0.1l0.2,0.1l0.3,0l0.3,0l0.3-0.1l0-1.5l0-1.5l0-0.2l-0.1-0.2l-0.4,0.1l0.2-0.2l0.2-0.3l-0.1-0.4
				l0.1-0.4l0.3-1l0.4-0.9l0.2-0.2l0.4-0.5l0.3-0.8l0.4-2.3L68.8,98l-0.6-0.3L68,97.4l0.3-0.4l0.3,0.4l0.1,0.3l0.1,0.1l-0.2-0.7
				l0-0.3l-0.1-0.3l-0.3-0.7l-0.1-0.5l0.1-0.3l0.1-0.2l0-0.4l0-0.3l-0.2-0.8l-0.2-1l0.2-0.9l0.7-1.4l0.3-0.3l0.9-0.4l0.2,0l0.3,0.1
				l0.2,0.4l0.1-0.1l0.2,0.1l0.2,0l0.1-0.2l0.1-0.3l0.4-0.3l0.4-1.1l0.2-0.3l0.4-0.1l1.1,0.1l0.2,0l1.3-0.5l0.4-0.3l0.2-0.4l0-0.1
				l0.1-0.3l0-0.1l-0.1-0.2l-0.1-0.2l0-0.1l0.3-0.4l0.8-0.6l1.3-0.7l0.8-0.5l0.7-0.6l0.6-0.8l0.3-0.2l1.6-0.8l0.3-0.4l1-1l0.5-0.7
				l0.3-0.3l0.2-0.3l0.1-0.3l1.6-1.4l0.7-0.4l0-0.1L86.3,76l-0.5,0.3l-0.2,0l-0.1-0.1l0.3-0.5l0.7-0.5l0.2,0l0.2,0.1l0,0.4l-0.2,0.1
				L86.8,76l0.3,0l1-0.4l1.3-0.4l0.2-0.1l0.1-0.1l0-0.2l-0.2-0.2l0.2,0l0.3,0.2l0.2-0.3l0.2-0.3l0.9-0.5l0.1-0.2l0-0.2l0.3-0.4
				l0.3-0.3l0.2-0.3l-0.1-0.2l-0.1-0.8l-0.2-0.5l0.1-0.5l0.3-0.5l0.5-0.5l0.3-0.2l1.7-0.4l0.5-0.3l0.4-0.4l0.4-0.6l0.2-0.2l0.2-0.3
				l-0.3-0.2L95.5,67l-0.2-0.2l-0.1-0.4l0.2,0.4l0.3,0.2l0.4,0.3L96,67.6l-0.3,0.9l-0.2,0.4l0.2,0.2l0.5,0l0.1-0.3l0-0.2l0.1,0.1
				l0.5,0.4l0.5-0.2l0.1-0.2l-0.1-0.4l0.3-1l0.1,0.2l0.2,0l0.1,0.1l0,0.1l-0.2,1l0,0.3l0.1,0.1l0.1,0.1l0.3-0.3l0.1-0.3l0.2,0.3
				l0.2,0l0.3,0l0-0.4l-0.1-0.3L98.7,68l0.3,0l0.1-0.6l0.1,0.3l0,0.5l0.3,0.3l0.2,0.2l0.1,0c-0.3-2-1.3-4.2-1.3-6.1
				c-0.1-0.5-0.2-0.9-0.4-1.3c-0.2-0.2-0.4-0.4-0.5-0.6c-0.3-0.7,0.6-1.5,0.4-2.3c-0.1-0.6-0.8-0.9-1.4-1.1
				c-0.6-0.3-1.1-0.9-0.8-1.5c0.3-0.4,0.9-0.5,1.1-0.9c0.1-0.2,0.1-0.4,0.2-0.6c0.2-0.3,0.6-0.3,0.9-0.3c0.3,0,0.8-0.2,0.7-0.5
				c-0.8-0.5-1.6-1-2.5-1.5C96.2,52.1,96,52,96,51.9c-0.2-0.4,0.2-0.8,0.4-1.2c0.3-0.5,0.3-1.2,0-1.7c0.8,0,1.6,0.6,2,1.3
				c0.2-0.3,0.4-0.5,0.6-0.8c0.2,0.5,0.3,1,0.8,1.3c0.5,0.3,1.2-0.1,1.1-0.6c1.4,0.6,0.3,3.3,1.6,4c0.3,0.1,0.6,0.1,0.9,0.1
				c2,0,4-0.1,6-0.1c0.4,0,0.8,0,1.2,0.2c0.3,0.2,0.4,0.8,0.1,1c-0.2,0.1-0.4,0.1-0.5,0.2c-0.3,0.2-0.4,0.6-0.5,1
				c-0.5,1.6-3,2.2-3,3.8c0,0.6,0.4,1.1,0.8,1.6c0.1,0.2,0.3,0.3,0.5,0.4c0.5,0.2,0.9-0.6,1-1.1c0-0.6,0.1-1.3,0.7-1.4
				c0.5-0.1,0.9,0.4,1,0.8c0.7,1.9-0.1,4.2,0.9,5.9c0.6,0.2,1.2-0.5,1.4-1.2c0.6-1.8,0.9-3.7,0.9-5.5c0-0.7,0.2-1.6,0.8-1.7
				c0.4-0.1,0.8,0.1,1.1,0.3c0.4,0.1,0.9,0.2,1.1-0.2c0.1-0.2,0.1-0.3,0.1-0.5c0.1-0.7,0.7-1.2,1.2-1.7s0.7-1.4,0.2-1.9
				c0.9-1.2,1.5-2.6,1.8-4.1C120.3,49.6,120.3,49.2,120.6,48.8z"/>
		</g>
	</g>
	<g>
		<g>
			<polygon class="st4" points="225.5,108.4 225.4,108.4 225.3,108.6 225.2,108.7 225,108.8 225,109.3 224.9,109.5 225,109.6 
				225.2,109.9 225.4,110.1 225.5,110.3 225.6,110.2 225.6,110.1 225.6,110 225.6,109.7 225.4,109.1 225.6,108.6 			"/>
			<polygon class="st4" points="217,99.8 216.4,99.1 216.3,99.1 216.1,99.1 216.1,99.3 216.2,99.4 216.5,99.5 216.9,99.9 
				217.2,100.2 217.6,100.5 217.3,100 			"/>
			<polygon class="st4" points="220.8,107.8 221.1,107.7 221.1,107.6 221,107.5 220.9,107.5 220.7,107.8 			"/>
			<polygon class="st4" points="214.9,108.3 215,108.3 215.1,108.3 215.2,108.2 215.4,107.6 215.3,107.5 215.3,107.4 215.2,107.4 
				215.1,107.4 215,107.5 214.7,107.8 214.6,108.2 214.7,108.4 			"/>
			<polygon class="st4" points="213.2,100.7 212.8,100.9 212.8,101.5 212.6,101.6 212.6,101.8 212.6,102 212.8,102.1 212.7,102.3 
				212.9,102.6 213.2,101.8 213.3,101.1 213.3,100.9 213.3,100.7 			"/>
			<polygon class="st4" points="219.1,105.9 218.9,105.5 218.8,105.5 218.7,105.6 218.8,105.9 			"/>
			<polygon class="st4" points="220.1,109.7 219.9,109.9 219.4,110.2 219.3,110.3 219.1,110.5 219.1,110.7 219.3,111 219.5,111.2 
				220.2,111.3 221,111.2 221.1,111.1 221.4,110.8 221.5,110.8 221.8,110.8 221.8,110.6 221.7,110.5 221.7,110.3 221.7,109.8 
				221.4,109.7 221.1,109.5 221,109.5 221,109.4 220.9,109.4 220.3,109.4 			"/>
			<polygon class="st4" points="219.9,105.5 219.6,105.8 219.6,106 219.6,106.2 219.5,106.3 219.5,106.6 219.2,107.4 218.8,108 
				218.7,108.3 218.3,108.9 218.1,109.4 217.6,110 217.7,110.3 217.4,111.4 217.4,111.7 217.4,111.9 217.6,111.8 218,111.3 
				218.5,110.2 218.5,109.8 218.7,109.5 219,109.2 219.3,109 219.6,108.8 219.8,108.5 219.9,107.9 219.8,107.3 219.9,106.7 
				219.9,106.4 219.9,106.3 219.9,106.1 219.9,105.7 			"/>
			<polygon class="st4" points="214.3,110.3 214.2,110.5 214.2,111 214.8,111.7 214.9,111.8 215.1,111.9 215.5,112.1 215.8,112.3 
				216.1,113 216.3,113.2 216.5,113.2 216.7,113.1 216.9,113.1 217.1,112.9 217.3,112.6 217.4,112.4 217.4,112.3 217.4,112.1 
				216.8,111.3 216.8,111.1 216.8,110.9 216.8,110.4 216.9,110.1 217.2,109.7 217.3,109.5 217.5,108.8 217.7,108.3 218,107.9 
				218.1,107.6 218.2,107.2 218.2,107.1 218,106.7 217.2,106.5 217.1,106.5 216.4,106.8 216.2,106.8 216.2,107 216.2,107.3 
				216.1,107.5 216,107.8 215.8,108 215.7,108.2 215.8,108.5 215.8,108.9 215.8,109.5 215.8,109.6 215.3,109.9 215.1,110 214.6,110 
				214.5,110 			"/>
			<polygon class="st4" points="218.5,112.4 218.4,112.4 218.1,112.6 218,112.6 218,112.7 218.2,112.9 218.4,113 218.7,112.9 
				218.7,112.5 			"/>
			<polygon class="st4" points="212.4,121.8 212.4,121.9 212.7,122.3 212.8,122.3 213.2,122.2 213.5,122 213.7,121.7 213.9,121.6 
				213.8,121.5 213,121.1 212.5,121.4 212.3,121.4 212.2,121.6 			"/>
			<polygon class="st4" points="205.8,126.9 206,126.6 206.3,126.5 206.3,126.4 206.4,126.5 206.6,126.6 206.7,126.5 206.8,126.2 
				206.7,126.2 206.6,126 206.5,126 206.2,126.2 205.9,126.3 205.3,126.7 205.3,126.9 205.5,126.9 			"/>
			<polygon class="st4" points="206.9,97.1 206.9,96.9 206.7,96.6 206.3,96.5 206.3,96.6 206.3,96.7 206.3,96.8 			"/>
			<polygon class="st4" points="211.2,101 211.2,100.8 211,100.1 211,99.7 211.1,99.4 211.2,99.2 211.2,99.1 210.9,98.8 210.6,98.6 
				210.4,98.2 210.1,98 209.8,98.2 209.7,98.1 209.5,98 209.3,97.8 209.1,97.8 208.5,97.9 208.4,97.8 208.2,97.8 207.5,97.7 
				207.3,97.7 207.1,97.9 207.1,98.1 207.3,98.1 207.4,98.1 207.5,98.1 207.6,98.4 207.7,98.6 207.9,98.8 208.2,98.9 208.3,99.1 
				208.6,99.6 208.6,100.1 208.6,100.2 208.7,100.4 208.9,100.5 209,100.7 209.1,101 209.1,101.2 209.2,101.4 209.5,101.7 
				209.7,101.8 209.8,101.9 209.8,102.1 209.9,102.2 210.2,102.2 210.4,102 210.5,101.9 210.6,101.9 210.7,101.9 210.8,101.7 
				210.8,101.6 210.8,101.5 211,101.2 			"/>
			<polygon class="st4" points="207.1,102.7 206.8,102.5 206.7,102.2 206.6,102.4 206.5,102.5 206.3,102.4 206.2,102.3 205.8,102 
				205.6,101.9 205.6,101.9 205.5,101.9 205.5,102 205.6,102 205.5,102.1 205.5,102.3 205.6,102.4 205.8,102.7 206,103 206.3,103 
				206.5,102.9 206.8,103 207,102.9 			"/>
			<polygon class="st4" points="206,103.3 205.9,103.2 205.8,103.1 205.6,103 205.4,103.1 205.7,103.8 205.7,103.9 205.7,104.1 
				205.8,104.1 206.1,104 206.2,103.7 206.1,103.6 206.2,103.5 			"/>
			<polygon class="st4" points="205.6,108.2 205.9,108 206,107.9 205.8,107.8 205.4,107.7 205.1,108 205.2,108.3 			"/>
			<polygon class="st4" points="210.4,123.6 210.1,123.7 209.9,123.4 209.5,123.4 209,123.7 209,123.9 209.1,124.1 209.4,124 
				209.7,124.1 210.1,123.9 210.4,124.1 210.8,123.9 210.8,123.8 210.7,123.7 			"/>
			<polygon class="st4" points="205.3,104.7 205.1,104.8 205,104.8 205,105 205.2,105 205.3,105.2 205.4,105.1 205.5,104.8 
				205.4,104.6 			"/>
			<polygon class="st4" points="226.5,110.8 226.4,111.2 226.5,111.4 226.5,111.3 226.6,111 226.5,110.7 			"/>
			<polygon class="st4" points="226.6,110.5 226.8,110.7 226.8,110.7 227.1,110.7 227.2,110.6 227.1,110.4 227.1,110.3 227.1,110.1 
				226.9,109.7 226.6,110.2 			"/>
			<polygon class="st4" points="215.8,118.9 215.7,118.8 215.6,118.9 215.6,119.2 215.7,119.2 216.1,119 216.1,118.9 216.1,118.8 
				216,118.8 			"/>
			<polygon class="st4" points="225.4,111.1 225,110.7 224.8,110.8 224.6,111.1 225,112.4 225,112.9 224.9,113.3 224.5,113.4 
				224,113.3 223.9,113.3 223.8,113.6 223.7,113.8 223.4,113.7 223,113.5 222.7,113.5 222.5,113.6 222.5,113.8 222.4,114.4 
				222.3,114.9 221.9,115 221.3,114.7 221.1,114.7 221,114.9 220.9,115.1 220.7,115.5 220.5,115.9 220.4,116 220.3,116.1 
				219.7,116.3 219.5,116.4 219,116.6 218.9,116.6 219.2,116.3 219.3,116.2 219.3,115.5 219.2,115.3 219,114.9 218.6,114.7 
				218.2,114.6 218,114.5 217.8,114.4 217.6,114.7 217.5,114.8 217.3,114.9 216.8,115 216.6,115.2 216.5,115.3 216.3,115.4 
				216.3,115.6 216.3,115.8 216.3,116.1 216,116.3 215.6,116.4 215.2,116.4 214.9,116.5 214.2,116.7 214,116.7 213.7,117 
				213.3,117.5 213.2,117.6 213.2,118 213,119 212.8,119.3 212.6,119.6 212.5,120 212.7,120.4 212.9,120.5 213.2,120.6 213.3,120.4 
				213.4,120.2 213.7,119.7 213.9,119.1 214.4,118.3 214.5,118.1 214.5,117.9 215,117.6 215.3,117.6 215.6,117.8 215.7,118.3 
				215.7,118.4 216,118.4 216.2,118.4 216.5,118.1 216.6,117.8 216.7,118 216.8,118.1 216.8,118.3 216.9,118.4 217.3,118.7 
				217.6,118.9 217.9,118 217.9,117.8 217.9,117.7 218,117.5 218.2,117.4 218.4,117.4 218.6,117.4 218.8,117.6 218.9,117.7 
				219.6,118 220,118.3 220.4,118.8 220.5,118.9 220.5,119.1 220.4,119.3 220.3,119.5 220.1,119.7 219.9,119.9 219.7,120.3 
				219.7,120.5 219.7,120.7 219.9,121.4 219.9,121.9 220,122.3 220.5,122.9 221.1,123.3 221.9,123.7 222.9,124.1 223.1,124.2 
				223.3,124.1 223.5,124 223.8,123.5 223.9,123.5 224,123.5 224.1,123.6 224.1,123.9 224,124.4 224,124.5 224.2,125 224.4,125.1 
				224.8,124.8 225.3,124.1 225.5,123.8 225.5,122.9 225.2,122.1 225.1,122 224.9,121.7 224.7,121.6 224.5,121.3 224.6,121 
				224.8,120.6 225.1,120.2 225.4,119.9 225.5,119.7 225.5,119.5 225.6,119.4 225.9,119.1 226,119.1 226.3,119.9 226.5,120.1 
				226.6,120.5 226.8,120.8 226.9,121.2 227,122 227.1,122.3 227.3,122.6 227.4,122 227.5,121.2 227.3,120.8 227.4,120.6 
				227.7,120.7 228.2,120.2 228.5,119.6 228.7,119.4 228.7,119.1 228.7,118.4 228.6,117.9 228.5,117.8 228.4,117.7 228.1,117.4 
				228.1,117.1 228.2,116.3 228.2,116.1 228,115.7 227.9,115.1 227.6,115 227.2,114.9 227.1,114.8 227.1,114.7 227.4,114.4 
				227.6,114.2 227.7,113.9 227.7,113.5 227.4,113.1 227.3,112.9 227.3,112.4 226.9,112.5 226.7,112.3 226.5,111.9 226.2,111.6 			
				"/>
			<polygon class="st4" points="222.2,112.5 222,112.6 221.9,112.8 222,112.9 222.4,113.1 222.5,112.9 222.5,112.7 222.3,112.5 			
				"/>
			<polygon class="st4" points="212.8,97.6 212.8,97.6 212.5,97.6 212.4,97.5 212.2,98 212.2,98.4 212.4,98.5 212.9,98.8 213,98.7 
				213,98.6 213.3,98.2 213.2,98 213.2,97.9 			"/>
			<polygon class="st4" points="222.5,104.5 222.6,104.6 222.7,104.4 222.6,104.3 222.5,104.1 222.3,104 222.3,104.2 222.4,104.4 
							"/>
			<polygon class="st4" points="221.4,104.8 221.8,104.7 221.9,104.5 221.7,104.2 221.5,104.1 221.2,104 221,104.1 221.2,104.6 			
				"/>
			<polygon class="st4" points="212.9,103.3 212.7,103.3 212.5,103.5 212.5,103.7 212.6,103.8 213.1,103.9 213.2,104.1 213.2,104.2 
				213,105.3 213,106.1 212.9,106.5 212.7,106.9 212.7,107.3 212.7,107.5 212.8,107.7 212.6,108.2 212.6,108.3 212.7,108.4 
				212.8,108.3 213,108.1 213.2,107.9 213.5,107.8 214.6,107.5 215.2,107.1 215.5,107.1 215.6,106.9 215.6,106.7 215.6,106.5 
				215.8,106.4 216.1,106.3 216.3,106 216.5,105.8 216.7,105.5 216.8,105.2 216.8,104.9 216.8,104.6 216.6,104.6 215.9,104.9 
				215.9,104.8 216,104.6 215.7,104.4 215.3,104.3 214.9,104.5 214.5,104.3 214.2,104 213.8,103.8 213.1,103.5 			"/>
			<polygon class="st4" points="223.8,109.4 223.6,109.4 223.7,109.7 224.2,110.1 224.2,110 224,109.5 			"/>
			<polygon class="st4" points="220.8,104.8 220.9,105 221,105.2 221.2,105.9 221.3,106.7 221.5,106.8 221.9,106.6 222,106.6 
				222.3,106.9 222.5,107.2 222.5,107.4 222.5,107.6 222.3,108.4 222.5,108.8 222.5,109 222.4,109.3 222.5,109.4 222.9,109.6 
				223.3,109.8 223.3,109.5 223.2,109.2 223.1,108.6 223.3,108.8 223.6,109.2 223.7,109.3 223.7,109.1 223.7,109 224.1,109 
				224.1,108.9 224.1,108.7 223.9,108.3 223.8,107.9 223.8,107.7 223.6,107.5 223.5,107.4 223.3,107.3 223.2,107.2 223.3,106.6 
				223.3,106 223.3,105.7 223.2,105.6 222.9,105.2 222.6,105.1 222.2,105.3 222,105.4 221.7,105.3 221.6,105.1 221.5,105 
				221.2,104.9 221,104.7 220.9,104.6 			"/>
			<polygon class="st4" points="214.9,102 215.1,101.9 215.2,101.7 215.2,101.5 214.9,101.3 214.5,101.3 214.3,101.4 214.3,101.5 
				214.6,101.7 			"/>
			<polygon class="st4" points="213.9,101.1 213.8,100.9 213.8,100.9 213.7,101 213.7,101.2 213.8,101.3 			"/>
			<polygon class="st4" points="219,101.7 219,101.4 218.7,100.9 218.4,100.6 218.3,100.8 218.4,101 218.8,101.6 			"/>
			<polygon class="st4" points="218.2,101.4 217.9,101.2 217.4,101.1 217.1,101 217.1,101.3 217.2,101.6 217.1,101.8 217,102.6 
				216.8,103.1 216.8,103.2 217.3,102.9 217.7,102.3 217.9,102.2 218.1,102.3 218.4,102.7 218.6,102.7 218.6,102.8 218.8,103 
				218.8,103.2 218.9,103.2 219.2,103.3 219.7,103.6 219.9,103.8 219.9,103.6 219.9,103.1 219.4,102.4 218.8,102 218.3,101.6 			"/>
			<polygon class="st4" points="229.1,130.3 229.1,130.5 229.3,130.5 229.5,130.4 229.6,129.9 229.8,129.6 229.7,129.3 229.6,128.9 
				229.5,128.7 229.3,128.7 229.1,129.1 229.1,129.4 229.3,129.6 229.5,129.7 229.3,130 			"/>
			<polygon class="st4" points="212.7,95.5 213.4,96 213.4,95.9 212.7,95.2 212.6,95.3 212.6,95.4 			"/>
			<polygon class="st4" points="219.9,97.4 220.3,97.7 220.6,97.5 220.8,97.5 220.9,97.5 221,97.3 221.1,97.1 221.1,96.9 
				221.2,96.5 220.9,96.3 220.8,96.2 220.5,95.8 220.4,95.8 220.3,95.9 220.2,96.1 220.2,96.8 219.9,97.2 			"/>
			<polygon class="st4" points="220.8,101 220.9,101.6 221.1,102.1 221.3,102.5 221.6,102.7 221.7,102.8 222.1,102.9 222.3,103.2 
				222.5,103.3 222.6,103.5 222.8,103.8 223,103.8 223.2,103.8 223.2,104 223.1,104.2 222.9,104.5 223,104.8 223.3,105.3 
				223.5,105.5 223.7,105.5 224,106 224.3,106 224.7,106.1 225.4,106 225.5,106 225.7,106.3 225.8,106.2 225.6,105.9 225.4,105.6 
				225.2,105.6 225.2,105.5 225.3,105.3 225.2,105.1 224.9,104.6 224.9,104.4 224.9,104.2 224.9,104 224.8,103.8 224.8,103.1 
				225,102.8 224.9,102.5 225,102.3 224.9,102.1 224.6,102 224.4,102 224.3,101.9 224.3,101.6 224.3,101.4 224,101.2 223.7,101 
				222.6,101.1 221.7,101.2 			"/>
			<polygon class="st4" points="212.5,93.7 212.6,93.7 212.8,93.7 212.9,93.4 212.7,92.9 212.9,92.6 212.9,92.6 213,92.6 
				212.9,92.5 212.7,92.4 212.3,92.4 212.2,92.7 212.4,92.8 212.5,93.1 212.6,93.2 212.6,93.5 212.6,93.5 			"/>
			<polygon class="st4" points="199,112.5 198.8,112.5 198.6,112.5 198.1,113 197.6,113.5 197.4,113.7 197,114.2 196.8,114.4 
				196.4,115 196.4,115.2 196.3,115.5 196.6,115.3 197,115.1 197.2,115.1 197.3,115 197.4,114.8 197.5,114.6 197.9,114.5 
				198.3,114.3 198.6,114.1 199,113.8 199.3,113.4 199.5,113 199.8,112.8 200.2,112.7 200.5,112.5 200.8,112.2 201,111.9 
				201.7,110.7 201.6,110.4 201.7,110.2 201.9,110.1 202.3,109.9 203.1,109.7 203.2,109.6 203.3,109.4 203.5,109 203.7,108.8 
				203.9,108.7 204.3,108.6 204.5,108.5 204.8,108.2 204.8,108 204.6,107.5 204.3,106.6 204.4,106.3 204.3,106.1 204.3,105.9 
				204.4,105.5 204.4,105.4 204.2,105.3 204.1,105.4 203.6,106.3 203.5,106.5 203.4,107 203.5,107.3 203.6,107.5 203.5,107.9 
				203.2,108.3 203.1,108.4 203,108.5 202.8,108.6 202.6,108.7 201.9,109.5 201.8,109.5 201.5,109.8 200.9,110.6 200.2,111.3 
				199.4,112.2 199.1,112.4 			"/>
			<polygon class="st4" points="205.9,88.3 205.7,88.2 205.5,88 205.3,87.9 205.2,88 205.1,88.1 205.1,88.8 205.1,89 205.3,89.2 
				205.4,89.4 205.5,89.5 205.6,89.6 205.7,91 205.8,91.3 205.9,91.7 206,92.1 206.1,92.6 206.2,93 206.4,93.2 206.7,93.2 
				206.8,93.2 206.9,93.6 207.2,93.9 207.3,94.3 207.4,94.4 207.6,94.5 207.8,94.5 208,94.3 207.9,93.9 207.8,93.3 207.9,92.9 
				208.1,93.2 208.4,93.3 208.7,93.4 209,93.5 209.2,93.8 209.2,94.1 209.1,94.3 208.3,95 208.1,95.2 208.1,95.4 208.1,96 
				208.1,96.7 208.4,96.4 208.8,96.4 209.1,96.9 209.4,96.9 209.7,97.1 210.1,97.3 210.6,97.2 210.9,97 210.9,96.8 211.1,96.6 
				211.6,96.3 211.8,96.2 211.9,96.2 212.1,96.2 213.1,96.8 213.5,97.2 214.1,97.7 214.2,97.8 214.5,98.2 214.6,98.4 214.6,98.6 
				214.9,98.8 215.2,98.6 215.1,98.1 214.9,97.7 214.9,97.6 214.6,97.2 214.6,97.1 214.6,96.8 214.5,96.6 214.4,96.4 214.5,96.3 
				214.7,96.3 214.9,96.3 215.5,96.9 215.8,97.4 215.9,97.4 216.8,98 216.9,98.1 217,98.3 217.3,98.8 217.3,99.2 217.4,99.4 
				217.7,99.4 218.4,99.8 218.8,99.9 219.1,99.8 219.3,99.7 219.5,99.7 219.6,99.8 219.4,100.2 219.3,100.6 219.6,100.9 219.9,101 
				220.2,100.2 220.2,99.4 220.1,99.4 220,99.4 219.6,99.2 219.3,99.1 219,99.1 219.1,98.8 219.1,98.6 218.9,98.3 218.7,98 
				218.4,97.7 218.2,97.3 218.4,97.1 219.1,97 219.2,96.7 219.1,96.6 218.8,96.4 218.6,96.4 218.5,96.4 217.8,96.1 217.6,95.9 
				217.4,95.8 217.3,95.9 217.2,96.1 217.3,96.2 217.3,96.6 217.1,96.9 216.6,96.9 216.5,96.8 216.5,96.6 216.5,96.4 216.5,96.2 
				216.3,95.7 216.1,95.4 215.8,95.1 215.5,95 215,94.9 214.5,94.9 214.2,95.1 213.8,95.4 213.7,95.4 213.5,95.5 213.5,95.6 
				213.8,95.9 213.8,96 213.6,96.1 213.6,96.3 213.3,96.3 213.1,96.2 212.5,96 212.3,95.8 212.1,95.6 212,95.4 212,95.2 211.6,94.3 
				211.5,94 211.5,93.6 211.8,93.4 211.7,93.3 211.7,93.3 211.3,92.5 210.9,91.8 210.8,91.6 210.7,91.4 210.8,91.2 210.9,91.1 
				211.1,90.7 211.4,90.3 211.5,90.2 211.5,90 211.4,89.8 211.3,89.6 211.4,89.3 211.7,89 212.1,88.8 212.7,88.5 213.3,88.4 
				213.6,87.8 213.6,87.5 214.3,86.1 214.4,85.5 214.6,85.3 214.6,85.1 214.4,85 214.2,84.9 214.2,84.7 214.2,84.4 214.1,84.3 
				213.8,84.1 213.7,84 213.4,83.5 213.4,83.2 213.4,82.8 213.5,81.7 213.6,81.4 213.8,81.1 213.9,80.8 213.9,80.6 213.7,80.4 
				213.6,80.2 213.3,80.3 213.1,80.7 213,80.8 212.7,81 212.3,80.9 211.9,80.8 211.4,80.6 210.3,80 209.7,79.8 209.6,79.8 
				209.1,79.9 208.9,79.9 208.7,79.8 208.4,80 208,80.2 207.9,80.7 207.8,81 207.7,81.4 207.2,83.3 207.2,83.6 207.4,84 207.4,84.2 
				207.3,84.6 207.4,85.2 207.3,85.7 207,86.3 207,86.8 207,87.2 207,87.6 207.3,88.2 207.3,88.5 207.2,88.6 207.1,88.8 206.9,88.8 
				206.5,88.9 206.4,88.8 206,88.4 			"/>
			<polygon class="st4" points="225.9,120.4 225.9,119.8 225.7,119.6 225.5,120 225.6,120.1 225.8,120.6 			"/>
		</g>
		<g>
			<g>
				<polygon class="st4" points="136.7,111.4 136.6,111.7 136.7,111.9 137,111.8 137.1,111.5 137.1,111.3 137,111.4 136.7,111.4 
									"/>
			</g>
			<g>
				<polygon class="st4" points="135.8,122.5 136,122.8 136.1,122.8 136.2,122.6 136.4,122.7 136.5,122.6 136.6,122.5 136.3,122.1 
					136.2,122.2 136,122.3 135.9,122.2 135.6,122.3 135.7,122.4 				"/>
			</g>
			<g>
				<polygon class="st4" points="137.1,111 137.1,111 137.1,110.8 137,110.6 136.8,110.6 136.9,110.8 137,110.9 				"/>
			</g>
			<g>
				<polygon class="st4" points="145.1,102.7 144.9,102.5 144.7,102.5 144.7,102.6 144.8,103.1 145,103.1 145.1,103 145.3,103.1 
					145.2,103 145.2,102.9 				"/>
			</g>
			<g>
				<polygon class="st4" points="145.7,104.1 145.6,104.3 145.8,104.5 145.9,104.1 145.7,104.1 				"/>
			</g>
			<g>
				<path class="st4" d="M156.4,92.5c0-0.5-0.3-1-0.3-1.4c0-0.3,0.2-0.6,0.2-1c0.1-1.2-1.6-1.7-2.4-2.6c-1.1-1.3-0.1-3.4-0.7-4.9
					c-0.4-1.1-1.6-1.8-2.7-2.3c-1-0.4-2.4-0.7-3.1,0.2c-0.3,0.5-0.5,1.2-1.1,1.3c-0.6,0.1-1-0.5-1.5-0.8c-0.6-0.4-1.4-0.1-2,0.3
					c-0.6,0.4-1,1-1.6,1.5c-0.1,0.1-0.2,0.2-0.4,0.2c-0.3,0-0.4-0.4-0.3-0.7c0.1-0.3,0.3-0.5,0.4-0.8c0.3-0.8-0.5-1.6-0.2-2.4
					c0.2-0.5,0.7-0.8,0.8-1.3c0.1-0.8-0.7-1.7-0.2-2.3c-0.5-0.6-1.6,0.2-2.1-0.3c-0.3-0.3-0.2-0.8-0.3-1.2c-0.1-0.7-0.8-1.2-1.5-1.4
					c-0.7-0.1-1.4,0-2.2,0.1c0.3,0.3-0.1,0.7-0.4,0.8c-0.4,0.1-0.8,0.1-1,0.3c-0.2,0.3-0.2,0.7-0.4,0.9c-0.2,0.2-0.6,0.2-0.9,0.2
					c-0.8,0-1.6-0.1-2.5-0.1c-1,1.1-1.3,2.7-0.9,4.1c-0.5-0.1-1,0.1-1.3,0.5c1.1,0.7,1.2,2.3,2,3.3c0.6,0.8,1.7,1.2,2,2.1
					c0.2,0.6,0.1,1.3,0.4,1.8c0.1,0.2,0.4,0.4,0.4,0.6c0,0.2,0,0.4-0.1,0.6c-0.4,0.8-0.9,1.5-1.3,2.3c-0.3,0.8-0.4,1.8,0.2,2.4
					c0.4,0.4,0.9,0.6,1.3,0.9c1,0.7,1.3,2.1,1.3,3.3c0,1.2-0.1,2.5,0.4,3.6c0.2,0.5,0.6,1,0.7,1.6c0.5,1.4-0.2,2.9-1,4.2
					c-0.8,1.2-1.7,2.3-2.5,3.5l0.1,0.2l0.3-0.5l0.2,0l-0.5,1.2l-0.2,1l-0.2,0.2l-0.2,0.7l-0.2,1.1l-0.3,0.7l-0.1,0.8l0,0.4l0.2,0.7
					l0.2,0.1l0.2,0l0.2-0.2l0.1-0.2l0.3-0.1l0.2,0.1l0.2,0.2l0.3,0.7l0.3,0.1l0.3,0.2l0.3,0.3l0,0.7l0.1,0.4h0.4l0.3,0.1l0.1,0.1
					l0.2,0.7l0.3,0.2h0.3l0.2-0.2l-0.2,0.4l0.2,0.2l0.2,0l0.2,0.1l-0.1,0.8l0.6,0.4l0.9,1.1l0.1,0.3c0.1-0.1,0.2-0.2,0.3-0.3
					c0.1-0.1,0.1-0.3,0.2-0.3c0.2-0.1,0.4-0.1,0.6-0.1c1.5,0.3,2.5,1.8,2.5,3.3c1.5-0.9,3.1-0.5,4.3-1.3l-0.3-0.5l-0.2-0.1l-0.6-0.1
					l-1-0.8l-0.6-1l-0.4-0.4l-0.3-0.1l-0.3,0l-0.5,0.1l-0.5,0l-0.8-0.5l-0.3-0.3l-0.4-0.3l-0.3,0.1l-0.2-0.1l-0.2-0.3l-0.6-0.8
					l-0.2-0.3l0-0.4l0.3-0.2l0.2,0.2l0,0.2l-0.2,0.2l0,0.1l0.2,0l0.1,0l0.1,0.3l0.1,0.6l0.4,0.2l-0.1-0.4l-0.2-0.4l-0.6-2.8
					l-0.2-0.5l-0.2-0.3l0,0.1l0,0.1l-0.1,0.1l-0.3-0.3l-0.2-0.3l-0.1-0.3l-0.2-1.5l-0.1-0.3l-0.1-0.3l-0.4-0.1l-1.1,0.3l-0.2,0
					l-0.3-0.1l0-0.3l0.1-0.2l-0.3-0.7l-0.1-0.4l0-0.7l0.1-0.8l0-0.3l-0.1-0.2l0.3-0.2l0.2-0.6l0.7-1.1l0.1-0.7l0.2-0.4l0.2-0.9
					l0.3-0.7l0.3-0.3l0.1-0.7l0.3-0.4l0.2-0.4l0.1-0.6l-0.1-1.2l0.1-0.3l0.4-1l-0.1-0.4l-0.2-0.3l0.1-0.4l0.4-0.3l0.4-0.2l1-0.1
					l0.2-0.2l0.2,0.2l0.9,0.2l0.2,0.1l-0.1,0.3l-0.1,0.2l0.1,0.4l-0.1,0.5l0,0.8l-0.1,0.4l0.1,0.2l0.2,0.1l0.5-0.2l1.2,0.2l1-0.2
					l0.4,0.2l0.2,0.2l0.2,0.1l0.3,0.1l0.3,0.3l0.3,0.4l0.1-0.1l0-0.1l0.3,0.5l0.3,0.3l0.4,0.2l0.1-0.2l0.1-0.2l0.2,0.2l0.3,0.3
					c-0.1-1-0.3-1.9-0.7-2.8c-0.4-1-0.9-2.3-0.2-3.1c0.2-0.2,0.5-0.4,0.7-0.6c0.6-0.5,0.7-1.5,1.5-1.8c0.4-0.2,0.8-0.2,1.2-0.1
					c1.2,0.1,2.4,0.2,3.7,0.2c0.9,0.1,1.7,0.1,2.5-0.2C155.8,94.2,156.4,93.4,156.4,92.5z"/>
			</g>
			<g>
				<polygon class="st4" points="131.2,116.4 131.1,116.2 131,116.3 130.9,117.1 131,117.6 131,117.6 131.2,117.4 131.3,117.4 
					131.4,117.2 131.3,116.9 131.5,116.5 				"/>
			</g>
			<g>
				<polygon class="st4" points="135.7,121.2 135.5,121.6 135.6,121.9 135.7,121.9 135.8,121.7 				"/>
			</g>
			<g>
				<polygon class="st4" points="130.8,113 130.8,113.2 131,113.2 131,113.1 131,112.9 130.9,112.9 				"/>
			</g>
			<g>
				<polygon class="st4" points="132,117.1 132,117 132,116.6 131.8,116.4 				"/>
			</g>
			<g>
				<polygon class="st4" points="133.5,118.1 133.5,118.4 133.6,118.5 133.8,118.6 133.7,118.2 133.6,118.1 				"/>
			</g>
		</g>
	</g>
</g>
</svg>
