<?xml version="1.0" encoding="utf-8"?>
<!-- Generator: Adobe Illustrator 19.2.1, SVG Export Plug-In . SVG Version: 6.00 Build 0)  -->
<svg version="1.1" id="Layer_1" xmlns="http://www.w3.org/2000/svg" xmlns:xlink="http://www.w3.org/1999/xlink" x="0px" y="0px"
	 viewBox="0 0 50 50" style="enable-background:new 0 0 50 50;" xml:space="preserve">
<style type="text/css">
	.st0{opacity:0.4;}
</style>
<path class="st0" d="M23.4,2.7c-0.7,0.7-0.7,1.7,0,2.4l17.8,17.8l-36.4,0c-0.9,0-1.7,0.8-1.7,1.7s0.8,1.7,1.7,1.7l36.4,0L23.4,44.1
	c-0.7,0.7-0.7,1.7,0,2.4c0.7,0.7,1.7,0.7,2.4,0l20.7-20.7c0.2-0.2,0.3-0.3,0.4-0.5c0.1-0.2,0.1-0.4,0.1-0.6s0-0.4-0.1-0.6
	c-0.1-0.2-0.2-0.4-0.4-0.5L25.8,2.7C25.1,2,24,2,23.4,2.7z"/>
</svg>
