<?xml version="1.0" encoding="utf-8"?>
<!-- Generator: Adobe Illustrator 19.2.1, SVG Export Plug-In . SVG Version: 6.00 Build 0)  -->
<svg version="1.1" id="Layer_1" xmlns="http://www.w3.org/2000/svg" xmlns:xlink="http://www.w3.org/1999/xlink" x="0px" y="0px"
	 viewBox="0 0 1920 1080" style="enable-background:new 0 0 1920 1080;" xml:space="preserve">
<style type="text/css">
	.st0{fill:none;stroke:#FBC251;stroke-miterlimit:10;}
	.st1{fill:#EF6E45;}
	.st2{font-family:'MuseoSans-100';}
	.st3{font-size:27px;}
	.st4{letter-spacing:1;}
	.st5{fill:#231F20;}
	.st6{font-size:18px;}
	.st7{opacity:0.54;}
	.st8{fill:#52A85B;}
</style>
<g>
	<path class="st0" d="M291.6,385"/>
	<text transform="matrix(1 0 0 1 662.521 802.6777)" class="st1 st2 st3 st4">EGYPT</text>
	<text transform="matrix(1 0 0 1 754.3682 722)" class="st5 st2 st6">MIDDLE EAST</text>
	<text transform="matrix(1 0 0 1 1294.7559 906)" class="st5 st2 st6">INDIA</text>
	<text transform="matrix(1 0 0 1 557.8459 638.1958)" class="st5 st2 st6">GREECE</text>
	<text transform="matrix(1 0 0 1 439.0591 565.1523)" class="st5 st2 st6">ROME</text>
	<text transform="matrix(1 0 0 1 542.5659 548.5894)" class="st5 st2 st6">LEPENSKI VIR</text>
	<text transform="matrix(1 0 0 1 390.1797 236.1426)" class="st5 st2 st6">SCANDINAVIA</text>
	<g class="st7">
		<circle class="st8" cx="814.5" cy="666" r="38.1"/>
	</g>
	<text transform="matrix(1 0 0 1 225.8342 420)" class="st5 st2 st6">BRITISH ISLES </text>
	<g class="st7">
		<circle class="st8" cx="1320.1" cy="855.5" r="33.2"/>
	</g>
	<g class="st7">
		<circle class="st8" cx="594.4" cy="593.7" r="25"/>
	</g>
	<g class="st7">
		<circle class="st8" cx="602" cy="505.5" r="25"/>
	</g>
	<g class="st7">
		<circle class="st8" cx="466.3" cy="521.2" r="25"/>
	</g>
	<g class="st7">
		<circle class="st8" cx="289" cy="377" r="25"/>
	</g>
	<g class="st7">
		<circle class="st8" cx="395.3" cy="245.3" r="25"/>
	</g>
	<g class="st7">
		<circle class="st8" cx="705.9" cy="740.1" r="37.5"/>
	</g>
	<g class="st7">
		<circle class="st8" cx="814.5" cy="666" r="38.1"/>
	</g>
	<g class="st7">
		<circle class="st8" cx="1320.1" cy="855.5" r="33.2"/>
	</g>
	<g class="st7">
		<circle class="st8" cx="594.4" cy="593.7" r="25"/>
	</g>
	<g class="st7">
		<circle class="st8" cx="602" cy="505.5" r="25"/>
	</g>
	<g class="st7">
		<circle class="st8" cx="466.3" cy="521.2" r="25"/>
	</g>
	<g class="st7">
		<circle class="st8" cx="289" cy="377" r="25"/>
	</g>
	<g class="st7">
		<circle class="st8" cx="395.3" cy="245.3" r="25"/>
	</g>
	<g class="st7">
		<circle class="st8" cx="705.9" cy="740.1" r="37.5"/>
	</g>
</g>
</svg>
