<?xml version="1.0" encoding="utf-8"?>
<!-- Generator: Adobe Illustrator 19.2.1, SVG Export Plug-In . SVG Version: 6.00 Build 0)  -->
<svg version="1.1" id="Layer_1" xmlns="http://www.w3.org/2000/svg" xmlns:xlink="http://www.w3.org/1999/xlink" x="0px" y="0px"
	 viewBox="0 0 1920 1080" style="enable-background:new 0 0 1920 1080;" xml:space="preserve">
<style type="text/css">
	.st0{fill:none;stroke:#C86D59;stroke-width:3;stroke-miterlimit:10;stroke-dasharray:4,7;}
	.st1{fill:none;stroke:#FBC251;stroke-miterlimit:10;}
</style>
<g>
	<path class="st0" d="M796.9,630.9c-14.7-22.4-39.7-49-79.3-59.2c-73.3-18.9-122.3,22.9-122.3,22.9"/>
	<path class="st0" d="M823.1,625.6c-1.1-30.2-9.9-78.9-51-114.5c-63.8-55.2-133.4-37.7-133.4-37.7s-10.9,1.8-22.4,6.9"/>
	<path class="st0" d="M776.3,684c-47,26.2-101.2,41.2-158.8,41.2c-180.2,0-326.2-146.1-326.2-326.2"/>
	<path class="st0" d="M1292.9,879.6c-38.4,31.8-85.7,53.9-138.7,61.6c-153.8,22.5-296.7-83.9-319.2-237.7"/>
	<path class="st1" d="M291.6,385"/>
	<path class="st0" d="M705,750.7c38.1,0,71.5-20.1,90.2-50.2"/>
	<path class="st0" d="M472.5,504.9c28.6-72.1,99-123.1,181.3-123.1c107.7,0,195,87.3,195,195c0,20.5-3.2,40.3-9,58.9"/>
	<path class="st0" d="M852.6,648c59.6-55.9,96.9-135.5,96.9-223.7c0-169.4-137.3-306.7-306.7-306.7c-76.2,0-145.9,27.8-199.5,73.8
		c0,0-29.5,22.2-32.9,38.4"/>
</g>
</svg>
