<?xml version="1.0" encoding="utf-8"?>
<!-- Generator: Adobe Illustrator 19.2.1, SVG Export Plug-In . SVG Version: 6.00 Build 0)  -->
<svg version="1.1" id="Layer_1" xmlns="http://www.w3.org/2000/svg" xmlns:xlink="http://www.w3.org/1999/xlink" x="0px" y="0px"
	 viewBox="0 0 1920 1080" style="enable-background:new 0 0 1920 1080;" xml:space="preserve">
<style type="text/css">
	.st0{opacity:0.5;}
	.st1{fill:#52A75B;}
	.st2{opacity:0.5;fill:#52A75B;enable-background:new    ;}
	.st3{fill:#2C9021;}
	.st4{font-family:'MuseoSans-500';}
	.st5{font-size:18.98px;}
	.st6{font-size:18.9315px;}
	.st7{font-size:18.9277px;}
	.st8{opacity:0.82;}
	.st9{fill:url(#SVGID_1_);}
	.st10{fill:url(#SVGID_2_);}
</style>
<title>DomesticationMap.Region</title>
<g>
	<g id="Maps_Color_Regions">
		<g class="st0">
			<path class="st1" d="M1529,777.8c-5-0.1-9.7-2.8-14.2-5.8c-4.1-2.7-8.6-5.5-11.7-10.1c-8.1-11.8-16-24.2-24.2-34.3
				c-12.8-15.8-24.9-26.8-30-29c-1.1-0.2-1.8-1.5-2.9-1.7s-2.4,0.7-3.4,0.4s-1.8-1.5-2.7-1.7s-2.2,0.7-3.1,0.6
				c-2.2-0.3-4.2-1.8-6.5-2s-4.6,0.6-6.8,0.3c-12.7-1.5-25.3-4.3-37.4-8.5c-11.6-4-23.1-9.5-32-20.5c-3.3-4-4.9-9-6.8-13.7
				c-1.8-4.6-4.1-9.1-4.7-14.4c-1.8-2.1-2.5-4.9-4.2-7.2s-4.2-4-5.7-6.4c-5-7.9-10.7-15.4-18.6-20.7c-7.4-5-16.4-7.7-26-10
				c-4.9-1.2-9.2-3.2-13.7-3.9c-4.7-0.8-9.4-0.2-14.2-0.8c-5.7-0.7-11.4-2.6-17.9-3.7c-5.4-0.9-11.5-0.9-18.1-2.4
				c-0.9-0.2-1.6-1.5-2.4-1.6s-1.9,1-2.7,1c-5.3,0-10.1,1.2-13.6,4c-4.7,3.8-6.8,9.3-8,11.7c-0.7,6.3-1.7,12.6-1.2,19.1
				c0.5,6.2,2.4,12.5,3.3,19c1.1,8.3,1.1,16.8,1.5,25.4c0.4,8.3,1.2,16.9-0.5,25.4c-2.7,13.5-10.6,21.6-18.9,27.2
				c-10.6,7.2-22.8,10.6-31.5,12.2c-0.1,0-0.3-1.1-0.4-1s0.1,1.1,0,1.2s-0.3-1.1-0.5-1.1s0,1.1-0.2,1.2c-0.3,0.1-0.8-1-1.2-1
				s-0.5,1.2-0.9,1.2c-1.2,0.2-1.4-0.9-2.7-0.8s-1.1,1.5-2.4,1.5c0.2-0.3,0.3-0.6,0.6-0.9c-0.2,0.1-0.4,0.1-0.6,0.3
				c-5.8-0.3-11.1-3.2-16.3-6.6c-4.6-3-9.6-6.3-13.5-11.5c-1.6-2.1-2.6-5.4-4.4-8.5c-1.6-2.7-4.1-5.2-4.9-8.2
				c-0.9-3.3,0.2-6,0.7-8.2c0.7-3,1.4-5.7,3.2-7.6c0,0,0.8,0.8,0.9,0.7s-0.8-0.8-0.8-0.8s1.2,0.4,1.3,0.2s-0.6-1.1-0.4-1.3
				c1.2-1.4,3.3-2.5,4.4-4.4c1-1.7,0.9-4,1.8-5.9c1.4-3,3.6-5.8,4.7-9.1s0.9-6.9,1.9-10.1c0.6-2.2,2.4-4,3-6.3s0.3-4.7,1-6.9
				c1.2-3.3,3.5-6.2,4.9-9.7c1.3-3.2,1.7-6.9,3.2-10.3c0.1-0.2,1.1,0.2,1.2,0s-0.9-0.7-0.8-0.9s1.1,0.5,1.2,0.3s-0.9-0.7-0.8-0.8
				c0.3-0.7,1.3-0.3,1.7-1s-0.7-1.2-0.4-1.9c0,0,1.1,0.4,1.1,0.4s-1-0.5-1-0.5c0.6-1.2,2.2-2,2.7-3.1s0.2-2.9,0.7-4.1
				c0.2-0.4,1.4-0.4,1.6-0.9s-0.7-1.3-0.5-1.8c0.1-0.2,1.2,0.1,1.2-0.1s-1-0.7-0.9-1c0.3-0.5,1.3,0,1.6-0.4s-0.6-0.9-0.4-1.5
				c0.2-0.8,1.2-0.5,1.3-1.4s-1-1-0.9-1.8c0.1-0.3,1.2,0.1,1.3-0.2s-1-0.6-0.9-0.9c0.3-0.8,1.6-1.1,1.9-1.8s-0.4-2,0-2.6
				c0.9-1.8,2.9-2.6,4-3.8c1.4-1.6,2.1-3.6,3.2-4.5c0.1,0,0.8,0.8,0.9,0.7s-0.8-0.5-0.8-0.6c-0.1-0.5,0.9-1.1,0.8-1.6
				s-1.3-0.7-1.4-1.2c-0.4-1.9,0.2-4.2-0.1-6.7c-0.2-2-1.3-4.2-1-6.6c0-0.3,1.2-0.5,1.3-0.8s-1-0.8-1-1.2s1.2-0.1,1.2-0.4
				s-1.1-0.5-1-0.8c0,0,1.1,0.2,1.1,0.2s-1.1,0-1.1,0c-0.1-0.2,1-0.5,1-0.7s-1.2,0-1.2-0.2s1.1-0.5,1.1-0.8s-0.9-0.1-1.1-0.4
				c-0.7-1.2,0.1-1.7-0.8-2.8s-2-0.3-2.7-1.5c-0.3-0.6,1-1.1,0.8-1.8s-1.2-0.5-1.3-1.3c-0.4-3,1-5.9,2.1-9c0.9-2.6,1.4-5.8,3.5-8.5
				c1.3-3.1,4.3-5.3,7.3-8c2.4-2.2,4.7-5.1,8.3-7.1c0.3-0.3,1.3,0.4,1.6,0.1s-0.1-1.5,0.2-1.7c5.3-4.9,11.2-8.3,16.5-12.1
				c5.7-4.1,10.9-8.7,16.8-11.7c9.3-4.8,19.7-7.2,30.8-9.4c9.9-2,20.4-4.1,32-4.1c0.5,0,1,1.1,1.5,1.1s1-1.1,1.5-1.1
				c12.8,0.2,25.3,1.6,37.6,3.1c12.6,1.5,25.1,2.9,36.8,7.6c7,2.8,13.2,7.4,19.6,12c6,4.3,12.5,8.5,17.9,14.3
				c18.5,16.7,30.2,32,40.5,47.2c11.7,17.2,22.1,35.2,31.4,53.8c0.6,1.1-0.4,1.6,0.1,2.7s1.6,0.6,2.1,1.7c6.1,12,10.8,20.1,17,25
				c7.7,6.3,16.8,7.8,28.2,11c4.3,1.2,8.6,3.7,13.5,5.3c4.2,1.4,9.2,2,13.9,4.1c26.5,11.4,47.2,22,63.9,30.3
				c37.8,18.6,53.9,29.9,56.4,40.7c0.7,3-0.5,6-1.2,8.8s-1.1,6-3,8.4c-3.8,4.8-10.3,7.5-16.6,9.8s-13.1,4.6-18.8,4.6
				c-1.7,0-3.2-1.2-4.8-1.4s-3.5,0.6-5,0.2c-1.2-0.3-0.9-1.4-2.2-1.8s-2.2,1.2-3.1,0.2c-1.4-1.6,0.1-2.6-0.7-4.5s-2.2-1.5-2.7-3.6
				c-0.2-1,1.3-1,1.4-2.1s-0.8-1.1-0.8-2.2c0-0.3,0.9-0.5,0.7-0.8s-1,0.5-1.2,0.3c-1.2-1.1-0.4-1.9-1.6-3s-2.1-0.2-3.2-1.3
				c-1.3-1.4-0.3-2.3-1.4-3.8s-1.9-0.9-3.2-2.4c-0.7-0.8,0-1.5-0.8-2.2s-1.8,0.2-2.4-0.6c-0.3-0.4,0.8-1,0.7-1.4s-0.2-0.3-0.7-0.2
				c-2.8,0.7-3,0.1-5.6,1.3s-2.2,3.8-5,3.5c-2.6-0.3-1.5-2.7-3.5-4.4s-2.6-0.9-4.7-2.6c-0.4-0.3,0.2-1.2-0.3-1.4s-0.5,0.4-1,0.6
				s-1-0.4-1.3,0s0.6,1.3,0.1,1.7c-1.1,1-1.9,0.1-3.1,1s-0.4,2.3-1.8,2.8c-1.1,0.5-1.4-1-2.7-1s-1.1,1-2.3,1.2
				c-0.4,0.1-0.8-0.8-1-0.5s0.3,1.3,0,1.4c-0.8,0.3-1.2-0.8-2.1-0.6s-0.5,1.3-1.4,1.6c-1.1,0.3-1.4-0.8-2.6-0.5s-1.3,0.1-1.5,1.3
				c-0.6,3.4-0.6,3.4-0.1,6.8s2.3,3.3,2.1,6.7c0,0.7-1.1-0.7-1.8-0.8s-0.5,0.4-1,0.8s-0.7,0.3-0.6,0.8s1.1,0.1,1.4,0.6
				s-0.6,1-0.2,1.5s1.3-0.3,1.6,0.2c2.7,4.4,1.6,5,4.2,9.5s8.4,4.2,6.2,8.9c-2,4.2-5.2-1.1-9.9-1S1533.7,777.9,1529,777.8z"/>
		</g>
		<g class="st0">
			<path class="st1" d="M1529.2,771.8c-4-0.1-7.8-2.6-11.5-5.1c-3.3-2.2-7.1-4.5-9.7-8.2c-7.2-10.5-16-24.3-25.6-36
				c-12.5-15.3-25.5-27.5-31.9-29.8c-1.1-0.2-2-1.5-3.1-1.7s-2.5,0.6-3.6,0.4s-1.9-1.6-2.8-1.8s-2.3,0.7-3.3,0.5
				c-2.2-0.3-4.3-1.8-6.6-2.1s-4.7,0.6-6.9,0.3c-12-1.4-23.8-4-35.2-7.8c-11.1-3.7-21.9-8.7-30.2-18.9c-3.1-3.8-4.5-8.5-6.2-13.1
				c-1.6-4.3-3.7-8.6-4.2-13.8c-1.9-2.2-2.8-5.1-4.6-7.6s-4.4-4.2-6-6.8c-5.4-8.6-11.7-16.6-20.1-22.4c-8-5.4-17.8-8.4-28.1-11
				c-5-1.2-9.4-3.2-14-4c-4.8-0.8-9.7-0.3-14.5-0.9c-5.6-0.7-11.2-2.6-17.6-3.6c-5.3-0.9-11.3-0.9-17.8-2.4c-1.1-0.3-2-1.6-3.1-1.7
				s-2.3,0.9-3.4,0.9c-6.8,0-12.8,1.7-17.1,5.2c-6.6,5.2-9.4,12.8-10.3,14.7c-0.8,6.8-1.9,13.5-1.4,20.4c0.5,6.7,2.5,13.3,3.4,20.3
				c1.1,8,1,16.2,1.4,24.4s1.3,16.3-0.3,24.5c-2.4,12-9.4,19-17.4,24c-8.7,5.3-18.4,8.9-28.4,10.7c0,0-0.3-1.1-0.3-1.1
				s0.2,1.1,0.2,1.1s-0.2-1.1-0.3-1.1s0.1,1.1,0,1.1s-0.2-1.1-0.3-1.1s0.1,1.1,0,1.2l0.5-0.6l-0.4,0.5c-0.6,0.1-1.5-0.9-2.3-0.8
				s-1.4,1.2-2.1,1.2c-5.7,0-10.4-2.9-14.7-5.6c-4.8-3.1-9.3-6.4-12.1-10.1c-1.4-1.9-2.2-4.9-3.8-7.5c-1.5-2.4-3.8-4.6-4.5-7.1
				c-0.6-2.2,0.5-3.9,0.8-5.2c0.4-1.8,0.5-3.6,1.7-5c0.2-0.2,1.3,0.3,1.5,0s-0.4-1.2-0.2-1.5c1.3-1.6,3.6-2.9,4.8-5
				c1.1-1.9,1.2-4.4,2.2-6.6c1.5-3.2,3.8-6.1,4.9-9.5s1-7.2,2-10.6c0.6-2.1,2.3-4,3-6.1s0.3-4.6,1-6.7c1.1-3.2,3.4-6.1,4.8-9.4
				c1.3-3.1,1.6-6.8,3.1-10.1c0-0.1,1.1,0.4,1.1,0.3s-1-0.6-0.9-0.7s1.1,0.5,1.2,0.3s-0.8-0.7-0.8-0.9c0.4-0.8,1.4-0.4,1.8-1.2
				s-0.7-1.3-0.3-2.2c0,0,1,0.4,1.1,0.4s-1-0.5-1-0.5c0.6-1.2,2.1-1.9,2.7-3.1s0.1-2.9,0.7-4c0.3-0.5,1.5-0.6,1.8-1.2
				s-0.6-1.5-0.4-2.2c0-0.1,1.1,0.3,1.2,0.2s-1-0.6-1-0.7c0.3-0.6,1.3,0,1.7-0.7s-0.5-1-0.3-1.7c0.3-0.9,1.2-0.7,1.4-1.6
				s-1-1.1-0.8-2.1c0-0.1,1.1,0.2,1.2,0.1s-1-0.5-1-0.6c0.2-0.7,1.6-0.9,1.8-1.5s-0.5-1.7-0.2-2.3c0.7-1.3,2.5-1.8,3.4-2.8
				c1-1.1,1.4-2.8,2.4-3.7c0.5-0.4,1.7,0,2.2-0.3s0.1-1.6,0.3-2c0.1-0.1,1.1,0.3,1.2,0.2s-1-0.5-1-0.6s1.1,0,1.1-0.1s-1.1,0-1.1-0.1
				s1.1-0.3,1.1-0.4s-1.1,0.2-1.2,0.1s1.1-0.3,1.1-0.4s-1.1,0-1.2-0.2c-0.1-0.8,0.9-1.8,0.8-2.6s-1.4-1.4-1.7-2.2
				c-0.4-1.7,0.3-3.6,0.1-5.6c-0.2-1.7-1.3-3.5-1.1-5.5c0-0.3,1.2-0.5,1.2-0.8s-1-0.8-1-1.1s1.2,0,1.2-0.2s-1.1-0.4-1-0.6
				s1.2,0,1.3-0.4s-0.9-0.5-0.9-0.8s1-0.6,0.8-1.1s-1.3-0.2-1.4-0.7s1.1-0.6,1.1-1.1s-1.1-0.4-1.2-0.9c0-0.2,1.1-0.4,1-0.6
				s-1,0.2-1.1,0c-0.8-1.1,0-1.8-0.8-2.8s-1.9-0.3-2.7-1.5c-0.2-0.3,1-0.7,0.9-1s-1.2-0.1-1.2-0.5c-0.3-2.3,1.1-4.5,2.1-7
				c0.8-2,1.1-4.5,2.8-6.7c0.9-2.7,3.6-4.5,6.4-6.9c2.1-1.8,4.1-4.5,7.3-6.2c0.4-0.4,1.6,0.2,2-0.2s0.2-1.6,0.5-2
				c5.1-4.7,10.8-7.9,15.9-11.6c5.5-4,10.5-8.4,16.1-11.3c8.8-4.5,18.8-6.8,29.4-8.9c9.4-1.9,19.5-3.9,30.6-3.9c0.5,0,1,1.1,1.4,1.1
				s1-1.1,1.5-1.1c12.4,0.2,24.6,1.6,36.5,3c12.3,1.4,24.5,2.8,35.8,7.2c6.6,2.6,12.4,7.1,18.5,11.4c5.7,4.1,11.8,8,17,13.6
				c18.2,16.5,29.7,31.5,39.9,46.5c11.5,17,21.8,34.7,30.9,53c0.6,1.1-0.4,1.6,0.1,2.7s1.6,0.6,2.1,1.7
				c6.5,12.8,11.9,21.5,18.5,26.9c8.7,7.1,18.6,8.8,30.3,12.2c4.2,1.2,8.3,3.6,13.1,5.2c4.2,1.4,8.9,2,13.6,4
				c23.6,10.2,44,20.6,61.4,29.1c32.3,15.8,53.2,28.1,55.4,37.7c0.5,2.1-0.7,4.2-1.2,6.2s-0.5,4.3-1.9,6c-3.2,4-9,6.1-14.6,8.1
				c-5.4,1.9-11.3,4-16.3,4l0,0c-1,0-2.6-1.2-3.9-1.3s-2.9,0.7-4.2,0.4c-0.5-0.2-0.2-1.2-0.8-1.4s-1.3,1-1.6,0.6
				c-0.6-0.7,0.6-1.5,0.2-2.4s-1.7-0.5-1.8-1.5c-0.1-1.1,1.3-1.1,1.5-2.2s-0.9-1.3-0.8-2.4c0-0.2,1.1-0.3,1-0.5s-1,0.2-1.1,0
				c-0.5-0.8,0.3-1.4-0.2-2.2s-1.3-0.1-2-0.8c-1.1-1.1-0.4-1.9-1.6-2.9s-2.1-0.1-3.2-1.3c-1.3-1.5-0.3-2.3-1.4-3.8s-1.9-0.9-3.2-2.4
				c-0.5-0.6,0.2-1.3-0.4-1.8s-1.7,0.4-2.1-0.3c-0.7-1.2,0.7-1.8,0.3-3.1s-1.5-1-1.9-2.3c-0.1-0.4,0.9-0.7,0.8-1.1s-0.2-0.1-0.6,0
				c-3.4,1.1-3.7,0.4-7,1.9s-2.7,3.8-6.3,4.1c-1.8,0.1-1-2.2-2.4-3.4s-1.9-0.5-3.4-1.5c-1.9-1.3-1.5-2-3.6-3.1s-2.3-0.5-4.5-1
				c-0.5-0.1-0.4,0-0.3,0.6s1.4,0.8,1.2,1.3c-0.5,1.1-1.7,0.3-2.4,1.3s0.2,1.8-0.6,2.6c-0.6,0.6-1.4-0.3-2.1,0.2s0,1.8-0.8,2
				c-1.2,0.4-1.4-1-2.6-1s-1.1,0.9-2.2,1.2c-0.6,0.1-0.9-0.7-1.4-0.3s0.2,1.4-0.3,1.7s-1-0.9-1.5-0.7s-0.2,1.3-0.8,1.4
				c-1,0.3-1.3-0.8-2.2-0.6s-0.8,1.6-1.8,1.7s-1-1.3-2.1-1.6s-1.4,1-2.5,0.7c-1.3-0.4-0.8-1.6-2.1-2.1s-1.2-0.5-2.4,0
				c-0.9,0.4-0.3,0.6,0.2,1.5s1.5,0.3,1.9,1.2s-0.5,1.5,0.1,2.5s1.8,0.4,2.1,1.5c0.6,2-0.8,2.3-0.5,4.3s2.4,2.3,1.7,4.2
				c-0.4,1-1.5-0.9-2.5-1c-0.7-0.3-1.4,0-1.7,0.7c-0.7,0.7-0.6,0.7-0.2,1.6s1.5,0.5,1.8,1.4c0.2,0.5-1,0.8-0.9,1.4s1.2,0.3,1.3,0.8
				c0.5,1.6-0.6,1.9,0,3.5s1.4,1.2,2.1,2.8c0.3,0.6-0.5,1.1-0.1,1.7s1.4-0.2,1.8,0.4c1.3,2,0.2,2.6,1.4,4.7s4.3,1.8,3.4,4
				c-0.8,1.9-2.6-1-4.6-0.9S1531.2,771.8,1529.2,771.8z"/>
		</g>
		<path class="st2" d="M1635.9,738.8c-3.5-15.5-78-47.8-113.9-63.3s-56.2-7.7-78-50.6s-33.8-67.9-72.1-102.5
			c-9.4-10.2-20.5-18.7-33.8-23.9c-22-8.7-47.1-9.5-70.5-9.9c-21-0.3-41.6,2.5-60.5,12.2c-11.2,6-21.6,13.4-30.9,22.1
			c-0.8,0.8-1.9,1.7-3.1,2.7c-6.7,3.5-11,7.3-12,11.3c-2.9,3.5-4.9,7.2-4.5,10.5l3.5,4.3l0.4,2.3l0.1,1.7l0.7,2.5l-0.7,2.3
			c-0.1,0.7-1.6,4.2-1.8,5c-0.8,5.7,2.9,6.9,3.3,12.1l0.1,0.4v2.7l-4.6,0.7c-1.5,3.5-2.2,5-4.3,9.1c-0.5,1-1,2.1-1.4,3.2l-0.6,4.2
			l-1.7,2.8c-0.5,1.4-1,2.7-1.6,4c-1.1,2.3-2.3,4.6-3.4,7l-1.6,3.8l-0.5,0.7c-2.8,6.3-5.4,12.7-7.7,19.2
			c-3.8,10.9-6.2,22.9-11.1,33.4c-2,4.5-4.6,8.8-7.7,12.6c-2.6,3.2-3.9,3.1-2.8,7.2c1.2,4.4,4.8,9.3,7.5,12.9
			c6.3,8.5,15.6,15.4,26.7,13.3l-0.4,0.1l0.4-0.1l0,0c19.3-3.6,37.8-9.1,42-30.8c5.8-29.7-7-60.1-3-90c0,0,12.6-29,40-22.7
			s42.2,5.6,64,10.9s39.8,17.1,51.3,35.5c3.3,5.3,7.1,10.4,11.2,15.1c0.6,9.1,3.1,17.8,9.4,25.6c18.8,23.1,48.9,22.6,75.7,26.7
			c4,0.6,8.7,1.9,13.3,2.6l0,0c15.2,4.8,51.3,54.4,60.4,67.8c4.7,6.9,11.1,10.9,17.1,11.1l-0.6-1l-2.1-2.5l-2.5-7.4l-0.4-2.1l-1-2.6
			l-1.6-1l-1.9,0.6h-2.7l-3.6-0.9l0.1-0.8l2.8-2.3l4.5-4.2l2.4,0.6l1.2,0.6l1.6,0.2l-0.2-1.5l-1.7-3.1l-2.1-3.9l-1-3.6l0.1-1.2
			l0.1-0.9l2.7-1l2.1,0.1l6.4,2.7l3,0.6l2.8-0.8l1.4-0.4l2.2-1.7l4.8-0.2l1.1-0.9l1.5-1.9l-0.3-3.9l-0.5-2.8l0.7-2.3l3.6-1.7l-1-1.8
			l3.8-0.1l2.8,1.2l0.7,1.9l-1.7,1.2l-2.8-1l-1.4,0.3l-1.4,0.8l0.8,1.3l0.8,0.9l11.2,5.7l3.7,3.3l12.8-5.8l2.7,0.3l1.7,4.9l1.2,4.1
			l1.8,1.6l4.7,6.3l4.7,4.2l3.2,4.1l0.6,2.6l-0.7,4.1l0.1,0.3C1613.2,759.6,1638.8,751.2,1635.9,738.8z"/>
		<path class="st3" d="M1150.2,696.1L1150.2,696.1z"/>
		<path class="st3" d="M1149.9,696.1h0.2H1149.9z"/>
		<path class="st3" d="M1149.2,696.3l0.4-0.1L1149.2,696.3z"/>
		<path class="st3" d="M1149.6,696.2l0.3-0.1L1149.6,696.2z"/>
		<path class="st3" d="M1138.8,698.2l-0.9,0.2L1138.8,698.2z"/>
		<path class="st3" d="M1136.7,698.6L1136.7,698.6z"/>
		<path class="st3" d="M1136.8,698.5h-0.1H1136.8z"/>
		<path class="st3" d="M1137.9,698.3l-0.8,0.2L1137.9,698.3z"/>
		<path class="st3" d="M1147.4,696.6l1.7-0.3L1147.4,696.6z"/>
		<path class="st3" d="M1141.4,697.7l-1.4,0.2L1141.4,697.7z"/>
		<path class="st3" d="M1147.4,697.9c-1.3,0.2-3.1,0-5.5,1l0,0C1143.7,697.9,1145.8,698.2,1147.4,697.9z"/>
		<text transform="matrix(0.7784 0.6278 -0.6278 0.7784 1333.2802 679.1399)" class="st3 st4 st5">F</text>
		<text transform="matrix(0.818 0.5751 -0.5751 0.818 1341.1897 685.5302)" class="st3 st4 st5">E</text>
		<text transform="matrix(0.8615 0.5078 -0.5078 0.8615 1350.6 692.15)" class="st3 st4 st5">R</text>
		<text transform="matrix(0.9023 0.4311 -0.4311 0.9023 1361.4204 698.4797)" class="st3 st4 st6">T</text>
		<text transform="matrix(0.9326 0.361 -0.361 0.9326 1371.9601 703.3198)" class="st3 st4 st7">I</text>
		<text transform="matrix(0.9566 0.2915 -0.2915 0.9566 1377.09 705.3699)" class="st3 st4 st5">L</text>
		<text transform="matrix(0.9835 0.181 -0.181 0.9835 1387.2198 708.45)" class="st3 st4 st5">E</text>
		<text transform="matrix(0.9692 0.2462 -0.2462 0.9692 1403.2198 710.6901)" class="st3 st4 st5">C</text>
		<text transform="matrix(0.9333 0.359 -0.359 0.9333 1416.3401 714.1)" class="st3 st4 st5">R</text>
		<text transform="matrix(0.9008 0.4341 -0.4341 0.9008 1427.09 718.2599)" class="st3 st4 st5">E</text>
		<text transform="matrix(0.8722 0.4892 -0.4892 0.8722 1436.6699 722.9)" class="st3 st4 st5">S</text>
		<text transform="matrix(0.8416 0.5401 -0.5401 0.8416 1445.3198 727.6899)" class="st3 st4 st5">C</text>
		<text transform="matrix(0.8126 0.5828 -0.5828 0.8126 1456.8601 735.1501)" class="st3 st4 st5">E</text>
		<text transform="matrix(0.785 0.6195 -0.6195 0.785 1465.5903 741.3601)" class="st3 st4 st5">N</text>
		<text transform="matrix(0.7584 0.6518 -0.6518 0.7584 1476.67 750.15)" class="st3 st4 st5">T</text>
		<g class="st8">
			
				<linearGradient id="SVGID_1_" gradientUnits="userSpaceOnUse" x1="1594.7567" y1="361.4665" x2="1293.6367" y2="570.7565" gradientTransform="matrix(1 0 0 -1 0 1080)">
				<stop  offset="0" style="stop-color:#3E7B88"/>
				<stop  offset="1" style="stop-color:#3E7B88;stop-opacity:0.5"/>
			</linearGradient>
			<path class="st9" d="M1553.4,725.4l-0.8-0.5c-5.6-3.4-12.6-7.6-15.3-14.2c-1.2-2.8-1.7-3.2-1.8-3.3c0,0-0.1,0.1-0.1,0.1
				c-1,0.3-2,0-2.7-0.8c-3-3-7.3-5.9-10.3-3.3c-4.4,3.8-11.3,5.8-17.2,0c-1.3-1.3-2.2-2.1-2.7-2.6c-1.3,0.2-17.5,2.1-24.7,2.8
				c-8.2,0.8-10-2.6-12.8-9.6c-1.6-3.8-4.9-6.6-8.9-7.6l-0.2,0l-0.2-0.2c-2.9-2.6-5.4-5.8-7.2-9.3c-1.1-1.9-2.4-3.7-3.9-5.2
				c-4.9-5.3-8.7-11.5-11.3-18.2c-4.1-10-12.2-11.8-18.2-13.1c-2.8-0.6-5.1-1.1-6.4-2.4c-3.1-3.1-5.4-3.1-9.3-3.3h-0.3
				c-4.5-0.1-10.4-7-11.1-7.8l-0.2-0.4c0,0-2.1-6.9-4.1-13.1c-1.7-5.3-10-4.1-10.1-4.1c-0.5,0-0.7,0-5.8-3.6c-2.7-2-3.3-2-5.4-2
				c-2.2,0-4.3-0.2-6.4-0.6c-8.3-1.4-12.8-4.1-13-4.2l-0.1-0.3v-8.3c-2-0.6-4-2-9.1-3c-1.9-0.4-3.3-0.8-3.5-1.9s0.7-1.8,1.8-2.5
				c1.6-1.1,2.3-1.7,2.1-2.4c-0.7-1.7-1.9-1.8-5.3-1.9c-1.6,0-3.3-0.1-4.9-0.2c-5.7-0.6-6.7-6.9-6.4-10.1v-0.3l1.7-2
				c-1.2-0.6-4.8-1.2-7.3-1.6c-2.1-0.3-4.3-0.7-6-1.2c-4.6-1.2-5.4-2.4-6.1-4.3c-0.1-0.3-0.3-0.7-0.4-1c-0.3-0.6-1.5-0.9-3-1.3
				c-2.6-0.6-5.1-1.6-7.3-3.2c-5.2-3.7-5.9-8.2-5.9-12.5c0-2.8,0.9-4.3,2.1-6.3c1.1-1.7,2-3.4,2.8-5.2c1.3-3-0.1-4.5-3-6.9
				c-1.9-1.4-3.4-3.2-4.6-5.3c-1.3-2.5-1.6-4.4-0.9-5.7c0.9-1.8,3.1-2.2,5-2.6c1.3-0.2,2.7,0,3.9,0.6c1.2,0.5,2,0.9,4-0.4
				c2.5-1.7,2.5-1.7,3.1-1.3l0.2,0.1c0.3-0.1,0.7-0.2,1-0.3c2.2-0.7,2.4-0.8,3-0.4l0.4,0.3v0.5c0.4,0.2,0.8,0.3,1.2,0.3
				c1.9,0.3,2.2-0.4,3-4c0.3-1.5,0.7-2.9,1.2-4.3c1.2-3.5,2.1-4.3,3-5.1c0.6-0.5,1.1-1.2,1.4-1.9c0.8-1.8,2.1-3.3,3.8-4.4l-2.8-6.4
				c-3.5,0.3-7,0.3-10.5-0.1c-1.3-0.1-2.5-0.7-3.3-1.8c-1.6-2.1-0.9-5.5-0.2-9.1c0.2-1.1,0.4-2.3,0.6-3.4c0.2-1.6,0.7-3.2,1.4-4.7
				c0.1-0.2,0.2-0.5,0.3-0.6c-0.3-0.2-0.7-0.4-1-0.5c-4-1.6-6.2-9.6-6.2-12c0-1.7,1.8-2.4,3.7-3.1s3.8-1.5,4.7-3l1.8,1.1
				c-1.3,2.1-3.7,3.1-5.7,3.8c-0.8,0.2-1.6,0.6-2.3,1.2c0,1.9,2.1,8.9,4.9,10c1.2,0.5,1.9,0.9,2.2,1.6c0.2,0.8,0.1,1.6-0.4,2.2
				c-0.6,1.3-1,2.7-1.2,4.1c-0.1,1.1-0.4,2.3-0.6,3.5c-0.6,3-1.2,6.1-0.1,7.5c0.5,0.6,1.2,0.9,1.9,0.9c3.6,0.4,7.2,0.4,10.8,0
				l0.8-0.1l4.2,9.6l-0.9,0.4c-1.6,0.9-2.9,2.2-3.6,3.9c-0.4,1-1,1.9-1.9,2.6c-0.7,0.6-1.4,1.2-2.4,4.2c-0.4,1.3-0.8,2.7-1.1,4.1
				c-0.7,3.2-1.4,6.2-5.4,5.5c-1-0.1-1.9-0.4-2.6-1.1l-1.1,0.4c-0.8,0.4-1.7,0.5-2.6,0.4l-1.3,0.9c-2.9,1.9-4.6,1.2-6,0.6
				c-0.8-0.5-1.7-0.6-2.7-0.5c-1.8,0.4-3.2,0.7-3.6,1.5c-0.4,0.8,0,2.1,0.9,3.9c1,1.8,2.4,3.4,4.1,4.6c2.7,2.3,5.5,4.8,3.5,9.3
				c-0.8,1.9-1.8,3.7-2.9,5.4c-1.2,1.9-1.8,3-1.8,5.2c0,4.3,0.9,7.8,5.1,10.9c2,1.4,4.3,2.3,6.7,2.8c2,0.5,3.6,1,4.3,2.3
				c0.2,0.4,0.4,0.8,0.5,1.2c0.5,1.3,0.8,2.1,4.7,3c1.7,0.4,3.8,0.8,5.9,1.1c6.1,1,8.6,1.6,9.2,3c0.2,0.6,0.1,1.2-0.3,1.6l-1.5,1.8
				c0,1.4,0.1,7,4.6,7.5c1.6,0.2,3.1,0.2,4.7,0.2c3.3,0,6,0.1,7.2,3.2c0.9,2.4-1.5,4-2.9,4.9l-0.6,0.4c0.3,0.1,0.6,0.2,1.2,0.3
				c7,1.4,10.2,3.6,10.3,3.7l0.8,0.3v8.1c0,0.7,5.3,2.7,11.8,3.7c1.9,0.4,3.9,0.5,5.9,0.6c2.4,0,3.3,0.2,6.4,2.4s4.2,3,4.6,3.2
				c1.4-0.2,10-0.9,12,5.6c1.8,5.6,3.6,11.7,4,12.9c1.8,2,6.5,6.8,9.5,6.9h0.3c4,0.1,7.1,0.2,10.7,3.9c0.8,0.8,2.9,1.3,5.3,1.8
				c6,1.3,15.2,3.3,19.7,14.3c2.5,6.5,6.2,12.5,10.9,17.7c1.6,1.7,3,3.6,4.2,5.7c1.6,3.2,3.8,6,6.4,8.5c4.6,1.2,8.3,4.5,10.1,8.8
				c2.8,7,3.9,8.9,10.7,8.3c6.3-0.6,19.4-2.1,23.5-2.6c0.1-0.2,0.2-0.4,0.3-0.5c0.9-0.8,1.4-0.3,5.2,3.5c6.2,6.1,12.6,1.5,14.4,0
				c2.3-2,6.5-3,13.1,3.4c0.3,0.3,0.4,0.3,0.7,0.2c1.8-0.4,2.7,0.6,4.3,4.4c2.5,6,8.9,9.8,14.5,13.2l0.8,0.5L1553.4,725.4z
				 M1294.2,508.5c0,0,0,0.1,0,0.1V508.5z M1295,508.5L1295,508.5z M1300,507.9L1300,507.9z"/>
			
				<linearGradient id="SVGID_2_" gradientUnits="userSpaceOnUse" x1="1600.0396" y1="369.0692" x2="1298.9196" y2="578.3592" gradientTransform="matrix(1 0 0 -1 0 1080)">
				<stop  offset="0" style="stop-color:#3E7B88"/>
				<stop  offset="1" style="stop-color:#3E7B88;stop-opacity:0.5"/>
			</linearGradient>
			<path class="st10" d="M1526.1,702.3c-2.7-3.2-5.2-10.2-5.3-10.5c-0.1-0.6-0.3-1.3-0.6-1.9c-0.2,0.1-0.6,0.4-0.8,0.6
				c-1.6,1.5-3.8,2.2-6,2c-3-0.4-4.7-2.7-6.5-5.2c-2-2.7-4-5.5-8.1-6.5c-4.6-1.2-5.3-1-6.5-0.6c-1.8,0.5-3.7,0.7-5.6,0.7
				c-3.4,0-5.2-0.6-5.9-1.9c-1-1.8,0.5-4,2.8-7.3l0.2-0.3c3-4.4,2-6.8,0.2-11.7l-0.3-0.9c-1.6-4.2-10.2-7.4-15.4-9.3
				c-1-0.4-1.9-0.7-2.6-1c-2.5-0.8-5-1.4-7.6-1.9c-5.3-1.1-11.3-2.3-14.2-4.6s-3-3.2-2.3-5.2c0.5-1,0.7-2.2,0.7-3.3
				c0-1.6,0.3-3.2,0.7-4.8c0.6-2.8,1.1-5.3-0.6-9.1c-1.6-3.6-4.2-3.7-7.5-3.7c-1.7,0-3.3-0.1-4.9-0.5c-5.2-1.5-5.4-1.8-13.6-16.7
				l-0.3-0.5c-3.5-6.3-3.8-6.8-3.4-7.8c0.2-0.5,0.7-0.8,1.2-0.9c0.6-0.2,2.3-0.6,2.3-8.5c0-9.7-2.2-11.3-4.6-13.1
				c-2.5-1.6-4.2-4.1-4.7-7.1c-1-4.8-3.1-6-6.1-7.6c-3.6-1.8-6.6-4.5-8.7-7.9c-4.2-6.5-4.3-7.8-3.5-9.9c0.4-1,0.6-2,0.6-3
				c0-3.9-4.9-6-10.6-8.5c-1.2-0.5-2.4-1-3.7-1.6c-15.4-7.1-8.1-24-8-24.2l1.9,0.8c-0.3,0.6-6.6,15.3,7,21.5
				c1.2,0.6,2.4,1.1,3.6,1.6c6.1,2.6,11.9,5.1,11.9,10.4c0,1.3-0.2,2.6-0.7,3.7c-0.5,1.3-0.7,1.9,3.3,8.1c2,3.1,4.7,5.6,8,7.2
				c3,1.7,5.8,3.3,7.1,9c0.4,2.4,1.8,4.6,3.9,5.8c2.7,2,5.5,4,5.4,14.8c0,7.8-1.7,9.7-3.5,10.3c0.4,0.9,1.5,2.9,3.1,5.8l0.3,0.5
				c8,14.4,8,14.4,12.4,15.7c1.4,0.3,2.9,0.5,4.4,0.4c3.4,0,7.2,0.1,9.3,5c2,4.4,1.3,7.4,0.7,10.4c-0.4,1.4-0.6,2.9-0.6,4.4
				c0,1.4-0.3,2.8-0.8,4.1c-0.4,1-0.5,1.2,1.6,2.8c2.5,2,8.2,3.2,13.3,4.2c2.7,0.5,5.4,1.1,7.9,2c0.7,0.3,1.6,0.6,2.5,1
				c5.9,2.1,14.7,5.4,16.6,10.5l0.3,0.8c1.9,5,3.1,8.3-0.4,13.6l-0.2,0.3c-1.4,2.1-3,4.5-2.7,5.2c0.1,0.2,0.7,0.8,4.1,0.8
				c1.7,0.1,3.4-0.1,5-0.6c1.7-0.5,2.7-0.6,7.6,0.6s7.3,4.6,9.3,7.3c1.7,2.3,3,4.1,5.1,4.3c1.7,0.1,3.3-0.4,4.6-1.6
				c0.9-0.7,1.8-1.3,2.8-0.9s1.5,1.6,1.8,3.3l0,0c0,0,2.5,6.8,4.9,9.7L1526.1,702.3z"/>
		</g>
	</g>
	<g id="Missing_text_Pop_ups_and_instructions">
		<path class="st2" d="M1628.8,560.5c-8.8,0-17.5-3.4-25.9-10.2c-10.9-8.9-23.6-10.5-35.9-12c-12.5-1.6-25.5-3.2-34.3-13.2
			c-17.2-19.5-21.7-49.5-9.8-65.5c10.6-14.1,23.6-18,24.1-18.2l7.8-2.3l-0.2,8.1c-0.1,7.4,1.2,28.3,8.8,36.5
			c4.6,5,13.4,5.6,21.1,6.1c7,0.5,13.1,0.9,17.4,4.2c1.3,1.2,2.5,2.5,3.5,4c5.5,7.5,18.5,25.1,58.5,26.7l10,0.4l-5.1,8.7
			c-3,4.8-6.5,9.2-10.6,13.1C1649.2,555.8,1639,560.5,1628.8,560.5L1628.8,560.5L1628.8,560.5z"/>
		<path class="st2" d="M1628.8,557.5c-8.1,0-16.2-3.2-24-9.5c-11.6-9.4-24.7-11.1-37.4-12.7c-12.5-1.6-24.3-3.1-32.4-12.2
			c-16.4-18.6-20.8-46.8-9.7-61.7c10-13.3,22.1-16.9,22.6-17.1l3.9-1.1l-0.1,4.1c0,0.3-0.4,27.8,9.5,38.6c5.4,5.9,14.8,6.5,23.1,7.1
			c6.5,0.4,12.2,0.8,15.8,3.6c1.1,1,2.1,2.2,2.9,3.5c5.8,7.9,19.3,26.3,60.8,27.9l5,0.2l-2.6,4.3c-2.8,4.6-6.2,8.7-10.1,12.5
			C1647.7,553.1,1638.2,557.5,1628.8,557.5L1628.8,557.5L1628.8,557.5z"/>
		<path class="st2" d="M1548.8,447.1c0,0-11.5,3.3-21,16c-10.5,14-5.5,40.9,9.5,57.9c15,17,45.5,5.1,69.5,24.6
			c32.6,26.5,57-14.8,57-14.8c-50.7-2-61.7-29.1-65.4-32c-7-5.5-28.8,0.4-39.2-11C1548.2,476,1548.8,447.1,1548.8,447.1z"/>
	</g>
</g>
</svg>
