<?xml version="1.0" encoding="utf-8"?>
<!-- Generator: Adobe Illustrator 19.2.1, SVG Export Plug-In . SVG Version: 6.00 Build 0)  -->
<svg version="1.1" id="Layer_1" xmlns="http://www.w3.org/2000/svg" xmlns:xlink="http://www.w3.org/1999/xlink" x="0px" y="0px"
	 viewBox="0 0 1920 1080" style="enable-background:new 0 0 1920 1080;" xml:space="preserve">
<style type="text/css">
	.st0{fill:#87898B;}
	.st1{fill:#FFFFFF;}
	.st2{opacity:0.54;fill:#52A75B;enable-background:new    ;}
	.st3{fill:#2C9021;}
	.st4{fill:url(#SVGID_1_);}
	.st5{fill:url(#SVGID_2_);}
</style>
<g>
	<path class="st0" d="M288.7,609.3h0.8l4.1,8.8c0.3,0.7,0.7,1.6,0.7,1.6l0,0c0,0,0.4-0.9,0.7-1.6l4.1-8.8h0.8l1.1,14h-0.9l-0.9-10.7
		c-0.1-0.7-0.1-1.9-0.1-1.9l0,0c0,0-0.4,1.2-0.7,1.9l-3.8,8h-0.9l-3.7-8c-0.3-0.7-0.7-1.9-0.7-1.9l0,0c0,0,0,1.2-0.1,1.9l-0.9,10.7
		h-0.9L288.7,609.3z"/>
	<path class="st0" d="M304.5,609.3h7.7v0.8h-6.8v5.7h5.6v0.8h-5.6v5.9h7.2v0.8h-8v-14H304.5z"/>
	<path class="st0" d="M315.4,609.3h4.4c4.2,0,7,2.6,7,7c0,4.5-2.8,7-7,7h-4.4V609.3z M319.7,622.5c3.7,0,6.2-2.2,6.2-6.2
		s-2.5-6.2-6.2-6.2h-3.4v12.4H319.7z"/>
	<path class="st0" d="M329.8,609.3h0.9v14h-0.9V609.3z"/>
	<path class="st0" d="M337.7,610.1h-5.2v-0.8h11.3v0.8h-5.2v13.2h-0.9L337.7,610.1L337.7,610.1z"/>
	<path class="st0" d="M345.6,609.3h7.7v0.8h-6.8v5.7h5.6v0.8h-5.6v5.9h7.2v0.8h-8v-14H345.6z"/>
	<path class="st0" d="M356.5,609.3h4.1c1.3,0,2,0.1,2.5,0.4c1.2,0.6,1.9,1.8,1.9,3.4c0,2-1.2,3.5-2.8,3.9l0,0c0,0,0.1,0.2,0.3,0.5
		l3.1,5.8h-1l-3.3-6.2h-4v6.2h-0.9L356.5,609.3L356.5,609.3z M361.1,616.3c1.8,0,3-1.3,3-3.2c0-1.2-0.6-2.2-1.6-2.7
		c-0.4-0.2-0.8-0.3-2-0.3h-3.2v6.2H361.1z"/>
	<path class="st0" d="M368.4,609.3h4.1c1.3,0,2,0.1,2.5,0.4c1.2,0.6,1.9,1.8,1.9,3.4c0,2-1.2,3.5-2.8,3.9l0,0c0,0,0.1,0.2,0.3,0.5
		l3.1,5.8h-1l-3.3-6.2h-4v6.2h-0.9L368.4,609.3L368.4,609.3z M373.1,616.3c1.8,0,3-1.3,3-3.2c0-1.2-0.6-2.2-1.6-2.7
		c-0.4-0.2-0.8-0.3-2-0.3h-3.2v6.2H373.1z"/>
	<path class="st0" d="M387.2,618.5h-5.9l-1.8,4.8h-0.9l5.2-14h0.9l5.2,14H389L387.2,618.5z M384.2,610.3c0,0-0.3,1.1-0.5,1.7
		l-2.1,5.7h5.3l-2.1-5.7C384.5,611.4,384.2,610.3,384.2,610.3L384.2,610.3z"/>
	<path class="st0" d="M391.9,609.3h0.8l8,11c0.5,0.6,1.1,1.8,1.1,1.8l0,0c0,0-0.1-1.1-0.1-1.8v-11h0.9v14h-0.8l-8-11
		c-0.5-0.6-1.1-1.8-1.1-1.8l0,0c0,0,0.1,1.1,0.1,1.8v11h-0.9V609.3z"/>
	<path class="st0" d="M406.5,609.3h7.7v0.8h-6.8v5.7h5.6v0.8h-5.6v5.9h7.2v0.8h-8v-14H406.5z"/>
	<path class="st0" d="M424.3,618.5h-5.9l-1.8,4.8h-0.9l5.2-14h0.9l5.2,14h-0.9L424.3,618.5z M421.3,610.3c0,0-0.3,1.1-0.5,1.7
		l-2.1,5.7h5.3l-2.1-5.7C421.6,611.4,421.3,610.3,421.3,610.3L421.3,610.3z"/>
	<path class="st0" d="M429,609.3h0.8l8,11c0.5,0.6,1.1,1.8,1.1,1.8l0,0c0,0-0.1-1.1-0.1-1.8v-11h0.9v14h-0.8l-8-11
		c-0.5-0.6-1.1-1.8-1.1-1.8l0,0c0,0,0.1,1.1,0.1,1.8v11H429V609.3z"/>
	<path class="st0" d="M448.1,621.2c0,0,1.4,1.6,3.7,1.6c1.7,0,3.1-1.1,3.1-2.8c0-4-7.2-2.9-7.2-7.3c0-1.9,1.7-3.6,4.2-3.6
		c2.3,0,3.6,1.3,3.6,1.3l-0.5,0.7c0,0-1.2-1.2-3.1-1.2c-2.1,0-3.3,1.4-3.3,2.8c0,3.7,7.2,2.6,7.2,7.2c0,2-1.6,3.6-4.1,3.6
		c-2.8,0-4.3-1.7-4.3-1.7L448.1,621.2z"/>
	<path class="st0" d="M458.7,609.3h7.7v0.8h-6.8v5.7h5.6v0.8h-5.6v5.9h7.2v0.8h-8v-14H458.7z"/>
	<path class="st0" d="M476.5,618.5h-5.9l-1.8,4.8h-0.9l5.2-14h0.9l5.2,14h-0.9L476.5,618.5z M473.5,610.3c0,0-0.3,1.1-0.5,1.7
		l-2.1,5.7h5.3l-2.1-5.7C473.8,611.4,473.5,610.3,473.5,610.3L473.5,610.3z"/>
</g>
<g>
	<path class="st0" d="M707.5,401.6h4.7c2,0,3.5,1.4,3.5,3.5c0,1.5-0.7,2.5-1.8,3.1l0,0c1.4,0.4,2.4,1.7,2.4,3.5
		c0,2.3-1.7,3.9-3.9,3.9h-4.9V401.6z M712.1,407.8c1.6,0,2.7-1.1,2.7-2.7s-1-2.7-2.7-2.7h-3.8v5.4L712.1,407.8L712.1,407.8z
		 M712.3,414.8c1.9,0,3.1-1.2,3.1-3.1s-1.3-3.1-3.1-3.1h-3.9v6.2H712.3z"/>
	<path class="st0" d="M719.3,401.6h0.9v13.2h6.7v0.8h-7.5v-14H719.3z"/>
	<path class="st0" d="M735.9,410.8H730l-1.8,4.8h-0.9l5.2-14h0.9l5.2,14h-0.9L735.9,410.8z M732.9,402.6c0,0-0.3,1.1-0.5,1.7
		l-2.1,5.7h5.3l-2.1-5.7C733.2,403.7,732.9,402.6,732.9,402.6L732.9,402.6z"/>
	<path class="st0" d="M746.6,401.4c3.3,0,5,1.8,5,1.8l-0.5,0.6c0,0-1.7-1.6-4.5-1.6c-3.4,0-6.1,2.7-6.1,6.3c0,3.6,2.6,6.5,6.1,6.5
		c3,0,4.7-1.9,4.7-1.9l0.5,0.6c0,0-1.9,2.1-5.3,2.1c-4.1,0-7-3.3-7-7.3S742.6,401.4,746.6,401.4z"/>
	<path class="st0" d="M754.7,401.6h0.9v6.2h2.6l4-6.2h1l-4.3,6.6l0,0l4.6,7.4h-1l-4.3-7h-2.6v7h-0.9V401.6z"/>
	<path class="st0" d="M770.4,413.4c0,0,1.4,1.6,3.7,1.6c1.7,0,3.1-1.1,3.1-2.8c0-4-7.2-2.9-7.2-7.3c0-1.9,1.7-3.6,4.2-3.6
		c2.3,0,3.6,1.3,3.6,1.3l-0.5,0.7c0,0-1.2-1.2-3.1-1.2c-2.1,0-3.3,1.4-3.3,2.8c0,3.7,7.2,2.6,7.2,7.2c0,2-1.6,3.6-4.1,3.6
		c-2.8,0-4.3-1.7-4.3-1.7L770.4,413.4z"/>
	<path class="st0" d="M781,401.6h7.7v0.8h-6.8v5.7h5.6v0.8h-5.6v5.9h7.2v0.8h-8v-14H781z"/>
	<path class="st0" d="M798.8,410.8h-5.9l-1.8,4.8h-0.9l5.2-14h0.9l5.2,14h-0.9L798.8,410.8z M795.8,402.6c0,0-0.3,1.1-0.5,1.7
		l-2.1,5.7h5.3l-2.1-5.7C796.1,403.7,795.8,402.6,795.8,402.6L795.8,402.6z"/>
</g>
<g>
	<path class="st0" d="M1097.2,460.5c2.8,0,4.2,1.5,4.2,1.5l-0.4,0.5c0,0-1.4-1.3-3.8-1.3c-2.9,0-5.2,2.3-5.2,5.4s2.2,5.5,5.2,5.5
		c2.5,0,4-1.6,4-1.6l0.5,0.5c0,0-1.6,1.8-4.5,1.8c-3.5,0-6-2.8-6-6.2C1091.3,463.1,1093.8,460.5,1097.2,460.5z"/>
	<path class="st0" d="M1110,468.5h-5l-1.5,4.1h-0.8l4.5-11.9h0.8l4.5,11.9h-0.8L1110,468.5z M1107.4,461.5c0,0-0.3,0.9-0.4,1.4
		l-1.8,4.8h4.5l-1.8-4.8C1107.7,462.5,1107.5,461.5,1107.4,461.5L1107.4,461.5z"/>
	<path class="st0" d="M1113.6,470.8c0,0,1.2,1.3,3.2,1.3c1.5,0,2.7-0.9,2.7-2.3c0-3.4-6.1-2.4-6.1-6.2c0-1.6,1.4-3.1,3.6-3.1
		c1.9,0,3,1.1,3,1.1l-0.4,0.6c0,0-1-1-2.6-1c-1.8,0-2.8,1.2-2.8,2.3c0,3.1,6.1,2.2,6.1,6.2c0,1.7-1.3,3.1-3.5,3.1
		c-2.3,0-3.6-1.5-3.6-1.5L1113.6,470.8z"/>
	<path class="st0" d="M1122.6,460.7h3.9c2.1,0,3.6,1.3,3.6,3.5s-1.5,3.5-3.6,3.5h-3.2v4.9h-0.7L1122.6,460.7L1122.6,460.7z
		 M1126.5,467c1.7,0,2.9-1,2.9-2.8s-1.2-2.8-2.9-2.8h-3.1v5.6L1126.5,467L1126.5,467z"/>
	<path class="st0" d="M1132.2,460.7h0.7v11.9h-0.7V460.7z"/>
	<path class="st0" d="M1142,468.5h-5l-1.5,4.1h-0.8l4.5-11.9h0.8l4.5,11.9h-0.8L1142,468.5z M1139.5,461.5c0,0-0.3,0.9-0.4,1.4
		l-1.8,4.8h4.5l-1.8-4.8C1139.8,462.5,1139.6,461.5,1139.5,461.5L1139.5,461.5z"/>
	<path class="st0" d="M1146.1,460.7h0.7l6.8,9.3c0.4,0.5,1,1.5,1,1.5l0,0c0,0-0.1-0.9-0.1-1.5v-9.3h0.7v11.9h-0.7l-6.8-9.3
		c-0.4-0.5-1-1.5-1-1.5l0,0c0,0,0.1,0.9,0.1,1.5v9.3h-0.7V460.7z"/>
	<path class="st0" d="M1111,496.8c0,0,1.2,1.3,3.2,1.3c1.5,0,2.7-0.9,2.7-2.3c0-3.4-6.1-2.4-6.1-6.2c0-1.6,1.4-3.1,3.6-3.1
		c1.9,0,3,1.1,3,1.1l-0.4,0.6c0,0-1-1-2.6-1c-1.8,0-2.8,1.2-2.8,2.3c0,3.1,6.1,2.2,6.1,6.2c0,1.7-1.3,3.1-3.5,3.1
		c-2.3,0-3.6-1.5-3.6-1.5L1111,496.8z"/>
	<path class="st0" d="M1120,486.7h6.5v0.7h-5.8v4.9h4.7v0.7h-4.7v5h6.1v0.7h-6.8L1120,486.7L1120,486.7z"/>
	<path class="st0" d="M1135.1,494.5h-5l-1.5,4.1h-0.8l4.5-11.9h0.8l4.5,11.9h-0.8L1135.1,494.5z M1132.6,487.5c0,0-0.3,0.9-0.4,1.4
		l-1.8,4.8h4.5l-1.8-4.8C1132.9,488.5,1132.6,487.5,1132.6,487.5L1132.6,487.5z"/>
</g>
<g>
	<path class="st0" d="M1776.4,517.3h-5.9l-1.8,4.8h-0.9l5.2-14h0.9l5.2,14h-0.9L1776.4,517.3z M1773.4,509.2c0,0-0.3,1.1-0.5,1.7
		l-2.1,5.7h5.3l-2.1-5.7C1773.7,510.2,1773.4,509.2,1773.4,509.2L1773.4,509.2z"/>
	<path class="st0" d="M1780.7,520c0,0,1.4,1.6,3.7,1.6c1.7,0,3.1-1.1,3.1-2.8c0-4-7.2-2.9-7.2-7.3c0-1.9,1.7-3.6,4.2-3.6
		c2.3,0,3.6,1.3,3.6,1.3l-0.5,0.7c0,0-1.2-1.2-3.1-1.2c-2.1,0-3.3,1.4-3.3,2.8c0,3.7,7.2,2.6,7.2,7.2c0,2-1.6,3.6-4.1,3.6
		c-2.8,0-4.3-1.7-4.3-1.7L1780.7,520z"/>
	<path class="st0" d="M1791.2,508.2h0.9v14h-0.9V508.2z"/>
	<path class="st0" d="M1802.8,517.3h-5.9l-1.8,4.8h-0.9l5.2-14h0.9l5.2,14h-0.9L1802.8,517.3z M1799.8,509.2c0,0-0.3,1.1-0.5,1.7
		l-2.1,5.7h5.3l-2.1-5.7C1800.1,510.2,1799.8,509.2,1799.8,509.2L1799.8,509.2z"/>
</g>
<g>
	<path d="M355.1,332.7h7.7v0.8H356v5.7h5.6v0.8H356v5.9h7.2v0.8h-8v-14H355.1z"/>
	<path d="M372.9,341.9H367l-1.8,4.8h-0.9l5.2-14h0.9l5.2,14h-0.9L372.9,341.9z M369.9,333.7c0,0-0.3,1.1-0.5,1.7l-2.1,5.7h5.3
		l-2.1-5.7C370.2,334.8,369.9,333.7,369.9,333.7L369.9,333.7z"/>
	<path d="M377.2,344.5c0,0,1.4,1.6,3.7,1.6c1.7,0,3.1-1.1,3.1-2.8c0-4-7.2-2.9-7.2-7.3c0-1.9,1.7-3.6,4.2-3.6c2.3,0,3.6,1.3,3.6,1.3
		l-0.5,0.7c0,0-1.2-1.2-3.1-1.2c-2.1,0-3.3,1.4-3.3,2.8c0,3.7,7.2,2.6,7.2,7.2c0,2-1.6,3.6-4.1,3.6c-2.8,0-4.3-1.7-4.3-1.7
		L377.2,344.5z"/>
	<path d="M391,333.5h-5.2v-0.8H397v0.8h-5.2v13.2H391V333.5z"/>
	<path d="M403.9,332.7h7.7v0.8h-6.8v5.7h5.6v0.8h-5.6v5.9h7.2v0.8h-8v-14H403.9z"/>
	<path d="M414.6,332.7h0.9v9.2c0,2.6,1.7,4.3,4.4,4.3s4.4-1.6,4.4-4.3v-9.1h0.9v9.2c0,3.1-2.1,5-5.2,5s-5.2-2-5.2-5v-9.3H414.6z"/>
	<path d="M428.7,332.7h4.1c1.3,0,2,0.1,2.5,0.4c1.2,0.6,1.9,1.8,1.9,3.4c0,2-1.2,3.5-2.8,3.9l0,0c0,0,0.1,0.2,0.3,0.5l3.1,5.8h-1
		l-3.3-6.2h-4v6.2h-0.9L428.7,332.7L428.7,332.7z M433.4,339.7c1.8,0,3-1.3,3-3.2c0-1.2-0.6-2.2-1.6-2.7c-0.4-0.2-0.8-0.3-2-0.3
		h-3.2v6.2H433.4z"/>
	<path d="M446.7,332.4c3.9,0,7.1,3.1,7.1,7.1c0,4.1-3.2,7.3-7.1,7.3s-7.1-3.2-7.1-7.3C439.6,335.6,442.8,332.4,446.7,332.4z
		 M446.7,346.1c3.4,0,6.2-2.8,6.2-6.5c0-3.6-2.8-6.3-6.2-6.3s-6.2,2.7-6.2,6.3C440.5,343.3,443.3,346.1,446.7,346.1z"/>
	<path d="M456.6,332.7h4.6c2.4,0,4.3,1.5,4.3,4.1c0,2.5-1.8,4.1-4.3,4.1h-3.7v5.8h-0.9V332.7z M461.2,340.1c2,0,3.4-1.2,3.4-3.3
		c0-2.1-1.4-3.3-3.4-3.3h-3.7v6.6L461.2,340.1L461.2,340.1z"/>
	<path d="M468,332.7h7.7v0.8h-6.8v5.7h5.6v0.8h-5.6v5.9h7.2v0.8h-8v-14H468z"/>
</g>
<g>
	<path class="st0" d="M288.7,608.2h0.8l4.1,8.8c0.3,0.7,0.7,1.6,0.7,1.6l0,0c0,0,0.4-0.9,0.7-1.6l4.1-8.8h0.8l1.1,14h-0.9l-0.9-10.7
		c-0.1-0.7-0.1-1.9-0.1-1.9l0,0c0,0-0.4,1.2-0.7,1.9l-3.8,8h-0.9l-3.7-8c-0.3-0.7-0.7-1.9-0.7-1.9l0,0c0,0,0,1.2-0.1,1.9l-0.9,10.7
		h-0.9L288.7,608.2z"/>
	<path class="st0" d="M304.5,608.2h7.7v0.8h-6.8v5.7h5.6v0.8h-5.6v5.9h7.2v0.8h-8v-14H304.5z"/>
	<path class="st0" d="M315.4,608.2h4.4c4.2,0,7,2.6,7,7c0,4.5-2.8,7-7,7h-4.4V608.2z M319.7,621.4c3.7,0,6.2-2.2,6.2-6.2
		s-2.5-6.2-6.2-6.2h-3.4v12.4H319.7z"/>
	<path class="st0" d="M329.8,608.2h0.9v14h-0.9V608.2z"/>
	<path class="st0" d="M337.7,609h-5.2v-0.8h11.3v0.8h-5.2v13.2h-0.9L337.7,609L337.7,609z"/>
	<path class="st0" d="M345.6,608.2h7.7v0.8h-6.8v5.7h5.6v0.8h-5.6v5.9h7.2v0.8h-8v-14H345.6z"/>
	<path class="st0" d="M356.5,608.2h4.1c1.3,0,2,0.1,2.5,0.4c1.2,0.6,1.9,1.8,1.9,3.4c0,2-1.2,3.5-2.8,3.9l0,0c0,0,0.1,0.2,0.3,0.5
		l3.1,5.8h-1l-3.3-6.2h-4v6.2h-0.9L356.5,608.2L356.5,608.2z M361.1,615.2c1.8,0,3-1.3,3-3.2c0-1.2-0.6-2.2-1.6-2.7
		c-0.4-0.2-0.8-0.3-2-0.3h-3.2v6.2H361.1z"/>
	<path class="st0" d="M368.4,608.2h4.1c1.3,0,2,0.1,2.5,0.4c1.2,0.6,1.9,1.8,1.9,3.4c0,2-1.2,3.5-2.8,3.9l0,0c0,0,0.1,0.2,0.3,0.5
		l3.1,5.8h-1l-3.3-6.2h-4v6.2h-0.9L368.4,608.2L368.4,608.2z M373.1,615.2c1.8,0,3-1.3,3-3.2c0-1.2-0.6-2.2-1.6-2.7
		c-0.4-0.2-0.8-0.3-2-0.3h-3.2v6.2H373.1z"/>
	<path class="st0" d="M387.2,617.4h-5.9l-1.8,4.8h-0.9l5.2-14h0.9l5.2,14H389L387.2,617.4z M384.2,609.2c0,0-0.3,1.1-0.5,1.7
		l-2.1,5.7h5.3l-2.1-5.7C384.5,610.3,384.2,609.2,384.2,609.2L384.2,609.2z"/>
	<path class="st0" d="M391.9,608.2h0.8l8,11c0.5,0.6,1.1,1.8,1.1,1.8l0,0c0,0-0.1-1.1-0.1-1.8v-11h0.9v14h-0.8l-8-11
		c-0.5-0.6-1.1-1.8-1.1-1.8l0,0c0,0,0.1,1.1,0.1,1.8v11h-0.9V608.2z"/>
	<path class="st0" d="M406.5,608.2h7.7v0.8h-6.8v5.7h5.6v0.8h-5.6v5.9h7.2v0.8h-8v-14H406.5z"/>
	<path class="st0" d="M424.3,617.4h-5.9l-1.8,4.8h-0.9l5.2-14h0.9l5.2,14h-0.9L424.3,617.4z M421.3,609.2c0,0-0.3,1.1-0.5,1.7
		l-2.1,5.7h5.3l-2.1-5.7C421.6,610.3,421.3,609.2,421.3,609.2L421.3,609.2z"/>
	<path class="st0" d="M429,608.2h0.8l8,11c0.5,0.6,1.1,1.8,1.1,1.8l0,0c0,0-0.1-1.1-0.1-1.8v-11h0.9v14h-0.8l-8-11
		c-0.5-0.6-1.1-1.8-1.1-1.8l0,0c0,0,0.1,1.1,0.1,1.8v11H429V608.2z"/>
	<path class="st0" d="M448.1,620c0,0,1.4,1.6,3.7,1.6c1.7,0,3.1-1.1,3.1-2.8c0-4-7.2-2.9-7.2-7.3c0-1.9,1.7-3.6,4.2-3.6
		c2.3,0,3.6,1.3,3.6,1.3l-0.5,0.7c0,0-1.2-1.2-3.1-1.2c-2.1,0-3.3,1.4-3.3,2.8c0,3.7,7.2,2.6,7.2,7.2c0,2-1.6,3.6-4.1,3.6
		c-2.8,0-4.3-1.7-4.3-1.7L448.1,620z"/>
	<path class="st0" d="M458.7,608.2h7.7v0.8h-6.8v5.7h5.6v0.8h-5.6v5.9h7.2v0.8h-8v-14H458.7z"/>
	<path class="st0" d="M476.5,617.4h-5.9l-1.8,4.8h-0.9l5.2-14h0.9l5.2,14h-0.9L476.5,617.4z M473.5,609.2c0,0-0.3,1.1-0.5,1.7
		l-2.1,5.7h5.3l-2.1-5.7C473.8,610.3,473.5,609.2,473.5,609.2L473.5,609.2z"/>
</g>
<g>
	<path class="st0" d="M707.5,400.5h4.7c2,0,3.5,1.4,3.5,3.5c0,1.5-0.7,2.5-1.8,3.1l0,0c1.4,0.4,2.4,1.7,2.4,3.5
		c0,2.3-1.7,3.9-3.9,3.9h-4.9V400.5z M712.1,406.7c1.6,0,2.7-1.1,2.7-2.7s-1-2.7-2.7-2.7h-3.8v5.4L712.1,406.7L712.1,406.7z
		 M712.3,413.7c1.9,0,3.1-1.2,3.1-3.1s-1.3-3.1-3.1-3.1h-3.9v6.2H712.3z"/>
	<path class="st0" d="M719.3,400.5h0.9v13.2h6.7v0.8h-7.5v-14H719.3z"/>
	<path class="st0" d="M735.9,409.6H730l-1.8,4.8h-0.9l5.2-14h0.9l5.2,14h-0.9L735.9,409.6z M732.9,401.5c0,0-0.3,1.1-0.5,1.7
		l-2.1,5.7h5.3l-2.1-5.7C733.2,402.5,732.9,401.5,732.9,401.5L732.9,401.5z"/>
	<path class="st0" d="M746.6,400.2c3.3,0,5,1.8,5,1.8l-0.5,0.6c0,0-1.7-1.6-4.5-1.6c-3.4,0-6.1,2.7-6.1,6.3c0,3.6,2.6,6.5,6.1,6.5
		c3,0,4.7-1.9,4.7-1.9l0.5,0.6c0,0-1.9,2.1-5.3,2.1c-4.1,0-7-3.3-7-7.3C739.6,403.3,742.6,400.2,746.6,400.2z"/>
	<path class="st0" d="M754.7,400.5h0.9v6.2h2.6l4-6.2h1l-4.3,6.6l0,0l4.6,7.4h-1l-4.3-7h-2.6v7h-0.9V400.5z"/>
	<path class="st0" d="M770.4,412.3c0,0,1.4,1.6,3.7,1.6c1.7,0,3.1-1.1,3.1-2.8c0-4-7.2-2.9-7.2-7.3c0-1.9,1.7-3.6,4.2-3.6
		c2.3,0,3.6,1.3,3.6,1.3l-0.5,0.7c0,0-1.2-1.2-3.1-1.2c-2.1,0-3.3,1.4-3.3,2.8c0,3.7,7.2,2.6,7.2,7.2c0,2-1.6,3.6-4.1,3.6
		c-2.8,0-4.3-1.7-4.3-1.7L770.4,412.3z"/>
	<path class="st0" d="M781,400.5h7.7v0.8h-6.8v5.7h5.6v0.8h-5.6v5.9h7.2v0.8h-8v-14H781z"/>
	<path class="st0" d="M798.8,409.6h-5.9l-1.8,4.8h-0.9l5.2-14h0.9l5.2,14h-0.9L798.8,409.6z M795.8,401.5c0,0-0.3,1.1-0.5,1.7
		l-2.1,5.7h5.3l-2.1-5.7C796.1,402.5,795.8,401.5,795.8,401.5L795.8,401.5z"/>
</g>
<g>
	<path class="st0" d="M1097.2,459.4c2.8,0,4.2,1.5,4.2,1.5l-0.4,0.5c0,0-1.4-1.3-3.8-1.3c-2.9,0-5.2,2.3-5.2,5.4s2.2,5.5,5.2,5.5
		c2.5,0,4-1.6,4-1.6l0.5,0.5c0,0-1.6,1.8-4.5,1.8c-3.5,0-6-2.8-6-6.2S1093.8,459.4,1097.2,459.4z"/>
	<path class="st0" d="M1110,467.3h-5l-1.5,4.1h-0.8l4.5-11.9h0.8l4.5,11.9h-0.8L1110,467.3z M1107.4,460.4c0,0-0.3,0.9-0.4,1.4
		l-1.8,4.8h4.5l-1.8-4.8C1107.7,461.3,1107.5,460.4,1107.4,460.4L1107.4,460.4z"/>
	<path class="st0" d="M1113.6,469.6c0,0,1.2,1.3,3.2,1.3c1.5,0,2.7-0.9,2.7-2.3c0-3.4-6.1-2.4-6.1-6.2c0-1.6,1.4-3.1,3.6-3.1
		c1.9,0,3,1.1,3,1.1l-0.4,0.6c0,0-1-1-2.6-1c-1.8,0-2.8,1.2-2.8,2.3c0,3.1,6.1,2.2,6.1,6.2c0,1.7-1.3,3.1-3.5,3.1
		c-2.3,0-3.6-1.5-3.6-1.5L1113.6,469.6z"/>
	<path class="st0" d="M1122.6,459.6h3.9c2.1,0,3.6,1.3,3.6,3.5s-1.5,3.5-3.6,3.5h-3.2v4.9h-0.7L1122.6,459.6L1122.6,459.6z
		 M1126.5,465.8c1.7,0,2.9-1,2.9-2.8s-1.2-2.8-2.9-2.8h-3.1v5.6L1126.5,465.8L1126.5,465.8z"/>
	<path class="st0" d="M1132.2,459.6h0.7v11.9h-0.7V459.6z"/>
	<path class="st0" d="M1142,467.3h-5l-1.5,4.1h-0.8l4.5-11.9h0.8l4.5,11.9h-0.8L1142,467.3z M1139.5,460.4c0,0-0.3,0.9-0.4,1.4
		l-1.8,4.8h4.5l-1.8-4.8C1139.8,461.3,1139.6,460.4,1139.5,460.4L1139.5,460.4z"/>
	<path class="st0" d="M1146.1,459.6h0.7l6.8,9.3c0.4,0.5,1,1.5,1,1.5l0,0c0,0-0.1-0.9-0.1-1.5v-9.3h0.7v11.9h-0.7l-6.8-9.3
		c-0.4-0.5-1-1.5-1-1.5l0,0c0,0,0.1,0.9,0.1,1.5v9.3h-0.7V459.6z"/>
	<path class="st0" d="M1111,495.6c0,0,1.2,1.3,3.2,1.3c1.5,0,2.7-0.9,2.7-2.3c0-3.4-6.1-2.4-6.1-6.2c0-1.6,1.4-3.1,3.6-3.1
		c1.9,0,3,1.1,3,1.1l-0.4,0.6c0,0-1-1-2.6-1c-1.8,0-2.8,1.2-2.8,2.3c0,3.1,6.1,2.2,6.1,6.2c0,1.7-1.3,3.1-3.5,3.1
		c-2.3,0-3.6-1.5-3.6-1.5L1111,495.6z"/>
	<path class="st0" d="M1120,485.6h6.5v0.7h-5.8v4.9h4.7v0.7h-4.7v5h6.1v0.7h-6.8L1120,485.6L1120,485.6z"/>
	<path class="st0" d="M1135.1,493.3h-5l-1.5,4.1h-0.8l4.5-11.9h0.8l4.5,11.9h-0.8L1135.1,493.3z M1132.6,486.4c0,0-0.3,0.9-0.4,1.4
		l-1.8,4.8h4.5l-1.8-4.8C1132.9,487.3,1132.6,486.4,1132.6,486.4L1132.6,486.4z"/>
</g>
<g>
	<path class="st0" d="M1776.4,516.2h-5.9l-1.8,4.8h-0.9l5.2-14h0.9l5.2,14h-0.9L1776.4,516.2z M1773.4,508c0,0-0.3,1.1-0.5,1.7
		l-2.1,5.7h5.3l-2.1-5.7C1773.7,509.1,1773.4,508,1773.4,508L1773.4,508z"/>
	<path class="st0" d="M1780.7,518.9c0,0,1.4,1.6,3.7,1.6c1.7,0,3.1-1.1,3.1-2.8c0-4-7.2-2.9-7.2-7.3c0-1.9,1.7-3.6,4.2-3.6
		c2.3,0,3.6,1.3,3.6,1.3l-0.5,0.7c0,0-1.2-1.2-3.1-1.2c-2.1,0-3.3,1.4-3.3,2.8c0,3.7,7.2,2.6,7.2,7.2c0,2-1.6,3.6-4.1,3.6
		c-2.8,0-4.3-1.7-4.3-1.7L1780.7,518.9z"/>
	<path class="st0" d="M1791.2,507h0.9v14h-0.9V507z"/>
	<path class="st0" d="M1802.8,516.2h-5.9l-1.8,4.8h-0.9l5.2-14h0.9l5.2,14h-0.9L1802.8,516.2z M1799.8,508c0,0-0.3,1.1-0.5,1.7
		l-2.1,5.7h5.3l-2.1-5.7C1800.1,509.1,1799.8,508,1799.8,508L1799.8,508z"/>
</g>
<g>
	<path d="M355.1,331.6h7.7v0.8H356v5.7h5.6v0.8H356v5.9h7.2v0.8h-8v-14H355.1z"/>
	<path d="M372.9,340.7H367l-1.8,4.8h-0.9l5.2-14h0.9l5.2,14h-0.9L372.9,340.7z M369.9,332.6c0,0-0.3,1.1-0.5,1.7l-2.1,5.7h5.3
		l-2.1-5.7C370.2,333.6,369.9,332.6,369.9,332.6L369.9,332.6z"/>
	<path d="M377.2,343.4c0,0,1.4,1.6,3.7,1.6c1.7,0,3.1-1.1,3.1-2.8c0-4-7.2-2.9-7.2-7.3c0-1.9,1.7-3.6,4.2-3.6c2.3,0,3.6,1.3,3.6,1.3
		l-0.5,0.7c0,0-1.2-1.2-3.1-1.2c-2.1,0-3.3,1.4-3.3,2.8c0,3.7,7.2,2.6,7.2,7.2c0,2-1.6,3.6-4.1,3.6c-2.8,0-4.3-1.7-4.3-1.7
		L377.2,343.4z"/>
	<path d="M391,332.4h-5.2v-0.8H397v0.8h-5.2v13.2H391V332.4z"/>
	<path d="M403.9,331.6h7.7v0.8h-6.8v5.7h5.6v0.8h-5.6v5.9h7.2v0.8h-8v-14H403.9z"/>
	<path d="M414.6,331.6h0.9v9.2c0,2.6,1.7,4.3,4.4,4.3s4.4-1.6,4.4-4.3v-9.1h0.9v9.2c0,3.1-2.1,5-5.2,5s-5.2-2-5.2-5v-9.3H414.6z"/>
	<path d="M428.7,331.6h4.1c1.3,0,2,0.1,2.5,0.4c1.2,0.6,1.9,1.8,1.9,3.4c0,2-1.2,3.5-2.8,3.9l0,0c0,0,0.1,0.2,0.3,0.5l3.1,5.8h-1
		l-3.3-6.2h-4v6.2h-0.9L428.7,331.6L428.7,331.6z M433.4,338.6c1.8,0,3-1.3,3-3.2c0-1.2-0.6-2.2-1.6-2.7c-0.4-0.2-0.8-0.3-2-0.3
		h-3.2v6.2H433.4z"/>
	<path d="M446.7,331.3c3.9,0,7.1,3.1,7.1,7.1c0,4.1-3.2,7.3-7.1,7.3s-7.1-3.2-7.1-7.3C439.6,334.4,442.8,331.3,446.7,331.3z
		 M446.7,345c3.4,0,6.2-2.8,6.2-6.5c0-3.6-2.8-6.3-6.2-6.3s-6.2,2.7-6.2,6.3C440.5,342.1,443.3,345,446.7,345z"/>
	<path d="M456.6,331.6h4.6c2.4,0,4.3,1.5,4.3,4.1c0,2.5-1.8,4.1-4.3,4.1h-3.7v5.8h-0.9V331.6z M461.2,339c2,0,3.4-1.2,3.4-3.3
		c0-2.1-1.4-3.3-3.4-3.3h-3.7v6.6L461.2,339L461.2,339z"/>
	<path d="M468,331.6h7.7v0.8h-6.8v5.7h5.6v0.8h-5.6v5.9h7.2v0.8h-8v-14H468z"/>
</g>
<polygon class="st1" points="1176.1,529.5 1176.3,528.2 1175.1,521.8 1175.9,520.3 1175,520.2 1174.2,521.4 1174.9,525.7 "/>
<path class="st2" d="M696,914c-0.8,0-1.5-0.1-2.1-0.1c-0.4,0-0.8-0.1-1.2-0.1s-0.8,0-1.2,0c-0.5,0-1,0-1.6,0c-0.7,0-1.3,0-1.9-0.1
	c-1.6-0.2-3.2-0.4-4.6-0.7c-1.3-0.3-2.4-0.7-3.3-1c-0.4-0.1-0.7-0.3-1.1-0.4c-1.8-0.6-3-1.6-3.8-2.2c-0.1,0-0.1-0.1-0.2-0.2
	c-0.1,0-0.2,0-0.3,0c-1-0.2-2.5-0.4-4-1.2c-1.4-0.7-2.7-1.6-3.8-2.3c-0.2-0.1-0.6-0.3-0.9-0.5c-0.8-0.4-1.8-0.9-2.9-1.7
	c-1.4-1-2.2-2.3-2.7-3.1c-0.1-0.1-0.1-0.2-0.2-0.2c-0.1-0.1-0.2-0.1-0.3-0.2c-0.9-0.4-2.1-1.1-3.3-2.2l-0.7-0.7
	c-0.8-0.7-1.5-1.5-2.3-2.3c-0.3-0.3-0.6-0.6-0.9-0.9c-0.6-0.6-1.3-1.3-2-2.1c-0.6-0.7-1.2-1.5-1.7-2.2c-0.3-0.4-0.5-0.7-0.8-1.1
	c-0.9-1.2-1.4-2.3-1.8-3.2c-0.1-0.2-0.1-0.4-0.2-0.5c-0.2-0.3-0.5-0.7-0.8-1c-0.5-0.7-1.1-1.4-1.6-2.2c-0.3-0.4-0.6-0.8-0.8-1.2
	c-0.5-0.7-1-1.4-1.5-2.1c-0.1-0.2-0.4-0.6-0.7-0.9c-0.5-0.6-1.2-1.4-1.7-2.3c-0.7-1.2-1.1-2.3-1.3-3.1c-0.1-0.2-0.2-0.5-0.2-0.6
	c-0.1-0.1-0.3-0.3-0.4-0.5c-0.6-0.7-1.4-1.5-2.1-2.8c-0.8-1.4-1-2.8-1.2-3.7c0-0.1,0-0.3-0.1-0.4c-0.3-0.7-0.6-1.3-1-2
	c-0.2-0.5-0.4-0.9-0.7-1.4c0-0.1-0.3-0.3-0.4-0.6c-0.5-0.7-1.2-1.6-1.8-2.8c-0.2-0.4-0.4-0.8-0.7-1.3c-0.4-0.7-0.8-1.4-1.2-2.2
	c-0.6-1.2-0.8-2.3-1-3.2c0-0.2-0.1-0.4-0.1-0.5c-0.1-0.1-0.2-0.2-0.3-0.3c-0.6-0.7-1.5-1.7-2.1-3.1c-0.5-1.1-0.7-2.1-0.9-3
	c-0.1-0.3-0.2-0.7-0.2-0.8c-0.4-0.8-0.6-1.6-0.9-2.3c-0.2-0.5-0.3-1-0.5-1.3c-0.1-0.3-0.4-0.7-0.6-1.2c-0.4-0.7-0.8-1.4-1.1-2.3
	c-0.1-0.3-0.3-0.7-0.6-1.1c-0.4-0.7-0.8-1.5-1.2-2.5c-0.6-1.5-0.6-2.9-0.7-3.9c-0.7-0.8-1.6-1.9-2.1-3.5c-0.4-1.3-0.6-2.5-0.6-3.3
	c0-0.2-0.1-0.5-0.1-0.7c-0.3-1-0.5-2-0.6-2.7c-0.1-0.4-0.1-0.7-0.2-0.9c-0.1-0.1-0.2-0.3-0.3-0.5c-0.5-0.8-1.1-1.8-1.5-3.1
	c-0.3-0.9-0.4-1.8-0.6-2.6c-0.1-0.5-0.2-0.9-0.3-1.2c-0.1-0.5-0.3-0.9-0.5-1.4c-0.2-0.7-0.5-1.5-0.7-2.3c-0.3-1.1-0.4-2.1-0.5-2.8
	c0-0.2-0.1-0.5-0.1-0.7c-0.1-0.1-0.1-0.2-0.2-0.2c-0.5-0.8-1.3-2-1.7-3.6c-0.4-1.4-0.3-2.8-0.3-3.6c0-0.2,0-0.3,0-0.5
	c-0.2-1.1-0.3-2-0.4-2.8c0-0.3,0-0.7-0.1-0.9c0,0-0.2-0.4-0.3-0.6c-0.4-0.7-0.8-1.7-1.1-3c0-0.1-0.2-0.4-0.3-0.7
	c-0.3-0.7-0.7-1.5-1-2.5c-0.1-0.2-0.3-0.7-0.4-1.1c-0.3-0.6-0.6-1.4-0.9-2.2c-0.5-1.6-0.4-3-0.4-4c0,0,0-0.1-0.1-0.1
	c-0.5-0.7-1.1-1.8-1.5-3.1c-0.5-1.6-0.4-3.1-0.4-4l0,0c0,0,0,0,0-0.1c-0.5-0.8-1.2-2-1.5-3.6c-0.2-1.1-0.3-2.2-0.4-3.1
	c0-0.4-0.1-0.7-0.1-1.1c-0.2-1.3-0.1-2.5,0-3.4c0-0.3,0-0.5,0.1-0.7c0-0.1-0.1-0.3-0.1-0.4c-0.3-1.1-0.8-2.7-0.5-4.6
	c0.2-1.5,0.6-2.9,0.9-4.1l0.1-0.5c0.4-1.4,1-2.5,1.4-3.4c0.2-0.3,0.4-0.7,0.4-0.8c0.1-0.2,0.1-0.6,0.2-0.9c0.2-0.9,0.5-2.1,1-3.3
	c0.6-1.3,1.3-2.2,1.9-3c0.2-0.2,0.4-0.5,0.5-0.7c0.4-0.7,0.8-1.5,1.3-2.3c0.2-0.4,0.5-0.8,0.7-1.3c0,0,0.1-0.4,0.2-0.7
	c0.2-0.8,0.6-1.9,1.2-3c0.8-1.4,1.8-2.3,2.5-3c0.1-0.1,0.2-0.2,0.3-0.3c0.2-0.4,0.4-0.8,0.5-1.2c0.3-0.6,0.6-1.3,0.9-1.9
	c0-0.1,0-0.2,0-0.4c0.1-1.1,0.3-2.8,1.4-4.6c0.9-1.6,2.1-3.1,3.3-4.3c1.2-1.3,2.8-2.5,4.7-3.7c1.8-1,3.5-1.3,4.8-1.4
	c0.3,0,0.7-0.1,0.9-0.1c0.1,0,0.5-0.2,0.7-0.4c0.8-0.4,1.9-1,3.2-1.3s2.5-0.3,3.3-0.3c0.3,0,0.6,0,0.7,0c0.6-0.1,1.2-0.2,1.8-0.4
	c0.6-0.1,1.2-0.2,1.6-0.4c0.5-0.2,1.2-0.5,1.9-0.8c0.3-0.1,0.5-0.3,0.8-0.4c0.1-0.1,0.2-0.2,0.3-0.3c0.6-0.6,1.5-1.4,2.7-2.1
	c0.8-0.5,1.6-0.9,2.4-1.2c0.5-0.2,0.9-0.4,1.2-0.6c0.8-0.4,1.6-0.9,2.4-1.3c0.4-0.2,0.8-0.4,1.1-0.6c0.2-0.1,0.5-0.3,0.9-0.6
	c0.7-0.5,1.5-1.1,2.6-1.6c1.3-0.6,2.5-1.2,3.8-1.7c0.4-0.2,0.8-0.3,1.1-0.5c0.9-0.4,1.8-0.8,2.9-1.2c0.9-0.3,1.9-0.5,2.9-0.5
	c0.6,0,1.2,0.1,1.7,0.1c0.9-0.7,2.3-1.7,4.2-2.1c1.6-0.4,3.1-0.6,4.4-0.7l0.8-0.1c0.4-0.1,0.8-0.1,1.2-0.1c2,0,3.7,0.7,4.6,1.1
	c0.1,0,0.3,0.1,0.3,0.1c0.2,0,0.4,0,0.6,0c0.3,0,0.7,0,1,0c0.7,0,1.8,0,3.1,0.4c1.1,0.3,1.9,0.4,2.8,0.5c1.2,0.1,2.2,0.3,2.9,0.4
	c0.2,0,0.5,0.1,0.7,0.1c0.3,0,0.7-0.1,1.2-0.2c0.8-0.1,1.9-0.3,3.1-0.3c0.1,0,0.2,0,0.4,0c2.1,0.1,4,0.5,6.2,1.5
	c0.2,0.1,0.4,0.2,0.6,0.2c1.1,0.4,2.6,1,4.2,2.2c0.9,0.6,1.6,1.2,2.3,1.7c0.5,0.4,0.9,0.7,1.2,0.9c0.6,0.4,1.3,0.7,2.1,1.1
	c0.3,0.1,0.6,0.3,0.9,0.4c0.4,0.2,1.1,0.3,2.3,0.5c0.8,0.1,1.5,0.3,2.1,0.5c0.5,0.1,1,0.3,1.2,0.3c0.1,0,0.5-0.1,0.8-0.2
	c0.8-0.2,2-0.4,3.3-0.4h0.1c1.5,0,2.8,0.4,3.7,0.7c0.2,0,0.3,0.1,0.5,0.1c0.6,0,1.2-0.1,1.9-0.1c0.5,0,0.9-0.1,1.4-0.1
	c0.6,0,1.2-0.1,1.8-0.1c0.5,0,0.9,0,1.3,0c0.1-0.1,0.3-0.2,0.4-0.2c0.6-0.4,1.5-0.9,2.5-1.3c1.1-0.4,2.2-0.6,2.9-0.7c0,0,0,0,0.1,0
	c0.1-0.1,0.1-0.1,0.2-0.2c0.4-0.5,0.9-1,1.5-1.6s1.4-1.3,1.9-2c0.6-0.8,1.2-1.6,1.6-2.4c0.4-0.6,0.7-1.2,1-1.7
	c0.1-0.2,0.2-0.4,0.4-0.5c0-1-0.1-2.4,0.5-3.9c0.4-1.1,0.9-2,1.3-2.6c0.1-0.2,0.3-0.5,0.3-0.6c0.4-1.3,1-2.2,1.5-3
	c-0.1-1-0.3-2.6,0.3-4.3c0.3-1,0.7-1.9,1-2.9l0.4-1.1l0.4-1.1c0.3-0.9,0.7-1.8,1-2.8c0.5-1.3,1.2-2.3,1.8-3c0.1-0.2,0.3-0.4,0.4-0.6
	c0.1-0.3,0.2-0.7,0.4-1.1c0.2-0.7,0.5-1.7,0.9-2.6c0.2-0.5,0.4-1,0.7-1.5c0.3-0.7,0.6-1.4,0.9-2.1c0.3-0.6,0.6-1.3,0.9-1.9
	c0.3-0.6,0.5-1.1,0.8-1.7c0.5-1,1-1.9,1.5-2.5c0.2-0.3,0.5-0.7,0.5-0.8c0.4-0.9,0.8-1.6,1.2-2.2c0.2-0.3,0.3-0.6,0.5-0.8
	c0-0.1,0-0.1,0-0.2c0-1,0.1-2.4,0.7-4c0.5-1.2,1.1-2.2,1.6-2.8c0.1-0.2,0.3-0.4,0.4-0.6c0.5-1.1,1-2.2,1.6-3.4
	c0.6-1.1,1.1-2.2,1.7-3.3c0.7-1.3,1.5-2.1,2.1-2.7c0.1-0.1,0.2-0.2,0.3-0.3c0.5-0.9,0.9-1.6,1.3-2c0.1-0.1,0.1-0.1,0.1-0.2
	c0,0,0,0,0-0.1c-0.1-0.6-0.3-1.4-0.4-2.4c-0.1-0.8,0-1.6,0-2.2c0-0.2,0-0.5,0-0.7c-0.2-1-0.5-2.1-0.8-3.1c-0.2-0.7-0.4-1.4-0.6-2.1
	c-0.2-0.5-0.3-1.1-0.5-1.6c-0.4-1.2-0.6-2.3-0.8-3.3c-0.1-0.3-0.1-0.6-0.2-0.9c0-0.2-0.1-0.5-0.2-0.8c-0.3-1-0.8-2.4-0.8-4.2
	c0-2.7,1.1-4.8,1.9-6.2c0.1-0.2,0.3-0.5,0.4-0.7c0.3-0.6,0.4-1.3,0.5-2.4c0-0.3,0-0.7-0.2-1.3c-1.8-0.2-3.4-0.8-4.6-1.2l-0.5-0.2
	c-0.4-0.1-0.8-0.2-1.2-0.3c-0.9-0.3-2-0.6-3.2-1.1c-1.4-0.6-2.4-1.5-3-2.1c-0.1-0.1-0.1-0.1-0.2-0.2c-0.6-0.2-1.2-0.4-1.7-0.5
	c-0.1,0.1-0.3,0.1-0.5,0.2c-0.5,0.3-1.2,0.6-2,0.8c-1.1,0.4-2.1,0.5-3.1,0.5c-2.4,0-4.5-1-5.8-1.7l-0.2-0.1c-1.4-0.8-3.6-2-5.1-4.4
	c-1.1-1.6-1.8-3.4-2.3-4.7c-0.8-2-0.7-3.8-0.7-4.8c0-0.2,0-0.3,0-0.5c-0.1-0.3-0.1-0.5-0.2-0.8c-0.3-1.2-0.7-2.9-0.4-4.9
	c0-0.3,0.1-0.6,0.1-0.8c0.1-1.3,0.2-3.4,1.3-5.3c1.1-1.9,2.7-3,3.7-3.8c0.2-0.2,0.5-0.4,0.6-0.5s0.2-0.3,0.3-0.5
	c0.7-0.9,1.7-2.3,3.4-3.4c1.3-0.8,2.6-1.2,3.6-1.5c0.4-0.1,0.8-0.2,1-0.3c1.3-0.6,2.5-0.8,3.5-1c0.4-0.1,0.8-0.2,1-0.2
	c0.2-0.1,0.6-0.3,1-0.5c0.8-0.4,1.8-0.9,3.1-1.3c0.4-0.1,0.9-0.3,1.3-0.4c0.9-0.3,1.9-0.6,2.8-0.8c0.2-0.1,0.7-0.3,1-0.4
	c0.8-0.4,1.7-0.8,2.9-1.1c0.8-0.2,1.6-0.4,2.3-0.5c0.6-0.1,1.2-0.2,1.5-0.4c1.2-0.4,2.4-0.4,3.1-0.4c0.3,0,0.6,0,0.9,0h0.1l0,0
	c0.8-0.6,2-1.5,3.7-2c1.3-0.4,2.5-0.4,3.4-0.5c0.3,0,0.7,0,0.8-0.1c0.3-0.1,0.8-0.3,1.4-0.5c0.7-0.3,1.6-0.6,2.5-0.8
	c1.1-0.3,2.2-0.4,3-0.5c0.4,0,0.9-0.1,1.1-0.1c0.5-0.1,1-0.3,1.6-0.5c0.7-0.2,1.5-0.5,2.4-0.7c1.1-0.3,2.1-0.4,2.9-0.4
	c0.5,0,0.9-0.1,1.2-0.2c0.3-0.1,0.8-0.2,1.3-0.4c0.7-0.2,1.5-0.5,2.4-0.7c0.1-0.1,0.3-0.2,0.4-0.2c0.8-0.5,2.1-1.2,3.7-1.5
	c0.8-0.2,1.6-0.3,2.4-0.4c0.6-0.1,1.1-0.2,1.7-0.3c0.5-0.1,1-0.2,1.5-0.3c0.9-0.2,1.7-0.3,2.6-0.5c1.1-0.2,2.1-0.2,2.9-0.2h0.4
	c0.2,0,0.7,0,0.8,0c0.5-0.1,1.1-0.2,1.6-0.3c0.7-0.2,1.6-0.3,2.5-0.5c1.4-0.2,2.7-0.4,4.1-0.6c0.4-0.1,0.9-0.2,1.4-0.3
	c0.8-0.2,1.7-0.4,2.7-0.5c0.4,0,0.7-0.1,1.1-0.1c1.2,0,2.2,0.2,2.9,0.4c0.1,0,0.1,0,0.2,0c0.1,0,0.1-0.1,0.2-0.1
	c0.9-0.4,2.2-1,3.9-1.1c0.3,0,0.5,0,0.8,0c1.4,0,2.5,0.3,3.3,0.5c0.1,0,0.2,0.1,0.3,0.1c0.2,0,0.4-0.1,0.6-0.2
	c0.8-0.2,2-0.5,3.3-0.6c0.5,0,1.1-0.1,1.6-0.1c0.8-0.1,1.7-0.2,2.6-0.2c0.2,0,0.3,0,0.5,0c0.9,0,1.7,0.1,2.5,0.2
	c0.5,0,0.9,0.1,1.2,0.1h0.2c1,0,1.9,0.1,2.7,0.2c0.5,0.1,1,0.1,1.3,0.1c0.1,0,0.6-0.1,0.9-0.1c0.8-0.1,1.8-0.3,3-0.3h0.4
	c0.4,0,0.8,0,1.3-0.1c0.7,0,1.4-0.1,2-0.1c0.3,0,0.5,0,0.8,0c1.3,0.1,2.4,0.3,3.2,0.5c0.3,0.1,0.8,0.2,0.9,0.2c0.2,0,0.5,0,0.7,0
	c0,0,1.3,0,1.6,0c0.7,0,1.3,0,1.9,0.1c0.5,0,1,0.1,1.5,0.1c0.9,0.1,1.8,0.1,2.7,0.2c0.3,0,0.8,0,1.3,0c0.8,0,1.8,0,2.8,0.1
	c1.5,0.2,2.6,0.7,3.5,1c0.2,0.1,0.5,0.2,0.6,0.2c0.5,0.1,0.9,0.1,1.4,0.1c0.8,0.1,1.6,0.1,2.5,0.3c0.2,0,0.5,0,0.7,0
	c0.5,0,1-0.1,1.5-0.1c0.8,0,1.5,0.1,2.1,0.2c1.7,0.3,3,1.1,3.8,1.6l0.1,0.1c0.1,0,0.2,0,0.3,0c0.4,0,0.7,0,1.1,0
	c1,0,1.9,0.1,2.7,0.3c1.6,0.4,2.8,1.2,3.6,1.7c0.1,0.1,0.3,0.2,0.4,0.3c0.9,0.3,1.7,0.6,2.4,0.9c0.4,0.2,0.8,0.3,1.3,0.5
	c0.3,0.1,0.8,0.2,1.3,0.3c0.8,0.2,1.6,0.4,2.6,0.7c0.2,0,0.3,0,0.5,0c1,0.1,2.4,0.2,4,0.8c1.5,0.6,2.5,1.5,3.3,2.1
	c0.1,0.1,0.3,0.2,0.4,0.4c0.9,0.4,1.7,0.9,2.4,1.3c0.3,0.2,0.6,0.3,0.9,0.5c0.1,0,0.2,0,0.4,0.1c1.1,0.2,2.6,0.4,4.2,1.4
	c1.5,0.9,2.5,2.1,3.1,2.9c0,0,0,0,0.1,0.1h0.1c1,0.3,2.4,0.7,3.8,1.8c1.1,0.9,1.9,1.8,2.5,2.5c0.2,0.2,0.4,0.5,0.5,0.6
	c0.9,0.7,1.6,1.5,2.2,2.2c0.2,0.3,0.5,0.6,0.7,0.7c0.2,0.2,0.6,0.4,1,0.7c0.7,0.4,1.5,1,2.3,1.7c0.3,0.3,0.7,0.6,1.1,0.9
	c0.6,0.5,1.3,1,2,1.7c0.9,0.8,1.5,1.7,2,2.3c0.1,0.2,0.3,0.4,0.4,0.5c0.1,0,0.2,0.1,0.3,0.1c0.9,0.4,2.2,1,3.5,2.1
	c1.3,1.2,1.9,2.5,2.4,3.4c0,0.1,0.1,0.2,0.1,0.3c0.5,0.5,0.9,1,1.3,1.4c0.3,0.4,0.7,0.7,0.9,1c0.1,0.1,0.4,0.2,0.6,0.3
	c0.8,0.4,1.8,0.9,2.8,1.8c0.7,0.6,1.3,1.2,1.7,1.7c0.4,0.4,0.7,0.7,0.9,0.9c0.3,0.3,0.7,0.5,1.2,0.9c0.6,0.4,1.3,0.9,2,1.4
	c0.2,0.2,0.6,0.4,1.1,0.7c0.6,0.4,1.4,0.9,2.2,1.5c1,0.8,1.7,1.7,2.3,2.3c0.1,0.2,0.3,0.4,0.4,0.5c0.1,0.1,0.3,0.2,0.5,0.2
	c0.8,0.4,1.9,0.8,3.1,1.7c1.1,0.9,1.9,1.8,2.4,2.5c0.1,0.2,0.3,0.4,0.4,0.5c0.8,0.6,1.4,1.2,1.9,1.7c0.2,0.2,0.4,0.4,0.6,0.6
	c0.1,0,0.1,0,0.2,0.1c1,0.3,2.5,0.7,3.9,1.7c1.5,1.1,2.3,2.4,2.9,3.3c0.1,0.1,0.2,0.1,0.4,0.2c0.8,0.3,1.8,0.8,2.8,1.5
	s1.8,1.5,2.3,2.1c0.2,0.2,0.3,0.4,0.5,0.5c0.1,0,0.3,0.1,0.4,0.1c0.9,0.3,2.1,0.7,3.4,1.5c0.9,0.6,1.6,1.3,2.2,1.8
	c0.3,0.3,0.7,0.6,0.8,0.7c0.4,0.2,0.8,0.5,1.3,0.8c0.6,0.3,1.3,0.7,2.1,1.2c0.4,0.2,0.8,0.5,1.4,0.8c0.6,0.3,1.3,0.7,2.1,1.2
	s1.5,1,2,1.5c0.4,0.3,0.8,0.6,1.1,0.8c0.6,0.4,1.3,0.8,1.9,1.2c0.5,0.3,1,0.7,1.4,0.9c0.9,0.6,1.7,1.2,2.3,1.6
	c0.2,0.1,0.3,0.3,0.5,0.4c0,0,0,0,0.1,0c1.1,0.1,2.7,0.3,4.4,1.2c1,0.6,1.8,1.2,2.5,1.8c0.2,0.2,0.6,0.5,0.7,0.6
	c1,0.5,1.8,1.1,2.4,1.6c0.3,0.2,0.7,0.5,0.8,0.6l1.1,0.6c0.7,0.4,1.3,0.7,2,1.1c0.1,0,0.3,0,0.4,0c1,0.1,2.4,0.3,3.9,1
	c1.4,0.7,2.4,1.6,3.1,2.3c0.1,0.1,0.2,0.2,0.2,0.2c0.2,0,0.4,0.1,0.6,0.1c0.8,0.2,1.9,0.4,3.1,1c1.5,0.7,2.5,1.7,3.2,2.3
	c0.1,0.1,0.2,0.2,0.3,0.3c0.6,0.3,1.3,0.6,2,0.8l1.3,0.5l1.4,0.6c0.8,0.3,1.5,0.7,2.3,1c0.1,0,0.5,0.1,0.8,0.2
	c0.8,0.2,2,0.4,3.2,0.8c0.8,0.3,1.6,0.7,2.2,1c0.5,0.3,1,0.5,1.4,0.7c0.7,0.3,1.4,0.6,2.1,0.9c0.5,0.2,1,0.5,1.5,0.7
	c0.2,0,0.4,0.1,0.6,0.1c0.9,0.1,2.2,0.3,3.5,0.8c0.7,0.3,1.4,0.6,2.1,0.9c0.6,0.2,1.1,0.5,1.7,0.7c0.9,0.4,1.7,0.8,2.4,1.1
	c0.5,0.2,0.9,0.5,1.3,0.6c0.6,0.2,1.1,0.4,1.7,0.6c0.7,0.3,1.4,0.5,2.1,0.8c0.2,0.1,0.7,0.2,1.1,0.3c0.8,0.2,1.8,0.4,2.8,0.8
	c1.2,0.5,2.2,1.1,2.9,1.6c0.2,0.2,0.6,0.4,0.7,0.5c0.3,0.1,0.8,0.3,1.3,0.4c0.8,0.2,1.6,0.5,2.5,0.9c0.4,0.1,0.8,0.3,1.4,0.5
	c0.8,0.2,1.6,0.5,2.5,0.9l0.9,0.4c1,0.4,1.9,0.8,2.9,1.2c1.2,0.5,2.2,1.2,2.9,1.7c0.2,0.2,0.6,0.4,0.7,0.5c0.5,0.2,1,0.4,1.5,0.6
	c0.7,0.3,1.5,0.6,2.2,0.9c0.7,0.3,1.5,0.7,2.2,1c0.5,0.2,1,0.5,1.5,0.7c0.4,0.2,0.9,0.4,1.4,0.5c0.7,0.3,1.6,0.6,2.4,1
	c0.2,0.1,0.6,0.2,1,0.3c0.8,0.2,1.9,0.5,3,1.1c1.2,0.6,2.5,1.2,3.7,1.8c1.6,0.8,2.6,1.9,3.3,2.6c0.1,0.1,0.2,0.2,0.2,0.3
	c0.3,0.2,0.7,0.3,1.1,0.5c0.7,0.3,1.5,0.7,2.4,1.1c0.5,0.2,0.9,0.5,1.4,0.7c0.7,0.3,1.5,0.7,2.3,1.2c0.9,0.5,1.6,1,2.3,1.5
	c0.4,0.3,0.9,0.6,1.2,0.8c0.9,0.5,1.6,1.1,2.3,1.6c0.4,0.3,0.7,0.5,1,0.7c0.1,0,0.4,0.1,0.6,0.2c0.9,0.3,2.2,0.6,3.5,1.4
	c0.2,0.1,0.6,0.3,1,0.5c0.7,0.3,1.6,0.7,2.6,1.3s1.7,1.3,2.3,1.8c0.3,0.3,0.6,0.6,0.8,0.7c0.7,0.5,1.4,1,2,1.4
	c0.4,0.3,0.8,0.6,1.3,0.9c0.8,0.6,1.5,1.1,2.1,1.6c0.4,0.3,0.7,0.6,1,0.8c0.8,0.6,1.5,1.1,2.1,1.7c0.3,0.3,0.6,0.5,0.9,0.7
	c0.2,0.1,0.4,0.1,0.5,0.2c0.9,0.3,2.1,0.7,3.3,1.6c0.4,0.3,0.8,0.6,1.3,0.9c0.7,0.5,1.3,0.9,2,1.4c1.1,0.8,2.1,1.6,3.2,2.3
	c0.3,0.2,0.8,0.5,1.2,0.8c0.6,0.4,1.4,0.9,2.1,1.4c1.4,1.1,2.2,2.3,2.7,3.2c0,0.1,0.1,0.1,0.1,0.2c0.2,0.1,0.3,0.2,0.5,0.3
	c0.7,0.4,1.6,0.8,2.6,1.6c0.1,0.1,0.4,0.2,0.6,0.3c0.8,0.4,2,0.9,3.1,1.8c1.6,1.3,2.3,2.8,2.8,3.8c0.1,0.1,0.3,0.2,0.4,0.3
	c0.7,0.4,1.5,0.9,2.4,1.7c0.4,0.3,0.8,0.6,1.2,0.9c0.6,0.4,1.3,0.9,2,1.5c1,0.9,1.7,1.8,2.2,2.5c0.2,0.2,0.4,0.5,0.4,0.6
	c0.2,0.2,0.6,0.5,1,0.8c0.6,0.5,1.3,1,2,1.6c0.1,0,0.4,0.2,0.6,0.4c0.7,0.4,1.7,1,2.7,1.9c1.1,1,1.7,2.1,2.2,2.8
	c0.1,0.2,0.2,0.3,0.3,0.5c0.3,0.3,0.7,0.6,1,0.9c0.5,0.4,1.1,0.9,1.7,1.5c0.1,0.1,0.3,0.1,0.4,0.2c0.8,0.4,2.1,1.1,3.2,2.2
	c1,1,1.6,2.1,2.1,2.9c0.1,0.2,0.2,0.3,0.3,0.5c0.8,0.8,1.3,1.6,1.7,2.2c0.2,0.3,0.5,0.7,0.6,0.8c0.3,0.3,0.7,0.7,1,1
	c0.5,0.5,1.2,1.1,1.8,1.7c0.1,0.1,0.4,0.3,0.6,0.4c0.7,0.5,1.7,1.2,2.6,2.2s1.5,2.1,1.9,2.9c0.1,0.2,0.2,0.4,0.3,0.6
	c0.2,0.2,0.4,0.4,0.7,0.7c0.6,0.5,1.4,1.2,2.1,2.1l0.5,0.6c0.7,0.8,1.3,1.7,2,2.5c0.6,0.7,1.1,1.5,1.5,2.1c0.2,0.4,0.5,0.7,0.7,1.1
	c0.1,0.1,0.3,0.3,0.5,0.4c0.7,0.6,1.6,1.4,2.5,2.6c0.6,0.8,1,1.6,1.4,2.4c0.2,0.4,0.4,0.8,0.6,1.1c0.5,0.8,0.9,1.6,1.3,2.3
	c0.2,0.4,0.4,0.8,0.7,1.2c0.2,0.4,0.5,0.8,0.7,1.2c0.4,0.7,0.9,1.4,1.4,2.3c0.6,1.1,0.9,2.2,1.2,3c0.1,0.3,0.2,0.7,0.3,0.8
	c0.4,0.9,0.8,1.7,1.1,2.5c0.1,0.3,0.3,0.7,0.4,1c0.1,0.1,0.2,0.3,0.3,0.4c0.6,0.7,1.4,1.8,2,3.2c0.6,1.5,0.7,2.9,0.6,3.9
	c0.7,0.8,1.7,2,2.3,3.7c0.3,1,0.4,2,0.5,2.8c0,0.4,0.1,0.9,0.2,1.1c0.3,1,0.5,1.9,0.6,2.7c0.1,0.5,0.2,1,0.3,1.4
	c0,0.1,0.2,0.4,0.3,0.7c0.4,0.8,1,2,1.3,3.4c0.3,1.5,0.3,2.8,0.2,3.8c0,0.3,0,0.7,0,0.8c0.2,1.7,0.3,3.4,0.1,5
	c-0.2,2.8-1.3,4.7-2.1,6l-0.3,0.6c-0.8,1.4-2.1,3.6-4.8,4.8c-2.1,0.9-4.1,1-5.9,1h-0.3c-0.3,0-0.6,0-1,0.1c-0.6,0-1.2,0.1-2,0.1
	c-0.6,0-1.2,0-1.8-0.1c-1.4-0.2-2.5-0.6-3.3-1c-0.1-0.1-0.3-0.1-0.4-0.2c-0.5,0-1.3,0.1-2,0.3c-1,0.2-1.9,0.5-2.9,0.8
	c-0.3,0.1-0.8,0.4-1.4,0.7c-0.5,0.3-0.9,0.5-1.4,0.7c-0.6,0.3-1.2,0.7-1.8,1.1c-0.3,0.2-0.7,0.4-1,0.6c-1.1,0.6-2.1,1-2.8,1.2
	c-0.2,0.1-0.5,0.2-0.6,0.2c-0.3,0.2-0.7,0.5-1.1,0.8c-0.6,0.4-1.2,0.9-1.9,1.4c-0.4,0.2-0.7,0.5-1.1,0.8c-0.7,0.5-1.4,1-2.3,1.5
	c-1,0.6-2,1-2.8,1.4c-0.3,0.2-0.7,0.3-1,0.5l-0.3,0.1c-1.1,0.6-2.4,1.2-3.9,1.7c-0.2,0.1-0.6,0.2-1,0.4c-1.2,0.5-2.8,1.3-4.8,1.3
	h-0.2c-2.6,0-4.5-1.2-5.5-1.9l0,0c-0.2,0-0.5,0-0.7,0c-0.9,0-2.4-0.1-3.9-0.7l-0.7-0.3c-0.9-0.4-1.7-0.7-2.6-0.9
	c-0.8-0.2-1.5-0.5-2-0.7c-0.2-0.1-0.6-0.2-0.7-0.3c-0.5-0.1-1.1-0.2-1.6-0.3c-0.6-0.1-1.2-0.2-1.7-0.3c-1.1-0.1-2.1-0.3-2.9-0.5
	c-0.4-0.1-0.7-0.2-1.1-0.2c-0.1,0-0.5,0-0.7-0.1c-1-0.1-2.4-0.1-3.9-0.7c-1.7-0.6-2.9-1.6-3.7-2.3c-0.1-0.1-0.3-0.3-0.4-0.4
	c-0.2-0.1-0.5-0.2-0.7-0.2c-0.8-0.3-1.9-0.6-2.9-1.2c-0.8-0.5-1.5-1-2.1-1.4c-0.4-0.3-0.9-0.6-1.2-0.8c-0.3-0.2-0.8-0.3-1.2-0.5
	c-0.8-0.3-1.6-0.7-2.5-1.2c-1.1-0.6-2-1.3-2.7-1.9c-0.3-0.2-0.7-0.5-0.8-0.6c-1-0.6-1.9-1.2-2.7-1.8c-0.2-0.1-0.4-0.2-0.5-0.4h-0.1
	c-1-0.3-2.8-0.7-4.4-2.2c-0.8-0.7-1.4-1.5-1.9-2.1c-0.2-0.3-0.5-0.6-0.6-0.7c-0.1-0.1-0.4-0.3-0.6-0.4c-0.5-0.4-1.2-0.8-1.9-1.5
	c-1-0.9-1.6-1.9-2-2.6c-0.2-0.1-0.3-0.2-0.5-0.3c-0.4-0.3-0.9-0.6-1.2-0.7c-0.2,0-0.7-0.1-1.1-0.1c-0.6,0-1.4-0.1-2.2-0.2
	c-0.4-0.1-0.7-0.1-1.1-0.1c-1-0.1-2.2-0.2-3.5-0.6c-0.2,0-0.5-0.1-0.9-0.1c-1-0.1-2.5-0.3-4-1c-1.6-0.7-2.7-1.7-3.5-2.5
	c-0.2-0.2-0.4-0.4-0.6-0.5c-0.1-0.1-0.4-0.3-0.7-0.4c-0.9-0.5-2.2-1.3-3.3-2.5c-1.2-1.3-1.8-2.8-2.2-3.7c-0.1-0.2-0.1-0.3-0.2-0.5
	c-0.8-1.2-1.5-2.5-2.1-3.6c-0.2-0.3-0.4-0.7-0.5-1c-0.4-0.8-0.9-1.6-1.4-2.6c-0.3-0.7-0.7-1.4-1.1-2.2l-0.4-0.8
	c-0.5-1-1.1-2.1-1.7-3.1c0,0-0.3-0.3-0.5-0.5c-0.5-0.6-1.3-1.3-1.9-2.3c-0.7-1-1.3-2-2-3.1l-0.1-0.2c-0.8-1.3-1.5-2.4-2.1-3.5
	c-1-1.7-1.2-3.3-1.3-4.4c0-0.1,0-0.2,0-0.4c-0.2-0.5-0.5-0.9-0.8-1.4c-0.3-0.6-0.7-1.2-1-1.7c-0.1-0.1-0.3-0.4-0.5-0.5
	c-0.6-0.6-1.3-1.4-2-2.4l-0.2-0.4c-0.6-0.9-1.1-1.7-1.7-2.4c-1-1.2-1.5-2.4-1.9-3.3c-0.1,0.1-0.2,0.1-0.4,0.2
	c-1.4,0.6-3.5,1.5-5.8,1.5c-0.4,0-0.7,0-1.1-0.1c-3.1-0.4-4.9-2.5-5.8-3.5c-0.1-0.1-0.1-0.2-0.2-0.2c-0.2-0.1-0.3-0.2-0.4-0.3
	c-0.4,0.2-0.8,0.3-1.3,0.5c-0.2,0.1-0.7,0.3-1,0.5c-0.5,0.3-1.1,0.6-1.8,0.9c-0.3,0.1-0.7,0.4-1.1,0.6c-0.7,0.4-1.5,0.8-2.4,1.2
	c-0.3,0.1-0.6,0.2-0.8,0.4c-0.9,0.4-2,0.9-3.2,1.2v0.1c-0.2,0.7-0.2,1.4,0,2.2c0.1,0.8,0.3,1.4,0.6,2c0.4,0.9,0.6,1.7,0.8,2.4
	c0,0.1,0.1,0.3,0.1,0.4c0,0,0,0,0.1,0c0.7,0.6,1.9,1.5,2.7,3c0.7,1.2,1.1,2.3,1.5,3.2c0.1,0.3,0.2,0.5,0.3,0.7
	c0.1,0.3,0.3,0.6,0.4,1c0.3,0.8,0.7,1.5,1,2.2c0.3,0.5,0.6,1,0.8,1.5c0.4,0.7,0.8,1.3,1.1,2c0.1,0.2,0.4,0.6,0.6,1
	c0.5,0.8,1.1,1.7,1.7,2.9c0.8,1.9,0.8,3.7,0.8,4.7c0,0.1,0,0.3,0,0.4c0.1,0.2,0.1,0.4,0.2,0.6c0.4,1.2,0.9,2.7,0.8,4.7
	c-0.1,2.5-0.9,4.5-1.6,6s-1.5,3-2.6,4.5l-0.4,0.5c-0.8,1.1-1.8,2.4-3.2,3.5c-1.4,1.1-2.9,1.7-3.9,2.2c-0.3,0.1-0.6,0.2-0.8,0.4
	c-0.1,0-0.3,0.2-0.5,0.4c-0.9,0.6-2.2,1.6-4.1,2.1c-1.5,0.4-3.2,0.8-4.9,1.1c-0.3,0-0.6,0.1-0.9,0.1c-1.2,0.2-2.5,0.3-4,0.3
	c-1.3,0-2.4-0.1-3.4-0.3c-0.4-0.1-0.8-0.1-1.2-0.1c-1.8-0.2-3.2-0.8-4.1-1.3c-0.1-0.1-0.3-0.1-0.4-0.2c-0.3,0-0.6,0-1-0.1
	c-0.9,0-2-0.1-3.3-0.4c-0.1,0-0.6,0-0.9-0.1c-0.9,0-2.2-0.1-3.5-0.5c-1.5-0.4-2.6-1.1-3.5-1.6c-0.2-0.1-0.5-0.3-0.6-0.3
	c-0.4-0.1-0.8-0.2-1.3-0.3c-0.8-0.2-1.8-0.5-2.8-0.9c-0.2-0.1-0.7-0.2-1-0.2c-0.9-0.2-2-0.4-3.2-0.9c-1.5-0.6-2.5-1.5-3.3-2.2
	c-0.2-0.1-0.3-0.3-0.5-0.4c-0.4-0.2-0.8-0.3-1.2-0.5c-0.8-0.3-1.8-0.7-2.7-1.3c-1.2-0.7-2.1-1.6-2.7-2.2c-0.2-0.1-0.4-0.3-0.5-0.4
	c-0.1-0.1-0.4-0.2-0.7-0.3c-0.8-0.3-1.9-0.7-3-1.4c-1.2-0.8-2-1.7-2.6-2.3c-0.1-0.1-0.3-0.3-0.4-0.4c-0.2-0.1-0.5-0.2-0.7-0.3
	c-0.8-0.3-1.8-0.8-2.8-1.5s-1.8-1.5-2.4-2.1c-0.1-0.1-0.2-0.2-0.3-0.3h-0.1c-1-0.3-2.6-0.6-4.1-1.8c-0.7-0.5-1.4-1.1-1.9-1.6
	c-0.4-0.3-0.8-0.7-1.2-1s-0.9-0.6-1.3-0.9c-0.7-0.5-1.3-0.9-1.9-1.4c-0.7-0.6-1.4-1.2-1.9-1.7c-0.4-0.4-0.8-0.7-1.1-1
	c-0.9-0.7-1.6-1.5-2.1-2.1c-0.2-0.3-0.5-0.6-0.7-0.7c-0.1-0.1-0.4-0.3-0.7-0.4c-0.7-0.4-1.7-0.9-2.7-1.7c-1.3-1.1-2-2.3-2.5-3.1
	c-0.1-0.1-0.1-0.2-0.2-0.3c0,0-2-1.7-2.7-2.3c-0.2-0.2-0.6-0.5-1-0.7c-0.6-0.4-1.3-0.8-2-1.4c-0.1-0.1-0.3-0.1-0.5-0.2
	c-0.9-0.4-2.1-0.9-3.2-1.9c-1.1-0.9-1.8-1.9-2.3-2.6c-0.1-0.1-0.2-0.3-0.3-0.5c-0.2-0.1-0.5-0.3-0.7-0.4c-0.7-0.4-1.6-0.9-2.5-1.7
	c-0.3-0.2-0.7-0.5-1.1-0.8c-0.6-0.4-1.3-0.9-2.1-1.5c-1.1-0.9-1.8-1.9-2.3-2.6c-0.1-0.2-0.2-0.3-0.3-0.5c-0.7-0.6-1.2-1.1-1.7-1.6
	c-0.4-0.4-0.7-0.7-1-0.9c-0.5-0.4-1-0.8-1.5-1.2s-1-0.8-1.5-1.2s-0.9-0.7-1.3-1.1c-0.6-0.4-1.1-0.9-1.7-1.3
	c-0.3-0.2-0.8-0.5-1.2-0.8c-0.6-0.4-1.2-0.7-1.8-1.2c-0.1-0.1-0.4-0.2-0.6-0.2c-0.8-0.3-1.9-0.8-3.1-1.6c-0.8-0.6-1.5-1.3-2.1-1.8
	c-0.3-0.3-0.6-0.6-0.8-0.7c-1.1-0.7-1.8-1.6-2.4-2.2c-0.1-0.1-0.2-0.2-0.3-0.3c-0.1,0-0.2,0-0.2-0.1c-0.9-0.2-2.2-0.6-3.5-1.4
	c-0.4-0.3-0.8-0.5-1.2-0.8c-0.6-0.4-1.3-0.8-1.9-1.2c-1.3-0.8-2.2-1.8-2.8-2.5c-0.1-0.1-0.2-0.2-0.3-0.3c-0.4-0.2-0.8-0.4-1.3-0.7
	c-0.5-0.2-1-0.5-1.5-0.8c-0.1,0-0.3-0.1-0.5-0.1c-0.9-0.2-2.2-0.4-3.5-1.1c-0.8-0.4-1.5-0.7-2.3-1.1l-1.1-0.5
	c-1.4-0.6-2.4-1.5-3-2.3c-0.1,0-0.2,0-0.2,0c-0.9,0-2.2-0.1-3.6-0.6c-0.5-0.2-0.9-0.4-1.4-0.5c-0.7-0.3-1.4-0.6-2.1-0.8
	c-1.3-0.5-2.3-1.1-3-1.6c-0.1-0.1-0.3-0.2-0.4-0.3c-0.3-0.1-0.8-0.2-1.3-0.3c-0.7-0.1-1.4-0.3-2.2-0.5c-0.5-0.1-1.1-0.3-1.6-0.5
	c-0.7-0.2-1.4-0.4-2-0.5H896c-0.2,0-0.4,0-0.6,0c-0.3,0-0.7,0-1,0c-0.9,0-1.6-0.1-2.3-0.2c-1.8-0.3-3.1-1.2-4-1.7
	c-0.1,0-0.1-0.1-0.2-0.1c-0.3,0-0.7-0.1-1.1-0.1c-0.7-0.1-1.5-0.1-2.4-0.2c-0.7-0.1-1.3-0.2-2-0.3s-1.3-0.2-2-0.3c0,0-0.1,0-0.2,0
	c-0.2,0-0.5,0-0.7,0c-0.4,0-0.9,0-1.3,0c-0.7,0-1.3,0-1.9-0.1c-0.9-0.1-1.8-0.3-2.7-0.4L871,712c-0.3-0.1-0.8-0.1-1.3-0.1
	c-0.8,0-1.8-0.1-2.9-0.3c-1.2-0.2-2.3-0.6-3.1-0.9c-0.4-0.1-0.8-0.3-1-0.3c-0.7-0.1-1.3-0.3-2-0.5c-0.6-0.1-1.3-0.3-1.9-0.4
	c-1-0.2-1.9-0.5-2.6-0.8c-0.4-0.2-0.9-0.3-1.2-0.4c-0.5-0.1-0.9-0.2-1.4-0.3c-0.8-0.2-1.6-0.3-2.4-0.5c-0.8-0.1-1.6-0.3-2.4-0.4
	c-0.3,0-0.6-0.1-0.9-0.1c-0.1,0-0.2,0.1-0.3,0.1c-0.7,0.2-1.7,0.4-2.9,0.4c-0.3,0-0.7,0-1-0.1c-1-0.1-1.9-0.3-2.7-0.5
	c-0.3-0.1-0.8-0.2-1-0.2h-0.1c-0.3,0-0.7,0-1.2,0.1c-0.7,0.1-1.4,0.1-2.3,0.1c-1.6,0-2.8-0.4-3.7-0.7c-0.8,0.4-1.9,0.8-3.3,1.1
	c-0.6,0.1-1.1,0.1-1.7,0.1c-0.5,0-1,0-1.5-0.1c-0.1,0-0.1,0-0.2,0c0,0,0,0-0.1,0c-0.8,0.5-1.9,1.3-3.5,1.8c-0.8,0.2-1.5,0.4-2.1,0.5
	s-1.2,0.3-1.6,0.4c-1.2,0.4-2.3,0.6-3.2,0.7c-0.2,0-0.6,0.1-0.7,0.1c-0.2,0.1-0.5,0.3-0.8,0.5c-0.7,0.4-1.5,1-2.5,1.4
	c-1.2,0.5-2.3,0.8-3.1,1c-0.3,0.1-0.6,0.1-0.8,0.2c-1.2,0.6-2.3,1.2-3.4,1.8c-0.5,0.3-1.1,0.6-1.7,1c-0.4,0.3-0.9,0.5-1.3,0.8
	c-0.1,0.1-0.2,0.2-0.2,0.3c-0.6,0.7-1.5,1.8-2.9,2.7c-1.5,0.9-2.9,1.2-3.9,1.4l0,0c-0.6,0.7-1.4,1.8-2.7,2.7c-0.4,0.2-0.8,0.6-1.2,1
	c-0.5,0.5-1.1,1-1.9,1.5c-0.7,0.5-1.3,1-1.9,1.4c-0.4,0.3-0.8,0.6-1.2,0.9c-0.7,0.5-1.4,1-2.1,1.4c-0.5,0.3-0.9,0.6-1.2,0.8
	c-0.9,0.7-1.8,1.2-2.5,1.6c-0.3,0.2-0.8,0.4-0.9,0.5c-0.2,0.2-0.5,0.5-0.9,0.9c-0.5,0.5-1.2,1.2-2,1.9c-0.5,0.4-0.9,0.8-1.3,1.2
	c-0.5,0.5-1.1,1-1.6,1.5c-0.7,0.6-1.4,1.1-2.1,1.5c-0.5,0.3-0.9,0.6-1.2,0.8c-0.2,0.2-0.5,0.5-0.9,0.9c-0.5,0.6-1.1,1.3-1.9,1.9
	c-0.4,0.3-0.7,0.6-1.1,0.9c-0.6,0.5-1.3,1.1-1.9,1.6c-0.4,0.3-0.8,0.8-1.2,1.2c-0.5,0.5-1,1.1-1.6,1.7c-0.6,0.5-1.2,1.1-1.8,1.6
	c-0.5,0.4-0.9,0.8-1.3,1.2c-0.9,0.8-1.8,1.4-2.5,1.9c-0.4,0.2-0.8,0.5-0.9,0.7c-0.4,0.3-0.7,0.7-1.1,1.1c-0.6,0.6-1.3,1.3-2,1.9
	c-0.4,0.3-0.7,0.6-1.1,1c-0.7,0.6-1.4,1.3-2.3,2c-1.3,1-2.5,1.5-3.5,1.9c-0.3,0.1-0.6,0.2-0.7,0.3c-1.1,0.8-2.4,1.5-3.9,2.4
	c-0.1,0.1-0.5,0.3-0.7,0.5c-0.8,0.6-1.9,1.5-3.3,2.1c-1.7,0.7-3.3,1.1-4.5,1.3l-0.5,0.1c-0.2,0.1-0.7,0.2-1.2,0.4
	c-0.7,0.3-1.6,0.6-2.6,0.9l-1.2,0.3c0,0-1.3-0.2-1.4-0.2l-2,0.9c-0.1,0.1-0.3,0.2-0.5,0.3c-0.7,0.5-1.8,1.3-3.2,1.8
	c-1.2,0.4-2.3,0.7-3.2,0.8c-0.3,0.1-0.7,0.1-1,0.2c-0.2,0-0.5,0.2-0.9,0.3c-0.9,0.3-2,0.7-3.3,0.9c-0.5,0.1-1,0.1-1.6,0.1
	c-0.7,0-1.4-0.1-1.9-0.1c-0.3,0-0.6-0.1-0.8-0.1c-0.4,0-0.9,0-1.3,0c-0.4,0-0.9,0-1.3,0c-0.3,0-0.7,0-1,0c-0.1,0-0.2,0-0.3,0
	c-0.5,0-0.9,0-1.4,0c-0.7,0-1.3,0-1.8,0c-0.3,0-0.5,0-0.8,0c-0.1,0-0.1,0.1-0.2,0.1c-0.2,0.1-0.4,0.3-0.6,0.4
	c-0.4,0.3-0.8,0.5-1.2,0.7c0,0,0,0,0,0.1c-0.1,0.6-0.2,1.3-0.4,2c-0.2,0.9-0.6,1.7-0.9,2.3c-0.1,0.1-0.1,0.3-0.2,0.4v0.1
	c0.2,0.8,0.4,2,0.3,3.4c-0.1,1.2-0.4,2.2-0.7,3c0.4,0.7,0.8,1.6,1,2.8c0.1,0.5,0.2,1,0.2,1.4c0.1,0.4,0.1,1,0.2,1.1l0.2,0.6
	c0.3,0.8,0.6,1.5,0.9,2c0.5,0.9,0.9,1.8,1.1,2.4c0.1,0.2,0.2,0.4,0.2,0.6c0.6,0.7,1.3,1.4,2,2.1l0.2,0.2c0.2,0.2,0.6,0.5,1,0.8
	c0.5,0.4,1.1,0.8,1.7,1.4c0.2,0.2,0.6,0.5,1,0.8c0.6,0.4,1.3,0.9,2,1.5c0.1,0.1,0.5,0.3,0.8,0.5c0.7,0.4,1.6,0.9,2.5,1.7
	c0.8,0.6,1.4,1.3,2.1,1.9c0.3,0.3,0.7,0.7,1.1,1c1.2,1.1,1.9,2.4,2.4,3.2c0.1,0.1,0.2,0.3,0.2,0.4c0.2,0.2,0.5,0.4,0.7,0.6
	c0.7,0.5,1.6,1.2,2.4,2.1c0.1,0.1,0.5,0.4,0.8,0.7c0.7,0.6,1.6,1.2,2.4,2.2c0.8,0.9,1.4,1.9,1.8,2.6c0.2,0.3,0.4,0.7,0.6,0.9
	c0.7,0.9,1.3,1.7,1.9,2.5l0.7,0.9c0.1,0.2,0.5,0.5,0.8,0.8c0.6,0.6,1.4,1.4,2.1,2.5c1,1.4,1.3,2.9,1.6,3.8c0,0.2,0.1,0.3,0.1,0.5
	c0.2,0.3,0.4,0.6,0.6,0.9c0.5,0.7,1.1,1.6,1.6,2.5c0.5,1,0.9,1.9,1.3,2.7c0.2,0.4,0.3,0.8,0.5,1.2c0.2,0.3,0.3,0.7,0.5,1
	c0.5,0.9,0.9,1.9,1.4,3c0.1,0.3,0.2,0.6,0.4,0.9c0.4,1,0.8,2,1.2,3.2s0.5,2.3,0.7,3.2c0.1,0.4,0.1,0.7,0.2,1
	c0.1,0.2,0.2,0.3,0.2,0.5c0.5,0.9,1.2,2.2,1.4,3.9l0.1,0.6c0.2,1.2,0.4,2.5,0.4,4c0.1,1.4,0.1,3,0.1,4.6c-0.1,1.7-0.6,3.1-1,4.1
	c-0.1,0.2-0.1,0.4-0.2,0.5c0,0.2,0,0.5,0,0.8c0,1,0,2.3-0.4,3.7s-1,2.6-1.5,3.4c-0.1,0.3-0.3,0.6-0.4,0.8c-0.1,0.3-0.2,0.7-0.4,1
	c-0.3,0.9-0.7,2-1.3,3.2s-1.3,2.1-1.8,2.8c-0.2,0.2-0.3,0.4-0.5,0.6c0,0.1,0,0.2-0.1,0.3c-0.3,1.1-0.6,2.7-1.8,4.2
	c-1,1.3-2.2,2.2-3.1,2.7c-0.2,0.1-0.3,0.2-0.5,0.3c-0.9,0.9-1.7,1.6-2.5,2.1c-0.3,0.3-0.7,0.5-0.8,0.7c-0.1,0.1-0.4,0.4-0.6,0.7
	c-0.6,0.7-1.4,1.7-2.5,2.6c-1,0.8-1.9,1.3-2.8,1.8c-0.3,0.2-0.7,0.4-1,0.6c-0.2,0.1-0.5,0.4-0.8,0.6c-0.7,0.6-1.6,1.4-2.9,2
	c-1.4,0.8-2.9,1.4-4.1,1.9c-1.2,0.5-2.3,0.8-3.2,1c-0.4,0.1-0.8,0.2-1.2,0.3c-0.2,0-0.5,0.2-0.9,0.4c-0.9,0.4-2,1-3.5,1.3
	c-0.4,0.1-0.8,0.2-1.1,0.3c-0.9,0.3-2.1,0.6-3.4,0.7C697,913.9,696.5,914,696,914z"/>
<path class="st2" d="M692.7,907.8c-1.3,0-2.7,0.1-4,0s-2.7-0.3-4-0.6s-2.6-0.8-3.8-1.2c-1.3-0.4-2.1-1.7-3.4-2.2
	c-1.2-0.5-2.7-0.4-3.9-1s-2.3-1.3-3.4-2c-1.1-0.7-2.4-1.1-3.5-1.9c-1-0.8-1.5-2.2-2.5-3.1c-1-0.8-2.5-1.2-3.4-2.1
	c-0.9-0.9-1.9-1.8-2.8-2.7c-0.9-0.9-1.9-1.8-2.7-2.8s-1.6-2.1-2.4-3.1c-0.8-1-1-2.4-1.8-3.5c-0.8-1-1.6-2-2.3-3.1s-1.5-2.1-2.2-3.2
	c-0.7-1.1-1.7-2-2.4-3.1s-0.8-2.5-1.5-3.6c-0.6-1.1-1.8-2-2.4-3.1c-0.6-1.1-0.5-2.6-1.1-3.8c-0.6-1.1-1.1-2.3-1.7-3.5
	c-0.6-1.2-1.7-2.1-2.2-3.2c-0.6-1.2-1.3-2.3-1.8-3.4c-0.5-1.2-0.6-2.6-1.1-3.7c-0.5-1.2-1.8-2.1-2.3-3.2c-0.5-1.2-0.6-2.6-1.1-3.7
	c-0.5-1.2-0.8-2.5-1.3-3.6c-0.5-1.2-1.3-2.3-1.7-3.4c-0.5-1.2-1.2-2.3-1.7-3.5s0-2.7-0.5-3.9c-0.4-1.2-1.8-2.1-2.2-3.3
	s-0.3-2.6-0.7-3.8s-0.4-2.5-0.8-3.8c-0.4-1.2-1.4-2.3-1.7-3.5c-0.4-1.2-0.5-2.5-0.8-3.8c-0.4-1.2-0.9-2.4-1.2-3.6
	c-0.3-1.2-0.3-2.6-0.6-3.8s-1.5-2.3-1.8-3.5s0.1-2.6-0.2-3.9c-0.3-1.2-0.2-2.6-0.5-3.8s-1.1-2.4-1.4-3.6c-0.3-1.2-1-2.3-1.4-3.4
	c-0.3-1.2-1-2.3-1.3-3.4c-0.4-1.2,0.2-2.6-0.2-3.8s-1.3-2.2-1.7-3.3c-0.4-1.2,0.1-2.6-0.2-3.8s-1.3-2.2-1.6-3.4
	c-0.2-1.2-0.2-2.5-0.4-3.7c-0.1-1.2,0.1-2.4,0.1-3.7s-0.9-2.7-0.7-4s0.5-2.6,0.9-3.9c0.3-1.3,1.2-2.4,1.6-3.6
	c0.5-1.2,0.5-2.6,1.1-3.8c0.5-1.2,1.6-2.1,2.2-3.3c0.6-1.2,1.3-2.3,1.9-3.4c0.6-1.1,0.8-2.6,1.4-3.7c0.7-1.2,2.2-2,2.7-3.2
	c0.6-1.2,1.1-2.5,1.7-3.7c0.6-1.2,0.3-2.9,1-4.1c0.7-1.2,1.6-2.4,2.5-3.4s2.1-1.9,3.4-2.6c1.1-0.7,2.7-0.5,4.1-0.9
	c1.4-0.4,2.5-1.3,3.7-1.6c1.4-0.3,2.8-0.1,4-0.3c1.3-0.3,2.7-0.4,4-0.9c1.2-0.4,2.4-1,3.7-1.7c1.1-0.5,1.9-1.8,3.2-2.5
	c1.1-0.6,2.3-1.1,3.5-1.7c1.1-0.6,2.3-1.2,3.4-1.8c1.1-0.6,2.1-1.5,3.3-2.1s2.4-1.1,3.6-1.6c1.2-0.5,2.4-1.1,3.6-1.5
	c1.2-0.4,2.8,0.3,4.1,0c1.4-0.4,2.6-1.9,4.1-2.3c1.5-0.4,3.2-0.5,4.6-0.7c1.5-0.2,2.9,0.9,4.1,1.1c1.4,0.3,2.9-0.2,4.2,0.2
	s2.5,0.6,4.1,0.7c1.6,0.1,3,0.6,4.2,0.5c1.6-0.1,2.8-0.5,4.1-0.5s2.5,0.3,4,1c1,0.5,2.4,0.9,3.7,1.8c1.3,0.9,2.4,1.9,3.4,2.7
	c1.3,0.9,2.6,1.4,3.8,2c1.3,0.6,2.5,0.8,4.1,1c1.3,0.2,2.6,0.8,4.3,0.8c1.3,0,2.6-0.6,4-0.6c1.3,0,2.6,0.8,4,0.8
	c1.3,0,2.7-0.2,4-0.3s2.7,0,4-0.2s2.4-1.3,3.6-1.7c1.2-0.4,2.8-0.3,3.9-1c1.1-0.7,1.8-1.9,2.7-2.7c0.9-0.9,1.8-1.7,2.6-2.7
	s1.5-2,2.1-3.1s1.4-2.1,1.9-3.2c0.5-1.1-0.1-2.7,0.4-3.8c0.4-1.2,1.3-2.2,1.6-3.4c0.4-1.2,1.4-2.2,1.7-3.4c0.4-1.2-0.4-2.7,0-3.9
	s0.9-2.5,1.4-3.7s0.9-2.5,1.4-3.7s1.6-2.2,2.1-3.4s0.8-2.5,1.3-3.7s1-2.4,1.6-3.6c0.5-1.2,1.1-2.4,1.7-3.6c0.5-1.2,1.5-2.2,2-3.4
	s1.3-2.3,1.9-3.5c0.5-1.2,0.1-2.8,0.6-4c0.5-1.1,1.4-2.1,1.9-3.1c0.5-1.1,1-2.2,1.5-3.2c0.5-1.1,1.1-2.1,1.6-3.2
	c0.5-1,1.7-1.8,2.3-2.9c1.1-2.1,1.8-2.4,2.2-4.3c0.3-1.2-0.3-2.5-0.4-3.7c-0.1-1.2,0.2-2.5-0.1-3.7s-0.6-2.4-1-3.6
	c-0.4-1.2-0.7-2.4-1.1-3.6c-0.4-1.2-0.6-2.5-0.8-3.7c-0.3-1.3-0.9-2.5-0.9-3.7c0-1.6,1-3,1.7-4.4s1-2.9,1.1-4.5
	c0.1-1.5-0.2-2.8-0.6-4.1c-0.4-1.3-0.4-3.1-0.2-4.6c-1.4,0.3-3.1,1.2-4.4,1.1c-1.4-0.1-2.7-0.7-4-1.1c-1.3-0.5-2.7-0.7-3.9-1.3
	s-2.1-1.9-3.4-2.4c-1.2-0.4-2.6-0.9-4-1c-1.8-0.1-3.1,0.9-4.4,1.4c-1.2,0.4-2.2,0.3-4.1-0.7c-1.2-0.7-2.4-1.3-3.2-2.5
	c-0.7-1.2-1.3-2.5-1.8-3.7c-0.5-1.4-0.2-2.8-0.4-4c-0.2-1.4-0.8-2.7-0.6-3.9c0.2-1.4,0.1-2.9,0.7-4.1c0.7-1.2,2.2-1.8,3.2-2.8
	c1-0.9,1.6-2.4,2.8-3.1c1.1-0.7,2.7-0.9,4-1.5c1.2-0.6,2.7-0.6,4-1.1s2.5-1.3,3.8-1.7s2.7-0.9,4-1.2c1.4-0.4,2.6-1.2,3.9-1.6
	c1.4-0.4,2.8-0.6,4-0.9c1.3-0.4,2.9,0.1,4.2-0.3c1.3-0.4,2.3-1.7,3.6-2.1c1.3-0.4,2.8-0.1,4.1-0.5s2.5-0.9,3.8-1.3
	c1.3-0.3,2.7-0.3,4-0.6s2.6-0.8,3.9-1.1c1.3-0.3,2.7-0.3,4-0.6s2.6-0.9,3.9-1.2c1.3-0.3,2.5-1.4,3.8-1.7s2.7-0.5,4-0.7
	c1.3-0.3,2.7-0.5,4-0.8c1.3-0.2,2.8,0,4.1-0.2s2.6-0.6,4-0.8c1.3-0.2,2.7-0.4,4-0.6c1.3-0.2,2.7-0.6,4-0.8s2.8,0.6,4.1,0.4
	c1.3-0.1,2.6-1.2,3.9-1.3c1.3-0.1,2.8,0.7,4.1,0.6c1.3-0.1,2.7-0.7,4-0.8c1.4-0.1,2.7-0.3,4.1-0.3c1.4,0,2.7,0.3,4.1,0.2
	c1.4,0,2.7,0.3,4.1,0.3c1.4,0,2.7-0.5,4.1-0.5c1.4,0,2.7-0.2,4.1-0.1c1.4,0.1,2.7,0.6,4,0.7c1.3,0.1,2.7-0.1,4.1,0.1
	c1.3,0.1,2.7,0.2,4,0.3s2.7,0,4,0.2s2.5,1,3.8,1.2s2.7,0.2,4,0.4s2.8-0.2,4.1,0.1s2.4,1.4,3.7,1.7s2.8-0.1,4.1,0.2s2.3,1.5,3.6,1.9
	s2.5,1,3.7,1.4c1.3,0.4,2.6,0.6,3.8,1.1s2.8,0.2,4,0.7s2.1,1.7,3.3,2.3s2.3,1.3,3.4,1.9c1.2,0.6,2.9,0.4,4,1.1
	c1.1,0.7,1.7,2.2,2.8,2.9s2.7,0.8,3.8,1.6s1.7,2.1,2.7,2.9c1,0.8,1.7,2,2.7,2.9s2.2,1.5,3.2,2.4s2.1,1.6,3.1,2.5s1.6,2.1,2.6,3
	s2.6,1.1,3.5,2c1,0.9,1.2,2.5,2.2,3.4s1.8,2,2.8,2.8c1,0.9,2.4,1.3,3.4,2.1c1,0.9,1.8,1.9,2.8,2.8c1,0.8,2.2,1.5,3.2,2.3
	s2.3,1.4,3.3,2.2s1.7,2.1,2.7,2.9c1,0.8,2.5,1.1,3.6,1.9c1,0.8,1.7,2.1,2.7,2.9c1.1,0.8,1.9,1.9,3,2.6c1.1,0.8,2.8,0.7,3.8,1.5
	c1.1,0.8,1.5,2.4,2.5,3.2c1.1,0.8,2.5,1.1,3.6,1.8c1.1,0.8,1.9,1.9,3,2.7c1.1,0.7,2.6,0.9,3.7,1.6c1.1,0.7,2,1.8,3.1,2.5
	s2.3,1.3,3.5,2c1.1,0.7,2.4,1.2,3.5,1.9s2.1,1.6,3.2,2.3c1.1,0.7,2.2,1.5,3.3,2.2s2.1,1.7,3.2,2.3c1.2,0.7,2.9,0.3,4.1,0.9
	c1.2,0.6,2.1,1.7,3.2,2.3c1.2,0.6,2.1,1.6,3.3,2.3c1.2,0.6,2.3,1.3,3.5,1.9c1.2,0.6,2.8,0.4,4,0.9c1.2,0.6,2,1.9,3.2,2.5
	s2.7,0.6,3.9,1.2c1.2,0.6,2,1.9,3.3,2.5c1.2,0.5,2.5,1,3.7,1.5c1.3,0.5,2.5,1.1,3.7,1.6c1.3,0.5,2.7,0.5,4,1s2.4,1.2,3.7,1.7
	c1.3,0.5,2.5,1.1,3.7,1.6c1.3,0.5,2.8,0.3,4.1,0.8c1.3,0.5,2.5,1.1,3.7,1.6c1.3,0.5,2.4,1.2,3.7,1.7c1.3,0.5,2.6,0.9,3.8,1.4
	c1.3,0.5,2.7,0.6,3.9,1.1c1.3,0.5,2.3,1.5,3.5,2c1.3,0.5,2.6,0.8,3.9,1.3s2.6,0.8,3.9,1.3c1.2,0.5,2.5,1,3.7,1.6
	c1.2,0.5,2.2,1.6,3.5,2.1c1.2,0.5,2.5,1,3.7,1.5s2.4,1.2,3.7,1.7c1.2,0.6,2.6,0.9,3.8,1.5c1.2,0.6,2.7,0.7,3.9,1.3
	c1.2,0.6,2.4,1.2,3.6,1.8s1.9,2.1,3.1,2.7c1.2,0.6,2.5,1.1,3.7,1.7c1.2,0.6,2.5,1.1,3.6,1.8c1.2,0.7,2.2,1.5,3.4,2.2
	c1.2,0.7,2.2,1.6,3.3,2.3c1.2,0.7,2.7,0.8,3.9,1.5c1.1,0.7,2.4,1.1,3.5,1.8s2,1.8,3.1,2.5s2.1,1.5,3.2,2.3c1.1,0.7,2,1.7,3.1,2.4
	s2,1.7,3.1,2.4s2.6,0.9,3.6,1.7c1.1,0.8,2.2,1.5,3.2,2.2c1.1,0.8,2.1,1.5,3.2,2.3s2.2,1.4,3.3,2.2c1,0.8,1.5,2.3,2.5,3.1
	s2.4,1.2,3.4,2s2.5,1.1,3.5,1.9c1,0.8,1.2,2.6,2.2,3.4c1,0.8,2.3,1.4,3.3,2.2s2.1,1.5,3.1,2.4c1,0.8,1.6,2.1,2.5,3
	c1,0.9,2.1,1.6,3.1,2.4c1,0.9,2.3,1.4,3.3,2.2c1,0.9,1.4,2.3,2.3,3.2s2,1.7,2.9,2.6c0.9,0.9,2.5,1.2,3.4,2.2
	c0.9,0.9,1.3,2.3,2.2,3.2c0.9,0.9,1.5,2.1,2.4,3.1c0.9,0.9,1.9,1.8,2.8,2.7c0.9,1,2.2,1.5,3.1,2.5s1.2,2.3,2.1,3.3
	c0.8,1,1.9,1.7,2.8,2.7c0.8,1,1.6,2,2.4,3s1.4,2.1,2.2,3.1c0.7,1,2,1.7,2.8,2.8c0.7,1.1,1.2,2.2,1.9,3.3c0.7,1.1,1.2,2.2,1.9,3.3
	c0.6,1.1,1.4,2.1,2,3.3c0.6,1.1,0.8,2.4,1.3,3.6c0.6,1.1,1,2.3,1.5,3.5s1.7,2.1,2.2,3.2c0.5,1.2,0,2.7,0.4,3.9s2,2,2.4,3.2
	c0.3,1,0.2,2.5,0.7,3.9c0.4,1.2,0.5,2.5,0.8,3.9c0.3,1.2,1.2,2.4,1.5,3.7s0,2.7,0.1,4c0.2,1.4,0.2,2.7,0.1,3.9
	c-0.1,1.5-0.7,2.5-1.3,3.5c-0.7,1.3-1.2,2.3-2.3,2.8c-1.1,0.5-2.4,0.5-3.8,0.5c-1.3,0-2.6,0.3-3.9,0.1s-2.5-1.1-3.8-1.2
	c-1.4-0.1-2.8,0.1-4,0.4c-1.3,0.2-2.5,0.6-3.7,1.1c-1.2,0.4-2.3,1.1-3.4,1.7c-1.1,0.6-2.2,1.3-3.3,1.9c-1.1,0.6-2.5,0.8-3.6,1.5
	s-2,1.5-3.1,2.2s-2.1,1.5-3.2,2.1s-2.3,1.1-3.4,1.7c-1.2,0.6-2.3,1.1-3.5,1.5c-1.5,0.5-2.7,1.4-3.9,1.4c-1.4,0-2.6-1.3-3.8-1.7
	c-1.2-0.4-2.9,0.1-4.2-0.4c-1.2-0.5-2.4-1-3.8-1.4c-1.2-0.4-2.3-1-3.5-1.2s-2.4-0.5-3.7-0.6c-1.2-0.1-2.4-0.5-3.6-0.7
	s-2.5,0-3.6-0.5c-1.1-0.4-1.8-1.4-2.9-2.1c-1.1-0.7-2.7-0.9-3.9-1.6c-1.2-0.7-2.2-1.6-3.4-2.3c-1.2-0.7-2.6-1-3.7-1.7
	c-1.2-0.7-2.1-1.7-3.3-2.4c-1.2-0.7-2.2-1.5-3.4-2.3c-1-0.7-2.5-0.6-3.4-1.4c-0.8-0.8-1.5-1.8-2.3-2.7c-0.8-0.8-1.9-1.4-2.8-2.1
	c-0.9-0.8-1.2-2.1-2.2-2.8c-1.3-0.8-2.5-1.8-3.7-2.1c-1.3-0.4-2.8-0.3-4.2-0.5c-1.3-0.2-2.6-0.2-4.1-0.6c-1.3-0.3-2.7-0.3-3.8-0.8
	c-1.2-0.5-2-1.6-3-2.3c-1-0.8-2.3-1.2-3.2-2.2c-0.8-0.9-1-2.3-1.7-3.4c-0.7-1-1.3-2.1-1.9-3.2c-0.6-1.1-1.2-2.1-1.7-3.3
	s-1.2-2.3-1.8-3.4c-0.6-1.1-1.2-2.3-1.9-3.3c-0.7-1.1-1.8-1.9-2.5-3s-1.4-2.1-2.1-3.2c-0.7-1.1-1.3-2.2-2-3.3
	c-0.7-1.2-0.5-2.9-1.1-4.1c-0.6-1.3-1.4-2.4-2-3.7c-0.6-1.2-1.9-2.1-2.7-3.3c-0.7-1.1-1.4-2.3-2.4-3.4c-0.9-1.1-1.2-2.8-2.1-3.9
	c-1.1-1.3-2.7-2-4-2.1c-1-0.1-2,0.7-3.3,1.3c-1.1,0.5-2.6,1.1-3.7,1c-1.3-0.2-2-1.6-2.9-2.4c-1-0.8-2.2-1.6-3.3-1.8
	c-3.3-0.6-1.1-0.1-4.1,0.8c-1.2,0.4-2.3,1.2-3.5,1.7s-2.2,1.2-3.4,1.7c-1.2,0.5-2.3,1.1-3.6,1.4c-1.2,0.3-2.2,0.3-3.6,0.2
	c0.6,1.6-0.2,2.9-0.5,4.3c-0.3,1.5-0.4,3-0.1,4.5c0.2,1.1,0.5,2.3,1.1,3.5c0.5,1.1,0.6,2.4,1.3,3.5c0.6,1.1,2.1,1.7,2.7,2.8
	c0.7,1.1,1.1,2.4,1.6,3.4c0.5,1.1,1,2.4,1.6,3.6c0.6,1.1,1.3,2.3,1.9,3.4c0.6,1.2,1.5,2.2,2.1,3.4c0.5,1.2,0.1,2.8,0.4,4
	c0.3,1.3,0.9,2.5,0.8,3.7c0,1.3-0.5,2.4-1,3.7c-0.6,1.3-1.2,2.4-1.9,3.4c-0.8,1.1-1.6,2.2-2.6,3c-1,0.9-2.4,1.2-3.6,1.8
	s-2.2,1.7-3.5,2.1c-1.3,0.4-2.7,0.7-4,0.9s-2.7,0.4-4.1,0.4c-1.3,0-2.7-0.3-4.1-0.4c-1.3-0.1-2.6-1.2-3.9-1.4s-2.7-0.1-4.1-0.4
	c-1.3-0.3-2.8-0.1-4.1-0.5c-1.3-0.4-2.4-1.4-3.7-1.9c-1.3-0.4-2.7-0.7-3.9-1.1c-1.3-0.5-2.8-0.6-4-1.1c-1.3-0.6-2.2-1.8-3.4-2.4
	c-1.3-0.6-2.6-1-3.7-1.7c-1.1-0.7-1.9-1.8-3-2.5s-2.5-0.9-3.6-1.6c-1.1-0.7-1.8-1.9-2.9-2.7c-1.1-0.7-2.4-1.1-3.5-1.8
	s-1.8-1.9-2.9-2.7c-1.1-0.8-2.8-0.7-3.8-1.5s-2-1.7-3-2.5s-2.1-1.5-3.2-2.3c-1-0.8-1.9-1.8-2.9-2.6s-1.7-2-2.7-2.8s-2.3-1.3-3.3-2.1
	s-1.4-2.3-2.4-3.2c-1-0.8-2-1.7-3-2.5s-2.2-1.5-3.2-2.3s-2.5-1.1-3.5-1.9c-1-0.8-1.5-2.2-2.5-3s-2.3-1.3-3.3-2.2
	c-1-0.8-2.2-1.5-3.2-2.3s-1.5-2.2-2.5-3s-1.8-1.9-2.9-2.7c-1-0.8-2.1-1.6-3.1-2.4c-1-0.8-2-1.7-3.1-2.4c-1-0.8-2.2-1.4-3.3-2.2
	c-1-0.8-2.5-1-3.6-1.8s-1.9-1.8-3-2.6c-1.1-0.7-1.8-2-2.9-2.7c-1.1-0.7-2.7-0.7-3.8-1.4s-2.2-1.4-3.3-2.1c-1.1-0.7-1.8-2.1-2.9-2.7
	c-1.1-0.7-2.4-1.2-3.5-1.8c-1.2-0.6-2.7-0.5-3.9-1.1s-2.4-1.1-3.5-1.7c-1.2-0.6-1.9-2.1-3.1-2.6c-1.2-0.5-2.9,0.1-4.1-0.4
	c-1.2-0.5-2.4-1-3.7-1.4c-1.2-0.4-2.2-1.5-3.5-1.9s-2.6-0.5-3.9-0.8c-1.3-0.3-2.6-0.8-3.9-1.1c-1.3-0.3-2.8,0.1-4.1-0.2
	s-2.5-1.6-3.8-1.8s-2.7-0.2-4.1-0.4c-1.3-0.2-2.7-0.5-4-0.7s-2.8,0.1-4.1-0.1c-1.3-0.2-2.7-0.4-4-0.7c-1.3-0.2-2.7-0.1-4.1-0.4
	c-1.3-0.2-2.6-1-3.9-1.3c-1.3-0.3-2.6-0.6-3.9-0.9c-1.3-0.3-2.5-0.9-3.8-1.2s-2.6-0.6-3.9-0.8c-1.3-0.2-2.6-0.4-3.9-0.6
	c-1.3-0.2-2.8,0.6-4.1,0.4c-1.3-0.1-2.6-0.7-3.9-0.8c-1.3-0.1-2.6,0.2-4,0.2c-1.3,0-2.7-1-4-0.9s-2.5,1.1-3.9,1.3
	c-1.3,0.2-2.8-0.2-4.1,0.1s-2.4,1.6-3.7,2s-2.7,0.6-3.9,1.1c-1.3,0.5-2.8,0.3-4.1,0.9c-1.3,0.5-2.3,1.5-3.6,2
	c-1.2,0.6-2.8,0.6-4,1.2c-1.2,0.6-2.4,1.2-3.6,1.9c-1.2,0.6-2.3,1.4-3.5,2.1c-1.2,0.7-1.8,2.2-3,2.9s-2.9,0.6-4,1.3s-1.8,2.2-2.9,3
	s-2.1,1.7-3.2,2.5c-1.1,0.8-2.2,1.6-3.2,2.4c-1.1,0.8-2.3,1.4-3.4,2.2c-1.1,0.8-2.4,1.3-3.5,2.1s-1.9,2-2.9,2.8
	c-1.1,0.9-2,1.8-3,2.7s-2.3,1.5-3.3,2.4s-1.8,2-2.8,2.9s-2.1,1.7-3.1,2.7c-1,0.9-1.9,2-2.9,3c-1,0.9-2.1,1.8-3.1,2.8
	c-1,0.9-2.3,1.6-3.4,2.5c-1,0.9-1.9,2-3,2.9s-2,1.9-3.1,2.8c-1.1,0.9-2.7,1.1-3.8,1.9c-1.2,0.8-2.3,1.5-3.5,2.2s-2.2,1.8-3.5,2.4
	c-1.4,0.6-2.7,0.8-4,1.1c-1.2,0.3-2.5,0.9-4,1.3c-1.4-0.2-3-1.5-4.4-1.7c-0.4,0.9-0.8,2.2-1.2,3c-1.2,0.5-2,1.6-3.2,2
	s-2.5,0.6-3.7,0.9c-1.2,0.3-2.4,0.9-3.6,1.1c-1.2,0.2-2.5-0.2-3.8-0.1c-1.2,0.1-2.4-0.1-3.8,0c-1.7,0.1-3.1,0-4.2,0
	c-1.8,0-2.6,0.8-3.7,1.6c-0.9,0.6-2.3,0.9-3.2,2.6c-0.5,0.9-0.5,2.3-0.9,3.6c-0.3,1.1-1.1,2.3-1.3,3.5s0.4,2.6,0.3,3.7
	c-0.1,1.3-1.1,2.6-1.1,3.6c0,1.3,1.2,2.5,1.4,3.7c0.2,1.3,0.3,2.5,0.7,3.7c0.5,1.2,0.9,2.4,1.5,3.5c0.7,1.1,0.9,2.5,1.7,3.5
	s1.8,1.9,2.7,2.9c0.9,0.9,2.1,1.6,3,2.5c1,0.9,2.1,1.5,3.1,2.3s2.3,1.3,3.3,2.2s2,1.8,3,2.8c1,0.9,1.4,2.4,2.4,3.4
	c1,0.9,2.2,1.6,3.1,2.6c0.9,1,2.2,1.7,3.1,2.7c0.9,1,1.4,2.3,2.3,3.4c0.8,1,1.6,2.1,2.4,3.2c0.8,1.1,1.9,2,2.7,3.1s0.8,2.7,1.4,3.8
	c0.7,1.1,1.5,2.2,2.2,3.4c0.6,1.2,1.1,2.4,1.6,3.6c0.6,1.2,1.2,2.4,1.7,3.6c0.5,1.2,1,2.5,1.4,3.7c0.4,1.3,0.4,2.6,0.7,3.9
	c0.3,1.3,1.3,2.5,1.5,3.8s0.4,2.7,0.5,4s0.1,2.7,0.1,4c-0.1,1.3-1,2.6-1.1,3.9c-0.2,1.3,0,2.6-0.3,3.9c-0.3,1.3-1.2,2.3-1.7,3.6
	c-0.5,1.2-0.8,2.5-1.4,3.6c-0.6,1.2-1.5,2.1-2.2,3.3c-0.7,1.1-0.6,2.7-1.4,3.8c-0.8,1-2.2,1.6-3.1,2.6c-0.9,1-2.1,1.6-3,2.5
	c-1,0.9-1.6,2.1-2.7,2.9c-1,0.8-2.2,1.4-3.3,2.1c-1.1,0.7-2,1.8-3.2,2.4c-1.2,0.6-2.4,1.2-3.6,1.7c-1.2,0.5-2.6,0.8-3.9,1.2
	c-1.3,0.4-2.4,1.2-3.8,1.5c-1.3,0.3-2.6,0.8-4,0.9C695.5,908.1,694.1,907.8,692.7,907.8z"/>
<path class="st2" d="M683.9,770.8c1.3-8.5,21.4-3.1,29.5-6.8c-0.7-5.2-1.5-7.4-3.7-11.8c-2.2-4.5-2.5-8.7,1.9-12.1
	c4,7.7,4.8,24.4,17.1,18c11.6-6,21.2-17.4,31.3-25.6c17.8-14.5,38.7-30.5,61.2-36.9c20.9-5.9,43.5,4.8,64.4,6.6
	c36.4,3.2,68.8,33.2,95.7,55c12.8,10.4,25.5,21.6,39.6,30.2c11.3,6.9,32.4,14.3,43.9,4.3c5.4-4.6,1.6-5.9-1-11.1
	c-1.8-3.7-2.9-7.7-4.8-11.3c-2-3.7-3.6-8.2-5.7-11.7c-3.1-5.2-2.6-1.6-8.2-3.9c2.3-3,5.2-6.3,9.3-4.2c-0.7-2.2-4.9-7.4-3.6-9.7
	c2-3.8,7,1,9.9,1c1.6,0,8.6-1.7,9.3-2.5c3-3.2-1.4-8.1,4.1-9.5c-0.3-0.4-0.5-0.9-0.8-1.3c3-0.7,5.3,0.3,4.8,2.7
	c0-0.1-4.1,0.4-4.8,0.5c1.7,2.6,5.2,3.8,8,5.1c1.2,0.5,3.1,3,4.1,3.1c2.3,0.2,5.3-3.2,7.5-3.4c5.1-0.5,2.8,0,5.5,4.5
	c2.1,3.4,5.2,6.3,7.8,9.5c3,3.7,1.6,5.8,3.3,9.1c0.8,1.6,2.8,1,3.5,2.5c0.4,0.8,0.1,3.5,0.3,3.8c1.6,2.2,3.9,3.1,5.2,5.5
	c1.9,3.3,2.3,7.4,4.6,11.1c1.6,2.5,2.9,6.4,6.5,8c3.3,1.5,7.5,0.6,11,1.8c8.6,3,10.8,9.4,17.8,13.7c3.6,2.2,7.9,3.1,11.4,5.4
	c3.4,2.2,4.6,5.3,9.3,6.2c3.4,0.6,6.4-0.5,10,0.5c3.7,1,6.8,4.3,10.6,4.2c3.8-0.1,7.5-4.7,11-6.1c2.1-0.8,3.6-0.3,5.7-1.4
	c1.3-0.7,2-2.8,3.6-3.6c7.6-3.8,15.8-6.2,24.1-2.8c-2.4-36.9-27.1-61.9-53.6-85.5c-35.4-31.6-75-56-120.1-71.2
	c-42.7-14.4-81-40.9-114.8-70.1c-7.6-6.5-14.4-14.3-22.2-20.5c-15.1-12-37.9-16.7-56.6-18.3c-37.8-3.4-75.4,5.6-111.1,17.2
	c-3.5,1.2-9.5,2-12.6,4.2c-3.7,2.7-4.5,6.2-2.8,10.3c3.2,7.8,2.6,1.6,7,2c8.5,0.9,13.3,8.5,21.4,3.7c1.8-1.1,6-6.1,8.5-6
	c4.9,0.3,2,5.6,0.3,8.3c-1,1.6-3.3,2.6-3.9,4.3c-1,2.9,0.5,2.7,0.8,5.5c0.3,3.4,0.7,3.1,0.2,6c-0.4,2.5-3.1,4.8-2.6,7.8
	c0.4,2.8,3.1,4.9,3.5,8.3c0.2,2.1-0.9,4.1-0.9,6.3c0,2.7,1.8,5.8,1.7,8.3c-0.2,4.6-2.4,4.1-5.2,7.8c-2.7,3.6-3.5,8.8-5.5,13
	c-4.1,8.6-8,17.2-11.3,26.2c-3.7,10.3-5,21-12.7,29.6c-7,7.9-17.3,8.8-26.7,9c-0.9,0-3.1-0.5-5.3-0.3c-1.5,0.1-3.2,0.9-4.6,0.8
	c-4.9-0.2-6.7-3.5-11.3-5c1.9,2.2,0.7,4.8-2.5,4.8c0,0-5.9-4.4-7.3-4.8c1-1.5,1.8-3.2,2.6-4.5c1.6,1.6,3.3,2.9,5.4,3.4
	c-2.3-2.5-3.5-4.8-5.7-5.2c-3.4-0.5-5.2,3.3-12.5,0.1c-1.5-0.6-3.8-1.7-5.5-1.4c-1.5,0.3-0.6,2.7-1.6,3.1c-2.6,1.1-6,1.8-9.2,1.1
	c2.8-1,5.8-1,7.9-3.1c-2.6,0.7-6.9,1.1-9.4,2c-2.9,1-2.6,1.1-4.9,2.2c-3.9,2-7.5,3.5-11.8,6.2c0,0-8,5.9-12.2,6.3
	c-8.5,0.8-12.2-0.4-14.8,6.9c-4.9,13.8-17.8,23.9-11.2,42.6c7.2,20.2,7.4,42,25.9,80.9c34.2,72,61,55.8,70.7,51.1s28.8-22.7,13.4-52
	c-15.4-29.2-28.3-28.6-37.6-44.3C676.7,792.7,682.4,780.7,683.9,770.8z"/>
<g>
	<path class="st3" d="M1073.3,625.4l4.9,2l-0.2,0.5l-4.3-1.8l-1.6,3.8l3.7,1.5l-0.2,0.5l-3.7-1.5l-1.8,4.3l-0.6-0.2L1073.3,625.4z"
		/>
	<path class="st3" d="M1080.2,628.3l5.3,2.1l-0.2,0.5l-4.7-1.9l-1.6,3.8l3.9,1.6l-0.2,0.5l-3.9-1.6l-1.6,3.8l5,2l-0.2,0.5l-5.5-2.2
		L1080.2,628.3z"/>
	<path class="st3" d="M1088,631.4l2.8,1.1c0.9,0.4,1.3,0.6,1.6,1c0.6,0.7,0.9,1.7,0.5,2.7c-0.5,1.3-1.7,2-3,1.8l0,0
		c0,0,0.1,0.1,0.1,0.4l0.6,4.7l-0.7-0.3l-0.7-5l-2.8-1.1l-1.6,4.1l-0.6-0.2L1088,631.4z M1089.4,637.3c1.3,0.5,2.4,0,2.9-1.3
		c0.3-0.8,0.2-1.6-0.4-2.2c-0.2-0.2-0.5-0.4-1.3-0.7l-2.2-0.9l-1.6,4.1L1089.4,637.3z"/>
	<path class="st3" d="M1098.6,636.2l-3.6-1.4l0.2-0.5l7.9,3l-0.2,0.5l-3.6-1.4l-3.5,8.7l-0.6-0.2L1098.6,636.2z"/>
	<path class="st3" d="M1104.6,637.9l0.6,0.2l-3.6,9.3l-0.6-0.2L1104.6,637.9z"/>
	<path class="st3" d="M1108.1,639.2l0.6,0.2l-3.4,8.7l4.7,1.8l-0.2,0.5l-5.3-2L1108.1,639.2z"/>
	<path class="st3" d="M1115.1,641.8l5.3,2l-0.2,0.5l-4.7-1.8l-1.4,3.8l3.9,1.4l-0.2,0.5l-3.9-1.4l-1.5,3.9l5,1.9l-0.2,0.5l-5.6-2.1
		L1115.1,641.8z"/>
	<path class="st3" d="M1131.3,647.6c2.3,0.9,3,2.5,3,2.5l-0.5,0.3c0,0-0.7-1.5-2.7-2.2c-2.4-0.9-4.9,0.2-5.9,2.6
		c-0.9,2.4,0.1,5,2.6,5.9c2.1,0.8,3.8,0,3.8,0l0.2,0.5c0,0-1.9,0.9-4.2,0c-2.8-1.1-4-4-3-6.7
		C1125.7,647.8,1128.6,646.6,1131.3,647.6z"/>
	<path class="st3" d="M1137.6,650.4l2.8,1.3c0.9,0.4,1.3,0.7,1.6,1c0.6,0.7,0.8,1.7,0.3,2.8c-0.6,1.3-1.8,1.9-3,1.6l0,0
		c0,0,0,0.1,0.1,0.4l0.4,4.7l-0.7-0.3l-0.4-5l-2.7-1.2l-1.8,4l-0.6-0.3L1137.6,650.4z M1138.7,656.3c1.2,0.6,2.4,0.1,3-1.2
		c0.4-0.8,0.2-1.6-0.3-2.2c-0.2-0.2-0.5-0.4-1.2-0.8l-2.2-1l-1.9,4L1138.7,656.3z"/>
	<path class="st3" d="M1146.3,654.4l5.1,2.6l-0.3,0.5l-4.5-2.3l-1.9,3.6l3.7,1.9l-0.3,0.5l-3.7-1.9l-1.9,3.7l4.8,2.4l-0.3,0.5
		l-5.3-2.7L1146.3,654.4z"/>
	<path class="st3" d="M1149.7,665.6c0,0,0.4,1.5,1.9,2.3c1.1,0.6,2.4,0.4,3-0.6c1.4-2.5-3.7-4.3-2.2-7c0.6-1.2,2.3-1.7,4-0.8
		c1.5,0.8,1.9,2.1,1.9,2.1l-0.6,0.3c0,0-0.4-1.2-1.6-1.8c-1.4-0.7-2.7-0.3-3.1,0.6c-1.3,2.3,3.8,4.1,2.2,7c-0.7,1.3-2.3,1.7-3.9,0.8
		c-1.8-1-2.2-2.6-2.2-2.6L1149.7,665.6z"/>
	<path class="st3" d="M1165.1,664.3c2.1,1.2,2.6,2.9,2.6,2.9l-0.6,0.2c0,0-0.5-1.6-2.3-2.6c-2.2-1.3-4.9-0.6-6.2,1.7
		c-1.3,2.2-0.6,5,1.6,6.3c1.9,1.1,3.7,0.6,3.7,0.6l0.1,0.6c0,0-2,0.6-4.2-0.6c-2.6-1.5-3.4-4.6-1.9-7.1S1162.6,662.8,1165.1,664.3z"
		/>
	<path class="st3" d="M1170.7,667.7l4.9,2.9l-0.3,0.5l-4.3-2.6l-2.1,3.5l3.6,2.1l-0.3,0.5l-3.6-2.1l-2.2,3.6l4.6,2.7l-0.3,0.5
		l-5.1-3.1L1170.7,667.7z"/>
	<path class="st3" d="M1178.1,672.2l0.5,0.3l0.9,9.8c0,0.6,0.1,1.5,0.1,1.5l0,0c0,0,0.3-0.7,0.6-1.1l4.2-6.6l0.5,0.3l-5.3,8.4
		l-0.5-0.3l-0.9-9.8c0-0.6-0.1-1.5-0.1-1.5l0,0c0,0-0.3,0.7-0.6,1.1l-4.2,6.6l-0.5-0.3L1178.1,672.2z"/>
	<path class="st3" d="M1189.4,679.9l-3.3-2.1l0.3-0.5l7.1,4.6l-0.3,0.5l-3.3-2.1l-5.1,7.9l-0.5-0.3L1189.4,679.9z"/>
</g>
<linearGradient id="SVGID_1_" gradientUnits="userSpaceOnUse" x1="1070.9191" y1="343.5945" x2="932.3193" y2="466.6664" gradientTransform="matrix(1 0 0 -1 0 1080)">
	<stop  offset="8.874692e-02" style="stop-color:#3E7B88;stop-opacity:0.6"/>
	<stop  offset="0.8532" style="stop-color:#3E7B88"/>
</linearGradient>
<path class="st4" d="M1068.1,732l-0.7-0.4c-4.7-2.8-10.5-6.3-12.8-11.9c-1-2.4-1.4-2.7-1.5-2.7h-0.1c-0.4,0.1-1.2,0.3-2.2-0.6
	c-2.5-2.5-6.1-5-8.6-2.8c-3.7,3.2-9.4,4.8-14.4,0c-1.1-1.1-1.8-1.7-2.2-2.1c-1.1,0.1-14.6,1.7-20.7,2.3c-6.9,0.6-8.3-2.2-10.7-8
	c-2.1-5.2-7.2-6.3-7.4-6.4h-0.2l-0.2-0.1c-0.1-0.1-3.6-3-6-7.8c-0.8-1.5-1.9-2.8-3.2-4.4c-2.5-2.9-6-6.9-9.4-15.3
	c-3.4-8.4-10.2-9.9-15.2-10.9c-2.4-0.5-4.3-0.9-5.3-2c-2.6-2.6-4.5-2.6-7.8-2.7h-0.3c-3.7-0.1-8.7-5.9-9.3-6.5l-0.2-0.3
	c0,0-1.8-5.7-3.4-10.9c-1.4-4.4-8.4-3.4-8.5-3.4c-0.4,0-0.6,0-4.9-3c-2.3-1.6-2.8-1.6-4.5-1.7c-1.1,0-2.7,0-5.4-0.5
	c-7-1.2-10.8-3.5-11-3.6l0-0.3v-7c-1-0.5-3.2-1.6-7.4-2.5c-1.6-0.3-2.7-0.7-2.8-1.6c-0.2-0.9,0.6-1.5,1.6-2.1c1.3-0.9,2-1.4,1.7-2
	c-0.6-1.4-1.6-1.5-4.4-1.6c-1.2,0-2.5,0-4.1-0.2c-4.8-0.5-5.6-5.7-5.4-8.4v-0.3l1.4-1.7c-1-0.5-4-1-6.1-1.4c-1.8-0.3-3.6-0.6-5-1
	c-3.9-1-4.5-2-5.1-3.6c-0.1-0.3-0.2-0.6-0.4-0.9c-0.2-0.5-1.3-0.8-2.5-1.1c-1.6-0.4-3.9-1-6.1-2.6c-4.4-3.1-5-6.9-5-10.5
	c0-2.3,0.7-3.6,1.8-5.2c0.6-1,1.4-2.3,2.3-4.3c1.1-2.5-0.1-3.7-2.5-5.8c-1.4-1.2-2.9-2.5-3.8-4.4c-1.1-2.1-1.3-3.6-0.7-4.8
	c0.7-1.5,2.6-1.9,4.2-2.2c1.4-0.3,2.4,0.1,3.2,0.5c1,0.4,1.7,0.7,3.4-0.4c2.1-1.4,2.1-1.4,2.6-1.1l0.2,0.1c0.2,0,0.5-0.1,0.9-0.2
	c1.8-0.6,2-0.7,2.5-0.4l0.4,0.3v0.4c0.1,0.1,0.4,0.2,1,0.3c1.6,0.3,1.8-0.3,2.5-3.3c0.2-1.1,0.5-2.3,1-3.6c1-2.9,1.8-3.6,2.5-4.2
	c0.4-0.4,0.7-0.7,1.1-1.6c0.9-2,2.3-3.1,3.2-3.7l-2.3-5.4c-1.4,0.1-5.1,0.4-8.8-0.1c-1.2-0.2-2.2-0.7-2.8-1.5
	c-1.3-1.8-0.8-4.6-0.2-7.6c0.2-1,0.4-1.9,0.5-2.8c0.2-2,0.8-3.2,1.1-3.9c0.1-0.2,0.2-0.4,0.2-0.5c-0.1-0.1-0.3-0.2-0.8-0.4
	c-3.3-1.3-5.2-8-5.2-10c0-1.4,1.5-2,3.1-2.6c1.5-0.6,3.2-1.2,3.9-2.5l1.5,0.9c-1.1,1.8-3.1,2.6-4.8,3.2c-0.7,0.3-1.8,0.7-2,1
	c0,1.6,1.7,7.5,4.1,8.4c1,0.4,1.6,0.7,1.9,1.4c0.3,0.6,0,1.2-0.3,1.9s-0.8,1.7-1,3.4c-0.1,0.9-0.3,1.9-0.5,2.9
	c-0.5,2.5-1,5.1-0.1,6.2c0.3,0.4,0.8,0.7,1.6,0.8c4.4,0.6,8.9,0,9,0l0.6-0.1l3.5,8l-0.8,0.4c0,0-2,1-3,3.3c-0.6,1.3-1.1,1.7-1.6,2.2
	c-0.6,0.5-1.1,1-2,3.5c-0.4,1.2-0.7,2.4-0.9,3.4c-0.6,2.7-1.2,5.2-4.5,4.6c-0.8-0.1-1.7-0.4-2.1-0.9c-0.2,0.1-0.5,0.2-0.9,0.3
	c-1.1,0.4-1.7,0.5-2.2,0.3c-0.3,0.2-0.6,0.4-1.1,0.7c-2.4,1.6-3.9,1-5,0.5c-0.7-0.3-1.3-0.6-2.2-0.4c-1.5,0.3-2.7,0.6-3,1.3
	c-0.3,0.6,0,1.7,0.7,3.3c0.8,1.6,2.1,2.7,3.4,3.9c2.3,2,4.6,4,2.9,7.8c-0.9,2.1-1.8,3.4-2.4,4.5c-1,1.6-1.5,2.5-1.5,4.3
	c0,3.6,0.7,6.6,4.2,9.1c2,1.4,4,1.9,5.6,2.4c1.7,0.4,3,0.8,3.6,2c0.2,0.4,0.3,0.7,0.4,1c0.4,1.1,0.6,1.7,3.9,2.5
	c1.4,0.3,3.2,0.6,4.9,0.9c5.1,0.8,7.2,1.3,7.7,2.5c0.1,0.3,0.2,0.8-0.3,1.4l-1.3,1.5c0,1.2,0,5.9,3.9,6.3c1.5,0.2,2.8,0.2,3.9,0.2
	c2.8,0,5,0.1,6,2.6c0.8,2-1.2,3.3-2.4,4.1c-0.1,0.1-0.3,0.2-0.5,0.3c0.2,0.1,0.5,0.1,1,0.2c5.9,1.2,8,3,8.1,3l0.2,0.3v6.8
	c2,0.6,5,2.2,10.3,3.1c2.6,0.4,4.1,0.4,5.2,0.5c2,0,2.9,0.1,5.5,2s3.6,2.5,3.9,2.7c1.2-0.1,8.4-0.7,10.1,4.7
	c1.5,4.7,3.1,9.8,3.4,10.8c1.5,1.7,5.5,5.7,7.9,5.8h0.3c3.3,0.1,5.9,0.2,9,3.2c0.7,0.7,2.5,1.1,4.5,1.5c5,1.1,12.7,2.8,16.4,12
	c3.3,8.1,6.5,11.8,9.1,14.8c1.4,1.6,2.6,3,3.5,4.7c1.9,3.8,4.7,6.5,5.4,7.1c1.2,0.3,6.2,1.9,8.4,7.4c2.3,5.8,3.2,7.5,8.9,6.9
	c5.2-0.5,16.2-1.8,19.6-2.2c0-0.1,0.1-0.3,0.3-0.4c0.7-0.7,1.1-0.3,4.4,2.9c5.2,5.1,10.5,1.3,12.1,0c1.9-1.7,5.4-2.5,10.9,2.9
	c0.3,0.3,0.3,0.3,0.6,0.2c1.5-0.4,2.3,0.5,3.6,3.7c2.1,5,7.4,8.2,12.1,11.1l0.7,0.4L1068.1,732z M851.6,550.8L851.6,550.8
	L851.6,550.8z M854,550.8L854,550.8L854,550.8z M857,550.3L857,550.3L857,550.3z"/>
<linearGradient id="SVGID_2_" gradientUnits="userSpaceOnUse" x1="1081.0447" y1="354.9976" x2="942.4449" y2="478.0695" gradientTransform="matrix(1 0 0 -1 0 1080)">
	<stop  offset="8.874692e-02" style="stop-color:#3E7B88;stop-opacity:0.6"/>
	<stop  offset="0.8532" style="stop-color:#3E7B88"/>
</linearGradient>
<path class="st5" d="M1045.3,712.7c-2.2-2.7-4.4-8.5-4.5-8.7c-0.2-1-0.4-1.4-0.5-1.6c-0.2,0.1-0.5,0.3-0.7,0.5c-1,0.8-2.6,2-5,1.6
	c-2.5-0.3-3.9-2.3-5.4-4.3c-1.7-2.3-3.4-4.6-6.8-5.5c-3.9-1-4.4-0.8-5.5-0.5c-0.8,0.2-2,0.5-4.7,0.5c-2.9,0-4.4-0.5-4.9-1.6
	c-0.8-1.5,0.4-3.3,2.3-6.1l0.2-0.2c2.5-3.7,1.7-5.7,0.2-9.8l-0.3-0.7c-1.3-3.5-8.6-6.2-12.9-7.8c-0.8-0.3-1.6-0.6-2.2-0.8
	c-1.4-0.6-3.8-1.1-6.3-1.6c-4.4-0.9-9.4-1.9-11.8-3.9c-2.4-1.9-2.5-2.7-1.9-4.4c0.2-0.6,0.6-1.4,0.6-2.8c0-1.5,0.3-2.8,0.5-4
	c0.5-2.4,0.9-4.4-0.5-7.6c-1.4-3-3.5-3.1-6.3-3.1c-1.3,0-2.7,0-4.1-0.4c-4.4-1.2-4.5-1.5-11.4-13.9l-0.2-0.4
	c-2.9-5.3-3.2-5.7-2.8-6.5c0.2-0.5,0.7-0.7,1-0.7c0.5-0.1,1.9-0.5,2-7.1c0-8.1-1.8-9.5-3.8-11c-1.5-1.1-3.1-2.3-3.9-5.9
	c-0.9-4-2.6-5-5.1-6.4c-2.1-1.2-4.8-2.7-7.3-6.6c-3.5-5.4-3.6-6.5-2.9-8.3c0.2-0.6,0.5-1.2,0.5-2.5c0-3.3-4.1-5-8.9-7.1
	c-1-0.4-2-0.9-3.1-1.3c-12.9-5.9-6.7-20.1-6.7-20.2l1.6,0.7c-0.2,0.5-5.5,12.8,5.8,18c1,0.5,2,0.9,3,1.3c5.1,2.2,9.9,4.3,9.9,8.7
	c0,1.6-0.3,2.5-0.6,3.1c-0.4,1.1-0.6,1.6,2.7,6.8c2.3,3.5,4.6,4.8,6.7,6c2.5,1.4,4.9,2.8,5.9,7.5c0.6,3,1.8,3.8,3.2,4.9
	c2.2,1.7,4.6,3.4,4.5,12.3c0,6.5-1.4,8.1-2.9,8.6c0.3,0.8,1.2,2.4,2.6,4.8l0.2,0.4c6.7,12.1,6.7,12.1,10.4,13.1
	c1.2,0.3,2.4,0.4,3.7,0.4c2.8,0,6,0.1,7.8,4.1c1.6,3.7,1.1,6.2,0.6,8.7c-0.3,1.2-0.5,2.4-0.5,3.7c0,1.7-0.4,2.7-0.7,3.4
	c-0.3,0.8-0.4,1,1.4,2.4c2.1,1.7,6.9,2.7,11.1,3.5c2.6,0.5,5.1,1,6.6,1.7c0.6,0.2,1.3,0.5,2.1,0.8c4.9,1.8,12.3,4.5,13.9,8.8
	l0.3,0.7c1.6,4.2,2.6,6.9-0.4,11.3l-0.2,0.2c-1.2,1.8-2.5,3.8-2.2,4.3c0.1,0.2,0.6,0.6,3.4,0.6c2.5,0,3.4-0.3,4.2-0.5
	c1.4-0.4,2.2-0.5,6.3,0.5c4,1,6.1,3.8,7.7,6.1c1.4,1.9,2.5,3.4,4.2,3.6c1.7,0.2,2.9-0.6,3.8-1.3c0.8-0.6,1.5-1.1,2.3-0.8
	s1.2,1.3,1.5,2.8l0,0c0,0,2.1,5.7,4.1,8.1L1045.3,712.7z"/>
<g>
	<path d="M723.3,695.1h1.2v0.5c0,1.9,1.2,2.6,2.3,2.6s2.3-0.6,2.3-2.6v-8H726v-1.1h4.3v9.1c0,2.7-1.8,3.8-3.6,3.8
		c-1.7,0-3.5-1-3.5-3.8L723.3,695.1L723.3,695.1z"/>
	<path d="M733.9,686.6h7.1v1.1h-5.9v4.6h4.8v1.1h-4.8v4.7h6.2v1.1h-7.4L733.9,686.6L733.9,686.6z"/>
	<path d="M744.2,686.6h3.7c1.3,0,1.9,0.1,2.4,0.3c1.2,0.5,1.9,1.7,1.9,3.2c0,1.7-1,3-2.4,3.4l0,0c0,0,0.1,0.2,0.3,0.5l2.7,5.1h-1.4
		l-2.9-5.3h-3.2v5.3h-1.2v-12.5H744.2z M748.4,692.8c1.5,0,2.5-1,2.5-2.6c0-1-0.4-1.8-1.1-2.2c-0.4-0.2-0.8-0.3-1.8-0.3h-2.5v5.1
		H748.4z"/>
	<path d="M755.5,686.6h1.2v12.6h-1.2V686.6z"/>
	<path d="M765.8,686.3c3,0,4.5,1.6,4.5,1.6l-0.7,0.9c0,0-1.5-1.4-3.8-1.4c-3,0-5.1,2.3-5.1,5.3s2.1,5.5,5.1,5.5
		c2.5,0,4.1-1.7,4.1-1.7l0.7,0.9c0,0-1.7,2-4.8,2c-3.7,0-6.4-2.9-6.4-6.6C759.5,689.1,762.2,686.3,765.8,686.3z"/>
	<path d="M773.4,686.6h1.2v5.7h7.3v-5.7h1.2v12.6H782v-5.8h-7.3v5.8h-1.2L773.4,686.6L773.4,686.6z"/>
	<path d="M792.4,686.3c3.6,0,6.4,2.8,6.4,6.4c0,3.7-2.9,6.6-6.4,6.6s-6.4-2.9-6.4-6.6C786,689.2,788.9,686.3,792.4,686.3z
		 M792.4,698.2c2.8,0,5.1-2.4,5.1-5.5c0-3-2.3-5.3-5.1-5.3c-2.9,0-5.1,2.3-5.1,5.3C787.3,695.9,789.6,698.2,792.4,698.2z"/>
</g>
<g>
	<path d="M973.8,646.5h1.2v0.5c0,1.9,1.2,2.6,2.3,2.6s2.3-0.6,2.3-2.6v-8h-3.1v-1h4.3v9.1c0,2.7-1.8,3.8-3.6,3.8
		c-1.7,0-3.5-1-3.5-3.8L973.8,646.5L973.8,646.5z"/>
	<path d="M990.5,646.6h-5.1l-1.4,4h-1.3l4.6-12.6h1.3l4.6,12.6H992L990.5,646.6z M988,639.3c0,0-0.3,1-0.5,1.6l-1.7,4.6h4.3
		l-1.7-4.6C988.3,640.3,988,639.3,988,639.3L988,639.3z"/>
	<path d="M995.4,638h3.7c1.3,0,1.9,0.1,2.4,0.3c1.2,0.5,1.9,1.7,1.9,3.2c0,1.7-1,3-2.4,3.4l0,0c0,0,0.1,0.2,0.3,0.5l2.7,5.1h-1.4
		l-2.9-5.3h-3.2v5.3h-1.2V638H995.4z M999.6,644.1c1.5,0,2.5-1,2.5-2.6c0-1-0.4-1.8-1.1-2.2c-0.4-0.2-0.8-0.3-1.8-0.3h-2.5v5.1
		H999.6z"/>
	<path d="M1007.3,638h1.3l3.3,7.4c0.3,0.6,0.6,1.5,0.6,1.5l0,0c0,0,0.3-0.9,0.6-1.5l3.3-7.4h1.3l1,12.6h-1.2l-0.7-8.8
		c-0.1-0.7,0-1.8,0-1.8l0,0c0,0-0.4,1.1-0.7,1.8l-3,6.5h-1.2l-3-6.5c-0.3-0.6-0.7-1.8-0.7-1.8l0,0c0,0,0,1.1,0,1.8l-0.7,8.8h-1.2
		L1007.3,638z"/>
	<path d="M1027.5,637.7c3.6,0,6.4,2.8,6.4,6.4c0,3.7-2.9,6.6-6.4,6.6c-3.6,0-6.4-2.9-6.4-6.6C1021.1,640.6,1024,637.7,1027.5,637.7z
		 M1027.5,649.6c2.8,0,5.1-2.4,5.1-5.5c0-3-2.3-5.3-5.1-5.3c-2.9,0-5.1,2.3-5.1,5.3C1022.4,647.3,1024.7,649.6,1027.5,649.6z"/>
</g>
<g>
	<path d="M757.1,563c2.7,0,4,1.5,4,1.5l-0.6,0.8c0,0-1.3-1.2-3.4-1.2c-2.6,0-4.5,2-4.5,4.7s1.9,4.9,4.5,4.9c2.3,0,3.6-1.5,3.6-1.5
		l0.6,0.8c0,0-1.5,1.7-4.3,1.7c-3.3,0-5.7-2.6-5.7-5.9C751.5,565.4,753.9,563,757.1,563z"/>
	<path d="M769.4,570.8h-4.5l-1.3,3.6h-1.2l4.1-11.2h1.2l4.1,11.2h-1.2L769.4,570.8z M767.1,564.3c0,0-0.2,0.9-0.4,1.5l-1.5,4.1h3.9
		l-1.5-4.1C767.4,565.2,767.1,564.3,767.1,564.3L767.1,564.3z"/>
	<path d="M775.5,564.1h-4v-1h9.2v1h-4v10.2h-1.1v-10.2H775.5z"/>
	<path d="M787.1,570.8h-4.5l-1.3,3.6h-1.2l4.1-11.2h1.2l4.1,11.2h-1.2L787.1,570.8z M784.9,564.3c0,0-0.2,0.9-0.4,1.5l-1.5,4.1h3.9
		l-1.5-4.1C785.1,565.2,784.9,564.3,784.9,564.3L784.9,564.3z"/>
	<path d="M791.4,563.1h1.1v10.2h5.2v1h-6.3V563.1z"/>
	<path d="M750.3,578.4h1.1v5.1h6.5v-5.1h1.1v11.2h-1.1v-5.1h-6.5v5.1h-1.1V578.4z"/>
	<path d="M767.8,586h-4.5l-1.3,3.6h-1.2l4.1-11.2h1.2l4.1,11.2H769L767.8,586z M765.5,579.6c0,0-0.2,0.9-0.4,1.5l-1.5,4.1h3.9
		L766,581C765.8,580.5,765.5,579.6,765.5,579.6L765.5,579.6z"/>
	<path d="M773.7,584.8l-3.8-6.4h1.3l2.4,4.1c0.3,0.6,0.7,1.3,0.7,1.3l0,0c0,0,0.3-0.8,0.7-1.3l2.4-4.1h1.2l-3.8,6.4v4.8h-1.1
		L773.7,584.8L773.7,584.8z"/>
	<path d="M780.3,578.4h1.1v7.3c0,1.9,1.2,3.1,3.2,3.1s3.2-1.2,3.2-3.1v-7.3h1.1v7.3c0,2.5-1.7,4.1-4.3,4.1s-4.3-1.6-4.3-4.1V578.4z"
		/>
	<path d="M792,578.4h1.1v4.9h1.9l3-4.9h1.3l-3.4,5.3l0,0l3.6,5.9h-1.3l-3.2-5.4h-1.9v5.4H792V578.4z"/>
</g>
<g>
	<path d="M823.8,617.3h1.2v0.5c0,1.9,1.2,2.6,2.3,2.6s2.3-0.6,2.3-2.6v-8h-3.1v-1.1h4.3v9.1c0,2.7-1.8,3.8-3.6,3.8
		c-1.7,0-3.5-1-3.5-3.8L823.8,617.3L823.8,617.3z"/>
	<path d="M834.4,608.7h7.1v1.1h-5.9v4.6h4.8v1.1h-4.8v4.7h6.2v1.1h-7.4L834.4,608.7L834.4,608.7z"/>
	<path d="M844.7,608.7h3.7c1.3,0,1.9,0.1,2.4,0.3c1.2,0.5,1.9,1.7,1.9,3.2c0,1.7-1,3-2.4,3.4l0,0c0,0,0.1,0.2,0.3,0.5l2.7,5.1h-1.4
		l-2.9-5.3h-3.2v5.3h-1.2v-12.5H844.7z M848.9,614.9c1.5,0,2.5-1,2.5-2.6c0-1-0.4-1.8-1.1-2.2c-0.4-0.2-0.8-0.3-1.8-0.3H846v5.1
		H848.9z"/>
	<path d="M856,608.7h6.6v1.1h-5.4v4.7h4.6v1.1h-4.6v5.7H856V608.7z"/>
	<path d="M870,608.7h7.1v1.1h-5.9v4.6h4.8v1.1h-4.8v4.7h6.2v1.1H870V608.7z"/>
	<path d="M880.3,608.7h1.2v11.5h5.9v1.1h-7.1L880.3,608.7L880.3,608.7z"/>
	<path d="M832.4,634.6h-5.1l-1.4,4h-1.3l4.6-12.6h1.3l4.6,12.6h-1.3L832.4,634.6z M829.9,627.3c0,0-0.3,1-0.5,1.6l-1.7,4.6h4.3
		l-1.7-4.6C830.2,628.3,829.9,627.3,829.9,627.3L829.9,627.3z"/>
	<path d="M837.3,626h1.2v5.7h7.3V626h1.2v12.6h-1.2v-5.8h-7.3v5.8h-1.2V626z"/>
	<path d="M851.3,626h1.3l3.3,7.4c0.3,0.6,0.6,1.5,0.6,1.5l0,0c0,0,0.3-0.9,0.6-1.5l3.3-7.4h1.3l1,12.6h-1.2l-0.7-8.8
		c-0.1-0.7,0-1.8,0-1.8l0,0c0,0-0.4,1.1-0.7,1.8l-3,6.5H856l-3-6.5c-0.3-0.6-0.7-1.8-0.7-1.8l0,0c0,0,0,1.1,0,1.8l-0.7,8.8h-1.2
		L851.3,626z"/>
	<path d="M872.3,634.6h-5.1l-1.4,4h-1.3l4.6-12.6h1.3l4.6,12.6h-1.3L872.3,634.6z M869.7,627.3c0,0-0.3,1-0.5,1.6l-1.7,4.6h4.3
		l-1.7-4.6C870,628.3,869.8,627.3,869.7,627.3L869.7,627.3z"/>
	<path d="M877.1,626h3.7c1.3,0,1.9,0.1,2.4,0.3c1.2,0.5,1.9,1.7,1.9,3.2c0,1.7-1,3-2.4,3.4l0,0c0,0,0.1,0.2,0.3,0.5l2.7,5.1h-1.4
		l-2.9-5.3h-3.2v5.3H877V626H877.1z M881.3,632.2c1.5,0,2.5-1,2.5-2.6c0-1-0.4-1.8-1.1-2.2c-0.4-0.2-0.8-0.3-1.8-0.3h-2.5v5.1H881.3
		z"/>
</g>
</svg>
