<?xml version="1.0" encoding="utf-8"?>
<!-- Generator: Adobe Illustrator 19.2.1, SVG Export Plug-In . SVG Version: 6.00 Build 0)  -->
<svg version="1.1" id="Layer_1" xmlns="http://www.w3.org/2000/svg" xmlns:xlink="http://www.w3.org/1999/xlink" x="0px" y="0px"
	 viewBox="0 0 46.5 48.5" style="enable-background:new 0 0 46.5 48.5;" xml:space="preserve">
<style type="text/css">
	.st0{opacity:0.7;fill:#FFFFFF;enable-background:new    ;}
	.st1{opacity:0.88;fill:none;stroke:#010101;stroke-width:5;stroke-linecap:round;stroke-miterlimit:10;enable-background:new    ;}
	.st2{enable-background:new    ;}
	.st3{fill:#FFFFFF;}
	.st4{opacity:0.8;enable-background:new    ;}
	.st5{opacity:0.88;fill:#FFFFFF;enable-background:new    ;}
	.st6{fill:#010101;}
	.st7{opacity:0.7;enable-background:new    ;}
</style>
<path class="st0" d="M-553.8,828.7c-13.5,0-24.5,11-24.5,24.5s11,24.5,24.5,24.5s24.5-11,24.5-24.5S-540.2,828.7-553.8,828.7z
	 M-538,854h-15.1v14.9c0,0.4-0.1,0.7-0.5,0.7s-0.5-0.3-0.5-0.7V854h-15.4c-0.4,0-0.7-0.1-0.7-0.5s0.3-0.5,0.7-0.5h15.4v-15.6
	c0-0.4,0.1-0.7,0.5-0.7s0.5,0.3,0.5,0.7V853h15.1c0.4,0,0.7,0.1,0.7,0.5S-537.6,854-538,854z"/>
<path class="st1" d="M3.6,412.2"/>
<text transform="matrix(1 0 0 1 -162.4829 423.0168)" class="st3" style="font-family:'MuseoSans-900'; font-size:13px;">NEOLITIC REVOLUTION</text>
<text transform="matrix(1 0 0 1 -138.4976 472.0337)" class="st3" style="font-family:'MuseoSans-900'; font-size:13px;">ORIGINS OF WHEAT</text>
<text transform="matrix(1 0 0 1 -177.3931 521.0503)" class="st3" style="font-family:'MuseoSans-900'; font-size:13px;">BRANDING AGRICULTURE</text>
<text transform="matrix(1 0 0 1 -183.5034 570.0669)" class="st3" style="font-family:'MuseoSans-900'; font-size:13px;">WHEAT’S DOMESTICATION</text>
<text transform="matrix(1 0 0 1 -140.0708 619.0835)" class="st3" style="font-family:'MuseoSans-900'; font-size:13px;">FROM SEED TO CITY</text>
<text transform="matrix(1 0 0 1 -134.4553 668.1006)" class="st3" style="font-family:'MuseoSans-900'; font-size:13px;">CULTURE &amp; WHEAT</text>
<text transform="matrix(1 0 0 1 -183.5939 717.1172)" class="st3" style="font-family:'MuseoSans-900'; font-size:13px;">SPREAD OF A REVOLUTION</text>
<text transform="matrix(1 0 0 1 -139.2131 766.1338)" class="st3" style="font-family:'MuseoSans-900'; font-size:13px;">WHEAT’S DIASPORA</text>
<text transform="matrix(1 0 0 1 -77.9319 -56.6758)" style="opacity:0.8;fill:#FFFFFF;enable-background:new    ; font-family:'Heuristica-Italic'; font-size:15px;">scroll down</text>
<text transform="matrix(1 0 0 1 -83.4318 30.2939)" style="opacity:0.8;fill:#FFFFFF;enable-background:new    ; font-family:'Heuristica-Italic'; font-size:15px;">instructions</text>
<rect x="-43.9" y="806.3" class="st5" width="85.7" height="85.7"/>
<text transform="matrix(1 0 0 1 -30.7607 853.1729)" class="st6" style="font-family:'MuseoSans-300'; font-size:12.2008px;">ESPAÑOL</text>
<path class="st0" d="M23.4-78C13.3-78,5-69.8,5-59.6s8.2,18.4,18.4,18.4s18.4-8.2,18.4-18.4S33.6-78,23.4-78z M36.3-59.2L24.1-47
	c-0.2,0.2-0.4,0.3-0.7,0.3c-0.3,0-0.5-0.1-0.7-0.3L10.6-59.2c-0.4-0.4-0.4-1,0-1.4s1-0.4,1.4,0l10.5,10.5v-21.3c0-0.5,0.4-1,1-1
	c0.5,0,1,0.4,1,1v21.3L35-60.6c0.4-0.4,1-0.4,1.4,0C36.7-60.2,36.7-59.5,36.3-59.2z"/>
<path class="st7" d="M23.4,6.1c-10.3,0-18.6,8.3-18.6,18.6s8.3,18.6,18.6,18.6S42.1,35,42.1,24.7S33.7,6.1,23.4,6.1z M21.1,38.6
	c-1.4,0-2.2-1-2.2-2.2c0-1.6,1-2.6,2.5-2.6c1.4,0,2.2,1,2.2,2.2C23.6,37.6,22.6,38.6,21.1,38.6z M27.1,21.9
	c-2.5,1.3-4.4,2.6-4.4,4.6c0,1.7,1.2,2.2,2.5,2.2c0.7,0,1.2-0.1,1.7-0.1l0.2,0.7c-0.8,0.6-2.5,1.2-3.8,1.2c-1.9,0-4-0.9-4-3.3
	c0-1.8,1.4-3.2,4-4.8c3.7-2.2,5.2-4.9,5.2-7.4c0-1.6-0.7-2.8-2.3-2.8c-1.9,0-3,1.9-3.9,4c-0.2,0.4-0.5,0.7-1.2,0.7
	c-0.6,0-1.7-0.6-1.7-1.7c0-1.6,2.2-4.4,6.6-4.4c3.7,0,6.1,2,6.1,4.9C32,19,30.1,20.4,27.1,21.9z"/>
<path class="st0" d="M27.7,404.7c-7.8,0-14.2,6.3-14.2,14.2S19.9,433,27.7,433s14.2-6.3,14.2-14.2S35.6,404.7,27.7,404.7z
	 M36.8,421.2l-6,6c-0.2,0.2-0.6,0.4-0.9,0.4s-0.6-0.1-0.9-0.4c-0.5-0.5-0.5-1.3,0-1.7l3.9-3.9H22.8c-0.7,0-1.2-0.5-1.2-1.2v-9.5
	c0-0.7,0.5-1.2,1.2-1.2s1.2,0.5,1.2,1.2v8.3h9l-3.9-3.9c-0.5-0.5-0.5-1.3,0-1.7c0.5-0.5,1.3-0.5,1.7,0l6,6c0.2,0.2,0.4,0.5,0.4,0.9
	C37.1,420.7,37,421,36.8,421.2z"/>
<path class="st0" d="M27.7,453.7c-7.8,0-14.2,6.3-14.2,14.2S19.9,482,27.7,482s14.2-6.3,14.2-14.2S35.6,453.7,27.7,453.7z
	 M36.8,470.2l-6,6c-0.2,0.2-0.6,0.4-0.9,0.4s-0.6-0.1-0.9-0.4c-0.5-0.5-0.5-1.3,0-1.7l3.9-3.9H22.8c-0.7,0-1.2-0.5-1.2-1.2v-9.5
	c0-0.7,0.5-1.2,1.2-1.2s1.2,0.5,1.2,1.2v8.3h9l-3.9-3.9c-0.5-0.5-0.5-1.3,0-1.7c0.5-0.5,1.3-0.5,1.7,0l6,6c0.2,0.2,0.4,0.5,0.4,0.9
	C37.1,469.7,37,470,36.8,470.2z"/>
<path class="st0" d="M27.7,502.7c-7.8,0-14.2,6.3-14.2,14.2c0,7.8,6.3,14.2,14.2,14.2s14.2-6.3,14.2-14.2
	C41.9,509.1,35.6,502.7,27.7,502.7z M36.8,519.2l-6,6c-0.2,0.2-0.6,0.4-0.9,0.4s-0.6-0.1-0.9-0.4c-0.5-0.5-0.5-1.3,0-1.7l3.9-3.9
	H22.8c-0.7,0-1.2-0.5-1.2-1.2v-9.5c0-0.7,0.5-1.2,1.2-1.2s1.2,0.5,1.2,1.2v8.3h9l-3.9-3.9c-0.5-0.5-0.5-1.3,0-1.7
	c0.5-0.5,1.3-0.5,1.7,0l6,6c0.2,0.2,0.4,0.5,0.4,0.9C37.1,518.7,37,519,36.8,519.2z"/>
<path class="st0" d="M27.7,551.7c-7.8,0-14.2,6.3-14.2,14.2s6.3,14.2,14.2,14.2s14.2-6.3,14.2-14.2S35.6,551.7,27.7,551.7z
	 M36.8,568.3l-6,6c-0.2,0.2-0.6,0.4-0.9,0.4s-0.6-0.1-0.9-0.4c-0.5-0.5-0.5-1.3,0-1.7l3.9-3.9H22.8c-0.7,0-1.2-0.5-1.2-1.2V558
	c0-0.7,0.5-1.2,1.2-1.2s1.2,0.5,1.2,1.2v8.3h9l-3.9-3.9c-0.5-0.5-0.5-1.3,0-1.7c0.5-0.5,1.3-0.5,1.7,0l6,6c0.2,0.2,0.4,0.5,0.4,0.9
	C37.1,567.7,37,568,36.8,568.3z"/>
<path class="st0" d="M27.7,600.8c-7.8,0-14.2,6.3-14.2,14.2s6.3,14.2,14.2,14.2s14.2-6.3,14.2-14.2S35.6,600.8,27.7,600.8z
	 M36.8,617.3l-6,6c-0.2,0.2-0.6,0.4-0.9,0.4s-0.6-0.1-0.9-0.4c-0.5-0.5-0.5-1.3,0-1.7l3.9-3.9H22.8c-0.7,0-1.2-0.5-1.2-1.2V607
	c0-0.7,0.5-1.2,1.2-1.2s1.2,0.5,1.2,1.2v8.3h9l-3.9-3.9c-0.5-0.5-0.5-1.3,0-1.7c0.5-0.5,1.3-0.5,1.7,0l6,6c0.2,0.2,0.4,0.5,0.4,0.9
	C37.1,616.8,37,617.1,36.8,617.3z"/>
<path class="st0" d="M27.7,649.8c-7.8,0-14.2,6.3-14.2,14.2s6.3,14.2,14.2,14.2s14.2-6.3,14.2-14.2S35.6,649.8,27.7,649.8z
	 M36.8,666.3l-6,6c-0.2,0.2-0.6,0.4-0.9,0.4s-0.6-0.1-0.9-0.4c-0.5-0.5-0.5-1.3,0-1.7l3.9-3.9H22.8c-0.7,0-1.2-0.5-1.2-1.2V656
	c0-0.7,0.5-1.2,1.2-1.2s1.2,0.5,1.2,1.2v8.3h9l-3.9-3.9c-0.5-0.5-0.5-1.3,0-1.7c0.5-0.5,1.3-0.5,1.7,0l6,6c0.2,0.2,0.4,0.5,0.4,0.9
	C37.1,665.8,37,666.1,36.8,666.3z"/>
<path class="st0" d="M27.7,698.8c-7.8,0-14.2,6.3-14.2,14.2s6.3,14.2,14.2,14.2s14.2-6.3,14.2-14.2S35.6,698.8,27.7,698.8z
	 M36.8,715.3l-6,6c-0.2,0.2-0.6,0.4-0.9,0.4s-0.6-0.1-0.9-0.4c-0.5-0.5-0.5-1.3,0-1.7l3.9-3.9H22.8c-0.7,0-1.2-0.5-1.2-1.2V705
	c0-0.7,0.5-1.2,1.2-1.2s1.2,0.5,1.2,1.2v8.3h9l-3.9-3.9c-0.5-0.5-0.5-1.3,0-1.7c0.5-0.5,1.3-0.5,1.7,0l6,6c0.2,0.2,0.4,0.5,0.4,0.9
	C37.1,714.8,37,715.1,36.8,715.3z"/>
<path class="st0" d="M27.7,747.8c-7.8,0-14.2,6.3-14.2,14.2s6.3,14.2,14.2,14.2s14.2-6.3,14.2-14.2S35.6,747.8,27.7,747.8z
	 M36.8,764.3l-6,6c-0.2,0.2-0.6,0.4-0.9,0.4s-0.6-0.1-0.9-0.4c-0.5-0.5-0.5-1.3,0-1.7l3.9-3.9H22.8c-0.7,0-1.2-0.5-1.2-1.2V754
	c0-0.7,0.5-1.2,1.2-1.2s1.2,0.5,1.2,1.2v8.3h9l-3.9-3.9c-0.5-0.5-0.5-1.3,0-1.7c0.5-0.5,1.3-0.5,1.7,0l6,6c0.2,0.2,0.4,0.5,0.4,0.9
	C37.1,763.8,37,764.1,36.8,764.3z"/>
</svg>
