<?xml version="1.0" encoding="utf-8"?>
<!-- Generator: Adobe Illustrator 19.2.1, SVG Export Plug-In . SVG Version: 6.00 Build 0)  -->
<svg version="1.1" id="Layer_1" xmlns="http://www.w3.org/2000/svg" xmlns:xlink="http://www.w3.org/1999/xlink" x="0px" y="0px"
	 viewBox="0 0 1920 1080" style="enable-background:new 0 0 1920 1080;" xml:space="preserve">
<style type="text/css">
	.st0{fill:#87898B;}
	.st1{opacity:0.5;}
	.st2{fill:#52A75B;}
	.st3{opacity:0.5;fill:#52A75B;}
	.st4{fill:none;stroke:#2C3321;stroke-miterlimit:10;}
	.st5{fill:none;stroke:#2C3321;stroke-miterlimit:10;stroke-dasharray:0.7288;}
	.st6{fill:none;stroke:#2C3321;stroke-miterlimit:10;stroke-dasharray:0.1199;}
	.st7{fill:none;stroke:#2C3321;stroke-miterlimit:10;stroke-dasharray:6.5243,6.5243;}
	.st8{fill:none;stroke:#2C3321;stroke-miterlimit:10;stroke-dasharray:6.0596,6.0596;}
	.st9{fill:none;stroke:#2C3321;stroke-miterlimit:10;stroke-dasharray:5.8657,5.8657;}
	.st10{fill:#2C9021;}
	.st11{fill:none;stroke:#2C1B21;stroke-miterlimit:10;stroke-dasharray:6,6;}
	.st12{fill:#1B5261;}
	.st13{opacity:0.82;}
	.st14{fill:url(#SVGID_1_);}
	.st15{fill:url(#SVGID_2_);}
</style>
<g>
	<path class="st0" d="M630.3,559.7h0.8l4.1,8.8c0.3,0.7,0.7,1.6,0.7,1.6h0c0,0,0.4-0.9,0.7-1.6l4.1-8.8h0.8l1.1,14h-0.9l-0.9-10.7
		c-0.1-0.7-0.1-1.9-0.1-1.9h0c0,0-0.4,1.2-0.7,1.9l-3.8,8h-0.9l-3.7-8c-0.3-0.7-0.7-1.9-0.7-1.9h0c0,0,0,1.2-0.1,1.9l-0.9,10.7h-0.9
		L630.3,559.7z"/>
	<path class="st0" d="M646,559.7h7.7v0.8h-6.8v5.7h5.6v0.8h-5.6v5.9h7.2v0.8h-8V559.7z"/>
	<path class="st0" d="M657,559.7h4.4c4.2,0,7,2.6,7,7c0,4.5-2.8,7-7,7H657V559.7z M661.2,572.9c3.7,0,6.2-2.2,6.2-6.2
		c0-4-2.5-6.2-6.2-6.2h-3.4v12.4H661.2z"/>
	<path class="st0" d="M671.3,559.7h0.9v14h-0.9V559.7z"/>
	<path class="st0" d="M679.2,560.5H674v-0.8h11.3v0.8H680v13.2h-0.9V560.5z"/>
	<path class="st0" d="M687.1,559.7h7.7v0.8h-6.8v5.7h5.6v0.8h-5.6v5.9h7.2v0.8h-8V559.7z"/>
	<path class="st0" d="M698,559.7h4.1c1.3,0,2,0.1,2.5,0.4c1.2,0.6,1.9,1.8,1.9,3.4c0,2-1.2,3.5-2.8,3.9v0c0,0,0.1,0.2,0.3,0.5
		l3.1,5.8h-1l-3.3-6.2h-4v6.2H698V559.7z M702.7,566.7c1.8,0,3-1.3,3-3.2c0-1.2-0.6-2.2-1.6-2.7c-0.4-0.2-0.8-0.3-2-0.3h-3.2v6.2
		H702.7z"/>
	<path class="st0" d="M709.9,559.7h4.1c1.3,0,2,0.1,2.5,0.4c1.2,0.6,1.9,1.8,1.9,3.4c0,2-1.2,3.5-2.8,3.9v0c0,0,0.1,0.2,0.3,0.5
		l3.1,5.8h-1l-3.3-6.2h-4v6.2h-0.9V559.7z M714.6,566.7c1.8,0,3-1.3,3-3.2c0-1.2-0.6-2.2-1.6-2.7c-0.4-0.2-0.8-0.3-2-0.3h-3.2v6.2
		H714.6z"/>
	<path class="st0" d="M728.7,568.8h-5.9l-1.8,4.8H720l5.2-14h0.9l5.2,14h-0.9L728.7,568.8z M725.7,560.7c0,0-0.3,1.1-0.5,1.7
		l-2.1,5.7h5.3l-2.1-5.7C726.1,561.8,725.8,560.7,725.7,560.7L725.7,560.7z"/>
	<path class="st0" d="M733.5,559.7h0.8l8,11c0.5,0.6,1.1,1.8,1.1,1.8h0c0,0-0.1-1.1-0.1-1.8v-11h0.9v14h-0.8l-8-11
		c-0.5-0.6-1.1-1.8-1.1-1.8h0c0,0,0.1,1.1,0.1,1.8v11h-0.9V559.7z"/>
	<path class="st0" d="M748,559.7h7.7v0.8h-6.8v5.7h5.6v0.8h-5.6v5.9h7.2v0.8h-8V559.7z"/>
	<path class="st0" d="M765.8,568.8h-5.9l-1.8,4.8h-0.9l5.2-14h0.9l5.2,14h-0.9L765.8,568.8z M762.8,560.7c0,0-0.3,1.1-0.5,1.7
		l-2.1,5.7h5.3l-2.1-5.7C763.1,561.8,762.8,560.7,762.8,560.7L762.8,560.7z"/>
	<path class="st0" d="M770.5,559.7h0.8l8,11c0.5,0.6,1.1,1.8,1.1,1.8h0c0,0-0.1-1.1-0.1-1.8v-11h0.9v14h-0.8l-8-11
		c-0.5-0.6-1.1-1.8-1.1-1.8h0c0,0,0.1,1.1,0.1,1.8v11h-0.9V559.7z"/>
	<path class="st0" d="M789.7,571.5c0,0,1.4,1.6,3.7,1.6c1.7,0,3.1-1.1,3.1-2.8c0-4-7.2-2.9-7.2-7.3c0-1.9,1.7-3.6,4.2-3.6
		c2.3,0,3.6,1.3,3.6,1.3l-0.5,0.7c0,0-1.2-1.2-3.1-1.2c-2.1,0-3.3,1.4-3.3,2.8c0,3.7,7.2,2.6,7.2,7.2c0,2-1.6,3.6-4.1,3.6
		c-2.8,0-4.3-1.7-4.3-1.7L789.7,571.5z"/>
	<path class="st0" d="M800.2,559.7h7.7v0.8h-6.8v5.7h5.6v0.8h-5.6v5.9h7.2v0.8h-8V559.7z"/>
	<path class="st0" d="M818,568.8h-5.9l-1.8,4.8h-0.9l5.2-14h0.9l5.2,14h-0.9L818,568.8z M815,560.7c0,0-0.3,1.1-0.5,1.7l-2.1,5.7
		h5.3l-2.1-5.7C815.4,561.8,815.1,560.7,815,560.7L815,560.7z"/>
</g>
<g>
	<path class="st0" d="M1064.8,274.7h4.7c2,0,3.5,1.4,3.5,3.5c0,1.5-0.7,2.5-1.8,3.1v0c1.4,0.4,2.4,1.7,2.4,3.5
		c0,2.3-1.7,3.9-3.9,3.9h-4.9V274.7z M1069.5,280.9c1.6,0,2.7-1.1,2.7-2.7c0-1.6-1-2.7-2.7-2.7h-3.8v5.4H1069.5z M1069.6,287.9
		c1.9,0,3.1-1.2,3.1-3.1s-1.3-3.1-3.1-3.1h-3.9v6.2H1069.6z"/>
	<path class="st0" d="M1076.7,274.7h0.9v13.2h6.7v0.8h-7.5V274.7z"/>
	<path class="st0" d="M1093.2,283.8h-5.9l-1.8,4.8h-0.9l5.2-14h0.9l5.2,14h-0.9L1093.2,283.8z M1090.2,275.7c0,0-0.3,1.1-0.5,1.7
		l-2.1,5.7h5.3l-2.1-5.7C1090.6,276.8,1090.3,275.7,1090.2,275.7L1090.2,275.7z"/>
	<path class="st0" d="M1103.9,274.4c3.3,0,5,1.8,5,1.8l-0.5,0.6c0,0-1.7-1.6-4.5-1.6c-3.4,0-6.1,2.7-6.1,6.3c0,3.6,2.6,6.5,6.1,6.5
		c3,0,4.7-1.9,4.7-1.9l0.5,0.6c0,0-1.9,2.1-5.3,2.1c-4.1,0-7-3.3-7-7.3S1099.9,274.4,1103.9,274.4z"/>
	<path class="st0" d="M1112.1,274.7h0.9v6.2h2.6l4-6.2h1l-4.3,6.6v0l4.6,7.4h-1l-4.3-7h-2.6v7h-0.9V274.7z"/>
	<path class="st0" d="M1127.7,286.5c0,0,1.4,1.6,3.7,1.6c1.7,0,3.1-1.1,3.1-2.8c0-4-7.2-2.9-7.2-7.3c0-1.9,1.7-3.6,4.2-3.6
		c2.3,0,3.6,1.3,3.6,1.3l-0.5,0.7c0,0-1.2-1.2-3.1-1.2c-2.1,0-3.3,1.4-3.3,2.8c0,3.7,7.2,2.6,7.2,7.2c0,2-1.6,3.6-4.1,3.6
		c-2.8,0-4.3-1.7-4.3-1.7L1127.7,286.5z"/>
	<path class="st0" d="M1138.3,274.7h7.7v0.8h-6.8v5.7h5.6v0.8h-5.6v5.9h7.2v0.8h-8V274.7z"/>
	<path class="st0" d="M1156.1,283.8h-5.9l-1.8,4.8h-0.9l5.2-14h0.9l5.2,14h-0.9L1156.1,283.8z M1153.1,275.7c0,0-0.3,1.1-0.5,1.7
		l-2.1,5.7h5.3l-2.1-5.7C1153.4,276.8,1153.1,275.7,1153.1,275.7L1153.1,275.7z"/>
</g>
<g>
	<path class="st0" d="M1743,379.4c3.3,0,5,1.8,5,1.8l-0.5,0.6c0,0-1.7-1.6-4.5-1.6c-3.4,0-6.1,2.7-6.1,6.3c0,3.6,2.6,6.5,6.1,6.5
		c3,0,4.7-1.9,4.7-1.9l0.5,0.6c0,0-1.9,2.1-5.3,2.1c-4.1,0-7-3.3-7-7.3S1739.1,379.4,1743,379.4z"/>
	<path class="st0" d="M1758.1,388.8h-5.9l-1.8,4.8h-0.9l5.2-14h0.9l5.2,14h-0.9L1758.1,388.8z M1755.1,380.7c0,0-0.3,1.1-0.5,1.7
		l-2.1,5.7h5.3l-2.1-5.7C1755.4,381.8,1755.1,380.7,1755.1,380.7L1755.1,380.7z"/>
	<path class="st0" d="M1762.4,391.5c0,0,1.4,1.6,3.7,1.6c1.7,0,3.1-1.1,3.1-2.8c0-4-7.2-2.9-7.2-7.3c0-1.9,1.7-3.6,4.2-3.6
		c2.3,0,3.6,1.3,3.6,1.3l-0.5,0.7c0,0-1.2-1.2-3.1-1.2c-2.1,0-3.3,1.4-3.3,2.8c0,3.7,7.2,2.6,7.2,7.2c0,2-1.6,3.6-4.1,3.6
		c-2.8,0-4.3-1.7-4.3-1.7L1762.4,391.5z"/>
	<path class="st0" d="M1772.9,379.7h4.6c2.4,0,4.3,1.5,4.3,4.1c0,2.5-1.8,4.1-4.3,4.1h-3.7v5.8h-0.9V379.7z M1777.5,387.1
		c2,0,3.4-1.2,3.4-3.3c0-2.1-1.4-3.3-3.4-3.3h-3.7v6.6H1777.5z"/>
	<path class="st0" d="M1784.3,379.7h0.9v14h-0.9V379.7z"/>
	<path class="st0" d="M1795.8,388.8h-5.9l-1.8,4.8h-0.9l5.2-14h0.9l5.2,14h-0.9L1795.8,388.8z M1792.8,380.7c0,0-0.3,1.1-0.5,1.7
		l-2.1,5.7h5.3l-2.1-5.7C1793.2,381.8,1792.9,380.7,1792.8,380.7L1792.8,380.7z"/>
	<path class="st0" d="M1800.6,379.7h0.8l8,11c0.5,0.6,1.1,1.8,1.1,1.8h0c0,0-0.1-1.1-0.1-1.8v-11h0.9v14h-0.8l-8-11
		c-0.5-0.6-1.1-1.8-1.1-1.8h0c0,0,0.1,1.1,0.1,1.8v11h-0.9V379.7z"/>
	<path class="st0" d="M1759.3,425.5c0,0,1.4,1.6,3.7,1.6c1.7,0,3.1-1.1,3.1-2.8c0-4-7.2-2.9-7.2-7.3c0-1.9,1.7-3.6,4.2-3.6
		c2.3,0,3.6,1.3,3.6,1.3l-0.5,0.7c0,0-1.2-1.2-3.1-1.2c-2.1,0-3.3,1.4-3.3,2.8c0,3.7,7.2,2.6,7.2,7.2c0,2-1.6,3.6-4.1,3.6
		c-2.8,0-4.3-1.7-4.3-1.7L1759.3,425.5z"/>
	<path class="st0" d="M1769.8,413.7h7.7v0.8h-6.8v5.7h5.6v0.8h-5.6v5.9h7.2v0.8h-8V413.7z"/>
	<path class="st0" d="M1787.6,422.8h-5.9l-1.8,4.8h-0.9l5.2-14h0.9l5.2,14h-0.9L1787.6,422.8z M1784.6,414.7c0,0-0.3,1.1-0.5,1.7
		l-2.1,5.7h5.3l-2.1-5.7C1785,415.8,1784.7,414.7,1784.6,414.7L1784.6,414.7z"/>
</g>
<g>
	<path d="M360.2,760.7h0.8l8,11c0.5,0.6,1.1,1.8,1.1,1.8h0c0,0-0.1-1.1-0.1-1.8v-11h0.9v14h-0.8l-8-11c-0.5-0.6-1.1-1.8-1.1-1.8h0
		c0,0,0.1,1.1,0.1,1.8v11h-0.9V760.7z"/>
	<path d="M380.8,760.4c3.9,0,7.1,3.1,7.1,7.1c0,4.1-3.2,7.3-7.1,7.3s-7.1-3.2-7.1-7.3C373.7,763.5,376.9,760.4,380.8,760.4z
		 M380.8,774.1c3.4,0,6.2-2.8,6.2-6.5c0-3.6-2.8-6.3-6.2-6.3s-6.2,2.7-6.2,6.3C374.6,771.2,377.4,774.1,380.8,774.1z"/>
	<path d="M390.7,760.7h4.1c1.3,0,2,0.1,2.5,0.4c1.2,0.6,1.9,1.8,1.9,3.4c0,2-1.2,3.5-2.8,3.9v0c0,0,0.1,0.2,0.3,0.5l3.1,5.8h-1
		l-3.3-6.2h-4v6.2h-0.9V760.7z M395.4,767.7c1.8,0,3-1.3,3-3.2c0-1.2-0.6-2.2-1.6-2.7c-0.4-0.2-0.8-0.3-2-0.3h-3.2v6.2H395.4z"/>
	<path d="M405.9,761.5h-5.2v-0.8h11.3v0.8h-5.2v13.2h-0.9V761.5z"/>
	<path d="M413.8,760.7h0.9v6.6h8.9v-6.6h0.9v14h-0.9V768h-8.9v6.6h-0.9V760.7z"/>
	<path d="M440.1,769.8h-5.9l-1.8,4.8h-0.9l5.2-14h0.9l5.2,14h-0.9L440.1,769.8z M437.1,761.7c0,0-0.3,1.1-0.5,1.7l-2.1,5.7h5.3
		l-2.1-5.7C437.4,762.7,437.1,761.7,437.1,761.7L437.1,761.7z"/>
	<path d="M444.8,760.7h7.1v0.8h-6.2v5.8h5.4v0.8h-5.4v6.6h-0.9V760.7z"/>
	<path d="M454.5,760.7h4.1c1.3,0,2,0.1,2.5,0.4c1.2,0.6,1.9,1.8,1.9,3.4c0,2-1.2,3.5-2.8,3.9v0c0,0,0.1,0.2,0.3,0.5l3.1,5.8h-1
		l-3.3-6.2h-4v6.2h-0.9V760.7z M459.2,767.7c1.8,0,3-1.3,3-3.2c0-1.2-0.6-2.2-1.6-2.7c-0.4-0.2-0.8-0.3-2-0.3h-3.2v6.2H459.2z"/>
	<path d="M466.4,760.7h0.9v14h-0.9V760.7z"/>
	<path d="M477.1,760.4c3.3,0,5,1.8,5,1.8l-0.5,0.6c0,0-1.7-1.6-4.5-1.6c-3.4,0-6.1,2.7-6.1,6.3c0,3.6,2.6,6.5,6.1,6.5
		c3,0,4.7-1.9,4.7-1.9l0.5,0.6c0,0-1.9,2.1-5.3,2.1c-4.1,0-7-3.3-7-7.3S473.2,760.4,477.1,760.4z"/>
	<path d="M492.1,769.8h-5.9l-1.8,4.8h-0.9l5.2-14h0.9l5.2,14H494L492.1,769.8z M489.2,761.7c0,0-0.3,1.1-0.5,1.7l-2.1,5.7h5.3
		l-2.1-5.7C489.5,762.7,489.2,761.7,489.2,761.7L489.2,761.7z"/>
</g>
<g>
	<path d="M684.6,225.3h7.7v0.8h-6.8v5.7h5.6v0.8h-5.6v5.9h7.2v0.8h-8V225.3z"/>
	<path d="M702.4,234.4h-5.9l-1.8,4.8h-0.9l5.2-14h0.9l5.2,14h-0.9L702.4,234.4z M699.4,226.3c0,0-0.3,1.1-0.5,1.7l-2.1,5.7h5.3
		L700,228C699.8,227.4,699.5,226.3,699.4,226.3L699.4,226.3z"/>
	<path d="M706.7,237.1c0,0,1.4,1.6,3.7,1.6c1.7,0,3.1-1.1,3.1-2.8c0-4-7.2-2.9-7.2-7.3c0-1.9,1.7-3.6,4.2-3.6c2.3,0,3.6,1.3,3.6,1.3
		l-0.5,0.7c0,0-1.2-1.2-3.1-1.2c-2.1,0-3.3,1.4-3.3,2.8c0,3.7,7.2,2.6,7.2,7.2c0,2-1.6,3.6-4.1,3.6c-2.8,0-4.3-1.7-4.3-1.7
		L706.7,237.1z"/>
	<path d="M720.5,226.1h-5.2v-0.8h11.3v0.8h-5.2v13.2h-0.9V226.1z"/>
	<path d="M733.4,225.3h7.7v0.8h-6.8v5.7h5.6v0.8h-5.6v5.9h7.2v0.8h-8V225.3z"/>
	<path d="M744.1,225.3h0.9v9.2c0,2.6,1.7,4.3,4.4,4.3s4.4-1.6,4.4-4.3v-9.1h0.9v9.2c0,3.1-2.1,5-5.2,5s-5.2-2-5.2-5V225.3z"/>
	<path d="M758.2,225.3h4.1c1.3,0,2,0.1,2.5,0.4c1.2,0.6,1.9,1.8,1.9,3.4c0,2-1.2,3.5-2.8,3.9v0c0,0,0.1,0.2,0.3,0.5l3.1,5.8h-1
		l-3.3-6.2h-4v6.2h-0.9V225.3z M762.9,232.3c1.8,0,3-1.3,3-3.2c0-1.2-0.6-2.2-1.6-2.7c-0.4-0.2-0.8-0.3-2-0.3h-3.2v6.2H762.9z"/>
	<path d="M776.2,225c3.9,0,7.1,3.1,7.1,7.1c0,4.1-3.2,7.3-7.1,7.3s-7.1-3.2-7.1-7.3C769.2,228.2,772.3,225,776.2,225z M776.2,238.7
		c3.4,0,6.2-2.8,6.2-6.5c0-3.6-2.8-6.3-6.2-6.3s-6.2,2.7-6.2,6.3C770.1,235.9,772.8,238.7,776.2,238.7z"/>
	<path d="M786.2,225.3h4.6c2.4,0,4.3,1.5,4.3,4.1c0,2.5-1.8,4.1-4.3,4.1H787v5.8h-0.9V225.3z M790.7,232.7c2,0,3.4-1.2,3.4-3.3
		c0-2.1-1.4-3.3-3.4-3.3H787v6.6H790.7z"/>
	<path d="M797.5,225.3h7.7v0.8h-6.8v5.7h5.6v0.8h-5.6v5.9h7.2v0.8h-8V225.3z"/>
</g>
<g class="st1">
	<path class="st2" d="M1141.8,733.6c-0.4,0-0.7-1.1-1-1.2c-0.4,0-0.8,1-1.2,1c-0.3-0.1-0.5-1.3-0.9-1.4c-3.7-0.2-7.7,0.1-11.3-1.2
		c-3.4-1.3-6.2-4.1-9.3-6.5c-2.9-2.2-6.4-3.9-9-6.9c-2.1-2.4-4.3-6.7-6.9-10.9c-2.3-3.6-5.3-7.2-6.1-11.4c-0.8-4.2,0.6-8.2,3-12.3
		c0.5-0.8,0-2.1,0.5-2.8c0.5-0.7,1.9-0.8,2.4-1.4c0.5-0.7,0.1-2.1,0.7-2.7c0.6-0.8,2.1-0.8,2.6-1.6c0.6-0.8,0.2-2.2,0.7-2.9
		c0.5-0.8,2-1,2.4-1.9c0.8-1.7,0.6-3.9,1.3-5.7c0.7-1.8,2.4-3.2,3-5c0.6-1.8,0.1-4,0.7-5.8c0.1-0.3,1.2,0.1,1.2-0.2
		c0.1-0.3-1-0.6-0.9-0.8c0.1-0.3,1.2,0.1,1.2-0.2c1.1-3.6,1.1-7.7,2.3-11.4c1.2-3.6,3.4-6.9,4.7-10.6c1.3-3.6,1.6-7.6,3.1-11.2
		c0.5-1.2,2.1-2,2.6-3.2c0.5-1.2,0.1-2.9,0.6-4.1c0.6-1.2,2.2-1.9,2.7-3.1c0.4-0.8-0.3-2.1,0.1-2.9c0.4-0.8,1.8-1.1,2.2-1.9
		c0.4-0.8-0.3-2.1,0.1-2.9c0.3-0.6,1.6-0.8,1.8-1.5c0.2-0.6-0.6-1.7-0.4-2.3c0.2-0.6,1.5-1,1.7-1.6c0.3-1.1-0.4-2.5,0-3.6
		c0.4-1.1,1.8-1.7,2.3-2.8c0.4-1-0.1-2.5,0.5-3.6c0.5-0.8,1.9-0.9,2.5-1.6c0.6-0.7,0.4-2.2,1.1-2.8c0.7-0.6,2.2-0.4,2.8-1
		c0.2-0.2-0.2-1.3,0-1.5c0.3-0.2,1.3,0.4,1.5,0.2c0.3-0.3-0.4-1.1-0.2-1.3c0-0.2,1-0.3,0.9-0.6c-0.1-0.2-1.2-0.1-1.3-0.3
		c-0.1-0.2,1-0.8,0.9-0.9c-0.1-0.3-1.3-0.2-1.3-0.5c-0.1-0.3,0.9-0.9,0.9-1.1c-0.1-0.3-1.2-0.3-1.3-0.6c-0.2-1,0.7-2.3,0.5-3.5
		c-0.2-1.1-1.4-2-1.5-3.2c-0.1-1.1,1-2.2,1.1-3.3c0-0.4-1.1-0.9-1-1.2c0-0.4,1.2-0.6,1.3-1c0.1-0.4-1-0.9-0.9-1.3
		c0-0.2,1.2-0.2,1.2-0.5c0-0.2-1-0.6-1-0.9c0-0.3,1.2-0.6,1.2-0.7c0-0.1-1.1,0.2-1.2,0.1c-0.1-0.1,0.8-0.8,0.7-1
		c-0.1-0.1-1.1,0.4-1.2,0.3c-0.2-0.2,0.6-1.1,0.4-1.4c-0.2-0.2-1.3,0.1-1.5-0.2c-0.2-0.3,0.7-1.1,0.5-1.4c-1-2-2.8-3.7-3.1-5.8
		c-0.4-2.1,0.7-4.3,1.1-6.5c0.3-2.1-0.1-4.4,0.8-6.5c1.3-2.8,3.9-4.7,5.7-7c1.9-2.4,3.2-5.3,5.3-7.3c2.3-2.1,5.3-3.2,7.5-5
		c0.5-0.4,0.3-1.7,0.8-2.1c0.5-0.4,1.7,0,2.2-0.4c0.5-0.4,0.2-1.7,0.7-2.1c6.4-5.7,13.4-9.7,19.7-14c7-4.8,13.4-9.8,20.4-13
		c7.5-3.5,15.4-5,23.2-6.8c4.3-1,8.6-2.9,13.3-3.6c4.4-0.6,9,0.1,13.8-0.2c4.4-0.3,8.9-1.5,13.7-1.5c3.7,0,7.5,1.2,11.5,1.4
		c3.7,0.1,7.6-0.8,11.6-0.5c3.6,0.3,7.4,1.7,11.4,2.1c8.3,0.8,16.1,0.9,23.3,2.6c8,1.9,15.1,5.3,21.9,8.3
		c7.4,3.2,14.7,6.2,20.8,10.8c6,4.5,10.9,10.6,16.3,16.6c5,5.5,10.6,10.9,15.1,17.7c4.1,6.2,7,13.4,10.7,20.7c1.4,2.7,3.7,4.9,5,7.7
		c1.3,2.8,1.5,6,2.8,8.7c1.2,2.8,3.5,5.1,4.7,7.9c2.1,4.9,3.2,10.1,5.4,14.8c2.2,4.8,5.5,9,8,13.6c2.5,4.6,4.2,9.7,7.2,14
		c1.7,2.5,4.4,4.3,6.2,6.7c1.8,2.4,2.7,5.5,4.5,7.9c1.8,2.4,4.6,4.2,6.4,6.5c0.8,1.1,0.8,2.9,1.6,4c0.8,1.1,2.6,1.5,3.4,2.6
		c0.8,1.1,0.8,2.9,1.6,4c0.2,0.2,1.2-0.3,1.4,0c0.2,0.2-0.6,1.1-0.5,1.3s1.2-0.2,1.4,0c0.7,0.9,0.4,2.5,1,3.3c0.7,0.9,2.2,1,2.9,1.8
		c0.8,0.8,0.8,2.4,1.7,3c0.3,0.2,1.1-0.6,1.4-0.5c0.3,0.1,0.4,1.3,0.7,1.3c0.3,0,0.7-1.1,1.1-1.1c0.1,0,0.3,1.1,0.4,1.1
		c0.1,0,0.2-1.1,0.4-1.1c0.1,0,0.3,1.1,0.4,1.1c0.2,0,0.3-1.1,0.5-1.1c0.2,0,0.4,1.1,0.5,1.1c0.2,0,0.3-1.1,0.5-1.1
		c0.4,0,0.8,1.1,1.3,1.2c0.4,0,0.9-1.1,1.4-1c0.4,0,0.7,1.2,1.1,1.3c1.8,0.3,3.7-0.3,5.1,0.4c1.5,0.8,2.2,2.7,3.3,3.9
		c1.1,1.2,2.9,2.1,3.5,3.7c1,2.7,0,5.6-0.3,8.5c-0.4,2.8-0.2,5.9-1.3,8.4c-1.3,2.9-3.9,4.8-5.4,6.6c-2.2,2.6-3.9,5.6-6.5,7.3
		c-2.7,1.8-6.1,2.2-9.3,3.1c-3,0.9-6.1,2.4-9.5,2.4c-0.4,0-0.8-1.1-1.2-1.2c-0.4,0-0.9,1.1-1.3,1.1c-0.4,0-0.8-1.2-1.2-1.2
		c-2.3-0.2-4.6,0.7-6.9,0.3c-2.3-0.3-4.3-1.8-6.5-2.2c-2.3-0.4-4.7,0.3-6.9-0.1c-1.7-0.3-3.2-1.7-4.9-2c-1.7-0.3-3.6,0.5-5.3,0.3
		c-1.7-0.3-3.3-1.6-5-1.8c-3.6-0.4-7.3,0.2-10.9-0.3c-3.6-0.5-6.9-2.3-10.5-3c-3.5-0.7-7.3-0.5-10.8-1.5
		c-8.1-2.4-14.9-6.9-21.3-11.1c-6.9-4.6-13.5-9.4-18-15.8c-4.6-6.6-6.8-14.4-8.3-22.4c-0.9-4.6-2.3-9.1-2.3-13.7
		c0-4.7,1.5-9.2,2-13.8c0.5-4.6,0.1-9.4,0.9-13.9c0.4-2.7,2-5.2,2.3-7.8c0.4-2.7-0.4-5.5-0.1-8.2c0.3-2.7,1.6-5.3,1.6-8
		c0.1-6.3-1.8-11.8-3.6-16.7c-2-5.6-4.3-11-8.6-14.7c-4.1-3.5-9.7-5.1-15.7-6.7c-4.8-1.3-9.5-3.2-14.6-3.8c-4.9-0.6-10,0.3-15.1,0.1
		c-5-0.2-10-1.3-15-1.4c-1.5,0-3.1,1.1-4.6,1.1c-1.5,0-3.1-1.2-4.6-1.2c-1.5,0-3.1,1.1-4.6,1c-1.1,0-2.2-1.2-3.3-1.2
		c-1.1,0-2.3,1.1-3.4,1.1c-1.1,0-2.2-1.2-3.4-1.2c-5.1,0-10.2,1.3-15.2,2c-5.3,0.7-10.6,1-15,3.2c-4.5,2.3-7.5,6.4-10.1,11.2
		c-1.9,3.4-4.7,6.5-6.5,10.4c-1.7,3.6-2.2,7.7-3.8,11.7c-1.5,3.7-4,7.1-5.4,11c-1.4,3.8-1.2,8-1.8,11.9c-0.6,4.1-1.9,8-1.9,11.8
		c0,4.3,1.4,8.2,1.7,11.9c0.2,2-0.7,4.1-0.5,6.1c0.2,2,1.6,3.8,1.9,5.8c0.3,2-0.6,4.1-0.3,6.1c1,6.8,3.1,13.6,3.7,20.5
		c0.6,7-0.3,13.9-0.9,20.7c-0.6,6.8-1,13.8-3.6,20.4c-2.3,5.7-6.7,10.1-11.2,14.4c-4.2,4-8.6,8.2-14.6,11
		c-5.1,2.3-11.3,3.2-17.7,4.6c-0.2,0-0.2,1.2-0.4,1.3c-0.2,0.1-0.7-1-1-0.9c-0.2,0.1-0.2,1.2-0.4,1.3c-1.2,0.3-2.6-0.5-3.7-0.2
		c-1.2,0.3-2.1,1.6-3.2,1.8C1144.1,733.5,1142.9,733.6,1141.8,733.6z"/>
</g>
<g class="st1">
	<path class="st2" d="M1140,727.2c-3.4,0-6.5-1.8-9.6-2.9c-3.1-1.2-6.6-1.8-9.3-3.9c-2.7-2-4.3-5.2-6.5-7.7
		c-1.9-2.2-5.2-4.3-7.3-7.5c-2-2.9-2.8-6.6-3.7-9.7c-1-3.5-2.1-7.1-0.2-10.2c1-1.6,3-2.4,4.1-3.9c1.1-1.5,1.3-3.6,2.4-5.1
		c1.1-1.5,3-2.4,3.9-4.1c0.9-1.8,0.7-4.1,1.4-6c0.8-1.9,2.5-3.4,3.1-5.3s0.2-4.2,0.8-6.1c1.2-3.8,3.4-7.2,4.6-11
		c1.2-3.8,1.3-7.9,2.7-11.6c1.3-3.7,3.8-7,5.3-10.6c0.9-2,0.7-4.5,1.6-6.5c0.9-2,2.9-3.5,3.8-5.5c0.9-2,0.8-4.4,1.7-6.4
		c0.7-1.6,2.4-2.9,2.9-4.6c0.5-1.7,0-3.7,0.6-5.4c0.6-1.7,2.3-2.8,3.1-4.4c0.6-1.1,0.8-2.9,1.9-3.9c1-0.9,2.9-1,3.9-1.9
		c1.1-1.1,1.2-2.8,1.6-3.9c0.2-0.7,1.3-1.5,1.1-2.4c-0.1-0.8-1.5-1.4-1.7-2.1c-0.3-0.9,0.5-2,0.4-2.7c-0.2-0.9-1.5-1.6-1.6-2.6
		c-0.1-0.9,0.9-2,0.8-2.9c-0.1-0.9-1.2-1.9-1.2-2.8c0-0.7,1.3-1.4,1.4-2.2c0.1-0.8-0.8-1.7-0.8-2.5c0.1-0.8,1.2-1.6,1.1-2.4
		c-0.1-0.6-1.4-0.8-1.7-1.3c-0.3-0.5,0.3-1.6,0-2.2c-0.4-0.5-1.7-0.4-2-1c-0.8-1.5-0.2-3.3-0.4-4.8c-0.3-1.5-1.4-3.1-1.1-4.6
		c0.2-1.5,1.8-2.6,2.5-4.1c1.4-3.1,2.4-6.4,4.7-8.9c2.2-2.5,5.5-3.9,8.1-6.1c2.6-2.2,4.5-5.2,7-7.4c5.9-5.2,12.6-9.1,18.9-13.5
		c6.4-4.4,12.5-9.3,19.5-12.6c6.9-3.2,14.5-4.7,22.3-6.5c7.9-1.8,15.9-4,24.1-4.6c8.2-0.6,16.4,0.5,24.6,0.8
		c8.3,0.3,16.6-0.2,24.6,0.6c7.4,0.7,14.7,2.9,21.9,4.6c7.3,1.7,14.8,2.8,21.6,5.8c6.8,2.9,12.7,7.6,18.8,12.1
		c6,4.5,12.2,8.8,17.2,14.3c5,5.5,8.6,12.2,12.7,18.4c4.1,6.2,8.8,12.2,12.2,18.8c3.8,7.4,6.2,15.6,9.6,23.2
		c3.4,7.7,7.7,14.9,11.4,22.4c3.7,7.5,6.8,15.4,11.5,22.3c2.5,3.6,6,6.6,8.7,10.1c2.6,3.6,4.4,7.8,7.1,11.3c2.7,3.5,6.3,6.4,8.9,9.9
		c0.9,1.2,0.9,3.2,1.9,4.5c0.9,1.3,2.8,1.8,3.8,2.9c1.1,1.2,1.5,3.1,2.8,4c1.3,0.9,3,0.4,4.2,0.6c1.4,0.3,2.6,1.3,4,1.3
		c1.3,0,2.7-1.2,4.2-0.9c4,0.6,5.4,3.4,6.2,6.1c0.8,2.7,1.4,6,0.4,9.1c-1.1,3.1-3.7,5.5-5.4,7.5c-2.1,2.5-3.7,5.3-6.2,6.8
		c-2.6,1.6-5.8,1.6-8.9,2.2c-2.9,0.6-5.8,1.8-9,1.5c-3.9-0.4-7.7-2-11.7-2.7c-3.9-0.7-8-0.3-11.9-1c-3.9-0.7-7.7-2.5-11.6-3
		c-3.5-0.4-7.1,0.3-10.6-0.3c-3.5-0.5-6.7-2.2-10.1-2.9c-3.4-0.7-7.1-0.4-10.5-1.5c-7-2.1-13.3-6.2-19.3-10.2
		c-6.1-4.1-12.3-8.3-16.6-14.1c-4.2-5.8-6.1-12.9-7.5-20.4c-1.3-7.2-2.5-14.3-1.8-21.4c0.6-7.1,3-14.1,4.1-21.2
		c1.1-7.1,1-14.4,1.1-21.5c0.1-7.1,0.2-13.9-1.9-19.7c-2.3-6.4-6.9-11.2-12-15.6c-4.7-4-10-8-17.1-9.9c-6.4-1.7-13.3-1.6-20-2.1
		c-6.6-0.6-13.3-1.9-20-2c-6.8-0.1-13.5,1.1-20.1,0.9c-6.5-0.2-13.8-1.5-20.9-1c-7.1,0.6-13.8,2.9-20,5.7
		c-6.3,2.8-12.3,6.3-15.9,12.9c-2,3.6-2.8,7.9-4.6,11.7c-1.8,3.8-4.5,7.2-6,11c-1.6,3.9-2,8.3-3.4,12.1c-1.5,4.1-3.6,8-4.2,12.1
		c-0.6,4.2,0.2,8.6,0.2,12.9c0,4.2-0.9,8.6-0.5,12.9c0.7,8.2,3.3,16.7,4.5,25.5c1.2,8.6,1,17.3,0.9,25.8c-0.1,8.7-0.2,17.5-3.5,25.5
		c-2.2,5.3-6.3,9.1-10.2,12.7c-4,3.7-8,7.5-13.1,9.7c-5,2.2-10.6,2.8-15.9,3.9c-0.9,0.2-2.2,1.7-3.9,2.2c-1.4,0.4-3.1-0.4-4.5-0.2
		C1142.3,726.5,1140.7,727.7,1140,727.2z"/>
</g>
<path class="st3" d="M1144.3,720.3c20-3.7,39.2-9.5,43.6-31.9c6-30.8-7.3-62.4-3.2-93.4c1.8-13.6,9.4-26.6,14.6-39.3
	c4.5-10.8,9.3-20.7,20.6-25.5c18-7.7,39-6.2,58.1-5.5c21.7,0.8,51.2-0.9,69.1,13.8c16.8,13.8,17.3,34.8,14.8,54.7
	c-2.9,23-10.7,48.8,5.4,68.6c19.5,24,50.8,23.5,78.6,27.7c9.8,1.5,23.4,6.7,32.1,0.1c3.6-2.7,8.4-7.8,8.9-12.6
	c0.7-6.5-3-4.3-7.6-4.5c-9-0.2-14.6-8.5-19.5-15c-8-10.7-16.2-21.2-23.9-32.1c-16.1-23-24-50.9-37.8-75.3
	c-13.2-23.2-30.8-44.5-56.2-54.6c-22.9-9-48.9-9.9-73.2-10.2c-21.8-0.3-43.2,2.6-62.8,12.7c-11.7,6-22.3,14-32.1,22.9
	c-6.1,5.6-23.6,17.9-19.9,27c1.1,2.7,2.9,3.8,3.6,6.8c0.8,3.1,0.2,4.6-0.2,7.7c-0.9,6.4,1.9,10.7,2,16.8c0.1,5.8-6.5,6.9-9.1,12.1
	c-2.4,4.6-3.1,9.9-5.5,14.7c-5.1,10.3-9.8,21-13.6,31.8c-4,11.3-6.5,23.7-11.5,34.7c-2.1,4.5-4.8,9.2-7.9,13.1
	c-2.7,3.3-4,3.2-2.9,7.4c1.2,4.5,5,9.7,7.8,13.4C1123.1,715.2,1132.7,722.4,1144.3,720.3C1170.8,715.4,1124.2,724,1144.3,720.3z"/>
<g class="st1">
	<g>
		<path class="st4" d="M1152.1,718.8c0.1,0,0.2,0,0.2,0C1152.3,718.8,1152.2,718.8,1152.1,718.8z"/>
	</g>
	<g>
		<path class="st5" d="M1152.3,718.8C1152.8,718.7,1152.8,718.7,1152.3,718.8L1152.3,718.8z"/>
	</g>
	<g>
		<path class="st4" d="M1147.1,719.8c0.3,0,0.5-0.1,0.8-0.1C1147.6,719.7,1147.4,719.7,1147.1,719.8z"/>
	</g>
	<g>
		<path class="st4" d="M1150.4,719.2c0.6-0.1,1-0.2,1.4-0.3C1151.4,719,1151,719,1150.4,719.2z"/>
	</g>
	<g>
		<path class="st4" d="M1143.6,720.4c-0.1,0-0.1,0-0.2,0C1143.4,720.4,1143.5,720.4,1143.6,720.4z"/>
	</g>
	<g>
		<path class="st4" d="M1147.9,719.6c1-0.2,1.8-0.3,2.5-0.5C1149.6,719.3,1148.8,719.4,1147.9,719.6z"/>
	</g>
	<g>
		<path class="st4" d="M1151.8,718.9c0.1,0,0.2,0,0.3-0.1C1152,718.8,1151.9,718.9,1151.8,718.9z"/>
	</g>
	<g>
		<path class="st6" d="M1139.2,721.2C1139.1,721.2,1139.1,721.2,1139.2,721.2L1139.2,721.2z"/>
	</g>
	<g>
		<path class="st4" d="M1139.3,721.2c-0.1,0-0.1,0-0.1,0C1139.2,721.2,1139.2,721.2,1139.3,721.2z"/>
	</g>
	<g>
		<g>
			<path class="st4" d="M1205.6,542.8c0.5-0.8,1.1-1.7,1.7-2.5c-0.2-1-0.4-2-0.6-2.9"/>
			<path class="st7" d="M1205.7,530.9c0-0.1,0-0.1,0-0.2c-0.7-6-2-14-8.2-20.6"/>
			<path class="st4" d="M1195.1,507.8c-0.7-0.6-1.5-1.2-2.4-1.8c-0.8,0.6-1.6,1.1-2.5,1.7"/>
			<path class="st8" d="M1185.4,511.3c-4,3.1-7.8,6.3-11.5,9.7c-6.1,5.6-23.6,17.9-19.9,27c1.1,2.7,2.9,3.8,3.6,6.8
				c0.8,3.1,0.2,4.6-0.2,7.7c-0.9,6.4,1.9,10.7,2,16.8c0.1,5.8-6.5,6.9-9.1,12.1c-2.4,4.6-3.1,9.9-5.5,14.7
				c-5.1,10.3-9.8,21-13.6,31.8c-4,11.3-6.5,23.7-11.5,34.7c-2.1,4.5-4.8,9.2-7.9,13.1c-2.7,3.3-4,3.2-2.9,7.4
				c1.2,4.5,5,9.7,7.8,13.4c5.4,7.2,12.8,13.4,21.7,14.1"/>
			<path class="st4" d="M1141.3,720.6c1-0.1,2-0.2,3-0.4c-0.2,0-0.5,0.1-0.7,0.1c0.2,0,0.4-0.1,0.7-0.1c1.1-0.2,2-0.4,2.8-0.5
				c-0.9,0.2-1.9,0.4-2.8,0.5c1-0.2,2-0.4,2.9-0.6"/>
			<path class="st9" d="M1153,718.5c16.6-3.9,31.2-10.9,34.9-30.1c6-30.8-7.3-62.4-3.2-93.4c1.8-13.6,9.4-26.6,14.6-39.3
				c1.5-3.6,3-7.1,4.8-10.4"/>
		</g>
	</g>
	<g>
		<path class="st4" d="M1140.3,721c-0.3,0.1-0.6,0.1-0.8,0.1C1139.7,721.1,1139.9,721.1,1140.3,721z"/>
	</g>
	<g>
		<path class="st4" d="M1140.4,721c-0.1,0-0.1,0-0.2,0C1140.3,721,1140.4,721,1140.4,721z"/>
	</g>
	<g>
		<path class="st4" d="M1143.4,720.4c-1.1,0.2-2.2,0.4-2.9,0.5C1141.1,720.9,1142.1,720.7,1143.4,720.4z"/>
	</g>
	<g>
		<path class="st4" d="M1139.5,721.2c-0.1,0-0.1,0-0.2,0C1139.4,721.2,1139.4,721.2,1139.5,721.2z"/>
	</g>
</g>
<g>
	<path class="st10" d="M1199,639.4h0.7v10.9h5.5v0.7h-6.2V639.4z"/>
	<path class="st10" d="M1208.1,639.4h6.3v0.7h-5.6v4.7h4.6v0.7h-4.6v4.8h5.9v0.7h-6.6V639.4z"/>
	<path class="st10" d="M1216.6,639.4h0.8l3.5,9.4c0.2,0.5,0.4,1.4,0.4,1.4h0c0,0,0.2-0.8,0.4-1.4l3.5-9.4h0.8l-4.3,11.6h-0.8
		L1216.6,639.4z"/>
	<path class="st10" d="M1234,646.9h-4.9l-1.5,4h-0.8l4.3-11.6h0.8l4.3,11.6h-0.8L1234,646.9z M1231.5,640.2c0,0-0.2,0.9-0.4,1.4
		l-1.8,4.7h4.4l-1.8-4.7C1231.8,641.1,1231.5,640.2,1231.5,640.2L1231.5,640.2z"/>
	<path class="st10" d="M1239,639.4h0.7l6.6,9.1c0.4,0.5,0.9,1.5,0.9,1.5h0c0,0-0.1-0.9-0.1-1.5v-9.1h0.7v11.6h-0.7l-6.6-9.1
		c-0.4-0.5-0.9-1.5-0.9-1.5h0c0,0,0.1,0.9,0.1,1.5v9.1h-0.7V639.4z"/>
	<path class="st10" d="M1254.7,640h-4.3v-0.7h9.3v0.7h-4.3v10.9h-0.7V640z"/>
	<path class="st10" d="M1262.3,639.4h0.7v11.6h-0.7V639.4z"/>
	<path class="st10" d="M1267.3,639.4h0.7l6.6,9.1c0.4,0.5,0.9,1.5,0.9,1.5h0c0,0-0.1-0.9-0.1-1.5v-9.1h0.7v11.6h-0.7l-6.6-9.1
		c-0.4-0.5-0.9-1.5-0.9-1.5h0c0,0,0.1,0.9,0.1,1.5v9.1h-0.7V639.4z"/>
	<path class="st10" d="M1280.4,639.4h6.3v0.7h-5.6v4.7h4.6v0.7h-4.6v4.8h5.9v0.7h-6.6V639.4z"/>
	<path class="st10" d="M1203.9,656.4c2.7,0,4.1,1.5,4.1,1.5l-0.4,0.5c0,0-1.4-1.3-3.7-1.3c-2.8,0-5,2.2-5,5.2c0,3,2.1,5.4,5.1,5.4
		c2.5,0,3.9-1.6,3.9-1.6l0.4,0.5c0,0-1.6,1.8-4.4,1.8c-3.4,0-5.8-2.7-5.8-6.1S1200.7,656.4,1203.9,656.4z"/>
	<path class="st10" d="M1216.7,656.4c3.2,0,5.8,2.6,5.8,5.9c0,3.4-2.6,6.1-5.8,6.1c-3.2,0-5.9-2.7-5.9-6.1
		C1210.8,659,1213.5,656.4,1216.7,656.4z M1216.7,667.7c2.8,0,5.1-2.3,5.1-5.4c0-3-2.3-5.2-5.1-5.2c-2.8,0-5.1,2.3-5.1,5.2
		C1211.6,665.4,1213.9,667.7,1216.7,667.7z"/>
	<path class="st10" d="M1226,656.6h3.4c1.1,0,1.6,0.1,2.1,0.3c1,0.5,1.6,1.5,1.6,2.8c0,1.7-1,2.9-2.3,3.2v0c0,0,0.1,0.1,0.3,0.4
		l2.6,4.8h-0.8l-2.7-5.1h-3.3v5.1h-0.7V656.6z M1229.8,662.4c1.5,0,2.5-1.1,2.5-2.7c0-1-0.5-1.9-1.4-2.2c-0.3-0.1-0.7-0.2-1.6-0.2
		h-2.6v5.1H1229.8z"/>
	<path class="st10" d="M1236.9,656.6h3.4c1.1,0,1.6,0.1,2.1,0.3c1,0.5,1.6,1.5,1.6,2.8c0,1.7-1,2.9-2.3,3.2v0c0,0,0.1,0.1,0.3,0.4
		l2.6,4.8h-0.8l-2.7-5.1h-3.3v5.1h-0.7V656.6z M1240.7,662.4c1.5,0,2.5-1.1,2.5-2.7c0-1-0.5-1.9-1.4-2.2c-0.3-0.1-0.7-0.2-1.6-0.2
		h-2.6v5.1H1240.7z"/>
	<path class="st10" d="M1247.8,656.6h0.7v11.6h-0.7V656.6z"/>
	<path class="st10" d="M1252.8,656.6h3.6c3.4,0,5.8,2.1,5.8,5.8c0,3.7-2.3,5.8-5.8,5.8h-3.6V656.6z M1256.3,667.5
		c3.1,0,5.1-1.8,5.1-5.1c0-3.3-2.1-5.1-5.1-5.1h-2.8v10.2H1256.3z"/>
	<path class="st10" d="M1270.7,656.4c3.2,0,5.8,2.6,5.8,5.9c0,3.4-2.6,6.1-5.8,6.1s-5.9-2.7-5.9-6.1
		C1264.9,659,1267.5,656.4,1270.7,656.4z M1270.7,667.7c2.8,0,5.1-2.3,5.1-5.4c0-3-2.3-5.2-5.1-5.2c-2.8,0-5.1,2.3-5.1,5.2
		C1265.6,665.4,1267.9,667.7,1270.7,667.7z"/>
	<path class="st10" d="M1280,656.6h3.4c1.1,0,1.6,0.1,2.1,0.3c1,0.5,1.6,1.5,1.6,2.8c0,1.7-1,2.9-2.3,3.2v0c0,0,0.1,0.1,0.3,0.4
		l2.6,4.8h-0.8l-2.7-5.1h-3.3v5.1h-0.7V656.6z M1283.8,662.4c1.5,0,2.5-1.1,2.5-2.7c0-1-0.5-1.9-1.4-2.2c-0.3-0.1-0.7-0.2-1.6-0.2
		h-2.6v5.1H1283.8z"/>
</g>
<g>
	<path class="st10" d="M1444.7,592.9h0.7l3.4,7.3c0.3,0.6,0.6,1.3,0.6,1.3h0c0,0,0.3-0.7,0.6-1.3l3.4-7.3h0.7l0.9,11.6h-0.7
		l-0.7-8.8c0-0.6,0-1.5,0-1.5h0c0,0-0.3,1-0.6,1.5l-3.1,6.6h-0.7l-3.1-6.6c-0.2-0.5-0.6-1.6-0.6-1.6h0c0,0,0,1,0,1.6l-0.7,8.8h-0.7
		L1444.7,592.9z"/>
	<path class="st10" d="M1458.8,592.9h6.3v0.7h-5.6v4.7h4.6v0.7h-4.6v4.8h5.9v0.7h-6.6V592.9z"/>
	<path class="st10" d="M1468.5,602.7c0,0,1.2,1.3,3.1,1.3c1.4,0,2.6-0.9,2.6-2.3c0-3.3-5.9-2.4-5.9-6c0-1.5,1.4-3,3.5-3
		c1.9,0,2.9,1.1,2.9,1.1l-0.4,0.6c0,0-1-1-2.5-1c-1.7,0-2.7,1.2-2.7,2.3c0,3.1,5.9,2.1,5.9,6c0,1.7-1.3,3-3.4,3
		c-2.3,0-3.5-1.4-3.5-1.4L1468.5,602.7z"/>
	<path class="st10" d="M1483.4,592.7c3.2,0,5.8,2.6,5.8,5.9c0,3.4-2.6,6.1-5.8,6.1s-5.9-2.7-5.9-6.1
		C1477.5,595.3,1480.1,592.7,1483.4,592.7z M1483.4,604c2.8,0,5.1-2.3,5.1-5.4c0-3-2.3-5.2-5.1-5.2c-2.8,0-5.1,2.3-5.1,5.2
		C1478.3,601.6,1480.5,604,1483.4,604z"/>
	<path class="st10" d="M1492.6,592.9h3.8c2,0,3.5,1.3,3.5,3.4s-1.5,3.4-3.5,3.4h-3.1v4.8h-0.7V592.9z M1496.4,599
		c1.7,0,2.8-1,2.8-2.7s-1.1-2.7-2.8-2.7h-3.1v5.5H1496.4z"/>
	<path class="st10" d="M1508.1,592.7c3.2,0,5.8,2.6,5.8,5.9c0,3.4-2.6,6.1-5.8,6.1c-3.2,0-5.9-2.7-5.9-6.1
		C1502.3,595.3,1504.9,592.7,1508.1,592.7z M1508.1,604c2.8,0,5.1-2.3,5.1-5.4c0-3-2.3-5.2-5.1-5.2c-2.8,0-5.1,2.3-5.1,5.2
		C1503,601.6,1505.3,604,1508.1,604z"/>
	<path class="st10" d="M1519.7,593.6h-4.3v-0.7h9.3v0.7h-4.3v10.9h-0.7V593.6z"/>
	<path class="st10" d="M1532.2,600.5h-4.9l-1.5,4h-0.8l4.3-11.6h0.8l4.3,11.6h-0.8L1532.2,600.5z M1529.8,593.7c0,0-0.2,0.9-0.4,1.4
		l-1.8,4.7h4.4l-1.8-4.7C1530,594.6,1529.8,593.7,1529.8,593.7L1529.8,593.7z"/>
	<path class="st10" d="M1537.8,592.9h0.7l3.4,7.3c0.3,0.6,0.6,1.3,0.6,1.3h0c0,0,0.3-0.7,0.6-1.3l3.4-7.3h0.7l0.9,11.6h-0.7
		l-0.7-8.8c0-0.6,0-1.5,0-1.5h0c0,0-0.3,1-0.6,1.5l-3.1,6.6h-0.7l-3.1-6.6c-0.2-0.5-0.6-1.6-0.6-1.6h0c0,0,0,1,0,1.6l-0.7,8.8h-0.7
		L1537.8,592.9z"/>
	<path class="st10" d="M1551.9,592.9h0.7v11.6h-0.7V592.9z"/>
	<path class="st10" d="M1562.5,600.5h-4.9l-1.5,4h-0.8l4.3-11.6h0.8l4.3,11.6h-0.8L1562.5,600.5z M1560.1,593.7c0,0-0.2,0.9-0.4,1.4
		l-1.8,4.7h4.4l-1.8-4.7C1560.4,594.6,1560.1,593.7,1560.1,593.7L1560.1,593.7z"/>
</g>
<g>
	<g>
		<path class="st11" d="M1192.7,506c10.2,7.1,12.1,17.4,12.9,24.7c0.3,2.4,0.9,5.8,1.7,9.6c3.2-4.3,7.1-7.8,12.6-10.2
			c18-7.7,39-6.2,58.1-5.5c21.7,0.8,51.2-0.9,69.1,13.8c16.8,13.8,17.3,34.8,14.8,54.7c-2.9,23-10.7,48.8,5.4,68.6
			c19.5,24,50.8,23.4,78.6,27.7c9.8,1.5,23.4,6.7,32.1,0.1c3.6-2.7,8.4-7.8,8.9-12.6c0.7-6.5-3-4.3-7.6-4.5c-9-0.2-14.6-8.5-19.5-15
			c-8-10.7-16.2-21.2-23.9-32.1c-16.1-23-24-50.9-37.8-75.3c-13.2-23.2-30.8-44.5-56.2-54.6c-22.9-9-48.9-9.9-73.2-10.2
			c-21.8-0.3-43.2,2.6-62.8,12.7L1192.7,506z"/>
	</g>
</g>
<g>
	<path class="st12" d="M1306.3,584.7l3.3,4.2l-0.4,0.3l-3-3.7l-3.2,2.5l2.4,3.1l-0.4,0.3l-2.4-3.1l-3.2,2.6l3.1,3.9l-0.4,0.3
		l-3.5-4.4L1306.3,584.7z"/>
	<path class="st12" d="M1311.1,590.6l0.4,0.4l-4.7,4.4c-1.3,1.3-1.3,2.9-0.1,4.3c1.3,1.3,2.9,1.5,4.3,0.2l4.7-4.4l0.4,0.4l-4.7,4.4
		c-1.6,1.5-3.6,1.3-5.1-0.2c-1.5-1.6-1.5-3.6,0-5.1L1311.1,590.6z"/>
	<path class="st12" d="M1318,597.8l2.4,2.2c1.3,1.2,1.5,2.8,0.2,4.1c-1.2,1.3-2.9,1.2-4.2,0.1l-1.9-1.8l-2.8,3l-0.4-0.4L1318,597.8z
		 M1316.8,603.8c1,1,2.3,1,3.3-0.1c1-1.1,0.9-2.3-0.2-3.3l-1.9-1.8l-3.2,3.4L1316.8,603.8z"/>
	<path class="st12" d="M1324,603.3l0.5,0.4l-3,3.5l4.8,4l3-3.5l0.5,0.4l-6.3,7.5l-0.5-0.4l3-3.6l-4.8-4l-3,3.6l-0.5-0.4L1324,603.3z
		"/>
	<path class="st12" d="M1331.9,609.8l2.3,1.7c0.7,0.6,1,0.9,1.2,1.3c0.4,0.8,0.3,1.8-0.4,2.7c-0.9,1.1-2.1,1.5-3.2,1l0,0
		c0,0,0,0.1,0,0.4l-0.7,4.6l-0.6-0.4l0.8-4.9l-2.2-1.7l-2.6,3.5l-0.5-0.4L1331.9,609.8z M1331.5,615.7c1,0.8,2.2,0.5,3-0.5
		c0.5-0.7,0.6-1.5,0.2-2.2c-0.1-0.3-0.3-0.5-1-1l-1.8-1.4l-2.6,3.5L1331.5,615.7z"/>
	<path class="st12" d="M1338.8,622.8l-3.4-2.4l-3,2l-0.5-0.4l8.7-5.9l0.5,0.4l-2.7,10.1l-0.5-0.4L1338.8,622.8z M1340.4,617
		c0,0-0.6,0.5-1,0.7l-3.5,2.4l3.1,2.2l1.1-4.1C1340.1,617.7,1340.4,617,1340.4,617L1340.4,617z"/>
	<path class="st12" d="M1346.3,620.9l-3-2.1l0.3-0.5l6.6,4.5l-0.3,0.5l-3-2.1l-5.2,7.7l-0.5-0.3L1346.3,620.9z"/>
	<path class="st12" d="M1351.5,623.7l4.5,3l-0.3,0.5l-4-2.7l-2.2,3.3l3.2,2.2l-0.3,0.5l-3.2-2.2l-2.3,3.4l4.2,2.8l-0.3,0.5l-4.7-3.1
		L1351.5,623.7z"/>
	<path class="st12" d="M1353.3,634.9c0,0,0.2,1.5,1.6,2.4c1,0.7,2.2,0.6,2.9-0.4c1.6-2.3-3-4.5-1.3-7c0.7-1.1,2.4-1.5,3.9-0.5
		c1.3,0.9,1.6,2.1,1.6,2.1l-0.6,0.2c0,0-0.2-1.2-1.3-1.9c-1.2-0.8-2.5-0.5-3,0.3c-1.4,2.2,3.2,4.3,1.3,7c-0.8,1.2-2.3,1.5-3.8,0.5
		c-1.6-1.1-1.8-2.7-1.8-2.7L1353.3,634.9z"/>
</g>
<g>
	<path class="st12" d="M1521,674.6l-3-2.1l0.3-0.5l6.4,4.6l-0.3,0.5l-3-2.1l-5.4,7.5l-0.5-0.4L1521,674.6z"/>
	<path class="st12" d="M1526.2,677.6l0.5,0.4l-5.8,7.9l-0.5-0.4L1526.2,677.6z"/>
	<path class="st12" d="M1532.7,682.2c1.8,1.3,2.1,2.9,2.1,2.9l-0.6,0.1c0,0-0.3-1.5-1.8-2.6c-2-1.5-4.6-1-6.1,1
		c-1.5,2-1.3,4.6,0.6,6.1c1.7,1.3,3.7,0.7,3.7,0.7l1.1-1.5l-1.4-1.1l0.3-0.4l1.9,1.4l-2.7,3.6l-0.5-0.4l0.5-0.7
		c0.1-0.2,0.3-0.3,0.3-0.3l0,0c0,0-1.8,0.4-3.5-0.9c-2.2-1.7-2.5-4.7-0.8-7C1527.4,681.1,1530.5,680.6,1532.7,682.2z"/>
	<path class="st12" d="M1537.7,686.4l2.3,1.8c0.7,0.6,1,0.9,1.2,1.3c0.4,0.8,0.3,1.8-0.4,2.7c-0.9,1.1-2.2,1.4-3.2,0.9l0,0
		c0,0,0,0.1,0,0.4l-0.8,4.6l-0.6-0.4l0.9-4.9l-2.2-1.8l-2.7,3.4l-0.5-0.4L1537.7,686.4z M1537.3,692.2c1,0.8,2.2,0.6,3.1-0.5
		c0.5-0.7,0.6-1.5,0.3-2.2c-0.1-0.3-0.3-0.5-1-1l-1.8-1.4l-2.7,3.4L1537.3,692.2z"/>
	<path class="st12" d="M1544.6,691.9l0.5,0.4l-6.2,7.6l-0.5-0.4L1544.6,691.9z"/>
	<path class="st12" d="M1542,700.4c0,0,0.1,1.5,1.3,2.5c0.9,0.8,2.2,0.8,2.9-0.1c1.8-2.1-2.6-4.8-0.6-7.1c0.8-1,2.5-1.2,3.9-0.1
		c1.2,1,1.3,2.3,1.3,2.3l-0.6,0.2c0,0-0.1-1.2-1.1-2c-1.1-0.9-2.4-0.7-3,0c-1.7,2,2.7,4.6,0.6,7.1c-0.9,1.1-2.5,1.3-3.8,0.1
		c-1.5-1.2-1.5-2.9-1.5-2.9L1542,700.4z"/>
</g>
<g>
	<path class="st10" d="M1179.3,475l5.6-2.1l0.2,0.6l-4.9,1.8l1.7,4.6l4.2-1.6l0.2,0.6l-4.2,1.6l1.9,5.2l-0.7,0.3L1179.3,475z"/>
	<path class="st10" d="M1187.7,472l6.1-2l0.2,0.6l-5.4,1.8l1.5,4.6l4.5-1.5l0.2,0.6l-4.5,1.5l1.5,4.7l5.7-1.9l0.2,0.6l-6.4,2.1
		L1187.7,472z"/>
	<path class="st10" d="M1197.1,469l3.3-1c1.1-0.3,1.6-0.3,2.1-0.2c1.1,0.2,2,1,2.3,2.3c0.5,1.6-0.1,3.1-1.4,3.8l0,0
		c0,0,0.2,0.1,0.4,0.3l3.9,4l-0.8,0.2l-4.1-4.2l-3.3,0.9l1.4,5l-0.7,0.2L1197.1,469z M1202.5,473.6c1.5-0.4,2.1-1.8,1.7-3.3
		c-0.3-1-1-1.7-2-1.8c-0.4-0.1-0.7,0-1.7,0.2l-2.6,0.7l1.4,5L1202.5,473.6z"/>
	<path class="st10" d="M1210.3,466.1l-4.3,1.1l-0.2-0.7l9.2-2.3l0.2,0.7l-4.3,1.1l2.7,10.8l-0.7,0.2L1210.3,466.1z"/>
	<path class="st10" d="M1217.2,463.8l0.7-0.2l2.6,11.5l-0.7,0.2L1217.2,463.8z"/>
	<path class="st10" d="M1221.6,462.8l0.7-0.1l2.2,10.9l5.5-1.1l0.1,0.7l-6.2,1.3L1221.6,462.8z"/>
	<path class="st10" d="M1230.3,461.1l6.3-1.1l0.1,0.7l-5.6,1l0.8,4.8l4.6-0.8l0.1,0.7l-4.6,0.8l0.8,4.9l6-1l0.1,0.7l-6.7,1.2
		L1230.3,461.1z"/>
	<path class="st10" d="M1249.9,457.9c2.8-0.3,4.4,1,4.4,1l-0.4,0.6c0,0-1.5-1.2-3.9-0.9c-2.9,0.3-4.8,2.9-4.4,5.9
		c0.4,3,2.8,5.2,5.8,4.8c2.5-0.3,3.8-2.1,3.8-2.1l0.5,0.4c0,0-1.4,2-4.2,2.3c-3.4,0.4-6.2-2-6.6-5.4
		C1244.4,461.2,1246.6,458.3,1249.9,457.9z"/>
	<path class="st10" d="M1257.5,457.3l3.4-0.3c1.1-0.1,1.7,0,2.1,0.2c1,0.4,1.7,1.3,1.9,2.7c0.1,1.7-0.7,3-2.1,3.4l0,0
		c0,0,0.1,0.1,0.3,0.4l3,4.7l-0.9,0.1l-3.2-5l-3.4,0.3l0.4,5.2l-0.7,0.1L1257.5,457.3z M1261.9,462.9c1.5-0.1,2.4-1.3,2.3-2.9
		c-0.1-1-0.7-1.8-1.6-2.2c-0.3-0.1-0.7-0.2-1.7-0.1l-2.7,0.2l0.4,5.2L1261.9,462.9z"/>
	<path class="st10" d="M1268.2,456.5l6.4-0.3l0,0.7l-5.7,0.2l0.2,4.8l4.7-0.2l0,0.7l-4.7,0.2l0.2,4.9l6-0.3l0,0.7l-6.8,0.3
		L1268.2,456.5z"/>
	<path class="st10" d="M1277.9,466.1c0,0,1.2,1.3,3.2,1.3c1.5,0,2.6-0.9,2.6-2.3c0-3.3-6-2.4-6.1-6.1c0-1.6,1.4-3.1,3.5-3.1
		c1.9,0,3,1.1,3,1.1l-0.4,0.6c0,0-1-1-2.6-1c-1.8,0-2.8,1.2-2.8,2.3c0,3.1,6,2.1,6.1,6c0,1.7-1.3,3.1-3.4,3.1
		c-2.3,0-3.6-1.4-3.6-1.4L1277.9,466.1z"/>
	<path class="st10" d="M1292.5,456.1c2.8,0.1,4.2,1.6,4.2,1.6l-0.5,0.5c0,0-1.4-1.4-3.7-1.5c-2.9-0.1-5.2,2.1-5.3,5.1
		c-0.1,3.1,2,5.6,5,5.7c2.5,0.1,4-1.5,4-1.5l0.4,0.5c0,0-1.6,1.7-4.5,1.6c-3.4-0.1-5.8-3-5.7-6.4
		C1286.6,458.5,1289.2,456,1292.5,456.1z"/>
	<path class="st10" d="M1300.2,456.7l6.4,0.5l-0.1,0.7l-5.7-0.5l-0.4,4.8l4.7,0.4l-0.1,0.7l-4.7-0.4l-0.4,4.9l6,0.5l-0.1,0.7
		l-6.7-0.5L1300.2,456.7z"/>
	<path class="st10" d="M1310.2,457.6l0.7,0.1l5.5,10c0.3,0.6,0.8,1.6,0.8,1.6l0,0c0,0,0-0.9,0.1-1.5l1.2-9.2l0.7,0.1l-1.5,11.7
		l-0.7-0.1l-5.5-10c-0.3-0.6-0.8-1.6-0.8-1.6l0,0c0,0,0,0.9-0.1,1.5l-1.2,9.2l-0.7-0.1L1310.2,457.6z"/>
	<path class="st10" d="M1325.8,460.6l-4.3-0.8l0.1-0.7l9.4,1.7l-0.1,0.7l-4.3-0.8l-2,10.9l-0.7-0.1L1325.8,460.6z"/>
</g>
<g class="st13">
	<linearGradient id="SVGID_1_" gradientUnits="userSpaceOnUse" x1="1587.302" y1="728.8102" x2="1298.4465" y2="528.0453">
		<stop  offset="0" style="stop-color:#3E7B88"/>
		<stop  offset="1" style="stop-color:#3E7B88;stop-opacity:0.5"/>
	</linearGradient>
	<path class="st14" d="M1548.5,734.1l-0.8-0.5c-5.5-3.3-5.7,0-8.5-6.6c-1.2-2.8-1.7-3.2-1.8-3.2c0,0-0.1,0-0.1,0.1
		c-0.5,0.1-1.5,0.4-2.6-0.8c-3-2.9-7.2-5.9-10.2-3.3c-4.4,3.7-11.1,5.7-17,0c-1.3-1.3-2.1-2.1-2.6-2.5c-1.3,0.2-17.2,2.1-24.4,2.7
		c-8.1,0.7-9.8-2.5-12.6-9.5c-2.5-6.2-8.5-7.5-8.8-7.5l-0.3-0.1l-0.2-0.2c-0.2-0.1-4.3-3.6-7-9.1c-0.9-1.8-2.2-3.3-3.8-5.1
		c-3-3.4-7.1-8.1-11.1-18c-4-9.9-12.1-11.6-17.9-12.9c-2.8-0.6-5-1.1-6.3-2.4c-3-3-5.3-3.1-9.2-3.2l-0.3,0
		c-4.4-0.1-10.3-6.9-10.9-7.7l-0.2-0.4c0,0-2.1-6.8-4-12.9c-1.6-5.2-9.9-4.1-10-4c-0.5,0-0.7,0-5.7-3.6c-2.7-1.9-3.3-1.9-5.3-2
		c-1.3,0-3.2,0-6.3-0.6c-8.2-1.4-13-4.1-13.2-4.2l-0.5-0.3v-8.2c-1-0.6-3.6-1.9-8.6-2.9c-1.8-0.4-3.1-0.8-3.3-1.8
		c-0.2-1.1,0.8-1.8,1.9-2.5c1.6-1,2.3-1.7,2.1-2.4c-0.7-1.7-1.9-1.8-5.2-1.8c-1.4,0-3,0-4.8-0.2c-5.6-0.6-6.6-6.8-6.3-9.9l0-0.3
		l1.7-2c-1.2-0.6-4.8-1.2-7.2-1.6c-2.1-0.3-4.2-0.7-5.9-1.1c-4.6-1.1-5.3-2.4-6-4.3c-0.1-0.3-0.2-0.6-0.4-1
		c-0.3-0.6-1.5-0.9-2.9-1.3c-1.9-0.5-4.6-1.2-7.2-3.1c-5.1-3.7-5.9-8.1-5.9-12.4c0-2.8,0.9-4.2,2.1-6.2c0.8-1.2,1.7-2.8,2.7-5.1
		c1.3-3-0.1-4.4-2.9-6.8c-1.6-1.4-3.4-3-4.5-5.2c-1.3-2.5-1.5-4.3-0.9-5.7c0.9-1.8,3-2.2,5-2.6c1.7-0.3,2.9,0.2,3.8,0.6
		c1.2,0.5,2,0.9,4-0.4c2.5-1.6,2.5-1.6,3.1-1.3l0.2,0.1c0.2,0,0.5-0.1,1-0.3c2.2-0.7,2.4-0.8,2.9-0.4l0.4,0.3l0,0.4
		c0.2,0.1,0.5,0.2,1.2,0.3c1.8,0.3,2.2-0.4,3-3.9c0.3-1.3,0.6-2.7,1.2-4.2c1.2-3.4,2.1-4.3,2.9-5c0.5-0.4,0.9-0.8,1.3-1.9
		c1-2.3,2.7-3.7,3.7-4.4l-2.8-6.3c-1.7,0.2-6,0.5-10.3-0.1c-1.5-0.2-2.6-0.8-3.3-1.7c-1.5-2.1-0.9-5.4-0.2-8.9
		c0.2-1.1,0.4-2.3,0.6-3.3c0.3-2.3,0.9-3.7,1.3-4.6c0.1-0.2,0.2-0.4,0.3-0.6c-0.1-0.1-0.4-0.2-1-0.5c-3.9-1.6-6.1-9.5-6.1-11.8
		c0-1.7,1.7-2.3,3.6-3c1.7-0.7,3.7-1.4,4.6-2.9l1.7,1c-1.3,2.1-3.7,3-5.6,3.8c-0.8,0.3-2.2,0.8-2.3,1.2c0,1.9,2.1,8.8,4.8,9.9
		c1.2,0.5,1.9,0.9,2.2,1.6c0.3,0.7,0,1.4-0.4,2.2c-0.4,0.9-0.9,2-1.2,4.1c-0.1,1.1-0.4,2.3-0.6,3.5c-0.6,2.9-1.1,6-0.1,7.4
		c0.4,0.5,1,0.8,1.9,0.9c5.2,0.7,10.5,0,10.6,0l0.8-0.1l4.1,9.5l-0.9,0.4c0,0-2.4,1.2-3.6,3.8c-0.7,1.5-1.3,2-1.8,2.6
		c-0.7,0.6-1.3,1.2-2.4,4.2c-0.5,1.5-0.8,2.8-1.1,4c-0.7,3.1-1.4,6.1-5.3,5.5c-1-0.2-2-0.4-2.5-1.1c-0.3,0.1-0.6,0.2-1,0.3
		c-1.3,0.4-2,0.6-2.5,0.4c-0.3,0.2-0.7,0.5-1.3,0.9c-2.9,1.9-4.5,1.2-5.9,0.6c-0.8-0.4-1.5-0.7-2.6-0.5c-1.8,0.4-3.2,0.7-3.5,1.5
		c-0.3,0.7,0,2,0.9,3.8c0.9,1.9,2.5,3.2,4,4.6c2.7,2.3,5.4,4.7,3.4,9.2c-1.1,2.5-2.1,4.1-2.9,5.3c-1.2,1.9-1.8,2.9-1.8,5.1
		c0,4.3,0.9,7.7,5,10.7c2.3,1.7,4.7,2.3,6.6,2.8c2,0.5,3.5,0.9,4.2,2.3c0.2,0.4,0.4,0.8,0.5,1.2c0.5,1.3,0.8,2,4.6,3
		c1.6,0.4,3.7,0.8,5.8,1.1c6,1,8.5,1.5,9,3c0.1,0.3,0.2,0.9-0.3,1.6l-1.5,1.8c0,1.4,0.1,6.9,4.5,7.4c1.7,0.2,3.3,0.2,4.6,0.2
		c3.3,0,5.9,0.1,7.1,3.1c0.9,2.3-1.4,3.9-2.9,4.8c-0.2,0.1-0.4,0.2-0.6,0.4c0.3,0.1,0.6,0.2,1.2,0.3c6.9,1.4,9.7,3.5,9.8,3.6
		l0.4,0.3v8c0,0.7,5.7,2.6,12,3.7c3,0.5,4.7,0.5,6,0.5c2.4,0,3.4,0.2,6.4,2.3c3.1,2.2,4.2,2.9,4.6,3.2c1.4-0.2,9.9-0.9,11.9,5.5
		c1.7,5.5,3.6,11.5,4,12.7c1.7,2,6.4,6.7,9.3,6.8l0.3,0c3.9,0.1,7,0.2,10.6,3.8c0.8,0.8,2.9,1.3,5.3,1.8c5.9,1.3,14.9,3.3,19.4,14.1
		c3.9,9.5,7.7,13.9,10.8,17.4c1.7,1.9,3.1,3.5,4.1,5.6c2.3,4.5,5.6,7.6,6.4,8.3c1.4,0.3,7.4,2.2,10,8.7c2.7,6.8,3.8,8.8,10.5,8.2
		c6.2-0.6,19.1-2.1,23.1-2.6c0-0.2,0.1-0.3,0.3-0.5c0.9-0.8,1.4-0.3,5.2,3.4c6.1,6,12.4,1.5,14.2,0c2.3-2,6.4-3,12.9,3.4
		c0.3,0.3,0.4,0.3,0.7,0.2c1.7-0.4,2.7,0.6,4.3,4.4c2.5,5.9,2.1,2.3,7.6,5.6l0.8,0.5L1548.5,734.1z M1299.8,527.9c0,0,0,0.1,0,0.1
		L1299.8,527.9z M1301,527.9L1301,527.9C1301,527.9,1301,527.9,1301,527.9z M1306,527.3L1306,527.3
		C1306,527.3,1306,527.3,1306,527.3z"/>
	<linearGradient id="SVGID_2_" gradientUnits="userSpaceOnUse" x1="1601.0901" y1="727.3304" x2="1304.3917" y2="521.1146">
		<stop  offset="0" style="stop-color:#3E7B88"/>
		<stop  offset="1" style="stop-color:#3E7B88;stop-opacity:0.5"/>
	</linearGradient>
	<path class="st15" d="M1528.2,718.8c-2.6-3.1-5.2-10-5.3-10.3c-0.3-1.1-0.5-1.6-0.6-1.8c-0.2,0.1-0.5,0.4-0.8,0.5
		c-1.2,0.9-3.1,2.3-5.9,1.9c-2.9-0.4-4.6-2.7-6.4-5.1c-1.9-2.7-4-5.4-8-6.5c-4.5-1.1-5.2-0.9-6.4-0.6c-1,0.3-2.3,0.6-5.5,0.6
		c-3.4,0-5.1-0.6-5.8-1.8c-0.9-1.8,0.5-3.9,2.7-7.2l0.2-0.3c2.9-4.3,2-6.7,0.2-11.5l-0.3-0.8c-1.6-4.2-10.1-7.3-15.2-9.2
		c-1-0.4-1.8-0.7-2.6-1c-1.7-0.7-4.5-1.2-7.5-1.9c-5.2-1.1-11.1-2.3-14-4.6c-2.8-2.2-3-3.2-2.2-5.1c0.3-0.7,0.6-1.6,0.6-3.3
		c0-1.8,0.3-3.3,0.6-4.7c0.6-2.8,1.1-5.2-0.5-9c-1.6-3.6-4.1-3.6-7.4-3.7c-1.6,0-3.2,0-4.9-0.5c-5.2-1.5-5.3-1.8-13.4-16.4l-0.3-0.5
		c-3.4-6.2-3.7-6.7-3.3-7.6c0.3-0.6,0.8-0.8,1.2-0.9c0.6-0.2,2.3-0.6,2.3-8.3c0-9.5-2.2-11.2-4.5-12.9c-1.7-1.3-3.7-2.7-4.6-7
		c-1-4.7-3.1-5.9-6-7.5c-2.5-1.4-5.6-3.2-8.6-7.8c-4.1-6.4-4.2-7.6-3.4-9.8c0.3-0.7,0.5-1.5,0.5-3c0-3.9-4.9-5.9-10.5-8.3
		c-1.2-0.5-2.4-1-3.6-1.6c-15.2-7-7.9-23.7-7.9-23.9l1.9,0.8c-0.3,0.6-6.5,15.1,6.8,21.2c1.2,0.6,2.4,1.1,3.6,1.6
		c6,2.6,11.7,5,11.7,10.2c0,1.9-0.4,2.9-0.7,3.7c-0.5,1.3-0.7,1.9,3.2,8c2.7,4.2,5.4,5.7,7.9,7.1c3,1.7,5.8,3.3,7,8.8
		c0.7,3.5,2.2,4.5,3.8,5.7c2.6,2,5.4,4,5.3,14.6c0,7.6-1.6,9.5-3.4,10.2c0.4,0.9,1.5,2.8,3,5.7l0.3,0.5c7.9,14.2,7.9,14.2,12.2,15.5
		c1.4,0.4,2.9,0.4,4.3,0.4c3.3,0,7.1,0.1,9.2,4.9c1.9,4.3,1.3,7.3,0.7,10.2c-0.3,1.4-0.6,2.8-0.6,4.3c0,2-0.5,3.2-0.8,4
		c-0.4,1-0.4,1.1,1.6,2.8c2.4,2,8.1,3.1,13.1,4.1c3.1,0.6,6,1.2,7.8,2c0.7,0.3,1.6,0.6,2.5,0.9c5.8,2.1,14.5,5.3,16.4,10.3l0.3,0.8
		c1.9,4.9,3.1,8.1-0.4,13.4l-0.2,0.3c-1.4,2.1-3,4.4-2.6,5.1c0.1,0.2,0.7,0.8,4,0.8c2.9,0,4-0.3,4.9-0.6c1.6-0.5,2.6-0.6,7.5,0.6
		c4.7,1.2,7.2,4.5,9.1,7.2c1.6,2.2,2.9,4,5,4.3c2,0.3,3.4-0.8,4.5-1.6c0.9-0.7,1.7-1.3,2.7-0.9c1,0.4,1.4,1.6,1.8,3.3l0,0
		c0,0,2.5,6.7,4.9,9.6L1528.2,718.8z"/>
</g>
<path class="st10" d="M1148.2,702.1C1148.3,702,1148.3,702.1,1148.2,702.1L1148.2,702.1z"/>
<path class="st10" d="M1147.9,702.1c0.1,0,0.2,0,0.2,0C1148.1,702.1,1148,702.1,1147.9,702.1z"/>
<path class="st10" d="M1147.2,702.3c0.2,0,0.3-0.1,0.4-0.1C1147.5,702.2,1147.4,702.2,1147.2,702.3z"/>
<path class="st10" d="M1147.6,702.2c0.1,0,0.2,0,0.3-0.1C1147.9,702.1,1147.8,702.2,1147.6,702.2z"/>
<path class="st10" d="M1136.8,704.2c-0.3,0.1-0.6,0.1-0.9,0.2C1136.1,704.3,1136.4,704.2,1136.8,704.2z"/>
<path class="st10" d="M1134.7,704.6C1134.7,704.6,1134.7,704.6,1134.7,704.6L1134.7,704.6z"/>
<path class="st10" d="M1134.8,704.5c0,0-0.1,0-0.1,0C1134.7,704.6,1134.8,704.6,1134.8,704.5z"/>
<path class="st10" d="M1135.9,704.4c-0.4,0.1-0.6,0.1-0.8,0.1C1135.3,704.5,1135.6,704.4,1135.9,704.4z"/>
<path class="st10" d="M1145.4,702.6c0.7-0.1,1.3-0.2,1.7-0.3C1146.6,702.4,1146,702.5,1145.4,702.6z"/>
<path class="st10" d="M1139.4,703.7c-0.5,0.1-1,0.2-1.4,0.3C1138.5,703.9,1139,703.8,1139.4,703.7z"/>
<path class="st10" d="M1145.4,704c-1.3,0.2-3.1,0-5.5,1h0C1141.7,704,1143.8,704.3,1145.4,704z"/>
</svg>
