<?xml version="1.0" encoding="utf-8"?>
<!-- Generator: Adobe Illustrator 19.2.1, SVG Export Plug-In . SVG Version: 6.00 Build 0)  -->
<svg version="1.1" id="Layer_1" xmlns="http://www.w3.org/2000/svg" xmlns:xlink="http://www.w3.org/1999/xlink" x="0px" y="0px"
	 viewBox="0 0 224.1 48.9" style="enable-background:new 0 0 224.1 48.9;" xml:space="preserve">
<style type="text/css">
	.st0{opacity:0.6;}
	.st1{fill:#FFFFFF;}
	.st2{opacity:0.6;fill:#FFFFFF;}
	.st3{font-family:'Heuristica-Bold';}
	.st4{font-size:20px;}
</style>
<g>
	<g class="st0">
		<path class="st1" d="M98.1,13.5c-0.3,0-0.5-0.1-0.7-0.3c-0.4-0.4-0.4-1,0-1.4l12.3-12.3c0.4-0.4,1-0.4,1.4,0s0.4,1,0,1.4
			L98.8,13.2C98.6,13.4,98.4,13.5,98.1,13.5z"/>
		<path class="st1" d="M122.7,13.5c-0.3,0-0.5-0.1-0.7-0.3L109.7,1c-0.4-0.4-0.4-1,0-1.4s1-0.4,1.4,0l12.3,12.3c0.4,0.4,0.4,1,0,1.4
			C123.2,13.4,122.9,13.5,122.7,13.5z"/>
	</g>
	<rect x="-1.6" y="19" class="st2" width="224.1" height="29.5"/>
	<text transform="matrix(1 0 0 1 4.073 41.1688)" class="st3 st4">NORMAN E. BORLAUG</text>
</g>
</svg>
