<?xml version="1.0" encoding="utf-8"?>
<!-- Generator: Adobe Illustrator 19.2.1, SVG Export Plug-In . SVG Version: 6.00 Build 0)  -->
<svg version="1.1" id="Layer_1" xmlns="http://www.w3.org/2000/svg" xmlns:xlink="http://www.w3.org/1999/xlink" x="0px" y="0px"
	 viewBox="0 0 224.1 48.9" style="enable-background:new 0 0 224.1 48.9;" xml:space="preserve">
<style type="text/css">
	.st0{opacity:0.6;}
	.st1{fill:#FFFFFF;}
	.st2{opacity:0.6;fill:#FFFFFF;}
	.st3{font-family:'Heuristica-Bold';}
	.st4{font-size:20px;}
</style>
<g>
	<g class="st0">
		<path class="st1" d="M124.3,34.6c0.3,0,0.5,0.1,0.7,0.3c0.4,0.4,0.4,1,0,1.4l-12.3,12.3c-0.4,0.4-1,0.4-1.4,0
			c-0.4-0.4-0.4-1,0-1.4l12.3-12.3C123.8,34.7,124.1,34.6,124.3,34.6z"/>
		<path class="st1" d="M99.8,34.6c0.3,0,0.5,0.1,0.7,0.3l12.3,12.3c0.4,0.4,0.4,1,0,1.4s-1,0.4-1.4,0L99.1,36.3
			c-0.4-0.4-0.4-1,0-1.4C99.3,34.7,99.5,34.6,99.8,34.6z"/>
	</g>
	<rect class="st2" width="224.1" height="29.5"/>
	<text transform="matrix(1 0 0 1 32.5752 22.1728)" class="st3 st4">ORVILLE VOGEL </text>
</g>
</svg>
