<?xml version="1.0" encoding="utf-8"?>
<!-- Generator: Adobe Illustrator 19.2.1, SVG Export Plug-In . SVG Version: 6.00 Build 0)  -->
<svg version="1.1" id="Layer_1" xmlns="http://www.w3.org/2000/svg" xmlns:xlink="http://www.w3.org/1999/xlink" x="0px" y="0px"
	 viewBox="0 0 224.1 57.3" style="enable-background:new 0 0 224.1 57.3;" xml:space="preserve">
<style type="text/css">
	.st0{opacity:0.6;}
	.st1{fill:#FFFFFF;}
	.st2{opacity:0.6;fill:#FFFFFF;}
	.st3{font-family:'Heuristica-Bold';}
	.st4{font-size:15px;}
</style>
<g>
	<g class="st0">
		<path class="st1" d="M100.2,15.7c-0.3,0-0.5-0.1-0.7-0.3c-0.4-0.4-0.4-1,0-1.4l12.3-12.3c0.4-0.4,1-0.4,1.4,0s0.4,1,0,1.4
			l-12.3,12.3C100.7,15.6,100.4,15.7,100.2,15.7z"/>
		<path class="st1" d="M124.7,15.7c-0.3,0-0.5-0.1-0.7-0.3L111.7,3.1c-0.4-0.4-0.4-1,0-1.4s1-0.4,1.4,0L125.4,14
			c0.4,0.4,0.4,1,0,1.4C125.2,15.6,125,15.7,124.7,15.7z"/>
	</g>
	<rect x="20.7" y="26.4" class="st2" width="181.6" height="29.5"/>
	<text transform="matrix(1 0 0 1 26.7249 45.9121)" class="st3 st4">EDWIN J. WELLHAUSEN</text>
</g>
</svg>
