<?xml version="1.0" encoding="utf-8"?>
<!-- Generator: Adobe Illustrator 19.2.1, SVG Export Plug-In . SVG Version: 6.00 Build 0)  -->
<svg version="1.1" id="Layer_1" xmlns="http://www.w3.org/2000/svg" xmlns:xlink="http://www.w3.org/1999/xlink" x="0px" y="0px"
	 viewBox="0 0 45 45" style="enable-background:new 0 0 45 45;" xml:space="preserve">
<title>Button</title>
<path d="M22.5,0C10.1,0,0,10.1,0,22.5S10.1,45,22.5,45C34.9,45,45,34.9,45,22.5C45,10.1,34.9,0,22.5,0C22.5,0,22.5,0,22.5,0z
	 M21.3,31.8h-12V13.2h11.6v3.9h-7.1v3.4h5.7v3.9h-5.7v3.5h7.5C21.3,27.9,21.3,31.8,21.3,31.8z M30,32.1c-2.5,0-5-0.9-6.8-2.6
	l2.4-3.5c1.2,1.1,2.8,1.8,4.4,1.9c0.9,0,2-0.4,2-1.5c0-2.2-8.4-2.1-8.4-7.9c0-3.4,2.9-5.7,6.6-5.7c2.2-0.1,4.4,0.7,6,2.1l-1.9,3.7
	c-1.2-1-2.6-1.5-4.1-1.6c-0.9,0-2,0.4-2,1.5c0,2.3,8.4,1.9,8.4,7.8C36.5,29.4,34.2,32.1,30,32.1z"/>
</svg>
