<?xml version="1.0" encoding="utf-8"?>
<!-- Generator: Adobe Illustrator 19.2.1, SVG Export Plug-In . SVG Version: 6.00 Build 0)  -->
<svg version="1.1" id="Layer_1" xmlns="http://www.w3.org/2000/svg" xmlns:xlink="http://www.w3.org/1999/xlink" x="0px" y="0px"
	 viewBox="0 0 45 45" style="enable-background:new 0 0 45 45;" xml:space="preserve">
<title>Button</title>
<path d="M22.5,0C10.1,0,0,10.1,0,22.5S10.1,45,22.5,45C34.9,45,45,34.9,45,22.5C45,10.1,34.9,0,22.5,0C22.5,0,22.5,0,22.5,0z
	 M37,23.7H23.7V37c0,0.7-0.5,1.2-1.2,1.2c-0.7,0-1.2-0.5-1.2-1.2V23.7H8c-0.7,0-1.2-0.5-1.2-1.2c0-0.7,0.5-1.2,1.2-1.2h13.3V8
	c0-0.7,0.5-1.2,1.2-1.2c0.7,0,1.2,0.5,1.2,1.2c0,0,0,0,0,0v13.3H37c0.7,0,1.2,0.5,1.2,1.2C38.2,23.2,37.7,23.7,37,23.7z"/>
</svg>
