<?xml version="1.0" encoding="utf-8"?>
<!-- Generator: Adobe Illustrator 19.2.1, SVG Export Plug-In . SVG Version: 6.00 Build 0)  -->
<svg version="1.1" id="Layer_1" xmlns="http://www.w3.org/2000/svg" xmlns:xlink="http://www.w3.org/1999/xlink" x="0px" y="0px"
	 viewBox="0 0 80.7 80.9" style="enable-background:new 0 0 80.7 80.9;" xml:space="preserve">
<style type="text/css">
	.st0{fill:#231F20;}
	.st1{opacity:0.17;fill:#231F20;}
</style>
<g>
	<path class="st0" d="M26.4,12C15.7,12,7,20.2,7,31c0,2.8,0.6,4,1.7,7.5h0l17.6,32.2l17.9-31.4c1.1-2.4,1.7-5,1.7-7.9
		C45.9,20.6,37.2,12,26.4,12z M40.4,32.2H27.3v13.1c0,0.5-0.4,0.9-0.9,0.9s-0.9-0.4-0.9-0.9V32.2H12.5c-0.5,0-0.9-0.4-0.9-0.9
		s0.4-0.9,0.9-0.9h13.1V17.4c0-0.5,0.4-0.9,0.9-0.9s0.9,0.4,0.9,0.9v13.1h13.1c0.5,0,0.9,0.4,0.9,0.9S40.9,32.2,40.4,32.2z"/>
	<path class="st1" d="M61.6,49.1c-10.8,0-24.4,3-30.8,7c-1.7,1-1.8,1.5-2.7,2.7h0l-1.6,11.9l36.7-11.6c2.6-0.9,4.7-1.8,6.4-2.9
		C76,52.3,72.4,49.1,61.6,49.1z M63.6,56.6H50.4l-7.9,4.8c-0.3,0.2-0.9,0.3-1.4,0.3s-0.6-0.1-0.3-0.3l7.9-4.8H35.6
		c-0.5,0-0.6-0.1-0.3-0.3c0.3-0.2,0.9-0.3,1.4-0.3h13.1l7.9-4.8c0.3-0.2,0.9-0.3,1.4-0.3c0.5,0,0.6,0.1,0.3,0.3L51.4,56h13.1
		c0.5,0,0.6,0.1,0.3,0.3C64.6,56.4,64,56.6,63.6,56.6z"/>
</g>
</svg>
