<svg id="Layer_1" data-name="Layer 1" xmlns="http://www.w3.org/2000/svg" viewBox="0 0 44.99 45"><defs><style>.cls-1{fill:#fff;}</style></defs><title>Button</title><path class="cls-1" d="M22.49,0A22.5,22.5,0,1,0,45,22.5,22.5,22.5,0,0,0,22.49,0ZM21.28,31.8h-12V13.2H20.91v3.9h-7.1v3.38h5.67v3.9H13.82V27.9h7.46v3.9ZM30,32.11a9.6,9.6,0,0,1-6.79-2.65L25.57,26A7.7,7.7,0,0,0,30,27.92c0.94,0,2-.36,2-1.48,0-2.21-8.37-2.13-8.37-7.85,0-3.43,2.89-5.69,6.58-5.69a8.43,8.43,0,0,1,6,2.11l-1.92,3.72a7.09,7.09,0,0,0-4.11-1.64c-0.94,0-2,.42-2,1.46,0,2.34,8.37,1.92,8.37,7.8C36.51,29.43,34.15,32.11,30,32.11Z"/></svg>