<?xml version="1.0" encoding="utf-8"?>
<!-- Generator: Adobe Illustrator 19.2.1, SVG Export Plug-In . SVG Version: 6.00 Build 0)  -->
<svg version="1.1" id="Layer_1" xmlns="http://www.w3.org/2000/svg" xmlns:xlink="http://www.w3.org/1999/xlink" x="0px" y="0px"
	 viewBox="0 0 45 45" style="enable-background:new 0 0 45 45;" xml:space="preserve">
<title>Button</title>
<path d="M22.5,0C10.1,0,0,10.1,0,22.5S10.1,45,22.5,45C34.9,45,45,34.9,45,22.5C45,10.1,34.9,0,22.5,0C22.5,0,22.5,0,22.5,0z
	 M32.1,35.4H12.7c-1.1,0-2.1-0.9-2.1-2.1c0-1.1,0.9-2.1,2.1-2.1h19.4c1.1,0,2.1,0.9,2.1,2.1C34.2,34.4,33.3,35.4,32.1,35.4z
	 M32.1,25H12.7c-1.1,0-2.1-0.9-2.1-2.1c0-1.1,0.9-2.1,2.1-2.1h19.4c1.1,0,2.1,0.9,2.1,2.1C34.2,24.1,33.3,25,32.1,25z M32.1,14.6
	H12.7c-1.1,0-2.1-0.9-2.1-2.1s0.9-2.1,2.1-2.1h19.4c1.1,0,2.1,0.9,2.1,2.1S33.3,14.6,32.1,14.6z"/>
</svg>
