<?xml version="1.0" encoding="utf-8"?>
<!-- Generator: Adobe Illustrator 19.2.1, SVG Export Plug-In . SVG Version: 6.00 Build 0)  -->
<svg version="1.1" id="Layer_1" xmlns="http://www.w3.org/2000/svg" xmlns:xlink="http://www.w3.org/1999/xlink" x="0px" y="0px"
	 viewBox="0 0 45.1 45.3" style="enable-background:new 0 0 45.1 45.3;" xml:space="preserve">
<style type="text/css">
	.st0{opacity:0.7;fill:#FFFFFF;enable-background:new    ;}
	.st1{opacity:0.88;fill:none;stroke:#010101;stroke-width:5;stroke-linecap:round;stroke-miterlimit:10;enable-background:new    ;}
	.st2{enable-background:new    ;}
	.st3{fill:#FFFFFF;}
	.st4{opacity:0.8;enable-background:new    ;}
	.st5{opacity:0.88;fill:#FFFFFF;enable-background:new    ;}
	.st6{fill:#010101;}
	.st7{opacity:0.7;enable-background:new    ;}
</style>
<path class="st0" d="M-558.7,432.3c-13.5,0-24.5,11-24.5,24.5s11,24.5,24.5,24.5s24.5-11,24.5-24.5S-545.1,432.3-558.7,432.3z
	 M-542.9,457.7H-558v14.9c0,0.4-0.1,0.7-0.5,0.7s-0.5-0.3-0.5-0.7v-14.9h-15.4c-0.4,0-0.7-0.1-0.7-0.5s0.3-0.5,0.7-0.5h15.4v-15.6
	c0-0.4,0.1-0.7,0.5-0.7s0.5,0.3,0.5,0.7v15.6h15.1c0.4,0,0.7,0.1,0.7,0.5S-542.5,457.7-542.9,457.7z"/>
<path class="st1" d="M-1.3,15.9"/>
<text transform="matrix(1 0 0 1 -167.3786 26.6899)" class="st3" style="font-family:'MuseoSans-900'; font-size:13px;">NEOLITIC REVOLUTION</text>
<text transform="matrix(1 0 0 1 -143.3932 75.7067)" class="st3" style="font-family:'MuseoSans-900'; font-size:13px;">ORIGINS OF WHEAT</text>
<text transform="matrix(1 0 0 1 -182.2887 124.7233)" class="st3" style="font-family:'MuseoSans-900'; font-size:13px;">BRANDING AGRICULTURE</text>
<text transform="matrix(1 0 0 1 -188.3991 173.7399)" class="st3" style="font-family:'MuseoSans-900'; font-size:13px;">WHEAT’S DOMESTICATION</text>
<text transform="matrix(1 0 0 1 -144.9665 222.7565)" class="st3" style="font-family:'MuseoSans-900'; font-size:13px;">FROM SEED TO CITY</text>
<text transform="matrix(1 0 0 1 -139.3509 271.7736)" class="st3" style="font-family:'MuseoSans-900'; font-size:13px;">CULTURE &amp; WHEAT</text>
<text transform="matrix(1 0 0 1 -188.4896 320.7902)" class="st3" style="font-family:'MuseoSans-900'; font-size:13px;">SPREAD OF A REVOLUTION</text>
<text transform="matrix(1 0 0 1 -144.1087 369.8068)" class="st3" style="font-family:'MuseoSans-900'; font-size:13px;">WHEAT’S DIASPORA</text>
<text transform="matrix(1 0 0 1 -82.8275 -453.0028)" style="opacity:0.8;fill:#FFFFFF;enable-background:new    ; font-family:'Heuristica-Italic'; font-size:15px;">scroll down</text>
<text transform="matrix(1 0 0 1 -88.3274 -366.0331)" style="opacity:0.8;fill:#FFFFFF;enable-background:new    ; font-family:'Heuristica-Italic'; font-size:15px;">instructions</text>
<rect x="-48.8" y="409.9" class="st5" width="85.7" height="85.7"/>
<text transform="matrix(1 0 0 1 -35.6564 456.8459)" class="st6" style="font-family:'MuseoSans-300'; font-size:12.2008px;">ESPAÑOL</text>
<path class="st0" d="M18.6-474.3c-10.2,0-18.4,8.2-18.4,18.4s8.2,18.4,18.4,18.4S37-445.7,37-455.9S28.7-474.3,18.6-474.3z
	 M31.4-455.5l-12.1,12.1c-0.2,0.2-0.4,0.3-0.7,0.3s-0.5-0.1-0.7-0.3L5.7-455.5c-0.4-0.4-0.4-1,0-1.4s1-0.4,1.4,0l10.5,10.5v-21.3
	c0-0.5,0.4-1,1-1s1,0.4,1,1v21.3L30-456.9c0.4-0.4,1-0.4,1.4,0S31.8-455.9,31.4-455.5z"/>
<path class="st0" d="M18.6-390.2C8.3-390.2,0-381.9,0-371.6S8.3-353,18.6-353s18.6-8.3,18.6-18.6S28.8-390.2,18.6-390.2z
	 M16.2-357.7c-1.4,0-2.2-1-2.2-2.2c0-1.6,1-2.6,2.5-2.6c1.4,0,2.2,1,2.2,2.2C18.7-358.8,17.7-357.7,16.2-357.7z M22.2-374.4
	c-2.5,1.3-4.4,2.6-4.4,4.6c0,1.7,1.2,2.2,2.5,2.2c0.7,0,1.2-0.1,1.7-0.1l0.2,0.7c-0.8,0.6-2.5,1.2-3.8,1.2c-1.9,0-4-0.9-4-3.3
	c0-1.8,1.4-3.2,4-4.8c3.7-2.2,5.2-4.9,5.2-7.4c0-1.6-0.7-2.8-2.3-2.8c-1.9,0-3,1.9-3.9,4c-0.2,0.4-0.5,0.7-1.2,0.7
	c-0.6,0-1.7-0.6-1.7-1.7c0-1.6,2.2-4.4,6.6-4.4c3.7,0,6.1,2,6.1,4.9C27.1-377.3,25.2-375.9,22.2-374.4z"/>
<path class="st7" d="M22.8,8.4C15,8.4,8.7,14.7,8.7,22.5S15,36.7,22.8,36.7S37,30.4,37,22.5S30.7,8.4,22.8,8.4z M31.9,24.9l-6,6
	c-0.2,0.2-0.6,0.4-0.9,0.4s-0.6-0.1-0.9-0.4c-0.5-0.5-0.5-1.3,0-1.7l3.9-3.9H17.9c-0.7,0-1.2-0.5-1.2-1.2v-9.5
	c0-0.7,0.5-1.2,1.2-1.2s1.2,0.5,1.2,1.2v8.3H28L24.1,19c-0.5-0.5-0.5-1.3,0-1.7c0.5-0.5,1.3-0.5,1.7,0l6,6c0.2,0.2,0.4,0.5,0.4,0.9
	C32.2,24.4,32.1,24.7,31.9,24.9z"/>
<path class="st0" d="M22.8,57.4c-7.8,0-14.2,6.3-14.2,14.2S15,85.7,22.8,85.7S37,79.4,37,71.5S30.7,57.4,22.8,57.4z M31.9,73.9l-6,6
	c-0.2,0.2-0.6,0.4-0.9,0.4s-0.6-0.1-0.9-0.4c-0.5-0.5-0.5-1.3,0-1.7l3.9-3.9H17.9c-0.7,0-1.2-0.5-1.2-1.2v-9.5
	c0-0.7,0.5-1.2,1.2-1.2s1.2,0.5,1.2,1.2v8.3H28L24.1,68c-0.5-0.5-0.5-1.3,0-1.7c0.5-0.5,1.3-0.5,1.7,0l6,6c0.2,0.2,0.4,0.5,0.4,0.9
	C32.2,73.4,32.1,73.7,31.9,73.9z"/>
<path class="st0" d="M22.8,106.4c-7.8,0-14.2,6.3-14.2,14.2s6.3,14.2,14.2,14.2S37,128.4,37,120.6S30.7,106.4,22.8,106.4z
	 M31.9,122.9l-6,6c-0.2,0.2-0.6,0.4-0.9,0.4s-0.6-0.1-0.9-0.4c-0.5-0.5-0.5-1.3,0-1.7l3.9-3.9H17.9c-0.7,0-1.2-0.5-1.2-1.2v-9.5
	c0-0.7,0.5-1.2,1.2-1.2s1.2,0.5,1.2,1.2v8.3H28l-3.9-3.9c-0.5-0.5-0.5-1.3,0-1.7c0.5-0.5,1.3-0.5,1.7,0l6,6c0.2,0.2,0.4,0.5,0.4,0.9
	C32.2,122.4,32.1,122.7,31.9,122.9z"/>
<path class="st0" d="M22.8,155.4c-7.8,0-14.2,6.3-14.2,14.2c0,7.8,6.3,14.2,14.2,14.2S37,177.4,37,169.6
	C37,161.8,30.7,155.4,22.8,155.4z M31.9,171.9l-6,6c-0.2,0.2-0.6,0.4-0.9,0.4s-0.6-0.1-0.9-0.4c-0.5-0.5-0.5-1.3,0-1.7l3.9-3.9H17.9
	c-0.7,0-1.2-0.5-1.2-1.2v-9.5c0-0.7,0.5-1.2,1.2-1.2s1.2,0.5,1.2,1.2v8.3H28l-3.9-3.9c-0.5-0.5-0.5-1.3,0-1.7c0.5-0.5,1.3-0.5,1.7,0
	l6,6c0.2,0.2,0.4,0.5,0.4,0.9C32.2,171.4,32.1,171.7,31.9,171.9z"/>
<path class="st0" d="M22.8,204.4c-7.8,0-14.2,6.3-14.2,14.2c0,7.8,6.3,14.2,14.2,14.2S37,226.4,37,218.6
	C37,210.8,30.7,204.4,22.8,204.4z M31.9,221l-6,6c-0.2,0.2-0.6,0.4-0.9,0.4s-0.6-0.1-0.9-0.4c-0.5-0.5-0.5-1.3,0-1.7l3.9-3.9H17.9
	c-0.7,0-1.2-0.5-1.2-1.2v-9.5c0-0.7,0.5-1.2,1.2-1.2s1.2,0.5,1.2,1.2v8.3H28l-3.9-3.9c-0.5-0.5-0.5-1.3,0-1.7c0.5-0.5,1.3-0.5,1.7,0
	l6,6c0.2,0.2,0.4,0.5,0.4,0.9C32.2,220.4,32.1,220.7,31.9,221z"/>
<path class="st0" d="M22.8,253.4c-7.8,0-14.2,6.3-14.2,14.2s6.3,14.2,14.2,14.2S37,275.4,37,267.6S30.7,253.4,22.8,253.4z M31.9,270
	l-6,6c-0.2,0.2-0.6,0.4-0.9,0.4s-0.6-0.1-0.9-0.4c-0.5-0.5-0.5-1.3,0-1.7l3.9-3.9H17.9c-0.7,0-1.2-0.5-1.2-1.2v-9.5
	c0-0.7,0.5-1.2,1.2-1.2s1.2,0.5,1.2,1.2v8.3H28l-3.9-3.9c-0.5-0.5-0.5-1.3,0-1.7c0.5-0.5,1.3-0.5,1.7,0l6,6c0.2,0.2,0.4,0.5,0.4,0.9
	C32.2,269.4,32.1,269.7,31.9,270z"/>
<path class="st0" d="M22.8,302.5c-7.8,0-14.2,6.3-14.2,14.2s6.3,14.2,14.2,14.2S37,324.5,37,316.6S30.7,302.5,22.8,302.5z M31.9,319
	l-6,6c-0.2,0.2-0.6,0.4-0.9,0.4s-0.6-0.1-0.9-0.4c-0.5-0.5-0.5-1.3,0-1.7l3.9-3.9H17.9c-0.7,0-1.2-0.5-1.2-1.2v-9.5
	c0-0.7,0.5-1.2,1.2-1.2s1.2,0.5,1.2,1.2v8.3H28l-3.9-3.9c-0.5-0.5-0.5-1.3,0-1.7c0.5-0.5,1.3-0.5,1.7,0l6,6c0.2,0.2,0.4,0.5,0.4,0.9
	C32.2,318.5,32.1,318.8,31.9,319z"/>
<path class="st0" d="M22.8,351.5c-7.8,0-14.2,6.3-14.2,14.2s6.3,14.2,14.2,14.2S37,373.5,37,365.6S30.7,351.5,22.8,351.5z M31.9,368
	l-6,6c-0.2,0.2-0.6,0.4-0.9,0.4s-0.6-0.1-0.9-0.4c-0.5-0.5-0.5-1.3,0-1.7l3.9-3.9H17.9c-0.7,0-1.2-0.5-1.2-1.2v-9.5
	c0-0.7,0.5-1.2,1.2-1.2s1.2,0.5,1.2,1.2v8.3H28l-3.9-3.9c-0.5-0.5-0.5-1.3,0-1.7c0.5-0.5,1.3-0.5,1.7,0l6,6c0.2,0.2,0.4,0.5,0.4,0.9
	C32.2,367.5,32.1,367.8,31.9,368z"/>
</svg>
