<?xml version="1.0" encoding="utf-8"?>
<!-- Generator: Adobe Illustrator 19.2.1, SVG Export Plug-In . SVG Version: 6.00 Build 0)  -->
<svg version="1.1" id="Layer_1" xmlns="http://www.w3.org/2000/svg" xmlns:xlink="http://www.w3.org/1999/xlink" x="0px" y="0px"
	 viewBox="0 0 46.5 44.6" style="enable-background:new 0 0 46.5 44.6;" xml:space="preserve">
<style type="text/css">
	.st0{opacity:0.7;fill:#FFFFFF;}
	.st1{opacity:0.88;fill:none;stroke:#010101;stroke-width:5;stroke-linecap:round;stroke-miterlimit:10;}
	.st2{fill:#FFFFFF;}
	.st3{opacity:0.8;}
	.st4{opacity:0.88;fill-rule:evenodd;clip-rule:evenodd;fill:#FFFFFF;}
	.st5{fill:#010101;}
</style>
<path class="st0" d="M-553.8,910.5c-13.5,0-24.5,11-24.5,24.5s11,24.5,24.5,24.5s24.5-11,24.5-24.5S-540.2,910.5-553.8,910.5z
	 M-538,935.9h-15.1v14.9c0,0.4-0.1,0.7-0.5,0.7s-0.5-0.3-0.5-0.7v-14.9h-15.4c-0.4,0-0.7-0.1-0.7-0.5s0.3-0.5,0.7-0.5h15.4v-15.6
	c0-0.4,0.1-0.7,0.5-0.7s0.5,0.3,0.5,0.7v15.6h15.1c0.4,0,0.7,0.1,0.7,0.5S-537.6,935.9-538,935.9z"/>
<path class="st1" d="M3.6,494.1"/>
<text transform="matrix(1 0 0 1 -162.4829 504.8918)" class="st2" style="font-family:'MuseoSans-900'; font-size:13px;">NEOLITIC REVOLUTION</text>
<text transform="matrix(1 0 0 1 -138.4976 553.9087)" class="st2" style="font-family:'MuseoSans-900'; font-size:13px;">ORIGINS OF WHEAT</text>
<text transform="matrix(1 0 0 1 -177.3931 602.9253)" class="st2" style="font-family:'MuseoSans-900'; font-size:13px;">BRANDING AGRICULTURE</text>
<text transform="matrix(1 0 0 1 -183.5034 651.9419)" class="st2" style="font-family:'MuseoSans-900'; font-size:13px;">WHEAT’S DOMESTICATION</text>
<text transform="matrix(1 0 0 1 -140.0708 700.9585)" class="st2" style="font-family:'MuseoSans-900'; font-size:13px;">FROM SEED TO CITY</text>
<text transform="matrix(1 0 0 1 -134.4553 749.9756)" class="st2" style="font-family:'MuseoSans-900'; font-size:13px;">CULTURE &amp; WHEAT</text>
<text transform="matrix(1 0 0 1 -183.5939 798.9922)" class="st2" style="font-family:'MuseoSans-900'; font-size:13px;">SPREAD OF A REVOLUTION</text>
<text transform="matrix(1 0 0 1 -139.2131 848.0088)" class="st2" style="font-family:'MuseoSans-900'; font-size:13px;">WHEAT’S DIASPORA</text>
<text transform="matrix(1 0 0 1 -77.9319 25.1992)" style="opacity:0.8;fill:#FFFFFF; font-family:'Heuristica-Italic'; font-size:15px;">scroll down</text>
<text transform="matrix(1 0 0 1 -83.4318 112.1689)" style="opacity:0.8;fill:#FFFFFF; font-family:'Heuristica-Italic'; font-size:15px;">instructions</text>
<rect x="-43.9" y="888.1" class="st4" width="85.7" height="85.7"/>
<text transform="matrix(1 0 0 1 -30.7607 935.0479)" class="st5" style="font-family:'MuseoSans-300'; font-size:12.2008px;">ESPAÑOL</text>
<path class="st0" d="M23.4,3.9C13.3,3.9,5,12.1,5,22.3s8.2,18.4,18.4,18.4c10.2,0,18.4-8.2,18.4-18.4S33.6,3.9,23.4,3.9z M36.3,22.7
	L24.1,34.9c-0.2,0.2-0.4,0.3-0.7,0.3c-0.3,0-0.5-0.1-0.7-0.3L10.6,22.7c-0.4-0.4-0.4-1,0-1.4s1-0.4,1.4,0l10.5,10.5V10.4
	c0-0.5,0.4-1,1-1c0.5,0,1,0.4,1,1v21.3l10.5-10.5c0.4-0.4,1-0.4,1.4,0C36.7,21.7,36.7,22.3,36.3,22.7z"/>
<path class="st0" d="M23.4,88c-10.3,0-18.6,8.3-18.6,18.6s8.3,18.6,18.6,18.6s18.6-8.3,18.6-18.6S33.7,88,23.4,88z M21.1,120.5
	c-1.4,0-2.2-1-2.2-2.2c0-1.6,1-2.6,2.5-2.6c1.4,0,2.2,1,2.2,2.2C23.6,119.4,22.6,120.5,21.1,120.5z M27.1,103.8
	c-2.5,1.3-4.4,2.6-4.4,4.6c0,1.7,1.2,2.2,2.5,2.2c0.7,0,1.2-0.1,1.7-0.1l0.2,0.7c-0.8,0.6-2.5,1.2-3.8,1.2c-1.9,0-4-0.9-4-3.3
	c0-1.8,1.4-3.2,4-4.8c3.7-2.2,5.2-4.9,5.2-7.4c0-1.6-0.7-2.8-2.3-2.8c-1.9,0-3,1.9-3.9,4c-0.2,0.4-0.5,0.7-1.2,0.7
	c-0.6,0-1.7-0.6-1.7-1.7c0-1.6,2.2-4.4,6.6-4.4c3.7,0,6.1,2,6.1,4.9C32,100.9,30.1,102.3,27.1,103.8z"/>
<path class="st0" d="M27.7,486.6c-7.8,0-14.2,6.3-14.2,14.2s6.3,14.2,14.2,14.2s14.2-6.3,14.2-14.2S35.6,486.6,27.7,486.6z
	 M36.8,503.1l-6,6c-0.2,0.2-0.6,0.4-0.9,0.4s-0.6-0.1-0.9-0.4c-0.5-0.5-0.5-1.3,0-1.7l3.9-3.9H22.8c-0.7,0-1.2-0.5-1.2-1.2v-9.5
	c0-0.7,0.5-1.2,1.2-1.2s1.2,0.5,1.2,1.2v8.3H33l-3.9-3.9c-0.5-0.5-0.5-1.3,0-1.7c0.5-0.5,1.3-0.5,1.7,0l6,6c0.2,0.2,0.4,0.5,0.4,0.9
	C37.1,502.6,37,502.9,36.8,503.1z"/>
<path class="st0" d="M27.7,535.6c-7.8,0-14.2,6.3-14.2,14.2s6.3,14.2,14.2,14.2s14.2-6.3,14.2-14.2S35.6,535.6,27.7,535.6z
	 M36.8,552.1l-6,6c-0.2,0.2-0.6,0.4-0.9,0.4s-0.6-0.1-0.9-0.4c-0.5-0.5-0.5-1.3,0-1.7l3.9-3.9H22.8c-0.7,0-1.2-0.5-1.2-1.2v-9.5
	c0-0.7,0.5-1.2,1.2-1.2s1.2,0.5,1.2,1.2v8.3H33l-3.9-3.9c-0.5-0.5-0.5-1.3,0-1.7c0.5-0.5,1.3-0.5,1.7,0l6,6c0.2,0.2,0.4,0.5,0.4,0.9
	C37.1,551.6,37,551.9,36.8,552.1z"/>
<path class="st0" d="M27.7,584.6c-7.8,0-14.2,6.3-14.2,14.2s6.3,14.2,14.2,14.2s14.2-6.3,14.2-14.2S35.6,584.6,27.7,584.6z
	 M36.8,601.1l-6,6c-0.2,0.2-0.6,0.4-0.9,0.4s-0.6-0.1-0.9-0.4c-0.5-0.5-0.5-1.3,0-1.7l3.9-3.9H22.8c-0.7,0-1.2-0.5-1.2-1.2v-9.5
	c0-0.7,0.5-1.2,1.2-1.2s1.2,0.5,1.2,1.2v8.3H33l-3.9-3.9c-0.5-0.5-0.5-1.3,0-1.7c0.5-0.5,1.3-0.5,1.7,0l6,6c0.2,0.2,0.4,0.5,0.4,0.9
	C37.1,600.6,37,600.9,36.8,601.1z"/>
<path class="st0" d="M27.7,633.6c-7.8,0-14.2,6.3-14.2,14.2S19.9,662,27.7,662s14.2-6.3,14.2-14.2S35.6,633.6,27.7,633.6z
	 M36.8,650.1l-6,6c-0.2,0.2-0.6,0.4-0.9,0.4s-0.6-0.1-0.9-0.4c-0.5-0.5-0.5-1.3,0-1.7l3.9-3.9H22.8c-0.7,0-1.2-0.5-1.2-1.2v-9.5
	c0-0.7,0.5-1.2,1.2-1.2s1.2,0.5,1.2,1.2v8.3H33l-3.9-3.9c-0.5-0.5-0.5-1.3,0-1.7c0.5-0.5,1.3-0.5,1.7,0l6,6c0.2,0.2,0.4,0.5,0.4,0.9
	C37.1,649.6,37,649.9,36.8,650.1z"/>
<path class="st0" d="M27.7,682.6c-7.8,0-14.2,6.3-14.2,14.2S19.9,711,27.7,711s14.2-6.3,14.2-14.2S35.6,682.6,27.7,682.6z
	 M36.8,699.2l-6,6c-0.2,0.2-0.6,0.4-0.9,0.4s-0.6-0.1-0.9-0.4c-0.5-0.5-0.5-1.3,0-1.7l3.9-3.9H22.8c-0.7,0-1.2-0.5-1.2-1.2v-9.5
	c0-0.7,0.5-1.2,1.2-1.2s1.2,0.5,1.2,1.2v8.3H33l-3.9-3.9c-0.5-0.5-0.5-1.3,0-1.7c0.5-0.5,1.3-0.5,1.7,0l6,6c0.2,0.2,0.4,0.5,0.4,0.9
	C37.1,698.6,37,698.9,36.8,699.2z"/>
<path class="st0" d="M27.7,731.6c-7.8,0-14.2,6.3-14.2,14.2S19.9,760,27.7,760s14.2-6.3,14.2-14.2S35.6,731.6,27.7,731.6z
	 M36.8,748.2l-6,6c-0.2,0.2-0.6,0.4-0.9,0.4s-0.6-0.1-0.9-0.4c-0.5-0.5-0.5-1.3,0-1.7l3.9-3.9H22.8c-0.7,0-1.2-0.5-1.2-1.2v-9.5
	c0-0.7,0.5-1.2,1.2-1.2s1.2,0.5,1.2,1.2v8.3H33l-3.9-3.9c-0.5-0.5-0.5-1.3,0-1.7c0.5-0.5,1.3-0.5,1.7,0l6,6c0.2,0.2,0.4,0.5,0.4,0.9
	C37.1,747.6,37,748,36.8,748.2z"/>
<path class="st0" d="M27.7,780.7c-7.8,0-14.2,6.3-14.2,14.2S19.9,809,27.7,809s14.2-6.3,14.2-14.2S35.6,780.7,27.7,780.7z
	 M36.8,797.2l-6,6c-0.2,0.2-0.6,0.4-0.9,0.4s-0.6-0.1-0.9-0.4c-0.5-0.5-0.5-1.3,0-1.7l3.9-3.9H22.8c-0.7,0-1.2-0.5-1.2-1.2v-9.5
	c0-0.7,0.5-1.2,1.2-1.2s1.2,0.5,1.2,1.2v8.3H33l-3.9-3.9c-0.5-0.5-0.5-1.3,0-1.7c0.5-0.5,1.3-0.5,1.7,0l6,6c0.2,0.2,0.4,0.5,0.4,0.9
	C37.1,796.7,37,797,36.8,797.2z"/>
<path class="st0" d="M27.7,829.7c-7.8,0-14.2,6.3-14.2,14.2S19.9,858,27.7,858s14.2-6.3,14.2-14.2S35.6,829.7,27.7,829.7z
	 M36.8,846.2l-6,6c-0.2,0.2-0.6,0.4-0.9,0.4s-0.6-0.1-0.9-0.4c-0.5-0.5-0.5-1.3,0-1.7l3.9-3.9H22.8c-0.7,0-1.2-0.5-1.2-1.2v-9.5
	c0-0.7,0.5-1.2,1.2-1.2s1.2,0.5,1.2,1.2v8.3H33l-3.9-3.9c-0.5-0.5-0.5-1.3,0-1.7c0.5-0.5,1.3-0.5,1.7,0l6,6c0.2,0.2,0.4,0.5,0.4,0.9
	C37.1,845.7,37,846,36.8,846.2z"/>
</svg>
