<?xml version="1.0" encoding="utf-8"?>
<!-- Generator: Adobe Illustrator 19.2.1, SVG Export Plug-In . SVG Version: 6.00 Build 0)  -->
<svg version="1.1" id="Layer_1" xmlns="http://www.w3.org/2000/svg" xmlns:xlink="http://www.w3.org/1999/xlink" x="0px" y="0px"
	 viewBox="0 0 165.1 157.4" style="enable-background:new 0 0 165.1 157.4;" xml:space="preserve">
<style type="text/css">
	.st0{fill:#F1E9C6;}
</style>
<g sketch:type="MSPage">
	<g>
		<g transform="translate(-1.000000, -3.000000)" sketch:type="MSLayerGroup">
			<g sketch:type="MSShapeGroup">
				<path class="st0" d="M90.5,119.5H72.8c-3.3,0-6.1-2.7-6.1-6.1c0-1,0.2-1.9,0.7-2.8c-0.4-0.9-0.7-1.8-0.7-2.8
					c0-1.8,0.8-3.5,2.2-4.7V101C62.7,96.7,59,89.6,59,82c0-12.8,10.4-23.2,23.2-23.2c12.8,0,23.2,10.4,23.2,23.2
					c0,8.1-4.2,15.5-11,19.7v1.5c1.4,1.1,2.2,2.9,2.2,4.7c0,1-0.2,1.9-0.7,2.8c0.4,0.8,0.7,1.8,0.7,2.8
					C96.5,116.8,93.8,119.5,90.5,119.5z M82.2,62.1c-11,0-19.9,8.9-19.9,19.9c0,6.8,3.4,13.1,9.2,16.7l0.8,0.5v5.8l-0.8,0.5
					c-0.9,0.5-1.4,1.4-1.4,2.4c0,0.6,0.2,1.2,0.6,1.7l0.8,1l-0.8,1c-0.4,0.5-0.6,1.1-0.6,1.7c0,1.5,1.2,2.8,2.7,2.8h17.7
					c1.5,0,2.7-1.2,2.7-2.8c0-0.6-0.2-1.2-0.6-1.7l-0.8-1l0.8-1c0.4-0.5,0.6-1.1,0.6-1.7c0-1-0.5-1.9-1.4-2.4L91,105v-5.2l0.8-0.5
					c6.3-3.5,10.2-10.2,10.2-17.4C102.1,71,93.1,62.1,82.2,62.1z"/>
				
					<g transform="translate(32.026168, 14.000685) rotate(3.000000) translate(-32.026168, -14.000685) translate(1.026168, 2.000685)">
					<path class="st0" d="M82.8,41.3c0-1.2,1-2.2,2.2-2.2c1.2,0,2.2,1,2.2,2.2v6.6c0,1.2-1,2.2-2.2,2.2c-1.2,0-2.2-1-2.2-2.2V41.3z
						 M100.7,44.7c0.6-1.1,1.9-1.5,3-0.9c1.1,0.6,1.5,1.9,0.9,3l-3.1,5.8c-0.6,1.1-1.9,1.5-3,0.9c-1.1-0.6-1.5-1.9-0.9-3L100.7,44.7
						z M115,55.9c1-0.7,2.4-0.5,3.1,0.5c0.7,1,0.5,2.4-0.5,3.1l-5.4,3.8c-1,0.7-2.4,0.5-3.1-0.5c-0.7-1-0.5-2.4,0.5-3.1L115,55.9z
						 M52.4,59.6c-1-0.7-1.2-2.1-0.5-3.1c0.7-1,2.1-1.2,3.1-0.5l5.4,3.8c1,0.7,1.2,2.1,0.5,3.1c-0.7,1-2.1,1.2-3.1,0.5L52.4,59.6z
						 M65.3,46.7c-0.6-1.1-0.2-2.4,0.9-3c1.1-0.6,2.4-0.2,3,0.9l3.1,5.8c0.6,1.1,0.2,2.4-0.9,3c-1.1,0.6-2.4,0.2-3-0.9L65.3,46.7z"
						/>
				</g>
			</g>
			<path class="st0" d="M84.3,105.2l-3.3-0.1L81.4,88c-1.1,0.2-2.2,0.3-3.3,0c-1.6-0.4-2.9-1.5-3.6-3.1c-0.9-2-0.3-4.4-0.1-5
				c0.3-1.4,1.5-3.6,4.2-4c2.1-0.3,3.5,0.5,4.3,1.2c2,1.7,2,4.6,2,4.9l0,1.1c1.2-0.7,2.3-1.4,2.9-1.9l2,2.6c-0.4,0.3-2.4,1.9-5,3
				L84.3,105.2z M79.4,79.2c-0.1,0-0.3,0-0.5,0c-1,0.1-1.3,1.4-1.3,1.5l0,0.2c-0.1,0.4-0.4,1.8-0.1,2.7c0.3,0.7,0.8,1.1,1.4,1.3
				c0.7,0.2,1.6,0.1,2.5-0.2l0.1-2.6c0-0.4-0.2-1.8-0.9-2.4C80.5,79.4,80.2,79.2,79.4,79.2z"/>
			<rect x="68.4" y="109" class="st0" width="27.6" height="3.3"/>
			<rect x="69.5" y="102.4" class="st0" width="24.3" height="3.3"/>
		</g>
	</g>
</g>
</svg>
