<?xml version="1.0" encoding="utf-8"?>
<!-- Generator: Adobe Illustrator 19.2.1, SVG Export Plug-In . SVG Version: 6.00 Build 0)  -->
<svg version="1.1" id="Layer_1" xmlns="http://www.w3.org/2000/svg" xmlns:xlink="http://www.w3.org/1999/xlink" x="0px" y="0px"
	 viewBox="0 0 165.1 157.4" style="enable-background:new 0 0 165.1 157.4;" xml:space="preserve">
<style type="text/css">
	.st0{fill:#F1E9C6;}
</style>
<g>
	<g>
		<g>
			<path class="st0" d="M41.9,109.7c-1.2,0-2.1-0.9-2.1-2.1V71.8c0-1.2,0.9-2.1,2.1-2.1c1.2,0,2.1,0.9,2.1,2.1v35.9
				C44,108.8,43,109.7,41.9,109.7z"/>
			<g>
				<path class="st0" d="M34.5,66.6c-1.2,0-2.1-0.9-2.1-2.1V49.8c0-1.2,0.9-2.1,2.1-2.1c1.2,0,2.1,0.9,2.1,2.1v14.7
					C36.6,65.6,35.7,66.6,34.5,66.6z"/>
				<path class="st0" d="M41.9,66.6c-1.2,0-2.1-0.9-2.1-2.1V49.8c0-1.2,0.9-2.1,2.1-2.1c1.2,0,2.1,0.9,2.1,2.1v14.7
					C44,65.6,43,66.6,41.9,66.6z"/>
				<path class="st0" d="M49.2,66.6c-1.2,0-2.1-0.9-2.1-2.1V49.8c0-1.2,0.9-2.1,2.1-2.1c1.2,0,2.1,0.9,2.1,2.1v14.7
					C51.3,65.6,50.4,66.6,49.2,66.6z"/>
			</g>
			<path class="st0" d="M41.9,73.9c-5.2,0-9.4-4.2-9.4-9.4c0-1.2,0.9-2.1,2.1-2.1c1.2,0,2.1,0.9,2.1,2.1c0,2.9,2.4,5.2,5.3,5.2
				c2.9,0,5.3-2.3,5.3-5.2c0-1.2,0.9-2.1,2.1-2.1c1.2,0,2.1,0.9,2.1,2.1C51.3,69.7,47.1,73.9,41.9,73.9z"/>
		</g>
		<path class="st0" d="M83.8,109.7c-17.1,0-31-13.9-31-31c0-17.1,13.9-31,31-31c17.1,0,31,13.9,31,31
			C114.8,95.8,100.9,109.7,83.8,109.7z M83.8,51.9c-14.8,0-26.8,12-26.8,26.8s12,26.8,26.8,26.8s26.8-12,26.8-26.8
			S98.6,51.9,83.8,51.9z"/>
		<path class="st0" d="M83.8,97.8c-10.6,0-19.1-8.6-19.1-19.1s8.6-19.1,19.1-19.1s19.1,8.6,19.1,19.1S94.3,97.8,83.8,97.8z
			 M83.8,63.7c-8.2,0-15,6.7-15,15s6.7,15,15,15c8.2,0,15-6.7,15-15S92,63.7,83.8,63.7z"/>
		<path class="st0" d="M130.5,109.7h-7.2c-0.6,0-1.2-0.2-1.5-0.7c-0.4-0.4-0.6-1-0.5-1.6l1.5-15.3c-1-0.4-2.2-1-3.1-2.2
			c-1.3-1.7-1.6-4-0.9-6.8c0.4-1.6,0.8-4.6,1.3-8c1.8-13.8,3.8-25.5,9.9-27.4c0.6-0.2,1.3-0.1,1.9,0.3s0.9,1,0.9,1.7v57.9
			C132.6,108.8,131.7,109.7,130.5,109.7z M125.7,105.5h2.8V55.1c-2.3,5.2-3.5,15.1-4.2,20.5c-0.5,3.6-0.9,6.7-1.4,8.5
			c-0.3,1-0.4,2.4,0.2,3.2c0.7,0.9,2.1,1,2.1,1c0.6,0,1.1,0.3,1.5,0.7c0.4,0.4,0.6,1,0.5,1.6L125.7,105.5z"/>
	</g>
</g>
</svg>
