<?xml version="1.0" encoding="utf-8"?>
<!-- Generator: Adobe Illustrator 19.2.1, SVG Export Plug-In . SVG Version: 6.00 Build 0)  -->
<svg version="1.1" id="Layer_1" xmlns="http://www.w3.org/2000/svg" xmlns:xlink="http://www.w3.org/1999/xlink" x="0px" y="0px"
	 viewBox="0 0 165.1 157.4" style="enable-background:new 0 0 165.1 157.4;" xml:space="preserve">
<style type="text/css">
	.st0{fill:#F1E9C6;}
</style>
<g>
	<path class="st0" d="M87.9,99.3c-0.2-0.1-5.6-3.6-14.4-0.8c0-2.2-0.1-4.7-0.1-7.4c0-0.8,0-1.6-0.1-2.3l-0.1,0
		c-0.3-8.1-1.1-18-2.5-30.3C68.6,40,63.6,35.9,62,35c-0.2-0.1-0.4-0.2-0.5-0.2l0,0l0,0l-0.1,0l-0.1,0l0,0l0,0
		c-0.3,0-0.7,0.1-1.1,0.4c-0.1,0.1-0.2,0.2-0.3,0.3c-2.1,1.6-6.3,6.7-8.5,22.8c-0.8,5.6-1.4,11.3-2.1,17l0,0l0,0.1
		c-0.9,8-1.5,15.8-1.6,22.9c-8.7-3.1-14.2,0.3-14.4,0.5c-0.4,0.3-0.6,0.8-0.4,1.2c0.2,0.4,0.6,0.7,1.1,0.6
		c8.6-1.1,13.7,11.1,15.4,16c0.1,0.5,0.3,1,0.5,1.4c0.1,0.2,0.1,0.3,0.1,0.4l0,0.1l0,0c0.8,1.8,1.7,3.4,2.9,4.2
		c0.6,0.8,2.8,3.6,7.4,3.7s7-2.7,7.5-3.5c1.6-1.1,3.2-3.1,4.3-7.6c2.2-5.5,7.3-15.3,15.1-14.1c0.5,0.1,0.9-0.2,1.1-0.6
		C88.5,100,88.3,99.6,87.9,99.3z M71.4,105.7c-0.8-1.5-1.8-3.3-3.3-5.2c1.5-0.6,2.7-1.5,3.5-2.6C71.6,100.6,71.6,103.2,71.4,105.7z
		 M51.8,83.2c-0.1-0.5-0.3-1.1-0.3-1.6c0.5-0.1,1.3-0.1,2.1,0.1c0,0.5,0,1,0,1.5C53,83.1,52.3,83.1,51.8,83.2z M68.9,59.9
		c0.1,0.7,0.2,1.5,0.3,2.5c-0.9-0.1-1.7-0.1-2.3,0c0-0.8-0.1-1.5-0.1-2.3C67.1,59.9,67.9,59.8,68.9,59.9z M70.5,95.4
		c-1.2-0.2-2.3-0.1-3.2,0c0-0.8,0-1.6,0-2.3c0.8-0.1,2.2-0.2,3.8,0.1C71,94,70.8,94.7,70.5,95.4z M61.9,78.9c0.5-0.1,1.9-0.4,3.5,0
		c0,0.9,0,1.9,0.1,3c-1.4-0.3-2.7-0.2-3.5,0l0-3L61.9,78.9z M61.9,76.8l0-3c0.5-0.1,1.8-0.4,3.3,0c0,0.9,0.1,1.9,0.1,3
		C63.9,76.6,62.6,76.7,61.9,76.8z M62,71.8l0-3c0.5-0.1,1.7-0.3,3.1-0.1c0,0.9,0.1,1.9,0.1,3C63.8,71.6,62.7,71.7,62,71.8z M62,66.8
		l0-2.2c0.5-0.1,1.6-0.4,2.9,0.1l0-0.1c0,0.7,0.1,1.4,0.1,2.1C63.8,66.6,62.7,66.7,62,66.8z M62.1,59.8c0.4-0.1,1.4-0.3,2.7,0
		c0.1,0.8,0.1,1.7,0.2,2.7c-1.1-0.2-2.1-0.2-2.8,0l0-2.7L62.1,59.8z M64.6,57.7c-1-0.2-1.8-0.1-2.4,0l0-1.8c0.4-0.1,1.3-0.3,2.3-0.1
		C64.5,56.5,64.5,57.1,64.6,57.7z M62.2,47.3c0.4-0.1,0.8-0.1,1.4-0.1c0.1,0.6,0.2,1.2,0.2,1.8c-0.6-0.1-1.1,0-1.6,0L62.2,47.3z
		 M60.1,51.6c-1-0.1-1.8-0.1-2.6,0c0.1-1.2,0.3-2.3,0.4-3.4c0.6,0,1.3-0.1,2.1,0.1L60.1,51.6z M57.3,53.7c0.6-0.1,1.6-0.2,2.8,0
		l0,2.9c-1.2-0.1-2.3-0.1-3.1,0C57,55.5,57.2,54.6,57.3,53.7z M56.8,58.6c0.5-0.1,1.7-0.3,3.3-0.1l0,2.9c-1.4-0.2-2.8,0-3.4,0.1
		C56.7,60.5,56.7,59.6,56.8,58.6z M55.9,74c0.6-0.1,2.2-0.3,4,0.1l0,3c-1.6-0.3-3.2-0.2-4,0C55.8,75.9,55.9,75,55.9,74z M56,71.9
		c0-1,0.1-2,0.1-3c0.7-0.1,2.2-0.3,3.8,0.1l0,3C58.3,71.7,56.9,71.8,56,71.9z M55.8,79.1c0.5-0.1,2.2-0.4,4.1,0l0,3
		c-1.7-0.3-3.3-0.2-4.1,0C55.8,81,55.8,80,55.8,79.1z M60,67c-1.4-0.3-2.9-0.2-3.7-0.1c0.1-1.2,0.1-2.3,0.2-3.4l0,0.1
		c0,0,1.6-0.4,3.5-0.1L60,67z M61.9,83.9c0.5-0.1,2-0.4,3.6,0c0,1.2,0,2.6,0.1,3.9c-1.4-0.3-2.8-0.2-3.6,0l0-3.9L61.9,83.9z
		 M67.4,83.8c0.8-0.1,2.1-0.3,3.7,0.1c0.1,0.7,0.1,1.4,0.1,2c-1.5-0.3-2.9-0.2-3.8-0.1C67.5,85.1,67.5,84.4,67.4,83.8z M67.3,74
		c0.6-0.1,1.7-0.3,3.1-0.1c0.1,0.9,0.2,1.8,0.3,2.8c-1.3-0.2-2.4-0.1-3.3,0C67.3,75.7,67.3,74.8,67.3,74z M62.2,53.8l0-2.7
		c0.5-0.1,1.1-0.1,1.8,0c0.1,0.8,0.2,1.6,0.3,2.6C63.4,53.6,62.7,53.7,62.2,53.8z M62.3,45.1l0.1-5.3c0.3,1.2,0.7,2.9,1.1,5.2
		C62.9,45.1,62.6,45.1,62.3,45.1z M60.3,41.3c-0.3,0-0.6-0.1-0.8-0.1c0.3-1.1,0.6-1.9,0.8-2.5L60.3,41.3z M58.9,43.3
		c0.4,0,0.8,0,1.3,0.1l0,2.9c-0.7-0.1-1.3-0.1-1.8-0.1C58.5,45.1,58.7,44.1,58.9,43.3z M53.7,79.5c-0.9-0.2-1.7-0.1-2.4,0
		c-0.1-0.9-0.1-1.9-0.1-3.1l0.1,0.2c0,0,1.2-0.4,2.5-0.1C53.8,77.6,53.7,78.5,53.7,79.5z M55.6,84.1c0.4-0.1,2.2-0.4,4.1,0l0,3.1
		c-1.7-0.3-3.4-0.2-4.2,0C55.6,86.1,55.6,85.1,55.6,84.1z M61.8,89.9c0.6-0.1,2-0.4,3.7,0c0,0.6,0,1.3,0,1.9c-1.4-0.3-2.9-0.2-3.7,0
		L61.8,89.9z M67.4,97.4c0.5-0.1,1.1-0.1,1.8-0.1c-0.5,0.5-1.1,0.9-1.8,1.1C67.4,98.2,67.4,97.8,67.4,97.4z M71.5,91.2
		c-1.5-0.3-3-0.2-4-0.1c0-1,0-2.1,0-3.2c0.9-0.1,2.4-0.3,3.9,0.1c0,0.7,0.1,1.4,0.1,2.2C71.5,90.5,71.5,90.9,71.5,91.2z M67.4,81.6
		c0-1,0-1.9-0.1-3c0.7-0.1,2-0.3,3.4,0.1c0.1,0.9,0.2,1.9,0.2,2.9C69.5,81.4,68.3,81.5,67.4,81.6z M67.2,71.9c0-0.9-0.1-1.8-0.1-2.7
		c0.3-0.1,1.5-0.4,2.8,0c0.1,0.8,0.2,1.7,0.3,2.6C69,71.6,67.9,71.7,67.2,71.9z M67,67.1c0-0.9-0.1-1.8-0.1-2.8
		c0.5-0.1,1.4-0.2,2.4,0.1c0.1,0.8,0.2,1.7,0.3,2.6C68.7,66.9,67.6,67,67,67.1z M66.6,57.9c0-0.7-0.1-1.3-0.2-1.9
		c0.5-0.1,1.2-0.1,1.9,0.1c0.1,0.6,0.2,1.1,0.2,1.7C67.8,57.7,67.1,57.8,66.6,57.9z M66.4,53.9c-0.1-0.7-0.1-1.4-0.2-2.1
		c0.4-0.1,1-0.1,1.6,0c0.1,0.6,0.3,1.3,0.4,2C67.5,53.9,66.9,53.9,66.4,53.9z M66,49.8c0-0.4-0.1-0.8-0.1-1.2c0.3,0,0.8,0,1.2,0
		c0.1,0.4,0.2,0.7,0.3,1.1C66.8,49.8,66.3,49.8,66,49.8z M65.5,46.5c-0.2-1.7-0.5-3.3-0.8-4.6c0.5,1.2,1.1,2.7,1.7,4.5
		C66.1,46.5,65.8,46.5,65.5,46.5z M56.2,46.4L56.2,46.4l0,0.1c-0.1,0.8-0.2,1.7-0.4,2.6c-0.2,0-0.4,0-0.6,0c0.4-1.7,1-3.3,1.4-4.5
		C56.4,45.2,56.3,45.8,56.2,46.4z M54.6,51.3c0.2-0.1,0.5-0.1,0.9-0.1c-0.1,0.9-0.2,1.9-0.3,3C54.8,54,54.4,54,54.1,54
		C54.2,53.1,54.4,52.1,54.6,51.3z M53.3,58.6c0.1-0.8,0.2-1.6,0.3-2.4c0.3-0.1,0.8-0.1,1.2,0.1c0,0.8-0.1,1.8-0.1,2.8
		c-0.5-0.1-1-0.1-1.4,0C53.3,58.9,53.3,58.7,53.3,58.6z M53,61.2c0.2-0.1,0.8-0.2,1.5-0.1c-0.1,1-0.1,2-0.2,3.1
		C53.7,64,53.1,64,52.6,64C52.8,63,52.9,62.1,53,61.2z M52.3,66.2c0.5-0.1,1.1-0.1,1.8,0.1c0,1-0.1,2-0.1,3.2
		c-0.8-0.2-1.5-0.1-2.1-0.1C52.1,68.2,52.2,67.2,52.3,66.2z M51.8,71.4c0.5-0.1,1.3-0.2,2.2,0.1c0,1-0.1,2-0.1,3.1
		c-1-0.2-1.9-0.1-2.4,0C51.4,73.4,51.7,72.4,51.8,71.4z M53.6,85.3c0,0.6,0,1.1,0,1.7c-0.4-0.6-0.8-1.2-1.1-1.8
		C52.9,85.1,53.2,85.3,53.6,85.3z M55.6,89.2c0.4-0.1,2.1-0.4,4.2,0l0,3.5c-1.7-1.1-3-2.3-4.2-3.3C55.6,89.4,55.6,89.3,55.6,89.2z
		 M61.7,93.9c0.6-0.1,2-0.4,3.7,0.1c0,1.1,0,2.1,0,3.3c-1.1-1-2.3-2.2-3.6-3.1L61.7,93.9z M38.6,99.2c2.2-0.3,5.3,0,9,1.3
		c0,2.9,0,5.6,0.3,8.1C45.7,104.7,42.7,100.7,38.6,99.2z M66.6,121.3c-0.1,0.1-0.2,0.2-0.3,0.3c0,0-1.8,2.8-6,2.8
		c-4.1,0-5.8-2.7-5.9-2.9c-0.1-0.1-0.2-0.2-0.3-0.3c-1-0.6-1.7-1.8-2.4-3.3l0,0c-0.1-0.4-0.4-1.3-0.9-2.6c-1.8-7-1.5-18.7-0.6-30
		c1.2,3.3,3.7,6.2,8.9,9.6c8.4,5.6,11.3,13.7,11.7,15c-0.2,1.8-0.5,3.5-0.9,5c-0.6,1.5-0.9,2.7-1.2,3.2l0.1,0
		C68.4,119.6,67.6,120.7,66.6,121.3z M73.2,108.6c0.2-2.2,0.4-4.9,0.4-7.9c3.7-1.3,6.8-1.5,9-1.1C78.5,101,75.4,104.8,73.2,108.6z"
		/>
	<g>
		<g>
			<path class="st0" d="M130.7,52.2h-3.2c-0.9,0-1.6-0.7-1.6-1.6c0-0.9,0.7-1.6,1.6-1.6h3.2c0.9,0,1.6,0.7,1.6,1.6
				C132.3,51.4,131.6,52.2,130.7,52.2z"/>
			<path class="st0" d="M124.3,41.3c-0.6,0.6-1.7,0.6-2.3,0c-0.6-0.6-0.6-1.7,0-2.3l2.3-2.3c0.6-0.6,1.7-0.6,2.3,0
				c0.6,0.6,0.6,1.7,0,2.3L124.3,41.3z"/>
			<path class="st0" d="M112.8,40.8c-5.4,0-9.7,4.4-9.7,9.7c0,5.4,4.4,9.7,9.7,9.7c5.4,0,9.7-4.4,9.7-9.7
				C122.6,45.1,118.2,40.8,112.8,40.8z M112.8,57c-3.6,0-6.5-2.9-6.5-6.5c0-3.6,2.9-6.5,6.5-6.5s6.5,2.9,6.5,6.5
				C119.3,54.1,116.4,57,112.8,57z"/>
			<path class="st0" d="M112.8,37.5c-0.9,0-1.6-0.7-1.6-1.6v-3.2c0-0.9,0.7-1.6,1.6-1.6s1.6,0.7,1.6,1.6v3.2
				C114.5,36.8,113.7,37.5,112.8,37.5z"/>
			<path class="st0" d="M101.4,41.3L99.1,39c-0.6-0.6-0.6-1.7,0-2.3c0.6-0.6,1.7-0.6,2.3,0l2.3,2.3c0.6,0.6,0.6,1.7,0,2.3
				C103,42,102,42,101.4,41.3z"/>
			<path class="st0" d="M99.8,50.5c0,0.9-0.7,1.6-1.6,1.6H95c-0.9,0-1.6-0.7-1.6-1.6c0-0.9,0.7-1.6,1.6-1.6h3.3
				C99.1,48.9,99.8,49.6,99.8,50.5z"/>
			<path class="st0" d="M101.4,59.7c0.6-0.6,1.7-0.6,2.3,0c0.6,0.6,0.6,1.7,0,2.3l-2.3,2.3c-0.6,0.6-1.7,0.6-2.3,0
				c-0.6-0.6-0.6-1.7,0-2.3L101.4,59.7z"/>
			<path class="st0" d="M112.8,63.5c0.9,0,1.6,0.7,1.6,1.6v3.3c0,0.9-0.7,1.6-1.6,1.6s-1.6-0.7-1.6-1.6v-3.3
				C111.2,64.3,112,63.5,112.8,63.5z"/>
			<path class="st0" d="M124.3,59.7l2.3,2.3c0.6,0.6,0.6,1.7,0,2.3c-0.6,0.6-1.7,0.6-2.3,0L122,62c-0.6-0.6-0.6-1.7,0-2.3
				C122.7,59.1,123.7,59.1,124.3,59.7z"/>
		</g>
	</g>
</g>
</svg>
