<svg id="Layer_1" data-name="Layer 1" xmlns="http://www.w3.org/2000/svg" viewBox="0 0 82 82"><defs><style>.cls-1{fill:#f0e8c6;}</style></defs><title>T4</title><path class="cls-1" d="M59.54,53.47c-0.14-.07-3.8-2.42-9.74-0.41,0-1.52-.07-3.18-0.14-5a11.71,11.71,0,0,0-.07-1.59H49.52C49.24,41,48.62,34.33,47.59,26c-1.52-12.51-5-15.27-6.08-15.83A1.17,1.17,0,0,0,41.16,10H41a1.29,1.29,0,0,0-.76.28l-0.21.21c-1.38,1.11-4.22,4.56-5.6,15.48-0.48,3.8-.9,7.67-1.31,11.54h0v0.07c-0.55,5.39-.9,10.71-0.9,15.48-5.94-2-9.61.28-9.74,0.41A0.68,0.68,0,0,0,23,54.72c5.8-.83,9.33,7.39,10.5,10.71a4,4,0,0,0,.35,1,0.52,0.52,0,0,1,.07.28v0.07h0a6.5,6.5,0,0,0,2,2.83A6.1,6.1,0,0,0,41,72a6,6,0,0,0,5-2.42c1.11-.76,2.14-2.14,2.83-5.18,1.45-3.73,4.84-10.44,10.09-9.67a0.7,0.7,0,0,0,.76-0.41A0.52,0.52,0,0,0,59.54,53.47ZM48.42,57.9a22.82,22.82,0,0,0-2.28-3.52,5.23,5.23,0,0,0,2.35-1.8C48.48,54.44,48.48,56.24,48.42,57.9ZM34.94,42.83a6.22,6.22,0,0,1-.21-1.11,3.56,3.56,0,0,1,1.45.07v1A3.75,3.75,0,0,0,34.94,42.83ZM46.41,26.94q0.1,0.73.21,1.66a6.06,6.06,0,0,0-1.59,0C45,28,45,27.56,45,27A4.14,4.14,0,0,1,46.41,26.94Zm1.31,24a7.35,7.35,0,0,0-2.14,0V49.4a8.16,8.16,0,0,1,2.56.07A5.49,5.49,0,0,1,47.72,51ZM41.78,39.86a5.14,5.14,0,0,1,2.35,0c0,0.62,0,1.31.07,2a5.3,5.3,0,0,0-2.35,0v-2H41.78Zm0-1.45v-2a4.58,4.58,0,0,1,2.21,0c0,0.62.07,1.31,0.07,2A8.19,8.19,0,0,0,41.78,38.41Zm0-3.39V33a6.16,6.16,0,0,1,2.07-.07c0,0.62.07,1.31,0.07,2A9.93,9.93,0,0,0,41.78,35Zm0-3.39V30.12a3.11,3.11,0,0,1,1.93.07V30.12c0,0.48.07,1,.07,1.45A8.82,8.82,0,0,0,41.78,31.64Zm0-4.7a3.74,3.74,0,0,1,1.8,0c0.07,0.55.07,1.17,0.14,1.8a4.17,4.17,0,0,0-1.87,0v-1.8H41.78Zm1.66-1.45a4.39,4.39,0,0,0-1.66,0V24.24a3.66,3.66,0,0,1,1.59-.07A7.94,7.94,0,0,0,43.44,25.49Zm-1.66-7a4,4,0,0,1,1-.07,7.61,7.61,0,0,1,.14,1.24,5.9,5.9,0,0,0-1.11,0V18.44Zm-1.38,3a7.17,7.17,0,0,0-1.73,0c0.07-.83.21-1.59,0.28-2.28a5.35,5.35,0,0,1,1.45.07v2.21Zm-1.93,1.38a5.53,5.53,0,0,1,1.87,0v1.93a10.23,10.23,0,0,0-2.07,0C38.33,24,38.39,23.41,38.46,22.79Zm-0.28,3.39a6.8,6.8,0,0,1,2.21-.07V28a7.54,7.54,0,0,0-2.28.07A17.47,17.47,0,0,1,38.19,26.18ZM37.7,36.54a7.16,7.16,0,0,1,2.7.07v2a6.91,6.91,0,0,0-2.7,0A20.73,20.73,0,0,1,37.7,36.54Zm0-1.38c0-.69.07-1.38,0.07-2a6.49,6.49,0,0,1,2.56.07v2A8.59,8.59,0,0,0,37.7,35.16ZM37.63,40a7,7,0,0,1,2.76,0v2a7.23,7.23,0,0,0-2.76,0V40Zm2.76-8.22a7.72,7.72,0,0,0-2.49-.07C38,30.88,38,30.12,38,29.42v0.07a6.44,6.44,0,0,1,2.35-.07v2.35Zm1.38,11.47a5.46,5.46,0,0,1,2.42,0c0,0.83,0,1.73.07,2.63a5.62,5.62,0,0,0-2.42,0V43.25H41.78Zm3.73-.14a6.15,6.15,0,0,1,2.49.07,9.73,9.73,0,0,1,.07,1.38,8.15,8.15,0,0,0-2.56-.07A4.63,4.63,0,0,0,45.51,43.11Zm-0.14-6.63a6.28,6.28,0,0,1,2.07-.07l0.21,1.87a7.79,7.79,0,0,0-2.21,0C45.44,37.65,45.37,37,45.37,36.47ZM41.78,22.86v-1.8a3.73,3.73,0,0,1,1.24,0c0.07,0.55.14,1.11,0.21,1.73A4.59,4.59,0,0,0,41.78,22.86Zm0-5.87V13.39c0.21,0.83.48,1.93,0.76,3.52A3.39,3.39,0,0,1,41.78,17ZM40.4,14.43c-0.21,0-.41-0.07-0.55-0.07,0.21-.76.41-1.31,0.55-1.73v1.8Zm-0.9,1.31a4.25,4.25,0,0,1,.9.07v1.93a8.39,8.39,0,0,0-1.24-.07A13.94,13.94,0,0,1,39.5,15.74Zm-3.25,24.6a4.44,4.44,0,0,0-1.66,0,19.44,19.44,0,0,1-.07-2.07l0.07,0.14a3.34,3.34,0,0,1,1.66-.07v2Zm1.31,3a6.94,6.94,0,0,1,2.76,0v2.07a7.6,7.6,0,0,0-2.83,0C37.57,44.77,37.57,44.08,37.57,43.38Zm4.22,3.94a5.78,5.78,0,0,1,2.49,0v1.31a5.94,5.94,0,0,0-2.49,0V47.32Zm3.87,5a6.72,6.72,0,0,1,1.24-.07,2.89,2.89,0,0,1-1.24.76V52.37Zm2.7-4.28a9,9,0,0,0-2.7-.07V45.87a6.84,6.84,0,0,1,2.63.07c0,0.48.07,1,.07,1.52v0.62Zm-2.83-6.43a19.42,19.42,0,0,0-.07-2,5.18,5.18,0,0,1,2.28.07,18.21,18.21,0,0,1,.14,1.93A8.85,8.85,0,0,0,45.51,41.66Zm-0.21-6.57c0-.62-0.07-1.24-0.07-1.8a3.22,3.22,0,0,1,1.87,0c0.07,0.55.14,1.17,0.21,1.73A4.7,4.7,0,0,0,45.31,35.09Zm-0.14-3.25c0-.62-0.07-1.24-0.07-1.87a3.47,3.47,0,0,1,1.66.07c0.07,0.55.14,1.17,0.21,1.73A7.18,7.18,0,0,0,45.17,31.84Zm-0.35-6.22a7.65,7.65,0,0,0-.14-1.31,2.9,2.9,0,0,1,1.31.07,6.81,6.81,0,0,1,.14,1.17A4,4,0,0,0,44.82,25.62Zm-0.21-2.7c-0.07-.48-0.07-1-0.14-1.45a3,3,0,0,1,1.11,0c0.07,0.41.21,0.9,0.28,1.38A6.72,6.72,0,0,0,44.61,22.93ZM44.34,20.1c0-.28-0.07-0.55-0.07-0.83H45.1c0.07,0.28.14,0.48,0.21,0.76A5.65,5.65,0,0,1,44.34,20.1ZM44,17.88a28.48,28.48,0,0,0-.55-3.11c0.35,0.83.76,1.8,1.17,3A1.91,1.91,0,0,1,44,17.88Zm-6.29,0h0V18c-0.07.55-.14,1.17-0.28,1.8H37c0.28-1.17.62-2.21,0.9-3C37.84,17.05,37.77,17.47,37.7,17.88Zm-1,3.32a1.53,1.53,0,0,1,.62-0.07c-0.07.62-.14,1.31-0.21,2a3.1,3.1,0,0,0-.76-0.07A14.91,14.91,0,0,1,36.67,21.2Zm-0.83,5L36,24.52a1.18,1.18,0,0,1,.83.07c0,0.55-.07,1.24-0.07,1.87a2.28,2.28,0,0,0-1,0V26.18ZM35.63,27.9a2.14,2.14,0,0,1,1-.07c-0.07.69-.07,1.38-0.14,2.07a7.11,7.11,0,0,0-1.17-.07C35.49,29.15,35.56,28.53,35.63,27.9Zm-0.41,3.39a2.61,2.61,0,0,1,1.24.07c0,0.69-.07,1.38-0.07,2.14a5.35,5.35,0,0,0-1.45-.07C35.08,32.67,35.15,32,35.22,31.29Zm-0.35,3.52a2.92,2.92,0,0,1,1.52.07c0,0.69-.07,1.38-0.07,2.07a4.36,4.36,0,0,0-1.66,0A20.47,20.47,0,0,1,34.87,34.81Zm1.31,9.4v1.17a12,12,0,0,1-.76-1.24C35.7,44.14,35.91,44.21,36.18,44.21Zm1.38,2.63a7.16,7.16,0,0,1,2.83,0v2.35A21.37,21.37,0,0,1,37.57,47V46.84ZM41.78,50a5.07,5.07,0,0,1,2.49.07V52.3a24.71,24.71,0,0,0-2.49-2.07V50ZM26.16,53.75a13,13,0,0,1,6.08.83A45,45,0,0,0,32.52,60C31,57.41,28.93,54.72,26.16,53.75ZM45.24,68.54L45,68.75a4.7,4.7,0,0,1-4,1.93,4.61,4.61,0,0,1-4-1.93l-0.21-.21a4.78,4.78,0,0,1-1.66-2.21h0a14.48,14.48,0,0,0-.62-1.73C33.28,59.9,33.35,52,33.9,44.28c0.83,2.21,2.56,4.15,6.08,6.43A20.26,20.26,0,0,1,48,60.8c-0.14,1.24-.35,2.35-0.55,3.39-0.41,1-.62,1.87-0.76,2.14h0.07A3.57,3.57,0,0,1,45.24,68.54Zm4.42-8.64c0.14-1.52.21-3.32,0.21-5.32a13,13,0,0,1,6.08-.83C53.18,54.72,51.11,57.27,49.66,59.9Z"/></svg>