<?xml version="1.0" encoding="utf-8"?>
<!-- Generator: Adobe Illustrator 19.2.1, SVG Export Plug-In . SVG Version: 6.00 Build 0)  -->
<svg version="1.1" id="Layer_1" xmlns="http://www.w3.org/2000/svg" xmlns:xlink="http://www.w3.org/1999/xlink" x="0px" y="0px"
	 viewBox="0 0 165.1 157.4" style="enable-background:new 0 0 165.1 157.4;" xml:space="preserve">
<style type="text/css">
	.st0{fill:#F1E9C6;}
</style>
<g>
	<path class="st0" d="M122.8,74.4c-0.5,0-11.3-0.5-18,6.1c-0.7,0.7-1.2,1.3-1.7,2.1v-7.1c2.3-2.1,8.7-8.4,8.7-16.2
		c0-9.4-9.1-16.6-9.5-16.9c-0.8-0.6-1.9-0.6-2.7,0c-0.4,0.3-9.5,7.6-9.5,16.9c0,7.8,6.4,14.2,8.7,16.2v7.1c-0.5-0.7-1.1-1.4-1.7-2.1
		c-6.6-6.6-17.5-6.1-18-6.1c-1.1,0.1-2,0.9-2,2c0,0.5-0.5,11.3,6.1,18c4.9,4.9,12,5.9,15.7,6v15.3h4.4v-15.3
		c3.6-0.2,10.8-1.2,15.7-6c6.6-6.6,6.1-17.5,6.1-18C124.8,75.3,123.9,74.4,122.8,74.4z M86.1,91.3c-3.7-3.7-4.6-9.5-4.8-12.5
		c3.1,0.2,8.8,1.1,12.5,4.8c3.7,3.7,4.6,9.5,4.8,12.5C95.6,95.9,89.8,95,86.1,91.3z M94.4,59.1c0-5.4,4.3-10.2,6.5-12.3
		c2.2,2.2,6.5,7,6.5,12.3s-4.3,10.2-6.5,12.3C98.6,69.3,94.4,64.5,94.4,59.1z M115.7,91.3c-3.7,3.7-9.5,4.6-12.5,4.8
		c0.2-3.1,1.1-8.8,4.8-12.5c3.7-3.7,9.5-4.6,12.5-4.8C120.2,81.8,119.4,87.6,115.7,91.3z"/>
	<path class="st0" d="M52.5,59.6c-0.8-0.6-1.9-0.6-2.7,0c-0.4,0.3-9.5,7.6-9.5,16.9c0,7.8,6.4,14.2,8.7,16.2v22.9h4.4V92.8
		c2.3-2.1,8.7-8.4,8.7-16.2C62,67.2,52.8,59.9,52.5,59.6z M51.1,88.8c-2.2-2.2-6.5-7-6.5-12.3c0-5.4,4.3-10.2,6.5-12.3
		c2.2,2.2,6.5,7,6.5,12.3C57.6,81.9,53.4,86.7,51.1,88.8z"/>
</g>
</svg>
