<svg id="Layer_1" data-name="Layer 1" xmlns="http://www.w3.org/2000/svg" viewBox="0 0 82 82"><defs><style>.cls-1{fill:#f0e8c6;}</style></defs><title>T4</title><path class="cls-1" d="M34.09,29a0.65,0.65,0,0,1-.69-0.69V16.81a0.69,0.69,0,0,1,1.38,0V28.28A0.69,0.69,0,0,1,34.09,29Zm14.51-.69V16.81a0.69,0.69,0,0,0-1.38,0V28.28a0.65,0.65,0,0,0,.69.69A0.69,0.69,0,0,0,48.6,28.28Zm0,8.78h0v6.08h0v6.08h0v6.08a3.37,3.37,0,0,1-2.21,3.25c-3.52,1.38-4.49,2.56-4.7,3.18V72.79H40.31V61.73c-0.28-.62-1.24-1.73-4.7-3.11a3.53,3.53,0,0,1-2.21-3.25V49.29h0V43.21h0V37.13h0V31a0.69,0.69,0,0,1,1.38,0,2.21,2.21,0,0,0,1.31,2A12.77,12.77,0,0,1,41,36a12.77,12.77,0,0,1,4.91-3,2.11,2.11,0,0,0,1.31-2,0.69,0.69,0,1,1,1.38,0v6ZM47.22,46a1.31,1.31,0,0,1-.83.48c-3.52,1.45-4.49,2.56-4.7,3.18v3.94a17.72,17.72,0,0,1,4.22-2.28,2.11,2.11,0,0,0,1.31-2h0V46ZM40.31,43.7c-0.48-1.17-2.7-2.49-4.7-3.32a5.15,5.15,0,0,1-.83-0.48v3.25h0a2.21,2.21,0,0,0,1.31,2,17.72,17.72,0,0,1,4.22,2.28V43.7Zm-5.53,5.53a2.21,2.21,0,0,0,1.31,2,17.72,17.72,0,0,1,4.22,2.28V49.57c-0.28-.62-1.17-1.73-4.7-3.18a5.15,5.15,0,0,1-.83-0.48v3.32h0Zm12.44-9.33a1.31,1.31,0,0,1-.83.48c-2,.83-4.22,2.14-4.7,3.32v3.73a15.56,15.56,0,0,1,4.22-2.28,2.11,2.11,0,0,0,1.31-2h0V39.89Zm-5.53-2.42v4.08a13.76,13.76,0,0,1,4.22-2.42,2.11,2.11,0,0,0,1.31-2h0V33.88a1.31,1.31,0,0,1-.83.48C42.87,35.75,41.9,36.85,41.69,37.48Zm-6.91-3.66v3.25h0a2.21,2.21,0,0,0,1.31,2,17.7,17.7,0,0,1,4.22,2.42V37.41c-0.28-.62-1.17-1.73-4.7-3.18A2.34,2.34,0,0,1,34.78,33.81Zm5.53,25.78V55.65c-0.28-.62-1.24-1.73-4.7-3.11a5.15,5.15,0,0,1-.83-0.48v3.25a2.21,2.21,0,0,0,1.31,2A17.72,17.72,0,0,1,40.31,59.59Zm6.91-4.28V52.06a1.31,1.31,0,0,1-.83.48c-3.52,1.38-4.49,2.56-4.7,3.18v3.94a17.72,17.72,0,0,1,4.22-2.28A2.4,2.4,0,0,0,47.22,55.31ZM44.46,28.77c0,2.63-1.17,3.73-2.42,5l-0.62.62a0.75,0.75,0,0,1-.48.21h0a0.63,0.63,0,0,1-.48-0.21l-0.62-.62c-1.24-1.24-2.42-2.35-2.42-5,0-2.35,1.38-4.22,2.28-5.53A5.42,5.42,0,0,0,40.45,22V9.9a0.69,0.69,0,1,1,1.38,0V22.06a6.06,6.06,0,0,0,.69,1.24C43.21,24.55,44.46,26.49,44.46,28.77Zm-5.8,0a4.31,4.31,0,0,0,.41,2,4.72,4.72,0,0,1,1-2.21,2.41,2.41,0,0,1,.9-1,2.23,2.23,0,0,1,.83,1,4.38,4.38,0,0,1,.9,2.14,4.31,4.31,0,0,0,.41-2A8.48,8.48,0,0,0,41.28,24c-0.07-.14-0.14-0.21-0.21-0.35H41c-0.07.14-.21,0.28-0.28,0.41C39.83,25.31,38.65,26.9,38.65,28.77Z"/></svg>