<?xml version="1.0" encoding="utf-8"?>
<!-- Generator: Adobe Illustrator 19.2.1, SVG Export Plug-In . SVG Version: 6.00 Build 0)  -->
<svg version="1.1" id="Layer_1" xmlns="http://www.w3.org/2000/svg" xmlns:xlink="http://www.w3.org/1999/xlink" x="0px" y="0px"
	 viewBox="0 0 165.1 157.4" style="enable-background:new 0 0 165.1 157.4;" xml:space="preserve">
<style type="text/css">
	.st0{fill:#F1E9C6;}
</style>
<path class="st0" d="M111,57.8c-5.8,0-9.2,1.9-11.9,3.4c0.7-7.5,2.8-15.3,8-16.7c1.2-0.3,1.9-1.5,1.6-2.7c-0.3-1.2-1.5-1.9-2.7-1.6
	c-3.3,0.9-5.6,3.1-7.3,6c-1.5-3.1-4.1-7-8.2-9.5c-3-1.8-6.7-2.7-10.9-2.7c-3.7,0-6.4,0.7-6.6,0.7c-1.2,0.3-1.9,1.5-1.6,2.7
	c0.1,0.3,1,4.1,3.6,8c0.7,0.3,1.2,0.8,1.5,1.5c0.1,0.2,0.1,0.5,0.2,0.7c1.3,1.6,2.9,3,4.8,4.1c3,1.8,6.7,2.7,10.9,2.7
	c1.2,0,2.3-0.1,3.3-0.2c-0.5,2.2-0.8,4.5-1,6.7c-2.6-1.5-5.9-3.2-11.6-3.2c-2,0-3.8,0.2-5.6,0.6c0.6-3.5,0.3-7.1-0.8-10.7
	c-0.6-0.7-1.2-1.5-1.7-2.3c-0.4-0.2-0.8-0.2-1.2-0.2c-4.2,0.4-8,1.8-11.2,4c0-1.1-0.2-2.3-0.4-3.4C60.8,39.4,56.4,34,50,30.9
	c-1.1-0.5-2.3-0.2-3.1,0.7c-4.6,5.4-6.4,12.2-5,18.6c0.2,1.1,0.6,2.2,1,3.3c-3.8-0.7-7.9-0.4-11.9,1c-1.1,0.4-1.8,1.5-1.7,2.7
	c0.5,6.1,3.2,11.4,7.5,15.1c-0.6,0.2-1.2,0.3-1.8,0.5c-1.1,0.4-1.8,1.5-1.7,2.7c0.5,6.1,3.2,11.4,7.5,15.1c-0.6,0.2-1.2,0.3-1.8,0.5
	c-1.1,0.4-1.8,1.5-1.7,2.7c0.6,7.1,4.1,13.1,9.6,16.7c4.7,3,10.4,4,16.2,2.7c0.1,0,0.3-0.1,0.4-0.1l1.4,6.6c0.3,1.4,1.7,2.3,3.1,2
	c1.4-0.3,2.3-1.7,2-3.1l-0.2-1c4.9,5.6,11.1,9.3,17.8,9.3c4,0,6.2-0.7,9.5-1.9c3.3,1.2,5.6,1.9,9.5,1.9c16.2,0,29.2-21.3,29.2-38.9
	C135.7,69.3,126.2,57.8,111,57.8z M92.4,50.1c-3.4,0-6.3-0.7-8.6-2.1c-4-2.4-6.2-6.7-7.3-9.4c0.9-0.1,1.9-0.2,3.1-0.2
	c3.4,0,6.3,0.7,8.6,2.1c4,2.4,6.2,6.7,7.3,9.4C94.6,50,93.5,50.1,92.4,50.1z M61.4,57.6c2.3-3.6,6.1-6.1,10.7-7
	c0.8,3.4,0.6,6.8-0.5,9.8c-3.8,2-6.9,5-9.1,9c-1,0.4-2,0.7-3.1,0.9C58.4,65.8,59.1,61.2,61.4,57.6z M49.6,36.6
	c4,2.4,6.7,6.1,7.6,10.3c0.9,4.2-0.1,8.7-2.6,12.5c-4-2.4-6.7-6.1-7.6-10.3C46,44.9,47,40.4,49.6,36.6z M34.8,58.7
	c4.6-1.1,9.1-0.4,12.7,1.9c3.6,2.3,6.1,6.2,7,10.7c-4.5,1-9.1,0.4-12.7-1.9C38.2,67.1,35.7,63.3,34.8,58.7z M38.7,76.9
	c4.5-1.1,9.1-0.4,12.7,1.9c3.6,2.3,6.1,6.2,7,10.7c-4.6,1-9.1,0.4-12.7-1.9C42.1,85.3,39.6,81.5,38.7,76.9z M49.6,105.9
	c-3.6-2.3-6.1-6.2-7-10.7c4.5-1.1,9.1-0.4,12.7,1.9c3.6,2.3,6.1,6.2,7,10.7C57.7,108.9,53.2,108.3,49.6,105.9z M106.6,122.3
	c-3.5,0-5.2-0.6-8.7-2c-0.3-0.1-0.5-0.1-0.8-0.1c-0.3,0-0.5,0.1-0.8,0.1c-3.5,1.4-5.2,2-8.7,2c-6.2,0-12.4-4.4-17.1-11
	c-1-1.4-2-3-2.8-4.6c-0.1,0-0.2,0-0.2,0.1c-0.1-0.3-0.1-0.5-0.2-0.8c-2.8-5.5-4.4-11.8-4.4-18.1c0-1.4,0.1-2.8,0.2-4.1
	c0-0.9,0.1-1.7,0.3-2.6C64.7,72,69.2,65.8,76,63.4c2.1-0.8,4.5-1.2,7.1-1.2c4.8,0,7.4,1.5,9.9,2.9c0.5,0.3,0.9,0.5,1.4,0.8
	c0,2,0,3.8,0.1,5.2c-1.6-0.5-3.1-1.4-4.2-2.8c-0.8-0.9-2.2-1.1-3.1-0.3c-0.9,0.8-1.1,2.2-0.3,3.1c2.5,3,6.1,4.7,10,4.7c0,0,0,0,0,0
	h0h0c0,0,0,0,0,0c0.1,0,0.1,0,0.2,0c0,0,0,0,0,0c3.8-0.1,7.4-1.8,9.8-4.7c0.8-0.9,0.6-2.3-0.3-3.1c-0.9-0.8-2.3-0.6-3.1,0.3
	c-1.2,1.4-2.8,2.4-4.6,2.9c-0.1-1.4-0.1-3.1-0.1-4.9c0.8-0.4,1.5-0.8,2.3-1.2c2.5-1.4,5.1-2.9,9.9-2.9c12.7,0,20.3,9.6,20.3,25.6
	C131.3,104.9,118.8,122.3,106.6,122.3z"/>
</svg>
