<?xml version="1.0" encoding="utf-8"?>
<!-- Generator: Adobe Illustrator 19.2.1, SVG Export Plug-In . SVG Version: 6.00 Build 0)  -->
<svg version="1.1" id="Layer_1" xmlns="http://www.w3.org/2000/svg" xmlns:xlink="http://www.w3.org/1999/xlink" x="0px" y="0px"
	 viewBox="0 0 42.1 42.1" style="enable-background:new 0 0 42.1 42.1;" xml:space="preserve">
<style type="text/css">
	.st0{fill:#7BC143;}
</style>
<path class="st0" d="M21.1,1.1c-11,0-20,9-20,20s9,20,20,20c11,0,20-9,20-20S32.1,1.1,21.1,1.1 M33.9,22.1H22.1v11.8
	c0,0.6-0.5,1.1-1.1,1.1c-0.6,0-1.1-0.5-1.1-1.1V22.1H8.2c-0.6,0-1.1-0.5-1.1-1.1S7.6,20,8.2,20H20V8.2c0-0.6,0.5-1.1,1.1-1.1
	c0.6,0,1.1,0.5,1.1,1.1V20h11.8c0.6,0,1.1,0.5,1.1,1.1S34.5,22.1,33.9,22.1"/>
</svg>
