<?xml version="1.0" encoding="utf-8"?>
<!-- Generator: Adobe Illustrator 19.2.1, SVG Export Plug-In . SVG Version: 6.00 Build 0)  -->
<svg version="1.1" id="Layer_1" xmlns="http://www.w3.org/2000/svg" xmlns:xlink="http://www.w3.org/1999/xlink" x="0px" y="0px"
	 viewBox="0 0 165.1 157.4" style="enable-background:new 0 0 165.1 157.4;" xml:space="preserve">
<style type="text/css">
	.st0{fill:#F1E9C6;}
</style>
<path class="st0" d="M130.5,118.1v-10.3h-5.1V101h-3.4V63.3h3.4v-6.8h6.9V43.3L82.5,25.6L32.8,43.3v13.2h6.9v6.8h3.4V101h-3.4v6.8
	h-5.1v10.3h-5.1v13.7h106.3v-13.7H130.5z M122,59.9h-13.7v-3.4H122V59.9z M89.4,101V63.3h3.4v-6.8h12v6.8h3.4V101h-3.4v6.8h-12V101
	H89.4z M56.8,101V63.3h3.4v-6.8h12v6.8h3.4V101h-3.4v6.8h-12V101H56.8z M43.1,59.9v-3.4h13.7v3.4H43.1z M53.4,63.3V101h-6.9V63.3
	H53.4z M75.7,104.4h13.7v3.4H75.7L75.7,104.4L75.7,104.4z M79.1,101V63.3H86V101H79.1z M75.7,59.9v-3.4h13.7v3.4H75.7z M108.2,104.4
	h13.7v3.4h-13.7V104.4z M111.7,101V63.3h6.9V101H111.7z M36.3,53.1v-7.4l46.3-16.5l46.3,16.5v7.4H36.3z M43.1,104.4h13.7v3.4H43.1
	V104.4z M38,111.3h89.1v6.8H38V111.3z M132.2,128.4H32.8v-6.8h99.4V128.4z"/>
</svg>
