<?xml version="1.0" encoding="utf-8"?>
<!-- Generator: Adobe Illustrator 19.2.1, SVG Export Plug-In . SVG Version: 6.00 Build 0)  -->
<svg version="1.1" id="Layer_1" xmlns="http://www.w3.org/2000/svg" xmlns:xlink="http://www.w3.org/1999/xlink" x="0px" y="0px"
	 viewBox="0 0 204.5 78.3" style="enable-background:new 0 0 204.5 78.3;" xml:space="preserve">
<style type="text/css">
	.st0{opacity:0.2;}
</style>
<g class="st0">
	<path d="M0,72.7h17.2V11c0-1.9,0.1-3.8,0.1-3.8h-0.2c0,0-0.8,1.4-4,4.6l-9,9l-3.2-3.1L17.2,1.3h4.6v71.4h16.8V77H0V72.7z"/>
	<path d="M51.3,75.3l2.3-4.2c0,0,4.6,2.7,11.1,2.7c17.6,0,26.4-18.2,27.5-34.8H92c-4.2,6.4-12.5,10.4-21.4,10.4
		c-13.3,0-23.2-9.4-23.2-24.1C47.3,8.8,58.2,0,70.6,0c16.8,0,26.5,16,26.5,35.4c0,18.5-9.2,42.9-32.5,42.9
		C56.7,78.3,51.3,75.3,51.3,75.3z M91.8,29.7c0-10.5-8.2-25.2-21.1-25.2c-11.7,0-18.5,8.7-18.5,20.7c0,12.1,7.7,19.6,18.6,19.6
		C82.5,44.8,91.8,36.6,91.8,29.7z"/>
	<path d="M103.6,52.1l39.3-50.8h4.3V51h11.2v4.3h-11.2V77h-4.7V55.4h-38.9V52.1z M142.6,51V15.6c0-3,0.3-6.8,0.3-6.8h-0.2
		c0,0-1.8,2.7-3.8,5.2l-28.8,36.9V51H142.6z"/>
	<path d="M165.9,72.7h17.2V11c0-1.9,0.1-3.8,0.1-3.8h-0.2c0,0-0.8,1.4-4,4.6l-9,9l-3.2-3.1l16.3-16.4h4.7v71.4h16.8V77h-38.6V72.7z"
		/>
</g>
</svg>
