<?xml version="1.0" encoding="utf-8"?>
<!-- Generator: Adobe Illustrator 19.2.1, SVG Export Plug-In . SVG Version: 6.00 Build 0)  -->
<svg version="1.1" id="Layer_1" xmlns="http://www.w3.org/2000/svg" xmlns:xlink="http://www.w3.org/1999/xlink" x="0px" y="0px"
	 viewBox="0 0 1189 464" style="enable-background:new 0 0 1189 464;" xml:space="preserve">
<style type="text/css">
	.st0{opacity:0.44;}
	.st1{fill:#A1A3A6;}
</style>
<g class="st0">
	<path class="st1" d="M1116.8,350.2c-2.7,1-5.3,1.9-7.9,2.8c-2.3-1.3-4.6-2.6-7.2-4.1c-0.2,1.1-0.2,1.8-0.5,2.1
		c-0.6,0.5-1.5,1.3-2,1.1c-2.3-0.8-4.4-1.9-6.6-2.9c-1.4-0.6-2.9-1.2-4.4-1.8c-3-1.2-5.9-2.5-8.9-3.7c-4-1.6-8.1-3.2-12.2-4.7
		c-4.3-1.6-8.7-3-13.1-4.4c-3.5-1.1-7-2.1-10.5-3.2c-1-0.3-1.5,0.1-1.7,1.2c-0.3,2.9-0.5,5.8-1.1,8.6c-0.8,4.1-1.7,8.3-2.6,12.4
		c-0.7,3.3-1.4,6.5-2.4,9.7c-1,3.3-2.1,6.5-3.5,9.7c-2.2,4.9-4.2,9.9-7.8,14c-2.5,2.9-4.8,6.1-7.3,9.1c-1.6,1.9-3.2,3.8-4.9,5.5
		c-2.5,2.5-5.1,5-7.8,7.4c-2,1.8-4.3,3.5-6.2,5.6c2.4-1.2,5.4,0.1,7.5-2.1c0.1-0.1,0.4-0.2,0.6-0.2c2.2,0.5,4.4,1,7,1.5
		c-3.1,2.2-6.9,2.3-9.3,4.8c0.1,0.2,0.2,0.4,0.3,0.6c1.4-0.4,2.9-0.8,4.3-1.2c6.2-1.8,12.4-3.7,18.6-5.4c1.6-0.4,3.3-0.4,5-0.5
		c0.5,0,1.4,0.5,1.4,0.8c0.1,0.5-0.3,1.3-0.7,1.7c-0.6,0.6-1.5,1-2.1,1.9c0.6-0.1,1.3-0.1,1.9-0.2c2.7-0.3,5.4-0.7,8.2-0.9
		c0.6,0,1.8,0.6,1.8,0.9c0,0.9-0.3,1.9-0.9,2.6c-0.5,0.6-1.4,0.8-2.1,1.2c-0.6,0.4-1.1,0.9-2,1.7c1.8,0.3,3.1,0.4,4.4,0.7
		c0.5,0.1,0.9,0.7,1.3,1.1c-0.4,0.4-0.8,0.7-1.3,1.1c-0.4,0.3-0.9,0.6-1.3,1c0.1,0.2,0.2,0.4,0.3,0.6c1.2-0.3,2.5-0.5,3.7-0.8
		c3.7-1,4.2-0.6,4.1,3.3c6-3.2,12.3-4.7,19-4.6c-1.8,1.2-3.7,2.3-5.5,3.5c0.1,0.2,0.2,0.4,0.3,0.7c3.5-0.8,7-1.6,11.1-2.6
		c-0.8-2.7-1.7-5.6-2.6-8.7c-1.7,1.1-3.2,2.1-5.2,3.4c0.3-0.8,0.3-1.3,0.5-1.5c0.6-0.6,1.4-1.2,2-1.8c2.7-2.7,3.2-6,2.3-9.6
		c-0.5-2-0.7-4.1-0.9-6.2c-0.3-3,1.1-5.6,2.5-8.1c4,2.6,5.3,7.5,3.6,12.7c-0.6,1.6-1.4,3.2-2,4.8c-0.3,0.9-0.3,1.9-0.2,3.1
		c1.3-1,2.3-1.8,3.1,0.2c0.2,0.4,1.2,0.9,1.5,0.7c0.8-0.5,1.8-1.2,2.2-2c0.8-1.9,1.2-3.9,1.8-6c1.8,0.6,3.5,2.1,5.1-0.1
		c1.1-1.5,1.5-3.1,1.2-5.1c-0.4-3.2-0.6-6.4-0.5-9.6c0-1,0.8-2.1,1.3-3.1c0.8,0.6,2,1.1,2.5,2c1.6,2.7,1.6,5.5,0.8,8.6
		c-0.6,2.3-1.8,4.5-1.3,7.2c0.7,3.6,0.9,7.4,1.3,11c0.1,0.5,0.3,1.1,0.5,1.6c1.8-1.9,1.8-4.6,0.3-6.6c-0.5-0.6-0.6-1.5-1.1-2.8
		c1.6,0.5,2.5,0.8,3.5,1.1c0.4-2,0.7-3.7-1.4-4.8c-0.4-0.2-0.8-1.1-0.8-1.6c0.1-0.8,0.5-1.6,0.8-2.4c0.5,0.4,1.1,0.9,1.8,1.4
		c1.1-0.4,2.6-0.9,4.5-1.7c0.3,1.5,0.8,2.9,0.6,4.1c-0.5,3.1,0.1,5.9,0.9,8.8c0.1,0.5,0.7,1.1,1.2,1.2c0.3,0.1,1.1-0.4,1.2-0.8
		c0.8-1.7,1.5-3.4,2.1-5.2c0.5-1.3,0.8-2.8,1.1-4.1c0.2,0,0.4,0,0.5,0c0.3,1.9,0.6,3.8,0.9,5.7c0.7,4.5,1.4,8.9,1.9,13.4
		c0.1,0.8,0.9,2.2-0.8,2.8c-0.1,0-0.2,0.6-0.1,0.7c0.3,0.2,0.7,0.5,1.1,0.5c1,0,2.1-0.1,3.1-0.1c1.7-0.1,3,0.6,4,2.1
		c0.3,0.6,1.5,0.9,2.2,0.9c2,0,4-0.3,6-0.4c1.7-0.1,3.2,0.2,4.5,1.7c0.6,0.7,2,1,3,0.9c2.1,0,4.1-0.4,6.3-0.6
		c-1.8,3-4.9,3.5-7.8,1.6c-1.9-1.2-3.2-1.4-5.5-0.6c-3,1.1-6.3,0.9-9.2-0.9c-1.5-0.9-2.7-0.8-4.4,0c-2.8,1.3-5.9,1.8-9,2.3
		c-0.6,0.1-1.6-0.8-2.2-1.4c-0.8-0.9-1.4-0.9-2.5-0.5c-2,0.7-4.2,1-6.3,1.7c-1.6,0.5-3.1,1.1-4.6,1.8c-1.8,0.8-3.6,1.9-5.4,2.7
		c-1.5,0.7-2.1-0.1-2.1-2.7c-0.6,0.2-1.2,0.3-1.7,0.5c-3.3,1-6.9,0.8-9.8,3.2c-1,0.8-3.1,0.4-4.7,0.4c-6.3,0.3-12.7,0.8-19,0.9
		c-14.8,0.2-29.7,0.1-44.5,0.1c-9.2,0-18.5,0-27.7,0c-16.3,0.1-32.7,0.2-49,0.3c-11.6,0.1-23.2,0-34.8,0.1c-5.6,0-11.3-0.1-16.9,0
		c-8.4,0.1-16.8,0.2-25.2,0.3c-7.2,0-14.3,0-21.5,0c-10.8,0-21.6,0-32.3,0.1c-9,0-17.9,0.1-26.9,0.1c-15.4,0-30.8,0-46.2,0
		c-6.9,0-13.8,0-20.6,0.1c-10.3,0.1-20.5,0.2-30.8,0.2c-18.9,0.1-37.8,0.1-56.8,0.1c-19.4,0-38.8,0-58.3,0
		c-22.4,0-44.8,0.1-67.3,0.1c-13.7,0-27.4-0.1-41.2-0.1c-20.8,0-41.7,0.2-62.5,0.2c-12.2,0-24.5-0.1-36.7-0.1
		c-13.3,0-26.6,0.2-39.9,0.2c-16.2,0-32.5,0-48.7,0c-11.4,0-22.7,0.2-34.1,0.2c-16.6,0-33.3-0.1-49.9-0.1c-6.5,0-12.9,0.1-19.4,0.2
		c-10.1,0-20.3,0.1-30.4,0.1c-8.5,0-17,0-25.5-0.1c-8.2,0-16.4-0.2-24.6-0.2c-9.9,0-19.7,0.2-29.6,0.2c-10.6,0-21.1-0.1-31.7-0.2
		c-4.4,0-8.7,0-13.3,0c0.4-0.5,0.7-0.9,1.1-1.2c5.3-4,10.5-8.1,15.9-11.9c1.2-0.8,3-1,4.6-1c8.6-0.1,17.1-0.1,25.7,0
		c10.2,0.1,20.4,0.2,30.7,0.3c12.9,0,25.7-0.1,38.6,0c5.1,0,10.3,0.3,15.4,0.3c8.5,0,16.9-0.2,25.4-0.2c5.6,0,11.3-0.1,16.9-0.1
		c9.9,0,19.9,0.1,29.8,0.1c4.4,0,8.7-0.2,13.1-0.2c11.3-0.1,22.5-0.1,33.8-0.2c2.4,0,4.8,0,7.6,0c-0.6-0.9-1.1-1.5-2-2.7
		c1.9-0.3,3.5-0.8,5-0.8c1.7-0.1,3.4,0.1,5.2,0.2c1.9,0.2,3.9,0.5,5.8,0.7c2.9,0.2,5.9,0.4,8.8,0.5c2.9,0.1,5.8,0.3,8.7,0.3
		c2,0.1,4,0.3,6-0.1c2.4-0.4,4.5-0.2,6.8,0.5c3.1,1,6.2,2.3,9.5,0.9c0.1,0,0.1,0,0.2,0c5.9,1.2,8.2-3.9,11.9-6.7
		c1.4-1.1,2.5-2.6,3.8-3.9c1.8-1.9,3.8-3.6,5.5-5.6c2.3-2.8,4.4-5.8,6.5-8.7c2.8-4,3.9-8.6,4.7-13.2c0.8-4.6,2.9-8.5,6.5-11.6
		c1.5-1.3,2.9-2.5,4.3-3.9c2.6-2.8,2.9-6.3,3.3-9.9c0.4-3.5-0.3-6.3-3.8-8.2c-6-3.3-9.8-8.9-14.2-13.9c-2.5-2.8-5.7-4.2-8.9-5.6
		c-0.6-0.3-1.2-0.6-2.2-1.1c1.3-0.6,2.2-1.4,3-1.3c4.2,0.7,7.8-1.9,11.9-1.8c4.3,0.1,8.7-1.3,13-0.9c7.5,0.6,14.5,2.8,19.9,8.7
		c4.7,5.1,9.5,10.3,15,14.5c3.9,3,7.1,7.3,12.4,8.5c1.2,0.3,1.7,1.1,0.7,2.5c-1,1.4-1.5,3-2.1,4.5c-2.9-2.5-5.5-4.8-8.1-7
		c-0.5-0.4-1.5-0.6-1.9-0.3c-4.1,2.4-8.3,4.8-12.1,7.5c-2,1.4-3.5,3.6-5.2,5.5c-2.3,2.6-4.6,5.2-6.8,7.8c-1.4,1.6-2.8,3.1-4,4.8
		c-4.5,6.3-9.2,12.4-12.8,19.3c-2.3,4.6-4.9,9-7.3,13.6c-0.9,1.7-0.5,2.1,1.4,2.3c3.4,0.3,6.8,0.5,10,1.2c3.2,0.7,6.2,2.1,9.4,2.8
		c2.8,0.6,5.7,0.7,8.6,0.9c2.7,0.2,5.4,0.3,8.4,0.4c0-2,2-1.8,3.6-2.4c3-1,5.8-2.3,8.8-3.4c0.6-0.2,1.2-0.1,1.8-0.1
		c1.8-0.2,3.6-0.1,5.3-0.5c2.3-0.6,4.3-0.9,6.2,1c0.8,0.8,1.8,1.3,2.6,2c0.6,0.5,1,1.3,1.5,1.9c-0.2,0.2-0.3,0.5-0.5,0.7
		c1.9,0,3.7,0,5.6,0c1.1,0,1.6-0.6,1.4-1.8c-1.1-8-1.2-16.1-3.8-23.9c-0.3-0.9-0.5-1.8-1-2.5c-3.8-4.8-1.3-10.6,2.4-13.9
		c1.4-1.3,2.9-2.6,4.5-3.7c0.6-0.4,1.3-0.8,2-0.9c0.9-0.1,1.8,0,1.9-1.3c0-0.2,0.8-0.7,1-0.6c0.5,0.3,1,0.7,1.2,1.2
		c0.5,2.2,1,4.3,1.4,6.5c0.9,5.7,1.7,11.4,2.8,17.1c0.8,4.4,1.8,8.8,2.9,13.2c0.7,2.8,2,5.4,2.9,8.2c0.2,0.6-0.1,1.4-0.2,2.6
		c1.4-0.1,2.8-0.2,4.2-0.4c4.7-0.9,9.3-0.8,14,0.5c3.3,1,7,0.5,10.5,0.8c4.2,0.4,8.4,1,12.5,1.7c4.7,0.7,9.2,0.8,13.3-2.2
		c2.7-1.9,5.5-3.7,8.4-5.4c1.7-1,3.5-1.4,5.4,0.2c1.1,0.9,2.5,1.5,3.8,2.2c0.3,0.2,0.9,0.3,0.9,0.5c0.5,2.6,3.1,2.1,4.7,3
		c0.8,0.4,2.3,0.2,3.1-0.4c1.5-0.9,2.7-2.3,4.1-3.5c2.3-1.9,4.6-4,7.1-5.7c0.9-0.6,2.8-0.6,3.6,0c2.4,1.9,4.5,4.2,6.9,6.5
		c3.7,0.3,7.3,2.1,10.9,3.9c0.7,0.4,1.5,0.9,2.2,0.8c1.9-0.2,3.8-0.7,5.8-1.2c-1-4.5,2.1-6.7,5-9.1c2.5-2.2,4.9-4.5,7.3-6.8
		c5.2-5.1,10.3-10.3,15.5-15.4c4-4,8.5-7.7,12.1-12c6.2-7.3,11.1-15.4,12.4-25.3c0.9-6.3,2.8-12.5,4.1-18.8c0.5-2.1,0.6-4.3,1.2-6.3
		c0.3-1,0.2-2.8,2.3-2.4c0.2,0,0.5-1,0.9-1.8c0.4,0.4,0.8,0.8,1,1.2c2.2,4.7,4.2,9.4,4.7,14.5c0.4,4,1.2,7.9,1.4,11.9
		c0.3,5.5-0.5,11-2.6,16.1c-1,2.4-2.7,4.6-3.9,6.9c-1.1,1.9-1.9,4-3.1,5.8c-1.8,2.6-3.9,5.1-5.9,7.6c-0.3,0.3-0.7,0.5-0.9,0.9
		c-2.7,5.3-7.4,8.9-11,13.4c-2.3,2.9-4.9,5.6-7.9,7.6c-2.7,1.8-4.7,4.1-6.9,6.3c-0.3,0.3-0.6,0.6-1,0.8c-2.3,1.1-2.3,1.1-3.7,3.2
		c1.9,0,3.6,0,5.4,0c4.2,0.1,8.4,0.2,12.5,0.3c0.5,0,1.1-0.2,1.6-0.3c4.7-1.4,9.3-2,14.1-0.5c3,0.9,5.9-0.4,8.7-1.6
		c3.7-1.5,7.2-3.4,10.9-5c0.5-0.2,1.7,0,2,0.4c1.9,2.8,4.2,2,6.5,0.9c1.7-0.8,3.3-1.7,4.9-2.6c1.3-0.7,2.4-1.1,3.4,0.5
		c0.3,0.5,0.9,0.8,1.3,1.3c0.7,0.9,1.4,1.8,2.4,3.1c1.6-0.3,3.9-0.8,6-1.2c3.1-6.7,6.1-13.5,9.2-20.2c2-4.5,3.5-9,4.2-13.9
		c0.6-4.4,1.7-8.7,2.4-13.1c1-6.1-0.3-12.1-1-18.1c-0.4-3.4-2.1-5.7-4.7-7.7c-5.1-3.8-10-8-15.2-11.7c-5.4-3.8-11-7.2-16.5-10.9
		c-10.4-6.9-18.7-15.8-23.3-27.5c-1.5-3.9-2.1-8.4-2.5-12.6c-0.7-6.6-0.8-13.3-1.2-20c-0.3-4.2-0.7-8.4-1.1-12.6
		c0.2-0.1,0.3-0.1,0.5-0.2c0.8,1.8,1.5,3.5,2.3,5.3c2.9,6.9,3.6,14.2,4.4,21.6c0.6,5.8,1.3,11.7,2.8,17.4c0.9,3.4,3,6.7,5.1,9.7
		c3.6,5.2,8.5,9.2,13.7,12.8c4.7,3.2,9.6,5.8,14.3,9c5.7,3.9,10.9,8.4,16.7,12.1c4,2.6,6.4,6.6,9.5,10c2.7,3,5.5,6.1,8,9.3
		c2,2.5,4.2,5,5.3,7.9c1.2,3.2,3.8,6,3.5,9.7c-0.1,1.7-1,3.4-1.5,5.1c-0.3,0.9-0.5,1.8-0.9,2.7c-1.4,3.3-2.9,6.5-4.3,9.8
		c-2.1,4.9-4.1,9.9-6.2,14.8c-0.8,1.9-1.8,3.6-2.7,5.5c-0.5,1-0.7,2.1-1.2,3.1c-0.5,1.1-1.2,2.1-1.8,3.2c-0.4,0.8-0.9,1.5-1.3,2.5
		c2.8-0.6,5.1,3,7.7,1.1c2.7-1.9,5.7-1.7,8.7-2c3-0.3,6.1-0.2,9.2-0.4c3.2-0.2,6.5-0.2,9.7-0.8c2.5-0.4,4.2,1,5.9,2.1
		c3.3,2.1,6.7,2,10.2,1.5c1.3-0.2,2.6-0.7,3.9-0.8c1,0,2.2,0.1,2.9,0.7c1.8,1.4,3.7,1.4,6.1,1.1c-0.6-1-1.1-1.8-1.6-2.5
		c-1.3-1.7-0.6-1.7,0.9-2.8c2-1.5,3.2-0.3,5,0.2c0.1-0.6,0.1-1.1,0.2-1.7c1.2,0.5,2.3,0.9,3.4,1.4c0.1-0.2,0.2-0.3,0.3-0.5
		c-0.5-0.6-1-1.2-1.5-1.8c0.1-0.2,0.1-0.3,0.2-0.5c5.4,0.9,10.6,4.1,16.4,1.6c-0.5-0.8-1.1-1.6-1.4-2.5c-0.2-0.8-0.3-1.8,0-2.5
		c0.2-0.4,1.3-0.5,2-0.5c1.6,0.1,3.3,0.4,4.9,0.6c0.2,0,0.7-0.1,0.7-0.2c0.7-1.9,2.1-1,3.5-0.9c0.4-2.2,1.9-1.6,3.3-1.2
		c2.1,0.6,4.2,1.3,6.3,2.1c3.4,1.3,6.8,2.6,10.1,3.9c0.7,0.3,1.3,1,2,1.4c0.4,0.2,0.8,0.5,1.2,0.5c0.9,0,1.9-0.3,3.2-0.5
		c-0.8-1.3-1.4-2.4-2.1-3.6c-0.6-1-0.6-1.8,0.8-1.7c1.9,0.1,3.7,0.3,5.9,0.5c-1-1.5-2.1-3-3-4.6c-0.5-0.8-0.7-1.8-1-2.7
		c0.9,0.1,1.7,0.1,2.6,0.2c0.1,0,0.3-0.1,0.4-0.1c0.1-2.3,0.6-4.4,1.3-5.5c1.9,1.4,3.9,2.8,5.8,4.1c0.1-0.1,0.3-0.2,0.4-0.2
		c-1.6-2.4-3.2-4.8-4.8-7.2c0.2-0.1,0.4-0.3,0.6-0.4c3,2,5.8,4.2,7.6,7.4c0.9,1.7,1.4,3.7,2.6,5.2c1.5,1.8,3.4,3.2,5.5,5
		c0.4-4.8-1.6-8.4-3.4-11.9c-1.1-2-0.2-3.3,0.2-5c2.2,0.6,3.6,1.8,4.8,3.6c1.4,2.1,3.6,3.7,5.5,5.5c0.2-0.2,0.4-0.3,0.5-0.5
		c-0.3-2.2-0.7-4.4-1-7c1.3,0.6,2.2,1,3,1.5c0.6,0.3,1.3,0.7,1.5,1.3c0.9,2.7,1.7,5.4,2.5,8.1c0.2,0.5,0.5,1,1.2,1.3
		c0.1-1,0.2-2.1,0.3-3.1c3.7-0.4,3.2,2.9,4.7,4.9c0.4-1.6,0.7-3,1.1-4.4c1.8,1.9,3.7,3.8,5.9,6.1c-0.3-1.8-0.5-3.3-0.7-4.7
		c1.1-0.3,2.1-0.5,3.3-0.9c0.8,0.9,1.7,2.1,2.9,3.4c0.1-1.3,0.2-2.4,0.3-4.1c0.5,0.9,0.7,1.4,0.9,1.8c0.2,0.5,0.4,1,1,1.4
		c0-0.7,0-1.5,0-2.2c1.5,0.8,2.9,1.6,4.4,2.4c-0.3-2.2-0.6-4-0.9-6c1.3,0.6,2.1,1,3.1,1.5c0-1.7,0-2.9,0-4.3c2.3,0.8,4,2.6,6.4,1.2
		c0.2-0.1,0.8,0.4,1.2,0.7c1.6,0.8,3.1,1.7,4.8,2.5c0.5,0.2,1.1,0.1,1.6,0.1c0.1-0.2,0.1-0.4,0.2-0.6c-1.8-1.5-3.6-3-5.3-4.4
		c-7.9-6.6-13.5-14.9-17.9-24.1c-2.6-5.6-5.5-11.1-7.7-16.9c-3.3-8.8-5.5-17.9-5.6-27.4c0-2-0.8-2.6-2.5-2.7
		c-2.3-0.1-4.6-0.1-6.9-0.4c-2-0.2-4-1-6-1.2c-2.2-0.3-4.5-0.4-6.8-0.5c-2.7-0.2-5.4-0.1-8-0.4c-6-0.7-12.1-1.5-18.1-2.3
		c-3.5-0.4-7-0.7-10.5-1c-2.8-0.3-5.7-0.5-8.5-0.8c-6.1-0.6-12.2-1.2-18.3-1.7c-3.7-0.3-7.5-0.6-11.2-0.9c-0.3,0-0.6,0.1-0.8,0
		c-3.4-1.9-7.3-0.6-10.9-1.6c-1.5-0.4-2.7-0.8-3.4-2.3c-0.5-1.2-1.2-2.3-2.1-3.9c3.3-1.9,6.4-4.6,9.8-5.4c7.7-1.7,14.5-5.8,22.3-7.2
		c0.4-0.1,1-0.9,1.1-1.4c1-6.9,1.9-13.8,2.9-20.7c1.2-8.2,2.6-16.3,3.9-24.5c0.4-2.8,0.8-5.6,1.1-8.5c0.4-4.1,2.2-7.5,4.4-10.9
		c3.2-4.9,6.2-9.9,9.1-15c4.6-8,9-16,13.4-24c0.3-0.6,0.5-1.6,0.3-2.3c-2.3-6.6-4.5-13.2-7.3-19.7c-3.8-8.9-8-17.6-12-26.3
		c-1-2.2-2-4.4-3-6.6c0.2-0.1,0.3-0.3,0.5-0.4c1.3,1.6,2.7,3.1,3.8,4.9c2.5,4.2,5.1,8.4,7.3,12.7c2.4,4.8,4.5,9.8,6.6,14.7
		c2.5,5.6,4.8,11.3,7.4,17.3c5.5-8.7,10.9-17,16-25.6c5.1-8.6,9.8-17.4,14.7-26c0.3,0.1,0.6,0.3,0.9,0.4c-0.6,1.5-1.1,3.1-1.8,4.5
		c-3.7,7.3-7.3,14.6-11.4,21.8c-3.1,5.5-6.8,10.8-10.1,16.2c-2.3,3.7-4.5,7.5-6.6,11.3c-0.3,0.5-0.2,1.4,0,2
		c2.9,7.2,5.8,14.4,8.7,21.7c0.2,0.6,0.6,1.1,0.9,1.5c6.5-7.6,13-15.1,19.6-22.8c-3.5-1.9-7-3.8-10.5-5.7c5.1-0.5,9.7,1.4,14,3.7
		c4.3,2.2,8.3,4.9,12.6,7.5c1.5-3.8,3.1-7.9,4.7-12c3.4-8.3,6.8-16.6,10.2-24.9c1.2-3,2.7-5.9,2.2-9.4c-0.4-3.2-1.4-5.6-4.6-7.1
		c-2.5-1.2-4.8-3-7.1-4.5c0.1-0.2,0.1-0.4,0.2-0.7c1,0.1,2,0,2.9,0.3c4.1,1.5,8.3,3.1,12.7,4.8c1-3.3,1.9-6.2,2.7-9
		c3.6-12.2,7.2-24.4,10.7-36.6c1.7-6,3.3-12,5.1-18c0.5-1.6,1.7-3,2.6-4.6c0.3,0.1,0.5,0.2,0.8,0.3c-0.6,2.9-1.1,5.9-1.9,8.8
		c-1.2,4.3-2.6,8.5-3.8,12.8c-1.2,4.3-2.2,8.7-3.2,13.1c-1.3,5.5-2.4,11.1-3.7,16.6c-1.3,5.1-2.7,10.2-4.2,15.3
		c-0.5,1.6-0.3,2.3,1.4,2.7c5.1,1.1,10.2,2.3,15.3,3.4c9.9,2.1,19.7,4.2,29.6,6.2c1,0.2,2,0,3.7,0c-1.2-4.9-2.3-9.6-3.5-14.5
		c0.5,0.2,1.2,0.3,1.6,0.7c3.5,3.3,5.7,7.3,6.9,11.9c0.5,1.8,0.9,3.2,3.5,3.4c9.8,1,19.5,2.4,29.2,3.6c7.7,1,15.5,1.8,23.2,2.8
		c1.4,0.2,1.6-0.5,1.8-1.6c0.7-4,1.5-8.1,2.3-12.6c0.6,0.7,1.2,1,1.4,1.5c0.3,0.9,0.5,1.9,0.5,2.9c0.1,3.5,0,7.1,0,10.6
		c5.9,0.7,11.4,1.2,16.8,1.9c7.6,1,15.2,2.1,22.9,3.1c4.3,0.5,8.6,0.8,12.9,1c0.6,0,1.3-0.9,1.7-1.6c2.6-4.3,5.1-8.7,7.9-12.9
		c1.3,5.7-2.7,10-3.6,15.3c1.4,0,2.7-0.1,4,0c3.8,0.2,7.6,0.3,11.4,0.7c4.8,0.5,9.5,1.3,14.2,1.9c5.5,0.7,11,1.2,16.6,1.8
		c0.7,0.1,1.6-0.3,2-0.8c3.3-4.1,6.5-8.3,9.8-12.5c0.9-1.1,1.8-2.2,2.8-3.4c1.5,1.6,1.2,3,0.3,4.7c-2.2,3.8-4.4,7.7-6.5,11.6
		c-0.2,0.3-0.2,0.8-0.4,1.3c0.6,0.2,1.1,0.5,1.6,0.6c9.6,1,19.2,2,28.7,2.9c5.9,0.6,11.7,1.1,17.6,1.5c0.5,0,1.2-0.5,1.6-0.9
		c2.8-2.9,5.2-6.1,9-7.9c0.1,0,0.3,0,1.1,0c-2,3.2-3.8,6.2-5.9,9.6c11.7,0.6,23.2,1.2,34.7,1.7c0,0.1,0,0.1,0,0.2
		c-2.5,0.5-5,0.9-7.4,1.6c-1.4,0.4-2.6,1.4-4,1.8c-3.6,1-7.2,2-10.8,2.6c-4.9,0.9-9.8,1.4-14.7,2.1c-0.5,0.1-1.1-0.1-1.6-0.2
		c-1.6-0.3-2.9,0.1-4,1.5c-6.3,8.1-10.8,17.3-15.9,26.1c-2.4,4.1-4.4,8.3-6.6,12.4c-2.5,4.7-5.2,9.3-7.5,14.1
		c-1.1,2.3-1.8,4.9-2.6,7.4c-0.1,0.3-0.2,0.7-0.4,1c-1.2,2.4-2.5,4.8-3.6,7.2c-2.5,5.3-5.1,10.6-7.5,16c-2.5,5.8-4.8,11.6-7.3,17.4
		c-1.6,3.7-3.4,7.3-4.9,10.9c-0.9,2-1.5,4.1-2.3,6.3c3,1.2,6.3,2.5,9.6,3.8c1.7,0.7,3.3,1.4,5,2c3.5,1.1,5.9,3.5,7.6,6.7
		c1.8,3.4,3.7,6.7,5.5,10.2c0.6,1.2,0.8,2.6,1.1,4C1116.7,349.7,1116.7,349.9,1116.8,350.2z M1075.4,319c6.5-21,16.2-40.7,26.5-60.1
		c10.3-19.4,23.4-37.2,36.5-55c-2.4-0.2-4.6-0.6-6.7-0.6c-3.7,0-7.4,0.2-11.1,0.2c-5.9-0.1-11.7-0.3-17.6-0.6
		c-1.8-0.1-3.5-0.3-5.3-0.6c-2.5-0.5-4.7,0.4-5.8,2.7c-1.6,3.4-3.2,6.7-4.9,10c-1.2,2.5-2.7,4.9-3.7,7.4c-2,4.6-3.6,9.4-5.6,14.1
		c-1.4,3.2-2.3,6.5-4.2,9.5c-1.7,2.8-1.9,6.6-3,9.8c-1.8,5-3.8,9.9-5.6,14.9c-1,2.7-1.9,5.4-2.9,8.2c-1.2,3.4-2.4,6.7-3.7,10.1
		c-0.4,1.1-0.8,2.2-1.1,3.3c-1.1,3.7-2,7.5-3.5,11c-0.9,2.2-1.4,4.5-2.2,6.8c-0.7,2,0.1,2.4,1.7,2.8
		C1060.6,314.9,1067.9,316.9,1075.4,319z M860.5,272.1c1.6-1.8,2.9-3.1,4-4.6c2.1-2.7,3.8-5.9,6.3-8.1c4.6-4,9.5-7.7,14.6-11.1
		c4.4-2.9,9.2-5.2,13.9-7.6c4.6-2.3,9.3-4.2,14-6.4c0.7-0.3,1.4-0.9,1.7-1.5c0.4-0.9,0.5-1.9,0.6-2.8c1-9.1,1.9-18.1,2.9-27.2
		c0.1-0.7,0.6-1.3,0.9-2c-0.1-0.6-0.4-1.3-0.3-2c0.4-5.4,0.7-10.8,1.3-16.2c0.2-1.7-0.3-2.3-1.9-2.7c-4.6-1.2-9.2-2.4-13.8-3.9
		c-4.9-1.6-9.8-3.6-14.6-5.5c-6.1-2.4-12.2-5-18.3-7.5c-1-0.4-2.2-0.6-3.6-1c0.6,1.8,1.2,2.9,1.3,4.1c0.5,5.4,1.1,10.9,1.2,16.4
		c0.1,7.2-0.3,14.3-0.7,21.5c-0.3,5.2-1,10.3-1.6,15.5c-0.7,6.4-1.3,12.8-2.1,19.2c-0.6,4.5-1.4,8.9-2.2,13.3
		c-0.6,3.4-1.3,6.8-1.9,10.1C861.5,265.2,861.1,268.4,860.5,272.1z M1041.4,310.1c7.2-39.2,24.6-73.8,42.9-108.1
		c-3.7-0.3-7.4-0.3-11-0.8c-2.7-0.4-5.6,0.9-8.1-0.9c-1.3-0.9-2.5-0.6-3.9-0.3c-1.4,0.3-2.9,0.6-4.4,0.5c-4.5-0.4-9.1-1-13.6-1.4
		c-0.6-0.1-1.5,0.4-1.8,0.9c-1.2,2.6-2.4,5.3-3.3,8c-2.1,5.9-4.1,11.9-6.1,17.9c-1.6,4.6-3.2,9.2-4.7,13.8c-1,3.2-1.8,6.5-2.9,9.8
		c-1.3,4.3-2.9,8.6-4.1,13c-0.3,1,0.1,2.4,0.6,3.4c3.7,6.6,7.7,13,11.3,19.6c0.9,1.7,2.6,3.6,1.4,5.4c0.8,1.2,1.6,2.1,2,3.2
		c1.4,4.6,2.7,9.2,4.1,13.8C1040,308.6,1040.7,309.2,1041.4,310.1z M835,207.4c-2.4,3.5-4.7,6.6-6.7,9.9c-1.6,2.6-2.6,5.4-4.1,8.1
		c-2.3,4-4.8,7.9-7.1,11.9c-1.3,2.2-2.1,4.3-0.6,7.1c2.2,4,3.8,8.3,5.6,12.6c2.6,6.2,5.1,12.5,7.8,18.6c2.5,5.5,5.2,10.9,7.8,16.3
		c2,4.1,2,4.1,6.4,3.6c1.4-0.1,2.1-0.6,2.4-2c0.6-3.4,1.4-6.8,2.1-10.2c1-4.5,2.2-9,3-13.6c1.2-6.1,2.3-12.3,3.3-18.5
		c1.3-8,2.5-15.9,3.4-23.9c0.8-6.8,1-13.7,1.4-20.6c0.4-6.5,0.9-13,1.2-19.6c0.1-1.4,0-2.7,0-4.1c-1.5,2.3-2.5,4.7-3.6,7
		c-2.2,5-4.5,10-6.7,15.1c-0.4,1-0.8,2.1-1,3.2c-0.7,3-1.2,6-2.1,8.9c-0.2,0.8-1.4,1.3-2.1,1.9c-0.5-0.6-1-1.1-1.3-1.8
		c-0.5-1-0.6-2.4-1.4-3.2C840.4,211.8,837.8,209.7,835,207.4z M954.4,412.3c0.6,2.5,1,2.7,3.4,1.9c0.3-0.1,0.7-0.2,1,0
		c2.4,1.2,4.4-0.5,6.5-1.2c3.1-1,6-2.8,9-4.1c1.6-0.8,3.3-1.3,5-2.1c1.2-0.5,1.3-1.3,0.5-2.5c-5.1-7.4-10.1-14.8-15-22.3
		c-6.2-9.4-12.3-18.9-18.5-28.3c-2.2-3.3-2.2-3-5.9-2.1c-2.9,0.7-3.6,2.5-4.1,5c-0.4,2.2-1.3,4.3-2,6.4c-0.8,2.3-2.2,4.6-2.3,7
		c-0.1,3.3-2.3,5.9-2.6,9.2c-0.4,3.9-2.6,7.5-3.9,11.3c-0.7,2-0.9,4.1-1.6,6c-1.1,3.4-2.3,6.8-3.5,10.2c-1,2.7-1.9,5.4-3.1,8.6
		c4.1,1,8,1.9,12.7,2.9c-0.6-3-1-5.4-1.5-7.8c0.1,0,0.5,0,0.8-0.2c1.3-1,2.5-1.4,3.8,0.1c0.9,1,2,2,3.1,2.7c1.3,0.8,2.7,1.3,4.1,1.9
		c0.3,0.1,0.7,0,0.6,0c0.5-1.8,1-3.3,1.4-4.7c1.5,1.5,2.7,2.9,4.1,4.1c0.5,0.4,1.4,0.2,2.1,0.3c0-0.9,0.3-2.1-0.1-2.6
		c-0.9-1.2-2.2-2-3.3-3c0.2-0.2,0.3-0.4,0.5-0.6c1.9,1.2,3.9,2.1,5.6,3.5C952.2,412.9,953,413.7,954.4,412.3z M788.4,257.1
		c-0.1-0.1-0.3-0.2-0.4-0.3c0-0.1-0.1-0.3,0-0.4c5.8-8.2,11.6-16.5,17.4-24.8c0.5-0.7,0.6-2,0.3-2.8c-2.5-6.4-5.2-12.7-7.8-19.1
		c-0.5-1.1-0.9-2.2-1.5-3.7c-1.3,2.2-2.4,3.9-3.5,5.7c-1.9,3.2-4,6.3-5.8,9.5c-1.8,3.3-3.3,6.7-5.2,10c-2.8,4.9-5.8,9.6-8.7,14.5
		c-1.1,1.9-2.6,3.9-3,6.1c-1.5,8.3-2.7,16.7-4,25.1c-1.2,7.8-2.4,15.5-3.8,23.3c-0.4,2.6-1.2,5.1-1.9,8c1.9-0.6,3.3-1.2,4.8-1.5
		c5-1,9.9-2,14.9-2.9c1.2-0.2,1.5-0.8,1.8-1.9c0.8-3.2,1.5-6.5,2.6-9.7c2.3-6.3,4.8-12.6,7.3-18.8c1.4-3.6,3-7.1,4.5-10.7
		c0.9-2.2,1.8-4.4,2.7-6.6c-0.2-0.1-0.3-0.2-0.5-0.3c-6.3,9.1-12.7,18.1-19,27.2c-0.2-0.6-0.1-1,0.1-1.3c4.6-7.6,9-15.2,13.7-22.7
		c4.6-7.3,9.6-14.3,14.5-21.4c1.1-1.6,0.8-3.2-0.9-4.5C800.8,241,794.6,249,788.4,257.1z M1033.4,197.8c-4.9-0.5-9.2-0.9-13.4-1.5
		c-4.1-0.6-8.2-1.5-12.4-2.2c-6-0.9-12-1.7-18-2.6c-1.1-0.2-1.7,0.2-1.7,1.4c0,1-0.1,2.1-0.3,3.1c-1.4,6.7-2.8,13.4-4.1,20.1
		c-1.2,5.9-2.3,11.7-3.6,17.6c-0.4,1.7,0,2.3,1.6,2.8c8.7,2.7,16.3,7.4,23.6,12.7c2.1,1.6,4.1,3.4,6.5,5.4
		C1017.2,234.8,1024.5,216,1033.4,197.8z M928.5,230.3c13.9-2,27.4-2.2,40.8,2.5c3.8-14.2,7.4-28,11.1-41.9
		c-16.8-2.8-33.1-5.6-49.8-8.4c0.2,7.9,0.8,15.8,0.5,23.7C930.7,214.1,929.4,222,928.5,230.3z M923.2,344.4c-1.3,0.7-2.6,1.3-3.9,2
		c-5.1,2.6-9.5,6.4-15.2,7.8c-1.5,0.4-2.8,1.7-4.1,2.7c-1.5,1-2.8,2.2-4.4,3c-3.6,2-7.3,3.7-10.9,5.6c-2.7,1.4-5.3,3-7.9,4.4
		c-2.2,1.2-4.4,2.2-6.6,3.4c-2.2,1.2-2.5,2.5-1.2,4.6c0.9,1.5,1.9,3.1,2.9,4.6c3.4,5.4,6.8,10.8,12,14.7c6.3,4.7,12.7,9.3,19.8,12.7
		c1.3,0.6,2.6,1.1,4,1.6c0.3-1.7,0.5-3,0.9-4.4c1.7-6,3.2-12.1,5.1-18.1c1.7-5.3,3.8-10.5,5.5-15.7c2.4-7.1,4.5-14.3,6.9-21.4
		c0.8-2.4,1.3-4.5-1.4-6C924.1,345.8,923.8,345.2,923.2,344.4z M989.5,397.4c1.8-2.1,3.5-4.2,5.4-6.2c5.3-5.8,10.3-11.9,14.1-18.7
		c2.9-5.2,4.9-10.9,7.2-16.4c0.2-0.5-0.3-1.7-0.8-1.9c-5.3-1.6-10.7-3.1-16.1-4.6c-0.9-0.3-1.9-0.5-2.8-0.8
		c-1.8-0.7-3.6-1.7-5.5-2.3c-3.2-1-6.6-1.7-9.8-2.8c-4.5-1.5-9-3.4-13.5-5c-2.6-0.9-5.5-0.7-8.2-3.5c-0.2,5.5-4.4,7.3-6.8,9.9
		c6.6,8.6,13.4,16.7,19.5,25.3C978.4,379,983.7,388.2,989.5,397.4z M959.9,247.4c-0.9,0-1.5,0-2.1,0c-5.2-0.4-10.3-0.9-15.5-1.3
		c-5-0.3-10-1.2-15,0.6c-1.2,0.4-1.7,0.8-1.8,2c-0.6,4.4-1.3,8.8-2.1,13.1c-0.9,4.7-2,9.3-3.1,13.9c-0.7,3.1-1,6.5-2.4,9.3
		c-1.6,3.3,0.1,5.6,1.2,8.2c0.2,0.4,0.8,0.7,1.2,0.7c5.5,0.3,11,0.5,16.5,0.7c1.6,0,3.3-0.6,4.8-0.3c2.6,0.5,3.9-0.5,4.6-2.8
		c0.2-0.7,0.5-1.5,0.7-2.2c2.1-6.5,4.1-13.1,6.2-19.6c0.3-0.9,0.5-1.9,0.8-2.8c0.8-2.6,1.6-5.2,2.4-7.7
		C957.5,255.4,958.7,251.5,959.9,247.4z M835.6,296.3c-7.7-17-15.2-33.7-22.9-50.6c-5,9.3-9.3,18.4-12.6,27.9
		c-3.3,9.5-7,18.8-10.6,28.3C805,298.7,820.2,297.5,835.6,296.3z M975,254.2c-1.3,4.9-2.8,9.8-4,14.8c-0.9,3.6-1.5,7.4-2.5,10.9
		c-0.9,3.2-2.1,6.3-3.6,9.3c-1.1,2.2-2.9,4.1-4.1,5.9c5.6,0.7,11.1,1.5,16.5,2.2c0.7,0.1,1.5,0,2.2-0.3c1.8-0.8,3.4-1.8,5.2-2.7
		c1.8-0.9,3.7-1.7,5.6-2.6c2.7-1.3,5.2-2.8,8-3.9c2.7-1,5-2.1,5.2-5.5c0.1-0.9,0.3-1.9,0.7-2.8c1.3-2.8,1.3-5.1-1.5-7.2
		c-4.1-3.2-7.7-6.9-12-9.7c-4.7-3.1-10-5.6-15-8.3C975.5,254.2,975.2,254.2,975,254.2z M1019.4,345.5c2.8-5.7,2.4-12,3.5-18
		c0.2-1.4-0.5-2.2-2.1-2.4c-3.2-0.4-6.5-1-9.7-1.7c-5.1-1-10.1-2.2-15.2-3.2c-7-1.3-14-2.5-21-3.7c-0.5-0.1-1.1,0-1.6,0.2
		c-4.7,1.5-7.4,5.8-11.4,8.3c-0.2,0.1-0.2,0.6-0.4,1.1C980.9,332.5,1000.2,339,1019.4,345.5z M916.2,328c-5.4-2-10.7-4.1-16.1-6.1
		c-1.5-0.6-3-1-4.5-1.4c-2.4-0.6-4.9-1.1-7.4-1.6c-3.1-0.6-6.2-1.1-9.4-1.3c-2.1-0.1-4.2-1.3-6.3-1.9c-3.1-0.8-6.3-1.5-9.5-1.9
		c-1-0.1-2.3-0.2-2.5,1.7c-0.4,4.4-1,8.7-1.6,13c-0.2,1.5,0.1,2.4,2,2.6c6.5,0.5,13,1.3,19.5,1.9c4.1,0.4,8.3,0.5,12.4,1.3
		c4.9,0.9,10.2,0.5,14.6,3.6c0.4,0.3,1.3-0.1,1.9-0.4c1.6-0.8,3.3-1.6,4.8-2.4c3.2-1.8,3.1-0.8,2.4-4.4
		C916.3,329.9,916.3,329,916.2,328z M906.4,294.3c-0.2-0.8-0.3-1.3-0.4-1.6c-4.5-8.7-9-17.4-13.6-26c-1.4-2.7-2.2-2.8-4.6-0.7
		c-3.2,2.8-6.4,5.6-9.6,8.4c-0.6,0.5-1,1.3-1.4,2c-1.4,2.4-2.2,5.2-4.1,7.1c-2.7,2.6-3,6.3-4.9,9.2c-0.2,0.3-0.2,0.9-0.3,1.3
		c2.8,0.2,5.5,0.6,8.2,0.6c5.5,0,10.9-0.2,16.4-0.4c1.4,0,2.7-0.1,4.1-0.2c1.1-0.1,2.2-0.3,3.3-0.3
		C901.6,293.9,903.8,294.1,906.4,294.3z M839.9,328.2c0.9-4.1,1.8-8.3,2.6-12.5c0.3-1.3-0.8-1.9-2.2-1.7c-3.5,0.4-7,1.5-10.7,0.8
		c-1.7-0.3-3.5-0.4-5.1,0c-3.5,0.9-7,0.7-10.6,0.4c-0.5,0-1-0.1-1.5,0c-2.6,0.4-5.2,0.8-7.8,1.2c-3.8,0.5-7.6,0.9-11.5,1.3
		c-1.1,0.1-2.2,0.5-3.2,0.2c-2.7-0.6-5,0.1-7.5,1.1c-1.2,0.5-2.7,0.5-4,0.6c-1.4,0.1-2.8,0-3.8,1.7
		C796.7,323.2,818.5,324.7,839.9,328.2z M862.6,364.4c2.5-1.5,4.5-2.9,6.7-4.1c2.2-1.3,4.3-2.6,6.5-3.9c0.8-0.4,1.7-0.5,2.5-0.9
		c3-1.7,6-3.4,9-5.1c1.4-0.8,2.9-1.7,4.3-2.6c0.4-0.3,0.7-0.9,1.2-1.5c-1.6-0.4-2.8-0.7-4-0.9c-2.8-0.4-5.5-0.7-8.3-1.1
		c-0.9-0.1-1.8-0.5-2.7-0.5c-5.3-0.4-10.7-0.6-16-1.2c-3.5-0.4-3.4-0.7-3.1,2.9c0,0.4,0,0.8,0,1.3c-0.3,5,1.3,9.7,2.6,14.5
		C861.8,362,862.1,363,862.6,364.4z M1099.1,404.5c-1.4,0.3-2.3,0.6-1.5,2.1c1.3,2.2,0.3,4-1.1,5.7c-0.3,0.3-0.5,0.9-0.4,1.2
		c1,2.4-0.3,4.5-1,6.6c-0.6,2.1-2,2.2-3.3,0.6c-0.7-0.8-1.2-1.9-1.4-2.9c-0.6-3.5-1-7-1.5-10.5c-1.1,0.6-2.1,1.2-3.4,1.9
		c0.4,0.6,0.8,1.2,1.1,1.7c1.6,2.5,1.1,6.5-1.1,8.4c-1,0.9-3,0.8-3.8-0.4c-0.7-1.1-1.2-2.4-1.8-3.6c-0.8,0.5-1.6,0.9-2.3,1.3
		c0.4,3.8,0.4,3.8-1.4,7.1c-0.2,0.4,0,1,0,1.9c2.8-3,11.6-3.6,15.1-1.5c-0.3,0.7-0.7,1.4-1.1,2.2c0.5,0.1,0.9,0.3,1.3,0.2
		c3.3-1.2,6.5,0.2,9.3,1.3c2.8,1.1,5.6-0.4,7.9,1.5c-0.5-5.7-1.1-11-1.6-16.4c-0.5,0.5-0.7,1-0.8,1.5c-0.4,1.9-1.7,3.2-3.5,3.3
		c-1.8,0.1-2.5-1.5-2.9-3c-0.2-0.7-0.4-1.5-0.5-2.2C1099.4,410,1099.2,407.3,1099.1,404.5z M909.5,272.9c0.9-6.8,1.7-13.5,2.6-20.2
		c-4.4,1.8-8.9,2.3-12.2,4.8C903.2,262.8,906.3,267.8,909.5,272.9z M811.7,231.8c1.4-2,2.7-3.9,4-5.8c3.2-4.5,6.4-9.1,9.7-13.6
		c0.5-0.7,1.3-1.2,1.9-1.8c0.1,0.1,0.3,0.3,0.4,0.4c-1.2,1.9-2.4,3.8-3.6,5.6c0.1,0.1,0.3,0.2,0.4,0.2c2.8-3.4,5.7-6.8,8.6-10.4
		c-1.3-0.9-2.2-1.6-3.3-2.4c-1.1,1.3-2.2,2.4-3.2,3.7c-5.1,6.5-10.1,13-15.2,19.4C810.2,228.8,810.1,230.1,811.7,231.8z
		 M1020.4,304.7c-1.3-3.8-2.5-7.4-3.7-11.1c-0.9,0.5-1.4,0.7-1.9,1c-2.7,1.6-5.9,2.6-6.7,6.3c-0.3,1.4,0,2,1.2,2.2
		C1012.8,303.7,1016.4,304.1,1020.4,304.7z M919.3,318.6c0.1-0.2,0.2-0.3,0.3-0.5c-0.5-0.9-1.1-1.7-1.5-2.7c-0.8-1.9-2.1-2.2-4-2
		c-2,0.2-4,0-6,0c0,0.2-0.1,0.5-0.1,0.7C911.8,315.6,915.6,317.1,919.3,318.6z M1072.6,408.4c2.2-4.7,2.8-11,0-12.7
		C1072.6,400,1072.6,404.2,1072.6,408.4z M1083.5,409.7c-1.9,2.2-1.8,6,0.3,8.7C1086,416.2,1085.9,412,1083.5,409.7z M1074.3,414.9
		c-0.2,0.2-0.4,0.3-0.6,0.5c0.2,2.4,0.5,4.8,0.7,7.8c2.3-2.2,1.7-4.3,1.3-6.3C1075.5,416.2,1074.7,415.6,1074.3,414.9z
		 M1089.5,391.9c0.3,2.9,0.5,5.7,0.8,8.6C1091.8,397.5,1092,394.6,1089.5,391.9z M957.2,291.3c-0.2,0-0.4,0-0.5-0.1
		c-0.2,1-0.5,2.1-0.7,3.1c0,0.2,0.5,0.5,0.7,0.8c0.3-0.3,0.7-0.5,0.7-0.8C957.5,293.4,957.3,292.3,957.2,291.3z"/>
	<path class="st1" d="M213.1,264.6c0.8,0.4,1.6,0.7,2.3,1.2c4.3,3.3,8.6,6.5,12.7,9.9c2.8,2.3,6.1,3.6,9.5,4.6
		c3.8,1.1,7.5,2.4,11.3,3.4c0.8,0.2,1.8,0.1,2.6-0.2c1.2-0.4,2.3-1.2,3.6-1.7c1.4-0.5,1.9-1.4,1.9-2.8c0-3.2-1.1-6.1-3.1-8.4
		c-3.6-4.1-7.4-8-11.2-12c-0.3-0.3-1.1-0.3-1.7-0.3c-1.8-0.1-3.7-0.2-5.5-0.3c0-0.3-0.1-0.5-0.1-0.8c1.4-0.5,2.8-1.1,4.3-1.3
		c5-0.8,10-1.5,15-2.1c0.6-0.1,1.2,0.3,1.8,0.4c-0.5,0.4-0.8,1.1-1.4,1.3c-2.5,0.9-5,1.8-7.7,2.7c8.4,4.8,16,10.8,20.9,19.4
		c2.9-0.5,4.9,1.3,6.4,3.1c1.8,2.1,3.9,3.4,6.1,4.9c5.3,3.5,5.5,2.2,2.8,8.2c-1.8,4.2-2.9,8.7-4.2,13.1c-1.4,4.8-2.2,9.8-3.8,14.6
		c-1.8,5.3-4.3,10.2-8.3,14.2c-2.5,2.5-5.2,4.9-7.7,7.6c-2.3,2.5-5.3,4.2-7.9,6.2c-1.2,0.9-1.7,2.9-2.1,4.6
		c-1.9,7.8-7.7,10.7-14.8,7.3c-4.6-2.2-8.8-5.1-12.3-9c-4.9-5.5-3.3-9.8,1-13.7c3.2-3,6.3-6,8.6-9.8c2.3-3.8,3.2-7.8,3.7-12.1
		c0.3-2.6,0.3-5.1,0.4-7.7c0.4-5,1.8-9.7,4.3-14c0.6-1,0.7-1.5-0.6-2c-6.8-2.2-12.4-6.2-17.3-11.3c-2.1-2.2-4.3-4.4-6.4-6.6
		c-1.6-1.7-2.7-3.7-2.8-6.1c-0.1-1.3-0.6-2.6-0.9-4C212.7,264.8,212.9,264.7,213.1,264.6z M266.5,306.7c-1.4-0.1-2-0.3-2.5-0.1
		c-2.5,0.9-4.9,1.9-7.3,3c-0.3,0.2-0.5,1.3-0.3,1.7c1,2.4,2.2,4.8,3.4,7.5C262,315,264.1,311.1,266.5,306.7z"/>
	<path class="st1" d="M294,235.8c0.8,0.7,1.7,1.3,2.3,2.1c2,2.6,2,2.4,5.2,1.8c3.6-0.6,7.3-0.7,10.9-0.9c2.1-0.1,4.3,0.2,6.4,0.5
		c4.1,0.6,7.3-1.6,10.3-3.8c5.5-4,10.7-8.5,16.2-12.6c5-3.8,10-7.6,15.3-10.9c6.2-3.8,13.1-4.7,20.3-3.5c5.6,0.9,11.2,1.8,16.8,2.8
		c0.9,0.2,1.7,1,2.4,1.7c-4.2,0.9-7.4,3.2-10.4,5.6c-1.9,1.5-3.5,3.5-5.3,5.2c-0.6,0.5-1.4,0.8-2,1.3c-0.4,0.3-1.1,0.6-1.2,1
		c-0.9,2.9-3.6,4.3-5.4,6.4c-1.1,1.4-2.1,2.8-3.2,4.2c-0.8,0.9-1.7,1.7-2.6,2.4c-3,2.4-6,4.7-9.1,7c-1.4,1.1-2.9,2-4.6,3.1
		c2.6,2.2,1.7,5,2.1,7.5c0.4,2.9,0.9,5.8,1.4,8.8c0.1,0.7,0.5,1.5,0.2,2c-0.9,1.7-0.4,2.7,1.8,3.9c-1.8,1-3.1,2.2-4.4,2.4
		c-3.7,0.6-7.5,0.9-11.2,1.1c-2.3,0.1-4.7,0.3-6.8-0.3c-4.9-1.4-10.4-1.4-15-5.2c7.9,0.7,15.3,1.8,22.9,1.3
		c-0.7-6.4-1.3-12.5-2-18.9c0.7,0.3,1.1,0.4,1.5,0.6c0.2-0.5,0.5-1,0.7-1.6c0.2-0.5,0.5-1,0.9-1.9c-2.9-0.2-5.4-0.1-7.9-0.5
		c-2.4-0.4-4.8-1.2-7.2-1.9c-2.9-0.8-5.9-1.5-8.7-2.6c-3.2-1.2-6.5-1.3-9.9-1.3c-3.9,0-7.8-0.1-11.7-0.1c-0.5,0-1,0.2-1.5,0.3
		c0.2,0.4,0.4,1,0.7,1.3c2.8,2.6,5.7,5.1,8.6,7.6c4.8,4.1,9,8.7,11.8,14.4c1.3,2.8,2.4,5.8,3.1,8.9c0.5,2.2,0.1,4.7,0.1,7
		c0,0.6,0.2,1.3-0.1,1.8c-0.5,1-0.9,2.4-1.8,2.8c-1.1,0.6-3.2-1.2-3.2-2.5c-0.2-7.9-3.5-14.9-7.4-21.5c-1.5-2.5-3.7-4.5-5.7-6.6
		c-3.4-3.8-7.1-7.3-10.2-11.3c-1.7-2.2-2.6-5-3.9-7.5c-0.1-0.3,0-0.7,0-1C293.6,236.1,293.8,235.9,294,235.8z"/>
	<path class="st1" d="M840.7,33.4c0.5-0.2,1-0.5,1.4-0.4c4.4,0.8,8.9,1.9,13.3,2.3c6.8,0.7,13.7,1,20.5,1.4c0.5,0,1.3-0.6,1.6-1.2
		c2.4-4.9,4.6-9.8,7.1-14.6c2.2-4.2,7.2-4.4,9.8-0.4c1,1.4,1.5,3.3,1.8,5c0.6,3.2,0.8,6.5,1.2,9.9c1.3,0,3,0.2,4.6,0
		c6.1-0.7,12.1-1.5,18.1-2.3c1.9-0.2,3.8-0.5,5.8-0.6c2.1-0.1,3.4,2.3,3.2,5.1c-0.5,5.7-2.6,10.5-7.1,14.2c-2.2,1.9-3.9,4.4-6.4,5.8
		c-2.2,1.3-5,1.8-7.7,2.3c-4.7,0.8-9.4,1.3-14.4,2c0.3,1,0.6,2.1,0.8,2.9c-0.9,2.4-1.7,4.6-2.7,7.1c0.7,0.5,1.5,1.2,2.3,1.4
		c3.2,0.7,5.7,2.5,7.9,4.9c0.6,0.7,0.8,1.7,1.2,2.6c-0.9-0.1-1.8-0.1-2.7-0.4c-1.9-0.5-3.8-2.7-6.1,0.1c1,1,2.2,2,3.4,3.2
		c-2.4,0.8-4.1,0.2-5.1-2.1c-0.9-2-1.3-4.1-1.9-6.1c-0.8-2.7-1.2-2.7-3.5-1.4c-1.5,0.9-3.3,1.4-5.2,2.2c-0.7-1.7-1.3-3.4-2.2-5.4
		c0.3-0.7,0.9-1.9,1.5-3.2c0.7-1.5,0.3-2.6-1.2-3.3c-1.5-0.7-2.7-0.1-3.6,1.2c-0.7,1.1-1.5,2.1-2.4,3c-0.3,0.3-1.1,0.2-1.8,0.4
		c0.3-1.9,0.7-3.4,0.8-5c0.2-1.8-0.7-2.5-2.5-2.8c-4.1-0.6-8.3-1-12.2-2.2c-3.6-1.2-7-3.3-10.3-5.2c-1.1-0.6-1.9-1.8-2.6-2.9
		c-2.7-4.1-4.6-8.5-4.2-13.8c0.3,0.4,0.8,0.8,0.9,1.2c0.9,4.7,2.5,9.1,6,12.5c1,1,2.2,2,3.4,2.6c7.4,3.5,15.3,4.5,23.5,4.7
		c7.7,0.1,15.3,0.3,22.9-0.5c2.7-0.3,5.5-0.4,8-1.2c2.3-0.7,4.5-2.1,6.6-3.4c4.2-2.5,7.5-5.9,10.2-10c1.6-2.5,2.5-5.2,2.9-8.6
		c-3.4,0.6-6.6,1.2-9.7,1.7c-2.9,0.5-5.8,0.9-8.7,1.2c-1.7,0.2-3.5,0.4-5.3,0.5c-7.4,0.2-14.8,0.4-22.3,0.6
		c-4.8,0.1-9.7,0.4-14.5,0.1c-6-0.3-11.9-0.8-17.6-2.8c-1.5-0.5-3.1-0.4-4.7-0.7c-0.9-0.2-1.7-0.6-2.6-1
		C840.7,33.9,840.7,33.6,840.7,33.4z M891.5,36.1c0-2,0-3.5,0-5c0-2.9,0.2-5.9,0-8.8c-0.1-1-1-2.2-1.9-2.7c-1.2-0.7-2.5-0.5-3.1,1.2
		c-0.7,1.8-1.6,3.6-2.4,5.4c-1.6,3.3-3.2,6.6-4.9,9.9C883.5,36.1,887.6,36.1,891.5,36.1z"/>
	<path class="st1" d="M456.5,263c0.3,0.8,0.9,1.6,1,2.5c0.6,4,1,8,1.6,11.9c0.1,1,0.4,2.1,0.6,3.1c0.7,2.9,1.3,5.7,2,8.6
		c1.4,5.9,2.9,11.8,4.4,17.8c1,3.9,1.9,7.8,2.9,11.7c0.8,3.1,1.7,6.1,2.3,9.3c0.9,4.7,1.2,9.3-0.9,13.8c-0.1,0.1-0.2,0.3-0.1,0.4
		c0.2,4.8-3.1,8.2-5.5,11.7c-1.8,2.6-4.9,4.4-7.4,6.5c-0.3,0.2-0.6,0.3-0.9,0.5c-1.8,1.5-3.5,3.2-5.4,4.6c-4.7,3.2-9.5,6.2-14.3,9.3
		c-0.5,0.3-1,0.5-1.6,0.8c-0.1-0.2-0.2-0.3-0.3-0.5c1.5-1.4,3.1-2.9,4.6-4.3c2.5-2.3,4.8-4.9,7.5-6.9c6.4-4.7,10.5-11.1,13.1-18.3
		c2.8-7.9,3.6-16.3,1.8-24.5c-3-13.7-5.7-27.4-6.6-41.4c-0.3-4.8,0-9.6,0-14.4c0-0.7,0.2-1.3,0.4-2
		C455.9,263.1,456.2,263.1,456.5,263z"/>
	<path class="st1" d="M784,140.1c3.3-0.3,6.6-0.7,9.9-1c7.5-0.7,14.9-1.6,22.4-2c10-0.5,18.5-4.8,27.2-9.2
		c6.9-3.5,13.9-6.6,20.9-9.8c0.5-0.2,1.1-0.2,1.8-0.1c-2.2,3.9-4.6,7.5-9.1,9.1c-1.2,0.4-2.3,1.3-3.4,2c-3.9,2.4-7.9,4.8-11.8,7.1
		c-2.1,1.3-4.2,2.7-6.4,3.8c-1.5,0.8-3.2,1.1-4.8,1.6c-1.3,0.4-2.6,1.1-3.9,1.2c-4.2,0.4-8.5,0.6-12.7,0.8c-3.6,0.1-7.2-0.1-10.8,0
		c-3.3,0.1-6.5,0.5-9.8,0.7c-3,0.2-5.9-0.4-8.5-1.9c-0.6-0.4-1-1.2-1.4-1.8C783.8,140.5,783.9,140.3,784,140.1z"/>
	<path class="st1" d="M689.3,9.3c0.4,0.5,1,1,1.3,1.5c2.7,5.5,5.4,11.1,8.1,16.7c1.9,4,3.9,8.1,5.8,12.1c1.5,3.1,3,6.1,4.6,9.1
		c2.3,4.3,4.8,8.6,7.2,12.9c2.3,4,4.6,8.1,7,12c1.8,3.1,3.8,6.1,5.8,9.1c2.6,4,5.2,8.1,7.7,12.1c1.1,1.7,2.3,3.4,3.4,5.2
		c3.7,5.7,7.4,11.4,11.2,17.1c1.9,2.9,4,5.7,5.9,8.6c1.6,2.4,3.2,4.9,4.8,7.3c0.3,0.5,0.4,1.1,0.6,1.7c-0.2,0.1-0.4,0.3-0.6,0.4
		c-1.3-1.5-2.7-3-3.8-4.6c-8.1-12.2-16.1-24.6-24.2-36.8c-3.7-5.6-7.6-11-11.2-16.6c-3.5-5.5-6.7-11.1-9.9-16.7
		c-2.9-5.1-5.9-10.3-8.4-15.6c-5.1-11-9.9-22.2-14.8-33.3c-0.3-0.6-0.6-1.2-0.8-1.8C689,9.5,689.2,9.4,689.3,9.3z"/>
	<path class="st1" d="M693.6,321c0.6,0,1.3,0,2.3,0c-1.1-1.4-2.1-2.6-3-3.8c0.1-0.3,0.2-0.6,0.4-0.9c2.1,0,4.2,0,6.3,0
		c2.2,0,4.4,0.2,6.6,0c3.9-0.3,7.1,1.1,9.5,3.9c1.3,1.5,1.6,3.8,2.1,5.9c0.1,0.3-0.7,1.3-1.2,1.4c-1.7,0.3-3.4,0.4-5,0.3
		c-4.4-0.2-8.8-0.6-13.2-1c-0.2,0-0.4,0-0.6,0C696.3,326.5,693.5,322.7,693.6,321z"/>
	<path class="st1" d="M779.2,135.1c-0.5-1.2-0.4-1.9,0.9-2.3c7.8-2.5,15.5-5.1,23.3-7.7c3.4-1.1,6.9-2.1,10.3-3.5
		c5.5-2.1,11-4.2,16.3-6.8c8.1-3.8,16.1-7.8,23.9-12.2c4.5-2.5,8.4-6.3,12.8-8.9c4.5-2.6,9.3-4.5,14.1-6.6c0.4-0.2,1.1,0.3,1.7,0.5
		c-0.4,0.4-0.7,1-1.2,1.1c-7.2,2.3-13.4,6.1-19.2,10.9c-1.9,1.6-4.4,2.6-6.6,4c-3,1.8-5.9,3.8-9,5.4c-4.6,2.4-9.4,4.5-14.1,6.8
		c-2.2,1.1-4.2,2.5-6.4,3.5c-3.9,1.7-7.9,3.2-12,4.5c-6.2,2-12.5,3.5-18.7,5.5c-5,1.6-9.8,3.5-14.7,5.3
		C780.2,135,779.8,135,779.2,135.1z"/>
	<path class="st1" d="M408.5,286.9c-5.3,24.4-2.2,48.6,1,73c-1.3-2.8-2.8-5.5-3.8-8.4c-2.2-6.2-2.8-12.8-2.7-19.3
		c0.1-9.3,0.4-18.6,0.9-27.9C404.1,298.2,406.1,292.5,408.5,286.9z"/>
	<path class="st1" d="M461.7,362.5c4.6,0,9.4,0.2,14.2-0.1c3.2-0.2,6.3-1,9.5-1.4c7.2-1,14.4-1.9,21.7-2.9c1-0.1,1.9-0.3,2.9-0.5
		c0.1,0,0.2,0.1,1,0.6c-1.9,0.7-3.4,1.5-4.9,1.9c-3.2,0.7-6.6,0.7-9.5,2c-4.3,1.9-8.9,2.3-13.4,3.4c-3.4,0.8-6.8,1.9-10.3,2.3
		c-3.1,0.4-6.3,0-9.5-0.2c-1.4-0.1-2.2-1.9-1.8-3.5C461.5,363.5,461.6,363,461.7,362.5z"/>
	<path class="st1" d="M305.6,269.3c-1,1.1-1.7,1.9-2.5,2.7c-0.4,0.4-0.9,0.5-1.4,0.8c-2.4,1.2-4.8,2.3-7.1,3.6
		c-1.2,0.7-2,1.4-3.5,0.5c-1.4-0.8-3.3-0.8-4.9-1.4c-2.7-0.9-5.1-2.3-7.1-5c3.1-1,5.8-2,8.5-2.9c3.9-1.3,7.9-1.8,12-1.6
		C302.2,266.2,304,267.8,305.6,269.3z"/>
	<path class="st1" d="M400.4,335.2c-3.3-13.2-3.5-26.4,1.7-39.3C398.9,308.8,399.9,322,400.4,335.2z"/>
	<path class="st1" d="M239.9,279.5c-1.9,1.1-2.7-0.8-3.1-1.8c-1.3-2.9-2.2-6.1-3.2-9.1c-1-3-1.9-6-2.9-9.2c2.4-0.2,3,1.7,3.6,3.1
		C236.2,268.1,238,273.8,239.9,279.5z"/>
	<path class="st1" d="M274,348.6c0.1,0.5,0.3,1,0.4,1.5c0.2,1.2,1.8,2.4,0.2,3.7c-1.5,1.2-4.9,1.7-6.2,0.7c-0.5-0.3-0.8-1.2-0.7-1.8
		c0.1-1.1,0.5-2.2,0.8-3.2c0.1-0.3,0.6-0.5,1-0.6C270.9,348.8,272.4,348.7,274,348.6z"/>
</g>
<g>
	<path class="st1" d="M883.3,449.9h1.7c0.6,0,0.8,0.1,1.1,0.2c0.5,0.2,0.8,0.8,0.8,1.4c0,0.8-0.4,1.3-1.1,1.5v0c0,0,0.1,0.1,0.1,0.2
		l1.2,2.3h-0.6l-1.3-2.4h-1.4v2.4h-0.6V449.9z M885.2,452.7c0.7,0,1.1-0.4,1.1-1.1c0-0.5-0.2-0.8-0.5-1c-0.2-0.1-0.4-0.1-0.8-0.1
		h-1.1v2.3H885.2z"/>
	<path class="st1" d="M890,451.4c1.2,0,2.1,0.9,2.1,2.1c0,1.2-1,2.1-2.1,2.1c-1.2,0-2.1-0.9-2.1-2.1
		C887.8,452.3,888.8,451.4,890,451.4z M890,455.2c0.9,0,1.6-0.7,1.6-1.6c0-0.9-0.7-1.6-1.6-1.6c-0.9,0-1.6,0.7-1.6,1.6
		C888.4,454.5,889.1,455.2,890,455.2z"/>
	<path class="st1" d="M895,451.4c1,0,1.5,0.6,1.5,0.6l-0.3,0.4c0,0-0.4-0.5-1.2-0.5c-0.9,0-1.6,0.7-1.6,1.6c0,0.9,0.7,1.6,1.6,1.6
		c0.8,0,1.3-0.6,1.3-0.6l0.2,0.4c0,0-0.5,0.6-1.6,0.6c-1.2,0-2.1-0.9-2.1-2.1C892.8,452.3,893.8,451.4,895,451.4z"/>
	<path class="st1" d="M897.5,449.9h0.5v3.1h0.6l1.2-1.5h0.7l-1.4,1.8v0l1.5,2.3H900l-1.3-2h-0.6v2h-0.5V449.9z"/>
	<path class="st1" d="M903.2,451.4c1.1,0,1.7,0.9,1.7,1.9c0,0.1,0,0.3,0,0.3h-3.1c0,1,0.7,1.6,1.6,1.6c0.7,0,1.2-0.5,1.2-0.5
		l0.2,0.4c0,0-0.6,0.6-1.5,0.6c-1.2,0-2.1-0.9-2.1-2.1C901.2,452.2,902.1,451.4,903.2,451.4z M904.3,453.1c0-0.8-0.5-1.2-1.1-1.2
		c-0.7,0-1.3,0.4-1.4,1.2H904.3z"/>
	<path class="st1" d="M906.1,452h-0.5v-0.5h0.5v-0.2c0-1.3,0.9-1.5,1.4-1.5c0.2,0,0.2,0,0.2,0v0.5c0,0-0.1,0-0.2,0
		c-0.3,0-0.9,0.1-0.9,1v0.2h1v0.5h-1v3.5h-0.5V452z"/>
	<path class="st1" d="M910.1,451.4c1.1,0,1.7,0.9,1.7,1.9c0,0.1,0,0.3,0,0.3h-3.1c0,1,0.7,1.6,1.6,1.6c0.7,0,1.2-0.5,1.2-0.5
		l0.2,0.4c0,0-0.6,0.6-1.5,0.6c-1.2,0-2.1-0.9-2.1-2.1C908.1,452.2,909,451.4,910.1,451.4z M911.2,453.1c0-0.8-0.5-1.2-1.1-1.2
		c-0.7,0-1.3,0.4-1.4,1.2H911.2z"/>
	<path class="st1" d="M912.8,449.9h0.5v4.5c0,0.5,0.2,0.6,0.4,0.6c0.1,0,0.1,0,0.1,0v0.5c0,0-0.1,0-0.2,0c-0.3,0-0.9-0.1-0.9-1
		V449.9z"/>
	<path class="st1" d="M914.8,449.9h0.5v4.5c0,0.5,0.2,0.6,0.4,0.6c0.1,0,0.1,0,0.1,0v0.5c0,0-0.1,0-0.2,0c-0.3,0-0.9-0.1-0.9-1
		V449.9z"/>
	<path class="st1" d="M918.5,451.4c1.1,0,1.7,0.9,1.7,1.9c0,0.1,0,0.3,0,0.3h-3.1c0,1,0.7,1.6,1.6,1.6c0.7,0,1.2-0.5,1.2-0.5
		l0.2,0.4c0,0-0.6,0.6-1.5,0.6c-1.2,0-2.1-0.9-2.1-2.1C916.5,452.2,917.4,451.4,918.5,451.4z M919.6,453.1c0-0.8-0.5-1.2-1.1-1.2
		c-0.7,0-1.3,0.4-1.4,1.2H919.6z"/>
	<path class="st1" d="M921.2,451.5h0.5v0.7c0,0.2,0,0.3,0,0.3h0c0.2-0.6,0.6-1.1,1.3-1.1c0.1,0,0.2,0,0.2,0v0.5c0,0-0.1,0-0.2,0
		c-0.6,0-1,0.4-1.2,1c-0.1,0.3-0.1,0.5-0.1,0.8v1.7h-0.5V451.5z"/>
	<path class="st1" d="M926.4,449.9h3v0.5h-2.4v2.1h2.1v0.5h-2.1v2.5h-0.6V449.9z"/>
	<path class="st1" d="M932.2,451.4c1.2,0,2.1,0.9,2.1,2.1c0,1.2-1,2.1-2.1,2.1c-1.2,0-2.1-0.9-2.1-2.1
		C930,452.3,931,451.4,932.2,451.4z M932.2,455.2c0.9,0,1.6-0.7,1.6-1.6c0-0.9-0.7-1.6-1.6-1.6c-0.9,0-1.6,0.7-1.6,1.6
		C930.6,454.5,931.3,455.2,932.2,455.2z"/>
	<path class="st1" d="M935.2,451.5h0.5v2.4c0,0.6,0.1,1.2,0.9,1.2c0.9,0,1.5-0.8,1.5-1.7v-1.9h0.5v4h-0.5V455c0-0.2,0-0.3,0-0.3h0
		c-0.2,0.4-0.7,1-1.6,1c-0.9,0-1.3-0.5-1.3-1.6V451.5z"/>
	<path class="st1" d="M940,451.5h0.5v0.6c0,0.2,0,0.3,0,0.3h0c0.1-0.4,0.7-1,1.6-1c1,0,1.3,0.6,1.3,1.6v2.6h-0.5v-2.4
		c0-0.6-0.1-1.2-0.9-1.2c-0.7,0-1.3,0.5-1.5,1.1c0,0.2-0.1,0.4-0.1,0.5v1.9H940V451.5z"/>
	<path class="st1" d="M946.3,451.4c1,0,1.3,0.8,1.3,0.8h0c0,0,0-0.1,0-0.3v-2h0.5v5.6h-0.5v-0.4c0-0.2,0-0.3,0-0.3h0
		c0,0-0.3,0.8-1.4,0.8c-1.1,0-1.8-0.9-1.8-2.1C944.5,452.3,945.2,451.4,946.3,451.4z M946.3,455.2c0.7,0,1.3-0.5,1.3-1.6
		c0-0.8-0.4-1.6-1.3-1.6c-0.7,0-1.3,0.6-1.3,1.6C945,454.5,945.6,455.2,946.3,455.2z"/>
	<path class="st1" d="M951.6,453.1h0.2V453c0-0.8-0.4-1-1-1c-0.7,0-1.1,0.4-1.1,0.4l-0.3-0.4c0,0,0.5-0.5,1.4-0.5
		c1,0,1.5,0.5,1.5,1.5v2.6h-0.5v-0.4c0-0.2,0-0.3,0-0.3h0c0,0-0.3,0.9-1.3,0.9c-0.7,0-1.4-0.4-1.4-1.2
		C949.1,453.1,950.9,453.1,951.6,453.1z M950.6,455.2c0.8,0,1.2-0.8,1.2-1.5v-0.2h-0.2c-0.6,0-1.9,0-1.9,0.9
		C949.7,454.8,950,455.2,950.6,455.2z"/>
	<path class="st1" d="M953.7,452h-0.5v-0.5h0.5v-1.2h0.5v1.2h1v0.5h-1v2c0,0.9,0.6,1.1,0.9,1.1c0.1,0,0.2,0,0.2,0v0.5
		c0,0-0.1,0-0.2,0c-0.5,0-1.4-0.2-1.4-1.5V452z"/>
	<path class="st1" d="M956.3,449.9h0.6v0.7h-0.6V449.9z M956.3,451.5h0.5v4h-0.5V451.5z"/>
	<path class="st1" d="M960,451.4c1.2,0,2.1,0.9,2.1,2.1c0,1.2-1,2.1-2.1,2.1c-1.2,0-2.1-0.9-2.1-2.1
		C957.8,452.3,958.8,451.4,960,451.4z M960,455.2c0.9,0,1.6-0.7,1.6-1.6c0-0.9-0.7-1.6-1.6-1.6c-0.9,0-1.6,0.7-1.6,1.6
		C958.4,454.5,959.1,455.2,960,455.2z"/>
	<path class="st1" d="M963.1,451.5h0.5v0.6c0,0.2,0,0.3,0,0.3h0c0.1-0.4,0.7-1,1.6-1c1,0,1.3,0.6,1.3,1.6v2.6h-0.5v-2.4
		c0-0.6-0.1-1.2-0.9-1.2c-0.7,0-1.3,0.5-1.5,1.1c0,0.2-0.1,0.4-0.1,0.5v1.9h-0.5V451.5z"/>
	<path class="st1" d="M968,449.9h0.6l-0.4,1.4h-0.4L968,449.9z"/>
	<path class="st1" d="M969.5,454.7c0,0,0.4,0.5,1.2,0.5c0.4,0,0.8-0.2,0.8-0.6c0-0.9-2.2-0.7-2.2-2c0-0.7,0.6-1.1,1.4-1.1
		c0.8,0,1.2,0.4,1.2,0.4l-0.2,0.4c0,0-0.3-0.4-1-0.4c-0.4,0-0.8,0.2-0.8,0.6c0,0.9,2.2,0.6,2.2,2c0,0.7-0.6,1.1-1.4,1.1
		c-1,0-1.5-0.6-1.5-0.6L969.5,454.7z"/>
	<path class="st1" d="M975.7,449.9h0.6l1.5,3.3c0.1,0.3,0.3,0.7,0.3,0.7h0c0,0,0.2-0.4,0.3-0.7l1.5-3.3h0.6l0.4,5.6h-0.6l-0.3-3.9
		c0-0.3,0-0.8,0-0.8h0c0,0-0.2,0.5-0.3,0.8l-1.3,2.9h-0.5l-1.3-2.9c-0.1-0.3-0.3-0.8-0.3-0.8h0c0,0,0,0.5,0,0.8l-0.3,3.9h-0.6
		L975.7,449.9z"/>
	<path class="st1" d="M983.8,451.4c1.1,0,1.7,0.9,1.7,1.9c0,0.1,0,0.3,0,0.3h-3.1c0,1,0.7,1.6,1.6,1.6c0.7,0,1.2-0.5,1.2-0.5
		l0.2,0.4c0,0-0.6,0.6-1.5,0.6c-1.2,0-2.1-0.9-2.1-2.1C981.8,452.2,982.7,451.4,983.8,451.4z M984.9,453.1c0-0.8-0.5-1.2-1.1-1.2
		c-0.7,0-1.3,0.4-1.4,1.2H984.9z"/>
	<path class="st1" d="M987.8,453.8c0,0-0.1,0.1-0.1,0.2l-1,1.5H986l1.4-2.1l-1.3-1.9h0.6l0.9,1.4c0.1,0.1,0.1,0.2,0.1,0.2h0
		c0,0,0.1-0.1,0.1-0.2l0.9-1.4h0.6l-1.3,1.9l1.4,2.1h-0.6l-1-1.5C987.9,453.9,987.8,453.8,987.8,453.8L987.8,453.8L987.8,453.8z"/>
	<path class="st1" d="M990.4,449.9h0.6v0.7h-0.6V449.9z M990.4,451.5h0.5v4h-0.5V451.5z"/>
	<path class="st1" d="M994.1,451.4c1,0,1.5,0.6,1.5,0.6l-0.3,0.4c0,0-0.4-0.5-1.2-0.5c-0.9,0-1.6,0.7-1.6,1.6c0,0.9,0.7,1.6,1.6,1.6
		c0.8,0,1.3-0.6,1.3-0.6l0.2,0.4c0,0-0.5,0.6-1.6,0.6c-1.2,0-2.1-0.9-2.1-2.1C992,452.3,992.9,451.4,994.1,451.4z"/>
	<path class="st1" d="M998.8,453.1h0.2V453c0-0.8-0.4-1-1-1c-0.7,0-1.1,0.4-1.1,0.4l-0.3-0.4c0,0,0.5-0.5,1.4-0.5
		c1,0,1.5,0.5,1.5,1.5v2.6H999v-0.4c0-0.2,0-0.3,0-0.3h0c0,0-0.3,0.9-1.3,0.9c-0.7,0-1.4-0.4-1.4-1.2
		C996.3,453.1,998.1,453.1,998.8,453.1z M997.8,455.2c0.8,0,1.2-0.8,1.2-1.5v-0.2h-0.2c-0.6,0-1.9,0-1.9,0.9
		C996.9,454.8,997.2,455.2,997.8,455.2z"/>
	<path class="st1" d="M1000.8,451.5h0.5v0.6c0,0.2,0,0.3,0,0.3h0c0.1-0.4,0.7-1,1.6-1c1,0,1.3,0.6,1.3,1.6v2.6h-0.5v-2.4
		c0-0.6-0.1-1.2-0.9-1.2c-0.7,0-1.3,0.5-1.5,1.1c0,0.2-0.1,0.4-0.1,0.5v1.9h-0.5V451.5z"/>
	<path class="st1" d="M1009.8,453.1h0.2V453c0-0.8-0.4-1-1-1c-0.7,0-1.1,0.4-1.1,0.4l-0.3-0.4c0,0,0.5-0.5,1.4-0.5
		c1,0,1.5,0.5,1.5,1.5v2.6h-0.5v-0.4c0-0.2,0-0.3,0-0.3h0c0,0-0.3,0.9-1.3,0.9c-0.7,0-1.4-0.4-1.4-1.2
		C1007.4,453.1,1009.1,453.1,1009.8,453.1z M1008.8,455.2c0.8,0,1.2-0.8,1.2-1.5v-0.2h-0.2c-0.6,0-1.9,0-1.9,0.9
		C1007.9,454.8,1008.2,455.2,1008.8,455.2z"/>
	<path class="st1" d="M1013.3,456.8c0.8,0,1.4-0.4,1.4-1.3v-0.4c0-0.2,0-0.3,0-0.3h0c-0.2,0.4-0.6,0.7-1.3,0.7
		c-1.1,0-1.8-0.9-1.8-2.1c0-1.2,0.7-2,1.7-2c1.1,0,1.3,0.7,1.3,0.7h0c0,0,0,0,0-0.1v-0.4h0.5v3.9c0,1.3-0.9,1.8-1.9,1.8
		c-0.5,0-0.9-0.1-1.3-0.3l0.2-0.4C1012.2,456.5,1012.7,456.8,1013.3,456.8z M1014.7,453.5c0-1.2-0.6-1.5-1.3-1.5
		c-0.8,0-1.2,0.6-1.2,1.5c0,1,0.5,1.6,1.3,1.6C1014.1,455,1014.7,454.7,1014.7,453.5z"/>
	<path class="st1" d="M1016.5,451.5h0.5v0.7c0,0.2,0,0.3,0,0.3h0c0.2-0.6,0.6-1.1,1.3-1.1c0.1,0,0.2,0,0.2,0v0.5c0,0-0.1,0-0.2,0
		c-0.6,0-1,0.4-1.2,1c-0.1,0.3-0.1,0.5-0.1,0.8v1.7h-0.5V451.5z"/>
	<path class="st1" d="M1019.4,449.9h0.6v0.7h-0.6V449.9z M1019.4,451.5h0.5v4h-0.5V451.5z"/>
	<path class="st1" d="M1023.1,451.4c1,0,1.5,0.6,1.5,0.6l-0.3,0.4c0,0-0.4-0.5-1.2-0.5c-0.9,0-1.6,0.7-1.6,1.6
		c0,0.9,0.7,1.6,1.6,1.6c0.8,0,1.3-0.6,1.3-0.6l0.2,0.4c0,0-0.5,0.6-1.6,0.6c-1.2,0-2.1-0.9-2.1-2.1
		C1020.9,452.3,1021.9,451.4,1023.1,451.4z"/>
	<path class="st1" d="M1025.6,451.5h0.5v2.4c0,0.6,0.1,1.2,0.9,1.2c0.9,0,1.5-0.8,1.5-1.7v-1.9h0.5v4h-0.5V455c0-0.2,0-0.3,0-0.3h0
		c-0.2,0.4-0.7,1-1.6,1c-0.9,0-1.3-0.5-1.3-1.6V451.5z"/>
	<path class="st1" d="M1030.3,449.9h0.5v4.5c0,0.5,0.2,0.6,0.4,0.6c0.1,0,0.1,0,0.1,0v0.5c0,0-0.1,0-0.2,0c-0.3,0-0.9-0.1-0.9-1
		V449.9z"/>
	<path class="st1" d="M1032.5,452h-0.5v-0.5h0.5v-1.2h0.5v1.2h1v0.5h-1v2c0,0.9,0.6,1.1,0.9,1.1c0.1,0,0.2,0,0.2,0v0.5
		c0,0-0.1,0-0.2,0c-0.5,0-1.4-0.2-1.4-1.5V452z"/>
	<path class="st1" d="M1034.9,451.5h0.5v2.4c0,0.6,0.1,1.2,0.9,1.2c0.9,0,1.5-0.8,1.5-1.7v-1.9h0.5v4h-0.5V455c0-0.2,0-0.3,0-0.3h0
		c-0.2,0.4-0.7,1-1.6,1c-0.9,0-1.3-0.5-1.3-1.6V451.5z"/>
	<path class="st1" d="M1039.7,451.5h0.5v0.7c0,0.2,0,0.3,0,0.3h0c0.2-0.6,0.6-1.1,1.3-1.1c0.1,0,0.2,0,0.2,0v0.5c0,0-0.1,0-0.2,0
		c-0.6,0-1,0.4-1.2,1c-0.1,0.3-0.1,0.5-0.1,0.8v1.7h-0.5V451.5z"/>
	<path class="st1" d="M1044.7,453.1h0.2V453c0-0.8-0.4-1-1-1c-0.7,0-1.1,0.4-1.1,0.4l-0.3-0.4c0,0,0.5-0.5,1.4-0.5
		c1,0,1.5,0.5,1.5,1.5v2.6h-0.5v-0.4c0-0.2,0-0.3,0-0.3h0c0,0-0.3,0.9-1.3,0.9c-0.7,0-1.4-0.4-1.4-1.2
		C1042.2,453.1,1044,453.1,1044.7,453.1z M1043.7,455.2c0.8,0,1.2-0.8,1.2-1.5v-0.2h-0.2c-0.6,0-1.9,0-1.9,0.9
		C1042.8,454.8,1043.1,455.2,1043.7,455.2z"/>
	<path class="st1" d="M1046.7,449.9h0.5v4.5c0,0.5,0.2,0.6,0.4,0.6c0.1,0,0.1,0,0.1,0v0.5c0,0-0.1,0-0.2,0c-0.3,0-0.9-0.1-0.9-1
		V449.9z"/>
	<path class="st1" d="M1050.8,451.5h0.5v0.4c0,0.2,0,0.3,0,0.3h0c0,0,0.3-0.8,1.4-0.8c1.1,0,1.8,0.9,1.8,2.1c0,1.3-0.8,2.1-1.8,2.1
		c-1,0-1.3-0.8-1.3-0.8h0c0,0,0,0.1,0,0.4v1.9h-0.5V451.5z M1052.6,455.2c0.7,0,1.3-0.6,1.3-1.6c0-1-0.5-1.6-1.3-1.6
		c-0.7,0-1.3,0.5-1.3,1.6C1051.3,454.4,1051.8,455.2,1052.6,455.2z"/>
	<path class="st1" d="M1055.5,451.5h0.5v0.7c0,0.2,0,0.3,0,0.3h0c0.2-0.6,0.6-1.1,1.3-1.1c0.1,0,0.2,0,0.2,0v0.5c0,0-0.1,0-0.2,0
		c-0.6,0-1,0.4-1.2,1c-0.1,0.3-0.1,0.5-0.1,0.8v1.7h-0.5V451.5z"/>
	<path class="st1" d="M1060.2,451.4c1.2,0,2.1,0.9,2.1,2.1c0,1.2-1,2.1-2.1,2.1c-1.2,0-2.1-0.9-2.1-2.1
		C1058,452.3,1059,451.4,1060.2,451.4z M1060.2,455.2c0.9,0,1.6-0.7,1.6-1.6c0-0.9-0.7-1.6-1.6-1.6c-0.9,0-1.6,0.7-1.6,1.6
		C1058.6,454.5,1059.3,455.2,1060.2,455.2z"/>
	<path class="st1" d="M1064.7,456.8c0.8,0,1.4-0.4,1.4-1.3v-0.4c0-0.2,0-0.3,0-0.3h0c-0.2,0.4-0.6,0.7-1.3,0.7
		c-1.1,0-1.8-0.9-1.8-2.1c0-1.2,0.7-2,1.7-2c1.1,0,1.3,0.7,1.3,0.7h0c0,0,0,0,0-0.1v-0.4h0.5v3.9c0,1.3-0.9,1.8-1.9,1.8
		c-0.5,0-0.9-0.1-1.3-0.3l0.2-0.4C1063.6,456.5,1064.1,456.8,1064.7,456.8z M1066.1,453.5c0-1.2-0.6-1.5-1.3-1.5
		c-0.8,0-1.2,0.6-1.2,1.5c0,1,0.5,1.6,1.3,1.6C1065.6,455,1066.1,454.7,1066.1,453.5z"/>
	<path class="st1" d="M1068,451.5h0.5v0.7c0,0.2,0,0.3,0,0.3h0c0.2-0.6,0.6-1.1,1.3-1.1c0.1,0,0.2,0,0.2,0v0.5c0,0-0.1,0-0.2,0
		c-0.6,0-1,0.4-1.2,1c-0.1,0.3-0.1,0.5-0.1,0.8v1.7h-0.5V451.5z"/>
	<path class="st1" d="M1072.9,453.1h0.2V453c0-0.8-0.4-1-1-1c-0.7,0-1.1,0.4-1.1,0.4l-0.3-0.4c0,0,0.5-0.5,1.4-0.5
		c1,0,1.5,0.5,1.5,1.5v2.6h-0.5v-0.4c0-0.2,0-0.3,0-0.3h0c0,0-0.3,0.9-1.3,0.9c-0.7,0-1.4-0.4-1.4-1.2
		C1070.5,453.1,1072.3,453.1,1072.9,453.1z M1071.9,455.2c0.8,0,1.2-0.8,1.2-1.5v-0.2h-0.2c-0.6,0-1.9,0-1.9,0.9
		C1071,454.8,1071.3,455.2,1071.9,455.2z"/>
	<path class="st1" d="M1075,451.5h0.5v0.6c0,0.2,0,0.3,0,0.3h0c0.2-0.5,0.8-1,1.5-1c0.7,0,1.1,0.3,1.2,1h0c0.2-0.5,0.8-1,1.5-1
		c1,0,1.3,0.6,1.3,1.6v2.6h-0.5v-2.4c0-0.7-0.1-1.2-0.9-1.2c-0.6,0-1.1,0.5-1.3,1.1c-0.1,0.2-0.1,0.4-0.1,0.6v1.9h-0.5v-2.4
		c0-0.6-0.1-1.2-0.8-1.2c-0.7,0-1.2,0.6-1.3,1.2c0,0.2-0.1,0.4-0.1,0.5v1.9h-0.5V451.5z"/>
	<path class="st1" d="M1084.4,449.9h0.6v0.7h-0.6V449.9z M1084.5,451.5h0.5v4h-0.5V451.5z"/>
	<path class="st1" d="M1086.3,449.9h0.5v4.5c0,0.5,0.2,0.6,0.4,0.6c0.1,0,0.1,0,0.1,0v0.5c0,0-0.1,0-0.2,0c-0.3,0-0.9-0.1-0.9-1
		V449.9z"/>
	<path class="st1" d="M1088.2,449.9h0.5v4.5c0,0.5,0.2,0.6,0.4,0.6c0.1,0,0.1,0,0.1,0v0.5c0,0-0.1,0-0.2,0c-0.3,0-0.9-0.1-0.9-1
		V449.9z"/>
	<path class="st1" d="M1090.2,451.5h0.5v2.4c0,0.6,0.1,1.2,0.9,1.2c0.9,0,1.5-0.8,1.5-1.7v-1.9h0.5v4h-0.5V455c0-0.2,0-0.3,0-0.3h0
		c-0.2,0.4-0.7,1-1.6,1c-0.9,0-1.3-0.5-1.3-1.6V451.5z"/>
	<path class="st1" d="M1094.9,454.7c0,0,0.4,0.5,1.2,0.5c0.4,0,0.8-0.2,0.8-0.6c0-0.9-2.2-0.7-2.2-2c0-0.7,0.6-1.1,1.4-1.1
		c0.8,0,1.2,0.4,1.2,0.4l-0.2,0.4c0,0-0.3-0.4-1-0.4c-0.4,0-0.8,0.2-0.8,0.6c0,0.9,2.2,0.6,2.2,2c0,0.7-0.6,1.1-1.4,1.1
		c-1,0-1.5-0.6-1.5-0.6L1094.9,454.7z"/>
	<path class="st1" d="M1098.7,452h-0.5v-0.5h0.5v-1.2h0.5v1.2h1v0.5h-1v2c0,0.9,0.6,1.1,0.9,1.1c0.1,0,0.2,0,0.2,0v0.5
		c0,0-0.1,0-0.2,0c-0.5,0-1.4-0.2-1.4-1.5V452z"/>
	<path class="st1" d="M1101.2,451.5h0.5v0.7c0,0.2,0,0.3,0,0.3h0c0.2-0.6,0.6-1.1,1.3-1.1c0.1,0,0.2,0,0.2,0v0.5c0,0-0.1,0-0.2,0
		c-0.6,0-1,0.4-1.2,1c-0.1,0.3-0.1,0.5-0.1,0.8v1.7h-0.5V451.5z"/>
	<path class="st1" d="M1106.2,453.1h0.2V453c0-0.8-0.4-1-1-1c-0.7,0-1.1,0.4-1.1,0.4l-0.3-0.4c0,0,0.5-0.5,1.4-0.5
		c1,0,1.5,0.5,1.5,1.5v2.6h-0.5v-0.4c0-0.2,0-0.3,0-0.3h0c0,0-0.3,0.9-1.3,0.9c-0.7,0-1.4-0.4-1.4-1.2
		C1103.7,453.1,1105.5,453.1,1106.2,453.1z M1105.2,455.2c0.8,0,1.2-0.8,1.2-1.5v-0.2h-0.2c-0.6,0-1.9,0-1.9,0.9
		C1104.3,454.8,1104.6,455.2,1105.2,455.2z"/>
	<path class="st1" d="M1108.3,452h-0.5v-0.5h0.5v-1.2h0.5v1.2h1v0.5h-1v2c0,0.9,0.6,1.1,0.9,1.1c0.1,0,0.2,0,0.2,0v0.5
		c0,0-0.1,0-0.2,0c-0.5,0-1.4-0.2-1.4-1.5V452z"/>
	<path class="st1" d="M1110.8,449.9h0.6v0.7h-0.6V449.9z M1110.9,451.5h0.5v4h-0.5V451.5z"/>
	<path class="st1" d="M1114.5,451.4c1.2,0,2.1,0.9,2.1,2.1c0,1.2-1,2.1-2.1,2.1c-1.2,0-2.1-0.9-2.1-2.1
		C1112.4,452.3,1113.4,451.4,1114.5,451.4z M1114.5,455.2c0.9,0,1.6-0.7,1.6-1.6c0-0.9-0.7-1.6-1.6-1.6c-0.9,0-1.6,0.7-1.6,1.6
		C1113,454.5,1113.7,455.2,1114.5,455.2z"/>
	<path class="st1" d="M1117.7,451.5h0.5v0.6c0,0.2,0,0.3,0,0.3h0c0.1-0.4,0.7-1,1.6-1c1,0,1.3,0.6,1.3,1.6v2.6h-0.5v-2.4
		c0-0.6-0.1-1.2-0.9-1.2c-0.7,0-1.3,0.5-1.5,1.1c0,0.2-0.1,0.4-0.1,0.5v1.9h-0.5V451.5z"/>
	<path class="st1" d="M1122.4,454.7c0,0,0.4,0.5,1.2,0.5c0.4,0,0.8-0.2,0.8-0.6c0-0.9-2.2-0.7-2.2-2c0-0.7,0.6-1.1,1.4-1.1
		c0.8,0,1.2,0.4,1.2,0.4l-0.2,0.4c0,0-0.3-0.4-1-0.4c-0.4,0-0.8,0.2-0.8,0.6c0,0.9,2.2,0.6,2.2,2c0,0.7-0.6,1.1-1.4,1.1
		c-1,0-1.5-0.6-1.5-0.6L1122.4,454.7z"/>
	<path class="st1" d="M1126,454.9h0.6v0.6h-0.6V454.9z"/>
</g>
</svg>
