<?xml version="1.0" encoding="utf-8"?>
<!-- Generator: Adobe Illustrator 19.2.1, SVG Export Plug-In . SVG Version: 6.00 Build 0)  -->
<svg version="1.1" id="Layer_1" xmlns="http://www.w3.org/2000/svg" xmlns:xlink="http://www.w3.org/1999/xlink" x="0px" y="0px"
	 viewBox="0 0 207.7 46.5" style="enable-background:new 0 0 207.7 46.5;" xml:space="preserve">
<style type="text/css">
	.st0{opacity:0.6;fill:#FFFFFF;}
	.st1{opacity:0.6;}
	.st2{fill:#FFFFFF;}
	.st3{font-family:'Heuristica-Bold';}
	.st4{font-size:20px;}
</style>
<rect class="st0" width="207.7" height="29.5"/>
<g class="st1">
	<path class="st2" d="M116.1,32.3c0.3,0,0.5,0.1,0.7,0.3c0.4,0.4,0.4,1,0,1.4l-12.3,12.3c-0.4,0.4-1,0.4-1.4,0s-0.4-1,0-1.4
		l12.3-12.3C115.6,32.4,115.9,32.3,116.1,32.3z"/>
	<path class="st2" d="M91.6,32.3c0.3,0,0.5,0.1,0.7,0.3l12.3,12.3c0.4,0.4,0.4,1,0,1.4s-1,0.4-1.4,0L90.9,34c-0.4-0.4-0.4-1,0-1.4
		C91,32.4,91.3,32.3,91.6,32.3z"/>
</g>
<text transform="matrix(1 0 0 1 8.5243 21.4505)" class="st3 st4">LÁZARO CÁRDENAS</text>
</svg>
