<?xml version="1.0" encoding="utf-8"?>
<!-- Generator: Adobe Illustrator 19.2.1, SVG Export Plug-In . SVG Version: 6.00 Build 0)  -->
<svg version="1.1" id="Layer_1" xmlns="http://www.w3.org/2000/svg" xmlns:xlink="http://www.w3.org/1999/xlink" x="0px" y="0px"
	 viewBox="0 0 207.7 49.3" style="enable-background:new 0 0 207.7 49.3;" xml:space="preserve">
<style type="text/css">
	.st0{opacity:0.6;}
	.st1{fill:#FFFFFF;}
	.st2{opacity:0.6;fill:#FFFFFF;}
	.st3{font-family:'Heuristica-Bold';}
	.st4{font-size:20px;}
</style>
<g class="st0">
	<path class="st1" d="M91.6,14.3c-0.3,0-0.5-0.1-0.7-0.3c-0.4-0.4-0.4-1,0-1.4l12.3-12.3c0.4-0.4,1-0.4,1.4,0s0.4,1,0,1.4L92.3,14
		C92.1,14.2,91.8,14.3,91.6,14.3z"/>
	<path class="st1" d="M116.1,14.3c-0.3,0-0.5-0.1-0.7-0.3L103.1,1.7c-0.4-0.4-0.4-1,0-1.4s1-0.4,1.4,0l12.3,12.3
		c0.4,0.4,0.4,1,0,1.4C116.6,14.2,116.4,14.3,116.1,14.3z"/>
</g>
<rect y="19.8" class="st2" width="207.7" height="29.5"/>
<text transform="matrix(1 0 0 1 19.0539 41.9251)" class="st3 st4">MARTE R. GÓMEZ</text>
</svg>
