<?xml version="1.0" encoding="utf-8"?>
<!-- Generator: Adobe Illustrator 19.2.1, SVG Export Plug-In . SVG Version: 6.00 Build 0)  -->
<svg version="1.1" id="Layer_1" xmlns="http://www.w3.org/2000/svg" xmlns:xlink="http://www.w3.org/1999/xlink" x="0px" y="0px"
	 viewBox="0 0 209 49" style="enable-background:new 0 0 209 49;" xml:space="preserve">
<style type="text/css">
	.st0{opacity:0.6;}
	.st1{fill:#FFFFFF;}
	.st2{opacity:0.6;fill:#FFFFFF;}
	.st3{font-family:'Heuristica-Bold';}
	.st4{font-size:20px;}
</style>
<g class="st0">
	<path class="st1" d="M92.9,14c-0.3,0-0.5-0.1-0.7-0.3c-0.4-0.4-0.4-1,0-1.4L104.5,0c0.4-0.4,1-0.4,1.4,0s0.4,1,0,1.4L93.6,13.7
		C93.4,13.9,93.2,14,92.9,14z"/>
	<path class="st1" d="M117.5,14c-0.3,0-0.5-0.1-0.7-0.3L104.5,1.4c-0.4-0.4-0.4-1,0-1.4s1-0.4,1.4,0l12.3,12.3c0.4,0.4,0.4,1,0,1.4
		C118,13.9,117.7,14,117.5,14z"/>
</g>
<rect x="1.4" y="19.5" class="st2" width="207.7" height="29.5"/>
<text transform="matrix(1 0 0 1 11.6774 41.6321)" class="st3 st4">HENRY A. WALLACE</text>
</svg>
