<?xml version="1.0" encoding="utf-8"?>
<!-- Generator: Adobe Illustrator 19.2.1, SVG Export Plug-In . SVG Version: 6.00 Build 0)  -->
<svg version="1.1" id="Layer_1" xmlns="http://www.w3.org/2000/svg" xmlns:xlink="http://www.w3.org/1999/xlink" x="0px" y="0px"
	 viewBox="0 0 228.3 79.6" style="enable-background:new 0 0 228.3 79.6;" xml:space="preserve">
<style type="text/css">
	.st0{opacity:0.35;}
	.st1{fill:#A1A3A6;}
	.st2{opacity:0.46;}
</style>
<g class="st0">
	<g>
		<path class="st1" d="M506.1,5.5c12.5-1.4,24.3-2.9,36,3.7c-1.3,0.8-2,1.7-2.9,1.8c-5.9,0.9-11.2,3.1-16.2,6.5
			c-0.6,0.4-1.4,1-1.6,1.7c-0.8,2.8-2,1.9-3.3,0.4c-2.7-3.1-5.2-6.3-8-9.3c-1.7-1.9-3.9-3.4-5.8-5.1c-1.3-1.2-2.6-2.4-3.9-3.6
			c-3.4-3.1-6.6-6.3-10.1-9.2c-2.8-2.4-3.1-3.1-1.3-6.3c5.5-9.5,12.1-18.1,19.8-26c4.4-4.5,8.5-9.2,12.7-13.8
			c0.2-0.2,0.3-0.5,0.5-0.6c1.4-0.7,2.8-1.4,4.2-2.1c0.5,1.2,1.2,2.4,1.6,3.7c0.8,2.4,1.6,4.8,2.4,7.2c0.6,1.8,0.2,3.2-0.9,4.9
			c-1.8,2.9-2.9,6.2-4.5,9.2c-4.8,9.1-9.6,18.3-14.5,27.3c-1.2,2.2-2.7,4.2-3.9,6.3C506.2,3.1,506.3,4.2,506.1,5.5z"/>
		<g>
			<path class="st1" d="M320,80.9c2.4-1.4,4.9-2.8,7.9-4.6c-2.9-1.4-5.3-2.6-7.7-3.6c-4.2-1.7-8.5-3.3-12.8-4.8
				c-5.4-1.9-10.7-4-16.2-5.5c-4.1-1.1-8.4-1.4-12.5-2.1c-4.3-0.8-8.6-1.8-12.9-2.4c-5.1-0.7-10.2-1-15.2-1.6
				c-0.8-0.1-1.6-0.3-2.4-0.4c0-0.3-0.1-0.7-0.1-1c4.3-0.5,8.6-1,13.9-1.6c-3.2-0.8-5.7-1.5-8.2-2.1c0-0.3,0-0.6,0-0.8
				c0.6-0.2,1.2-0.4,1.9-0.6c9-2,18-3.9,26.9-5.9c8.7-2,17.4-4,26.4-4.2c5.4-0.1,10.8-1.1,16.1-0.8c6.8,0.4,13.5,1.5,20.2,2.6
				c3.5,0.6,6.8,1.9,10.2,2.7c0.5,0.1,1.4-0.4,1.7-0.8c0.7-1,1.2-2.2,1.9-3.5c-10.8-8.1-21.9-15.6-34.3-20.6c-12.1-5-25-7.3-37.8-10
				c0.1-0.4,0.1-0.8,0.2-1.2c1.1-0.1,2.2-0.5,3.2-0.2c6,1.9,12.1,0.4,18.1,0.6c7.5,0.2,14.9,0,22.4,0.4c7.1,0.3,14,2.3,20.5,5.3
				c0.5,0.2,1,0.4,2.2,0.9c-0.8-1.3-1.1-2-1.6-2.6c-7.9-9.9-15.4-20-23.8-29.4c-6.3-7.1-13.4-13.5-20.4-19.8c-2.1-1.9-5.2-2.8-8-3.8
				c-2.3-0.9-3.3,1.1-4.1,2.8c-1.3,3-2.2,6.1-3.6,8.9c-1.1,2.2-2.7,4.1-4.1,6.2c-0.3,0.4-0.8,0.7-0.8,1.1c-0.8,5.4-5.7,7.1-8.9,10.3
				c-3.1,3.1-6.7,4.6-11.1,5.3c-3.5,0.5-6.9,2.6-10.3,3.8c-1.3,0.5-2.7,0.8-4.1,1.3c-0.1-0.2-0.2-0.4-0.4-0.7
				c1.5-1.7,2.9-3.5,4.6-5.1c5.9-5.5,9.2-12.7,12.2-19.9c5.2-12.2,12.4-23.2,21.2-33.1c1.7-2,4.3-3.2,6.6-4.7c0.4,0.3,0.7,0.6,1.1,1
				c-0.9,1.3-1.6,2.8-2.6,4c-2.4,2.7-5.1,5.2-7.5,8c-1.8,2.1-3.4,4.3-4.9,6.6c-2,3.3-4.1,6.6-5.7,10.1c-3.7,8-7.1,16.1-10.6,24.2
				c-0.1,0.3-0.2,0.7-0.4,1.3c6.7-1.6,11.6-5.6,15.7-10.5c5-6,8.4-13,11-20.3c2.1-5.8,3.8-11.8,6-17.5c0.9-2.5,2.4-4.9,4-7
				c2.6-3.3,6.2-3.7,9.9-2.4c8.9,3,16.5,8.2,23.5,14.4c3.4,3,6.6,6.4,9.7,9.7c1.1,1.2,1.9,2.7,2.8,4.1c0.2-0.1,0.5-0.2,0.7-0.4
				c-0.7-1.8-1.4-3.6-2.2-5.3c-7.2-16-11.9-32.9-17.7-49.4c-3.5-9.9-5.8-20.2-11-29.5c-3-5.4-7.3-9.6-11.5-13.9
				c-1.1-1.1-2.1-2.4-2.6-4c10.3,6.6,19.5,14.4,27.4,23.5c7.9,9.2,15.5,18.6,22.3,28.6c6.9,10,12.6,20.8,19.2,32c0-2.7,0-4.7,0-6.7
				c-0.3-17.4-0.6-34.8-1-52.1c-0.2-8.5-0.4-17-0.8-25.5c-0.1-2.3-0.9-4.6-1.3-6.9c-0.2-1.4-0.2-2.9,0.3-4.5
				c8.8,24.1,18.3,47.8,29.2,71.2c0.5-13.1,3.2-25.8,6.2-38.4c3-12.5,4-25.4,10.4-37.4c0.8,1.9,2,3.7,2.3,5.7
				c1.9,10.5,3.4,21,5.3,31.4c1.6,9,3.6,18,5.4,27.1c0.6-2.8,1-5.9,2.1-8.8c5.1-14.4,10.3-28.8,15.8-43c4.1-10.7,8.7-21.2,13.4-31.7
				c1.4-3.2,4.2-5.7,6.4-8.6c0.2,0.1,0.5,0.2,0.7,0.3c-0.1,1,0.2,2.1-0.3,2.9c-4.1,7.7-4.7,16.3-6.3,24.5
				c-1.7,8.7-2.7,17.6-3.3,26.5c-0.5,8-0.4,16-0.1,24c0.2,6.3,1.1,12.5,1.4,18.8c0.4,6.1,0.4,12.3,0.6,18.4
				c0.2,5.5,0.5,11.1,0.6,16.6c0,4.5-0.4,9.1-0.6,13.8c1.2-2.9,2.3-5.8,3.6-8.7c4.5-10.2,8.6-20.7,13.7-30.6
				c6.7-13.1,14.1-25.8,21.3-38.7c1.4-2.5,3.2-2.6,4.6-0.1c3.5,5.9,7.4,11.7,8.9,18.5c0.5,2.2-1.1,5-1.9,7.4
				c-2.1,5.9-4.3,11.6-6.4,17.5c-1.7,4.7-3.3,9.4-4.9,14.1c-2.1,6.3-4,12.7-6.1,19c-1.1,3.4-2.7,6.6-3.9,10
				c-0.8,2.3-1.4,4.6-2.2,6.9c-0.3,0.9-0.6,1.8-1.2,2.5c-1.2,1.3-2.3,2.4-2.5,4.4c-0.2,1.8-2.8,2.6-3.5,1.2
				c-1.7-3.2-4.8-4.7-7.6-6.2c-6.7-3.6-13.6-6.8-20.3-10.4c-1-0.5-1.6-1.8-2.4-2.7c-0.9-1-1.9-1.9-2.9-2.9c-0.2,0.2-0.4,0.3-0.6,0.5
				c0.1,0.6,0,1.3,0.2,1.8c1.9,4.6,3.8,9.1,5.7,13.7c0.1,0.2,0.1,0.5,0.2,0.5c4.4,1.2,5.2,5.7,7.6,8.7c6.5,8.2,12.6,16.8,18.5,25.4
				c3,4.3,5.2,9.2,7.8,13.7c1.9,3.3,3.9,6.5,5.9,9.6c1.5,2.3,0.2,3.8-1.1,5.7c-0.7-0.8-1.2-1.4-1.7-2c-7.6,10.2-18,17-28.4,23.7
				c0.1,0.3,0.2,0.7,0.3,1c5.6-0.6,11.2-1.2,16.8-1.8c1.9-0.2,3.9-0.4,5.9-0.3c0.8,0,1.5,0.7,2.1,1c5.9-3.2,11.6-2.5,17.1,0.9
				c2,1.2,3.8,2.7,5.8,3.9c2,1.2,3.4,2.6,3.4,5.3c0,1.1,1.5,2.2,2.6,3.7c-0.8,2.1-2.2,3.7-5.4,3.4c-1.8-0.2-3.8,0.9-5.7,1.5
				c-0.7,0.2-1.3,0.7-2,0.8c-3.2,0.2-6.5,0.3-9.7,0.4c-6.6,0.1-13.2,0.3-19.7,0.3c-5.3,0-10.7-0.4-16-0.3
				c-5.4,0.1-10.8,0.7-16.2,1.1c-5.7,0.3-11.4,0.9-17.1,0.7c-2.3-0.1-4.5-1.9-6.9-2.9c-0.9-0.4-2.3-0.9-3-0.5
				c-5.7,3.4-12.2,2.7-18.4,3.5c-5.3,0.7-10.7,1-16.1,0.9c-4.6-0.1-9.2-0.8-13.9-1.4c-4.8-0.6-9.6-1.1-14.3-2
				c-4.8-0.9-9.6-2.3-14.4-3.4c-1.2-0.3-2.5-0.6-3.7-0.3c-4,1.1-7.9,2.4-11.8,3.6C320.3,81.5,320.1,81.2,320,80.9z M377.4-128
				c-0.4,0.1-0.7,0.2-1.1,0.3c0.1,2.8,0.3,5.7,0.4,8.5c0.2,6.6,0.4,13.2,0.7,19.8c0.2,4,0.7,7.9,0.9,11.9c0.2,4.5,0,8.9,0.2,13.4
				c0.3,6.1,0.7,12.2,1.2,18.3c0.5,6.6,1,13.2,2,19.7c0.9,6.1,2.4,12,3.7,18c1.4,6,2.8,11.9,7,16.8c7.1,8.1,13.8,16.6,20.7,24.9
				c1.3,1.6,2.6,3.2,4.2,5.2c-0.2-4.1-0.5-7.4-0.6-10.7c-0.3-5.6-0.5-11.2-1-16.7c-0.4-4.7-1-9.4-1.4-14.1c-0.4-5.4,0-10.9-1.2-16.1
				c-2.3-10-5.3-19.9-8.2-29.8c-0.2-0.9-1.2-1.5-1.8-2.3c-0.6-0.9-1.4-1.7-1.7-2.7c-0.5-2.1-0.3-4.4-1.1-6.3
				c-3-7.7-6.3-15.4-9.3-23.1c-3.5-8.7-6.9-17.5-10.3-26.2C379.7-122.1,378.6-125,377.4-128z M265.7,53.2c0,0.2,0,0.4,0.1,0.6
				c0.8,0.1,1.7,0.2,2.5,0.3c8.5,1.2,17.2,1.7,25.4,3.9c13.2,3.7,26,8.6,39,13c1.1,0.4,2.7,0.6,3.7,0c7.1-4,14.3-7.9,21.1-12.4
				c9.2-6.1,19-8.5,29.8-6.3c12,2.4,23.7,5.9,34.5,12c0.3,0.2,0.6,0.1,1.6,0.3c-0.7-1.5-1-2.5-1.6-3.4c-2.6-3.8-5.3-7.7-8-11.5
				c-4.4-6-8.8-12.1-15.4-16.1c-3.3-2-6.9-3.4-10.2-5.3c-3.5-2-7.7-1.9-10.7,0.9c-3.2,3-6.7,5.9-9.4,9.4c-3.3,4.2-6.9,8-10.6,11.8
				c-5.7,6-12.5,10.5-18.7,15.8c-1,0.8-2.5,0.9-3.8,1.3c-0.1-0.2-0.2-0.4-0.3-0.7c7.6-4.8,12.9-11.7,18.8-18.9
				c-6.9-1.8-13-3.6-19.5-3.6c-4.8,0-9.7-0.1-14.5-0.3c-6.8-0.3-13.6,0.1-20.3,1.7c-1.4,0.3-2.8,0.8-4.2,1.1
				c-2.2,0.3-4.5,0.3-6.7,0.8c-3.3,0.8-6.3,2.7-10,1.9c-0.3-0.1-0.8,0-1.1,0.2c-2.9,1.8-6.1,2.5-9.5,2.7
				C267,52.4,266.3,52.9,265.7,53.2z M306.9-43.6c27.1,18.4,46.1,43.7,63.5,70.6c9-6.7,18.3-5.1,27.9-0.8c-2.7-4.3-5.4-8.5-8.8-12
				c-9.8-10-18.7-20.6-26.6-32.1c-4.1-6.1-7.7-12.5-11-17.9c-1.5-0.4-2.5-0.4-3.1-0.9c-3.9-3.4-7.6-6.9-11.5-10.3
				c-1.8-1.6-3.1-3.4-6.5-1.9c-3.3,1.5-7.5,1.1-11.3,1.4C315-47.1,310.6-46.1,306.9-43.6z M451-140.6c-0.2-0.1-0.5-0.2-0.7-0.4
				c-0.6,1.1-1.3,2.2-1.7,3.4c-0.6,1.9-1,4-1.6,5.9c-2.8,8.1-5.8,16.1-8.3,24.3c-2,6.8-3.3,13.7-5,20.6c-1.9,7.7-3.8,15.4-5.6,23.2
				c-1.1,5.1-2.2,10.2-3,15.3c-0.4,3-0.4,6.1,0,9.1c0.5,4.3,1.4,8.6,2.2,12.9c0.7,3.8,1.7,7.6,2.1,11.4c0.3,2.7,2.8,5.2,1,8.2
				c1.6,1.6,1.2,3.2,0.2,5c-0.1,0.2,0.1,0.9,0.3,1c1.8,0.5,1.5,1.6,1.5,3.2c0.1,2.5,1,5,1.6,8.2c0.6-1.6,1.1-2.4,1.2-3.4
				c1.5-10.1,3.3-20.2,4.4-30.4c0.6-5.3,0.1-10.7,0.1-16.1c0-1.8,0.1-3.7-0.1-5.5c-0.2-2.4-1-4.9-0.8-7.3c0.6-8.9,1.2-17.8,2.2-26.7
				c0.8-7.2,2.1-14.4,3.2-21.5c1.6-10.3,3.3-20.6,5-30.8C449.8-134.2,450.5-137.4,451-140.6z M397.1,73.3c-1.3-0.7-2.4-1.2-3.4-1.8
				c-5.6-3.3-11.3-6.5-16.9-9.8c-0.6-0.3-1.5-0.8-2-0.7c-3.3,1.1-6.7,2.2-9.9,3.5c-3.1,1.3-6,3.1-9.1,4.4c-3.7,1.6-7.4,2.9-11.3,4.4
				c0.4,0.2,0.7,0.4,1,0.5c7.6,1.1,15.2,2.9,22.9,2.3c9.8-0.7,19.7-1.4,29.5-2.2c0.5,0,1-1,1.5-1.5c-0.3-0.2-0.5-0.4-0.8-0.6
				C398.1,72.3,397.6,72.8,397.1,73.3z"/>
			<path class="st1" d="M667.4,180.9c0.5-0.4,1.2-0.7,1.5-1.2c3-4.5,6.1-9,10.9-11.8c0.4-0.2,0.7-0.6,1-0.9c1.6-1.8,2.8-3.9,5.1-5.3
				c2.9-1.7,3.6-5.1,4.3-8.2c0.9-3.9,1.8-7.8,4.6-11.4c1.6,1.2,3,2.2,4.4,3.3c1.2,0.9,4.1-1.1,4.5-3.2c0.4-2.2,0.4-4.4,1-6.5
				c0.4-1.6,1.3-3.1,2.2-4.4c2.1-2.8,4.1-5.5,4.4-9.3c0.1-1.6,2.7-3,4.3-4.2c0.2-0.1,1.8,1.7,3,2.8c0.5-1.3,1-2.9,1.9-4.2
				c2.3-3.5,5-6.9,7.3-10.5c1.9-3.1,3.4-6.5,5.1-9.7c0.5-0.9,1.4-2.2,2.1-2.2c4.6-0.2,6.6-3.5,8.2-7c2.7-6,5.1-12.1,7.7-18.1
				c0.7-1.7,2.1-1.8,3.1-0.2c0.7,1.1,1,2.4,2.2,3.7c1.4-5,2.6-10.1,4.4-15c1.8-4.9,4.2-9.7,6.3-14.5c3.9,0.2,5.6-0.7,6.4-4.7
				c1.4-7.1,3.7-13.9,6.7-20.5c1-2.1,2.9-3.8,3.9-6c1.2-2.5,1.9-5.2,2.8-7.9c3.8-11.1,7.5-22.3,11.3-33.4c3.2-9.3,6-18.7,9.6-27.7
				c5.1-12.8,10.7-25.4,16.1-38.1c0.8-1.8,1.4-3.7,2.2-5.4c0.3-0.6,1.1-1.1,2-1.3c-1.3,9.1-2.2,17.9-5.8,26.3
				c-2.6,6.2-3.8,13-5.9,19.5c-0.6,1.9-1.9,3.6-2.6,5.5c-0.4,0.9-0.3,2-0.4,2.9c0.3,0.2,0.6,0.3,0.9,0.5c1-1.4,1.9-2.9,2.9-4.3
				c1.3-1.8,2.1-4,5.3-3.2c1,0.2,2.8-2.1,4-3.5c1.2-1.4,1.9-3.2,3-4.7c1.8-2.3,2.6-2.3,4.7,0.4c3.3-4.6,6.6-9.1,9.9-13.7
				c1.1,0.9,1.7,1.4,2.6,2.2c3.5-5,6.8-9.9,10.5-15.2c0.9,1.8,1.5,3,2.6,5.1c2.9-3.4,5.9-6.2,7.9-9.6c3.8-6.3,7-13,10.7-19.4
				c1.9-3.3,4.4-6.3,6.7-9.5c3.3,3.7,0.3,6.4-0.9,9c-3.2,7-7.1,13.7-10.3,20.8c-2.7,5.9-4.5,12.2-7.1,18.2
				c-2.2,5.2-4.3,10.7-7.5,15.3c-5.3,7.5-11.3,14.6-17.3,21.6c-4.3,5-8,10.4-11,16.3c-3.2,6.4-6.2,13-10,19
				c-4.9,7.8-6.6,16.9-10.9,24.9c-3.2,5.8-6.8,11.3-10.5,16.8c-4.1,6.1-8.4,12-12.7,17.9c-2.1,2.9-4.2,5.8-6.5,8.5
				c-0.8,0.9-2.1,1.3-2.9,2.3c-0.9,0.8-1.7,1.7-2.6,2.5c-1.7,1.6-3.4,3.1-5.1,4.7c-3.6,3.5-7.4,6.8-10.9,10.4
				c-2.8,3-5.3,6.3-7.9,9.4c-6.2,7.3-12.6,14.5-18.8,21.8c-1.3,1.5-1.9,3.5-2.9,5.2c0.2,0.2,0.3,0.4,0.5,0.6
				c0.8-0.4,1.7-0.6,2.3-1.2c2.4-2.4,4.5-5.2,7-7.5c3-2.7,6-6.2,9.6-7.5c6.5-2.2,10-7.9,15.2-11.4c2.7-1.8,4.3-5.4,6-8.4
				c1.3-2.2,3.2-1.7,4.5-0.9c1.7,1,2.4,0.2,3.7-0.6c6-3.8,9.8-9.8,14-15.2c2.4-3.2,3.9-3.4,6.9-0.7c6.9-5.2,13.6-10.5,18.3-18
				c1.8-2.9,3.6-3.3,6-2.1c2.6-1.7,5.3-2.9,7.4-4.7c1.7-1.6,2.8-3.9,4-6c1.1-1.8,2.1-3.7,3.1-5.7c6.4-12.8,12.5-25.7,19.2-38.3
				c4.3-8,9.1-15.8,14.1-23.4c5.2-7.8,10.7-15.2,16.4-22.7c3-4,6.6-7.5,9.9-11.2c0.3,0.2,0.6,0.3,0.9,0.5c-0.2,0.8-0.2,1.7-0.6,2.4
				c-3.6,7.5-7.8,14.6-12.5,21.5c-3.3,4.9-6.1,10.2-9.1,15.3c-2.7,4.6-5.8,9-8.2,13.8c-3.3,6.4-6,13-9.1,19.5
				c-3.1,6.6-6.4,13-9.2,19.7c-3.4,8.2-7.7,15.8-12.2,23.4c-2.6,4.4-4.8,9.1-7.2,13.6c-1,1.8-2.2,3.4-3.1,5.2
				c-0.6,1.1-0.8,2.5-1.5,3.6c-0.4,0.7-1.1,1.3-1.8,1.8c-0.6,0.5-1.7,0.6-2.1,1.2c-2.3,4.3-5.7,7.6-9.4,10.8
				c-3.7,3.2-6.6,7.4-10.2,10.8c-2.5,2.4-5.7,3.9-8.4,6.1c-3.1,2.5-5.9,5.4-8.8,8c-2.5,2.3-5,4.5-7.5,6.8c-4,3.7-8,7.6-12.1,11.2
				c-1,0.9-2.5,1.2-4,1.8c0.4,2.1-1.2,3.2-3.1,4.3c-2.2,1.4-4,3.4-6,5.1c-0.9,0.8-1.9,1.6-2.8,2.4c-2.7,2.5-5.3,5-8,7.4
				c-1.3,1.2-2.9,2.1-4.6,3.3c0,0,0.5,0.6,0.9,0.6c12.9-0.7,25.7,0.3,38.5,1.7c1.2,0.1,2.5-0.8,3.8-1.1c1.5-0.3,3.1-0.6,4.5-0.3
				c4.5,0.9,8.7,2.4,11.1,6.8c0.8,1.5,2.7,2.7,1.8,4.9c1.1,0.5,2.2,1.3,3.3,1.4c4.9,0.4,9.9,0.3,14.8,0.8c2.2,0.2,4.2,1.5,6.4,2
				c2.3,0.5,4.7,0.8,7.1,1.1c3.3,0.3,6.5,0.5,9.8,0.7c0.5,0,1,0,1.3,0.2c3.4,3,7.2,5.8,7.7,10.9c0.2,2.3,1,4.4,1.5,6.3
				c-3.1,0-6.4,0-9.7,0c-5.8,0.1-11.7,0.3-17.5,0.4c-9.3,0.2-18.5,0.4-27.8,0.8c-3.4,0.2-7,0.5-10.1,1.7c-2.9,1.1-5.1-0.2-6.9-1.2
				c-1.7-0.9-3.2-1.2-4.9-1.2c-2.4,0-4.7,0.2-7.5,0.4c0.9,1.9,1.5,3.3,2.4,5.1c-1.5,0.2-2.7,0.7-3.6,0.4c-3.9-1-7.4,0.2-11,1.3
				c-0.7,0.2-1.6,0.3-2.2,0c-1.5-0.9-2.8-0.5-4.2,0c-0.9,0.3-2.2,1.3-2.9-0.7c-0.2-0.6-2.2-0.9-3.3-0.7c-2.9,0.5-5.7,1.5-8.5,2
				c-2.8,0.4-5.7,0.3-8.5,0.7c-3.8,0.5-7.6,1.2-11.3,1.9c-1.8,0.3-3.6,1.1-5.4,0.9c-3.9-0.3-6.5,2.7-9.9,3.4
				c-1.1,0.2-2.3,0.1-3.5,0.1c-2.7,0.1-5.3-0.1-8,0.3c-8.1,1-16.1,2.3-24.1,3.2c-2.6,0.3-5.2-0.2-7.5,1.7c-0.7,0.5-2.9-0.3-4.1-1.1
				c-4.5-3-9.3-2.4-14.2-1.6c-4.8,0.7-9.6,0.8-14.5,1.1c-0.3,0-0.6,0-0.8-0.1c-3.4-2-6.9-4-10.3-6c-1.3-0.8-1.3-2,0-3
				c0.7-0.6,1.5-1.2,2.3-1.5c8.3-2,16.6-4.7,25.3-4.4c3.8,0.1,7.5,1,11.3,1.5c1.2,0.1,2.4,0.3,3.6,0.1c2.7-0.6,5.4-1.3,8.1-2.2
				c0.9-0.3,1.7-1.1,2.5-1.7c0.1,0.3,0.3,0.9,0.4,0.9c2.5-0.3,5-0.6,8.2-1c-0.9-1.6-1.4-3.5-2-3.5c-1.2,0-2.5,0.9-3.6,1.6
				c-1.1,0.6-2.1,1.4-3.2,2.1c0.2-0.4,0.3-0.9,0.6-1.2C666,189.9,666.8,185.4,667.4,180.9L667.4,180.9z M687.2,186.9
				c0.2,0.4,0.5,0.7,0.7,1.1c1.5-0.6,3-1.1,4.4-1.8c0.3-0.2,0.5-1.4,0.2-1.9c-0.3-0.5-1.5-1-1.8-0.8
				C689.4,184.5,688.3,185.7,687.2,186.9z"/>
			<path class="st1" d="M790.4-138.2c3-8.3,8.9-14.8,13.8-21.8c7.4-10.5,10.7-22.5,13.1-34.8c1.2-6.1,3.4-12.1,5.1-18.1
				c0.2,0.1,0.5,0.1,0.7,0.2c-0.7,3.8-1.5,7.6-2,11.5c-0.8,5.1-1.4,10.3-2,15.5c-1.3,10.7-2.5,21.5-3.9,32.2
				c-1.1,8.4-2.1,16.8-3.6,25.1c-0.6,3.2-2.6,6.1-3.7,9.2c-0.8,2.1-1,4.3-1.7,6.4c-1.7,4.9-3.7,9.8-5.4,14.7
				c-2.1,6.1-3.9,12.4-6.2,18.5c-2.7,7.4-5.7,14.6-10.3,21.1c-1.9,2.6-3.1,5.7-5.1,8.2c-3.4,4.3-7.4,8.1-10.7,12.5
				c-3.1,4.2-5.4,8.9-8.1,13.4c-0.2,0.4-0.4,0.8-0.7,1.2c-2.3,3.1-4.1,6.8-7,9.3c-2.8,2.4-4.2,5.6-6.2,8.4c-2.7,3.6-5,7.5-7.4,11.3
				c-2.8,4.3-5.6,8.5-8.3,12.8c-0.9,1.4-1.5,2.9-2.3,4.3c-0.3,0.7-0.6,1.4-1,2c-2.3,3.9-4.5,7.7-6.8,11.6c-2.7,4.6-5.5,9.3-8.3,13.9
				c-2.4,4-4.9,8-7.4,12c0.1,0.1-0.2-0.1-0.1-0.2c0.9-4.7,1.8-9.5,2.6-14.2c0.7-4.5,1.1-9.1,2-13.5c2.8-13.3,5.9-26.5,8.8-39.8
				c1.9-8.8,3.5-17.6,5.2-26.3c0.8-4.2,2.5-8.4,2.2-12.6c-0.3-5.6,1.3-11,3.8-15.2c3.1-5.1,2.2-10.7,4.3-15.8c1.6-4,1.6-4.3,4.7-1.2
				c0.2-0.6,0.6-1.1,0.5-1.5c-0.9-4.3,0.2-8.9,2.8-11.6c5-5.3,4.6-12,6.5-18c0.7-2.2,1.7-2,3.6-1.2c0.7-2.6,1.4-4.9,1.9-7.4
				c0.5-2.5,0.6-5,0.9-7.9c1.2,0.6,2.3,1,3.9,1.8c0.9-5.1,1.9-10.1,2.8-15.4c0.9,0.2,1.8,0.4,2.5,0.6c1.2-4.5,2.3-8.9,3.5-13.3
				c0.1-0.5,0.3-1.4,0.6-1.5c4-1.4,3.4-5.4,4.5-8.2c2.9-7.4,5.3-15,7.9-22.6c0.4-1.3,0.6-2.7,0.9-4.3c1,0.4,1.7,0.6,3.1,1.1
				c1.4-6.4,2.8-12.7,4.3-19.4c0.6,1.3,1.3,2.5,2,4c1.9-6.4,2.1-12.7,1.7-19c-0.1-1.7,0-3.5,0.1-5.2c0.2-7.6,0.4-15.3,0.7-22.9
				c0.1-2.8,0.4-5.5,0.8-8.2c0.1-0.4,0.6-0.8,1.1-1.6c0.3,0.8,0.5,1.1,0.5,1.5c0.3,3.7,0.7,7.4,0.9,11c0.3,5,0.3,9.9,0.6,14.9
				c0.1,2.2,0.7,4.4,1.2,6.6c1.8,8.1,2.1,16.3,1.8,24.5c-0.3,9.4-0.7,18.8-2.9,28.1c-2.2,9-3.9,18.2-5.9,27.2c-0.4,2-1.3,4-1.9,5.9
				C789.7-138.4,790-138.3,790.4-138.2z"/>
			<path class="st1" d="M667.5,180.8c-0.5,0.8-1,1.6-1.5,2.5c-0.7,1.4-1.3,2.8-2,4.3c-1.9-1.8-3.4-3.2-4.9-4.6c-1.4-1.3-2.7-3-5-2.3
				c-0.2,0-0.4,0-0.5-0.1c-2.8-3.3-4.5-1.2-6.1,1.6c-1.3-0.9-2.4-1.6-3.3-2.4c-2.2-2.2-4.5-4.3-6.3-6.7c-1.4-1.8-2.3-4-3.6-6.4
				c-0.4,0.5-1.1,1.1-1.3,1.9c-0.7,1.9-1.8,1.7-3,0.8c-3.6-3-7.3-5.8-10.6-9.1c-4.7-4.8-10.5-8.5-13.6-14.7
				c-0.4-0.8-2.2-0.9-2.9-1.7c-1.4-1.5-2.7-3.1-3.8-4.8c-7-10.8-13.8-21.7-20.8-32.6c-1.7-2.6-3.4-5.1-5.1-7.7
				c-0.2-0.3-0.2-0.9,0.2-1.8c2.5,2.7,5.4,5.2,7.5,8.2c4.3,6.1,8,12.5,12.2,18.7c1.6,2.4,3.7,4.6,5.4,6.9c1.8,2.4,3.4,4.9,5.2,7.3
				c0.5,0.7,1.4,1.2,2.1,1.6c2.9,1.5,6.3,2,7.6,6.1c0.8,2.5,3.3,4.6,5.4,7.3c0.2,0,1.2,0.2,2.2,0.3c2.5,0.4,4.5,1.1,5.1,4.2
				c0.4,2,1.9,3.5,4.4,3.7c1.9,0.1,3.6,0.8,4.3,3c0.1,0.4,0.6,0.8,1,1c2.5,0.9,5,1.8,8,2.8c-1.7-2.7-3.1-5.3-4.7-7.7
				c-2.9-4.3-4.7-8.9-5.3-14c-0.1-0.9-0.7-1.7-1.2-2.5c-4.8-6.6-7.3-14.3-10.1-21.8c-0.3-0.9,0.5-2.3,1.2-3.3
				c-6-20.6-11-41.8-19.7-61.8c0.4-0.2,0.9-0.4,1.3-0.5c1.5,3.2,3.1,6.4,4.5,9.7c1.7,3.8,3.5,7.7,4.9,11.6c1.7,4.7,2.9,9.6,4.6,14.3
				c0.9,2.7,2.1,5.4,3.5,7.9c1.5,2.7,3.5,5.1,5.2,7.6c3,4.5,4.5,9.7,5.2,15c0.3,2.4,1.3,3.8,3.5,4.4c2.3,0.7,3.2,2.1,3.8,4.7
				c1.2,4.9,3.5,9.6,5.4,14.3c1.3,3.5,2.9,6.9,3.9,10.4c0.8,2.8,2.7,3.7,5.2,4.4c-4.7-13.5-7.8-27.2-10.5-41c3.7,2.6,4.2,6,3.8,10.1
				c-0.2,2.2,0.3,4.6,1,6.7c1.7,4.5,3.8,8.9,5.5,13.4c0.6,1.4,0.6,3.1,0.9,4.6c0.3,1.2,0.6,2.5,1.2,3.6c1,1.8,2.2,3.5,3.8,6
				c0-2.9-0.1-5.3,0-7.7c0.5-11.6,1-23.3,1.5-34.9c0.1-3.5,0.2-6.9,0.1-10.4c-0.2-11.8-0.1-23.5-0.7-35.3
				c-0.5-10.1-1.8-20.2-2.6-30.3c-0.6-8.2-1-16.4-1.6-24.6c-0.4-5.5-1.1-11-1.5-16.4c-0.4-5.9-0.5-11.9-0.9-17.8
				c-0.4-5.5-0.8-11-1.6-16.4c-1.6-10.5-3.4-21-5.3-31.4c-0.7-4-2.3-7.9-2.9-11.9c-0.6-4.2-0.5-8.4-1-12.6c-0.5-4-1.2-8.1-2-12.1
				c-1.2-6-2.6-12-3.9-18c-0.3-1.4-0.3-2.8-0.4-4.2c1.3-0.6,2.7-1.2,4-1.8c-0.1-0.4-0.2-0.7-0.3-1.1c-1.3,0.2-2.5,0.4-4.1,0.7
				c-0.7-6.4-1.4-12.8-2.2-19.1c-0.7-6.1-1.6-12.2-2.1-18.4c-0.5-5.9-0.4-11.7-0.7-17.6c-0.4-8.4-1.5-16.8-1.3-25.2
				c0.2-7.4,1.4-14.8,2.9-22.1c2.4-11.1,5.6-22,8.3-33.1c1.2-5.1,1.9-10.4,3-16.2c1.9,2.6,1.7,5.2,1.6,7.6
				c-0.2,5.1-0.4,10.2-0.9,15.2c-0.4,5-1.1,9.9-1.7,14.8c-0.7,5.3-1.4,10.5-2,15.8c-0.1,1.1,0.1,2.2,0.2,3c-0.8,1-1.4,1.9-2.1,2.8
				c0.6,0.4,1.2,0.8,2,1.3c-2.9,3.1,0.5,6.5-0.1,9.9c-0.2,1.4-0.2,2.9-0.1,4.4c0.2,3.8,0.5,7.7,0.8,11.5c0.3,0,0.6,0.1,1,0.1
				c0.6-0.6,1.1-1.3,1.8-2.1c2.2,1.1,3.5,2.9,3.5,5.4c0,4.7-1.2,9.1-3.2,13.4c-0.5,1.1-0.3,2.4,0.1,4.2c0.6-0.9,1.3-1.8,1.9-2.8
				c3.3,2.3,4.5,7,3,10.9c-0.5,1.3-0.3,2.8-0.7,4.1c-0.4,1.4-1.1,2.8-1.7,4.2c-0.9,1.9-0.6,3.5,1.2,5c0.4-0.9,0.8-1.5,1.2-2.2
				c3.7,1.8,4.5,3.6,3.7,8.7c-0.8,4.7,0.1,9.1,2.2,13.3c0.4,0.9,0.4,2,0.8,3.9c0.6-1.3,1-1.9,1.1-2.5c0.4-7.8,1.1-15.6,1.2-23.4
				c0.1-13,0.8-25.9,3.3-38.7c1.7-8.9,4.2-17.7,6.7-26.5c1.9-6.7,4.4-13.2,6.7-19.8c0.2-0.6,0.7-1.2,1.6-1.7c0,1.3,0.1,2.7,0,4
				c-0.4,3.7-1.1,7.4-1.3,11.1c-0.4,7.8-0.9,15.6-0.9,23.4c0,8.8,0.6,17.6,0.7,26.5c0.1,4.7-0.4,9.3-0.2,14c0.3,5.3,0.7,10.7,1.6,16
				c1.2,7.1,1,14.3-1,21c-1.5,5-2.8,9.8-3,14.9c-0.1,2,0.1,3.9-0.1,5.9c-0.2,1.6,0.2,3.7-2.5,3.8c-0.3,0-0.7,1-0.8,1.6
				c-0.7,6.9-1.3,13.9-2.1,20.8c-0.2,1.5-0.8,2.9-1.4,4.4c-0.2,0.6-1,1-1.1,1.6c-0.5,4.2-1.1,8.4-1.4,12.6c-0.2,3.7,1.2,7.6-1.7,11
				c-0.4,0.5-0.2,1.6-0.2,2.4c0.2,4,0.4,8,0.7,12c0.3,4,0.8,8.1,1.3,12.1c0.8,6,1.7,11.9,2.5,17.9c0.2,1.4-0.1,2.9,0,4.3
				c0.3,3.6,0.6,7.3,0.9,10.9c0.1,1,0.5,2,0.6,3c0.9,8.2,1.8,16.5,2.5,24.7c0.4,5.3,0.3,10.7,0.7,16.1c0.2,3.2,0.9,6.4,1.1,9.7
				c0.3,5.6,0.5,11.2,0.5,16.8c0,3-0.6,5.9-0.9,8.9c0,0.3-0.1,0.7,0,0.8c2.7,3,0.7,6.1,0.2,9.1c-0.2,1.2,0.8,2.6,0.8,3.9
				c-0.1,3.3-0.3,6.7-0.6,10c-0.5,5.3-1.2,10.6-1.5,15.9c-0.1,2.5-0.3,4.8-1.1,7.2c-0.5,1.5-0.1,3.2-0.1,4.8
				c0.3,0.1,0.5,0.1,0.8,0.2c1.2-1.4,2.6-2.7,3.6-4.2c1-1.4,2.2-2.6,3.5-1.4c1,0.8,1.9,3.1,1.5,4c-1.5,2.9-3,6.7-5.7,8
				c-4.9,2.5-5.3,6.5-5.9,10.9c-0.5,3.9-1.2,7.7-1.7,11.6C666.7,179.1,667.2,180.1,667.5,180.8C667.4,180.9,667.5,180.8,667.5,180.8
				z"/>
			<path class="st1" d="M751.4,225.4c8.3,2,10.5,7.8,10.9,15.6c-8.5,0-16.8,0-25.1,0c-2.2,0-4.6,1.4-6.6-0.6c-2.9-3-5.8-6.1-8.6-9
				c4.1-6,10-5.5,15.3-6c3.8-0.4,7.6-0.1,11.5-0.5c-5.6-1.4-11-3-16.9-2c-4.6,0.8-9.3,1.7-13.9-0.5c-3.5-1.6-6.3-4.1-8.2-7.3
				c-1-1.7,0-3,1.6-4.1c5.7-4.1,12.2-5.4,18.9-5.9c7.8-0.6,15.6-1,23.4-1.5c6.9-0.5,11.8,2.5,15,8.5c0.8,1.5,1.1,3.3,1.8,4.9
				c0.8,2.1,1.7,4.1,2.7,6.4c-3.7,1.1-7,3.5-10.9,0.9c-0.2-0.2-0.8-0.1-1.1,0c-2.8,1.3-5.5,1-8.3,0.2c-0.2-0.1-0.5,0.2-0.8,0.2
				C751.9,224.9,751.7,225.2,751.4,225.4z"/>
			<path class="st1" d="M554.3,198.4c1.8-3.4,5-4.8,8.3-5.3c8-1.4,16.1-2.4,24.1-3.4c5.6-0.7,11.2-1.3,16.7-1.4c3,0,6.1,0.8,8.9,1.8
				c2.5,0.9,4.7,2.5,7.7,4.2c-0.9,1-1.6,2.3-2.7,2.9c-5,2.7-10.5,2.4-15.9,1.9c-4.8-0.4-9.6-1.1-14.4-1c-7,0.2-14.1,1-21.1,1.5
				c-1.3,0.1-2.6,0.4-3.8,0.7C559.2,201,556.4,201.2,554.3,198.4z"/>
			<path class="st1" d="M780.2,214c1.2-0.5,2.2-1.1,3.3-1.3c7.1-1.1,14.2-2.1,21.2-3.2c0.3,0,0.6-0.1,0.8-0.1
				c5,1.2,9.9,2.4,14.9,3.5c1.7,0.4,2.2,1.3,2.4,2.9c0.2,1.8,0.9,3.6,1.3,5.4c0.1,0.6-0.2,1.7-0.5,1.8c-1.9,0.4-3.9,0.6-5.8,0.8
				c-1.5,0.2-2.9,0.6-4.4,0.5c-6.5-0.1-12.9-0.3-19.4-0.5c-2.3-0.1-4.9,0.2-6.9-0.8c-2.1-1.1-3.7-3.3-5.3-5.2
				C781.2,217,781,215.7,780.2,214z"/>
			<path class="st1" d="M436.5,101.6c-1.1-0.6-2.1-0.9-2.8-1.6c-0.6-0.6-1-1.6-1-2.4c0-0.5,1-1,1.6-1.4c2.9-1.9,6.3-1.8,9.5-2.1
				c1.6-0.2,3.3-0.1,5-0.1c6.2,0.2,12.3,0.5,18.5,0.6c3,0,5.9-0.6,8.9-0.8c1.6-0.1,3.2-0.3,4.7,0.1c4.8,1.3,9.4-0.1,14-0.7
				c5.6-0.7,11.1-2.1,16.9-0.8c1.6,0.4,3.6-0.7,5.4-1.2c2.9-0.8,6.8,0.1,7.3,1.9c0.4,1.5-2,4.3-5.1,4.7c-2.6,0.4-5.4-0.2-8.1-0.4
				c-0.7,0-1.5-0.1-2.2,0.1c-1.7,0.3-3.3,0.8-5,1c-1.4,0.2-2.9,0.3-4.3,0.1c-2.3-0.2-4.6-0.5-6.8-0.9c-1.1-0.2-2.2-0.8-3.1-0.6
				c-2.5,0.5-5.2,0.9-7.4,2.2c-2.9,1.6-5.4,0.9-8.3,0.4c-2.6-0.4-5.3-0.2-7.9-0.2c-2.4,0.1-4.8,0.5-7.2,0.3
				c-1.4-0.1-2.7-1.1-4.1-1.6c-0.6-0.2-1.4-0.5-2-0.4c-4.3,0.5-8.7,0.9-12.9,1.6C438.6,99.7,437.4,101,436.5,101.6z"/>
			<path class="st1" d="M528.2,103.3c-1.6,3.3-4.8,4.8-8.2,4.9c-3.5,0.1-7.1,0.7-10.6,1.4c-2.3,0.5-6.8-2.2-6.7-4.5
				c0-0.5,0.6-1.4,1-1.5c3.1-0.7,6.3-1.2,9.4-1.7c1.5-0.3,3.2-0.3,4.7-0.6C522.2,100.1,524.9,100.6,528.2,103.3z"/>
			<path class="st1" d="M539.5,125.8c3.4,0.7,6.7,1.3,10.1,2.1c0.5,0.1,1.3,0.8,1.2,0.9c-0.8,2.3-1.5,4.9-2.9,6.8
				c-0.8,1.1-2.7,0.4-3.6-1.2c-0.6-1.1-1-2.3-3.1-1.5c-1.8,0.7-6.2-2.9-6.4-4.9c-0.1-0.5,0.7-1.5,1.3-1.7c1.1-0.3,2.2-0.1,3.3-0.1
				C539.4,126.1,539.4,125.9,539.5,125.8z"/>
			<path class="st1" d="M491.8,117.7c6.9-4.7,12.7-2,19-0.5c-0.7,0.8-1,1.5-1.5,1.6c-2.7,0.5-5.3,0.8-8,1.1
				c-0.5,0.1-1.1-0.1-1.3,0.1c-0.9,0.8-1.4,2.5-3.1,1.4C495.3,120.4,493.8,119.2,491.8,117.7z"/>
		</g>
	</g>
	<path class="st1" d="M691.6-16.6c3.7,4.8,3.5,9.8-0.5,14.8C688.4-5.7,688.5-12.4,691.6-16.6z"/>
	<path class="st1" d="M686.1,23.7c0.5-4.2,1-8.4,1.6-12.7c4.5,2.7,4.1,8.8-0.7,12.9C686.6,23.8,686.4,23.7,686.1,23.7z"/>
	<path class="st1" d="M643.6,105.7c-3.7-3.5-5.1-7.9-3.6-11.2C643.9,96.8,645.9,101.6,643.6,105.7z"/>
	<path class="st1" d="M753.9,21.7c1,5-2.3,11.9-6,12.2C749.1,29.5,750.5,25.4,753.9,21.7z"/>
	<path class="st1" d="M700.2,110.2c2.2,3.6-1,8.8-6.2,10.3C696,117.2,697.9,114,700.2,110.2z"/>
	<path class="st1" d="M721.2,87.7c0,1.6-2.6,3.8-4.1,3.5c-0.2,0-0.5-0.1-0.5-0.2c0.2-2,0.3-4.1,0.7-6.1c0.1-0.5,0.9-1.2,1.4-1.2
		c1.9,0.1,2.3,1.6,2.5,3.1C721.2,87.1,721.2,87.4,721.2,87.7z"/>
	<path class="st1" d="M637.8,83.9c-0.3-3.5-0.6-6.9-1-11.1c4,3,4.6,8.4,2,11.1C638.5,83.9,638.2,83.9,637.8,83.9z"/>
	<path class="st1" d="M703,107.5c1.2-3.3,2.4-6.6,5.6-8.7C710.8,101.8,709.6,103.7,703,107.5z"/>
	<path class="st1" d="M675.5,100.9c0.7-4.7,1.4-8.7,2-12.7C680.5,90.2,679.7,95.7,675.5,100.9z"/>
	<path class="st1" d="M682.8,63.7c0-3.2,0-6.3,0-9.5C687,56.3,686.9,60.6,682.8,63.7z"/>
	<path class="st1" d="M685.7,131.8c1.7-2.4,3.2-4.6,4.7-6.7c0.4,0.1,0.9,0.2,1.3,0.4c-0.1,1.2,0.3,2.6-0.3,3.5
		C690.4,130.7,689.4,133.1,685.7,131.8z"/>
	<path class="st1" d="M736.2,54.7c1.8,3,0.3,8-1.7,8.5c-0.3,0.1-1.6-1.4-1.4-1.8C733.8,59.4,734.9,57.4,736.2,54.7z"/>
	<path class="st1" d="M684.9,43.3c-0.2-3-0.3-5.5-0.5-8.4C688.3,38.4,688.6,40.9,684.9,43.3z"/>
	<path class="st1" d="M724,75.7c1.1-2,2.1-4,3.3-5.9c0.1-0.2,1.5,0.1,1.6,0.3c0.1,1,0.4,2.3-0.1,2.9c-1,1.2-2.5,2.1-3.8,3.1
		C724.6,76,724.3,75.9,724,75.7z"/>
	<path class="st1" d="M680.4,77.8c0.4-2.4,0.8-4.9,1.2-7.6c3.3,2.9,3.2,3.8-0.5,7.8C680.9,77.9,680.6,77.8,680.4,77.8z"/>
	<path class="st1" d="M742.8,44.7c1.5,3.2,1.3,3.5-2.8,5c0.8-2.1,1.3-3.7,1.9-5.3C742.2,44.5,742.5,44.6,742.8,44.7z"/>
</g>
<g class="st2">
	<path class="st1" d="M6.1,74h17.2V12.4c0-1.9,0.1-3.8,0.1-3.8h-0.2c0,0-0.8,1.4-4,4.7l-9,9l-3.2-3.1L23.2,2.7h4.6V74h16.8v4.3H6.1
		V74z"/>
	<path class="st1" d="M53.4,76.6l2.3-4.2c0,0,4.6,2.7,11.1,2.7c17.6,0,26.4-18.2,27.5-34.8h-0.2c-4.2,6.4-12.5,10.4-21.4,10.4
		c-13.3,0-23.2-9.4-23.2-24.1c0-16.4,10.8-25.2,23.2-25.2c16.8,0,26.5,16,26.5,35.4c0,18.5-9.2,42.9-32.5,42.9
		C58.8,79.6,53.4,76.6,53.4,76.6z M93.8,31.1c0-10.5-8.2-25.2-21.1-25.2c-11.7,0-18.5,8.7-18.5,20.7c0,12.1,7.7,19.6,18.6,19.6
		C84.5,46.1,93.8,37.9,93.8,31.1z"/>
	<path class="st1" d="M104.7,53.5L144,2.7h4.3v49.7h11.2v4.3h-11.2v21.6h-4.6V56.7h-38.9V53.5z M143.6,52.4V16.9
		c0-3,0.3-6.8,0.3-6.8h-0.2c0,0-1.8,2.7-3.8,5.2l-28.8,36.9v0.2H143.6z"/>
	<path class="st1" d="M173.2,65.7c0,0,7.9,9.4,20.3,9.4c9.6,0,18.9-7.5,18.9-18.6c0-11.8-9.9-18.1-20.2-18.1H187l-1.3-3.2l21.2-24.8
		c1.6-1.9,3.4-3.5,3.4-3.5V6.8c0,0-2.1,0.2-5.8,0.2h-31V2.7h43.4v3.2l-24.4,28.2c9.1,0,25,4.5,25,22.4c0,13-10.9,23.1-24,23.1
		c-14.4,0-23.6-10.5-23.6-10.5L173.2,65.7z"/>
</g>
</svg>
