<?xml version="1.0" encoding="utf-8"?>
<!-- Generator: Adobe Illustrator 19.2.1, SVG Export Plug-In . SVG Version: 6.00 Build 0)  -->
<svg version="1.1" id="Layer_1" xmlns="http://www.w3.org/2000/svg" xmlns:xlink="http://www.w3.org/1999/xlink" x="0px" y="0px"
	 viewBox="0 0 165.1 157.4" style="enable-background:new 0 0 165.1 157.4;" xml:space="preserve">
<style type="text/css">
	.st0{fill:none;}
	.st1{fill:#F1E9C6;}
</style>
<g>
	<path class="st0" d="M80.4,85c-1.1,0.2-2.2,0.3-3.3,0c-1.6-0.4-2.9-1.5-3.6-3.1c-0.9-2-0.3-4.4-0.1-5c0.3-1.4,1.5-3.6,4.2-4
		c2.1-0.3,3.5,0.5,4.3,1.2c2,1.7,2,4.6,2,4.9l0,1.1c1.2-0.7,2.3-1.4,2.9-1.9l2,2.6c-0.4,0.3-2.4,1.9-5,3l-0.4,15.5H90v-2.6l0.8-0.5
		c6.3-3.5,10.2-10.2,10.2-17.4c0-11-8.9-19.9-19.9-19.9c-11,0-19.9,8.9-19.9,19.9c0,6.8,3.4,13.1,9.2,16.7l0.8,0.5v3.2h8.8L80.4,85z
		"/>
	<path class="st0" d="M69.1,110.4c0,1.5,1.2,2.8,2.7,2.8h17.7c1.5,0,2.7-1.2,2.7-2.8c0-0.4-0.1-0.8-0.2-1.1H69.3
		C69.2,109.7,69.1,110,69.1,110.4z"/>
	<path class="st0" d="M92.2,104.9c0-0.9-0.4-1.7-1.1-2.2H70.2c-0.7,0.5-1.1,1.3-1.1,2.2c0,0.4,0.1,0.8,0.2,1.1H92
		C92.2,105.7,92.2,105.3,92.2,104.9z"/>
	<path class="st0" d="M78.4,76.2c-0.1,0-0.3,0-0.5,0c-1,0.1-1.3,1.4-1.3,1.5l0,0.2c-0.1,0.4-0.4,1.8-0.1,2.7
		c0.3,0.7,0.8,1.1,1.4,1.3c0.7,0.2,1.6,0.1,2.5-0.2l0.1-2.6c0-0.4-0.2-1.8-0.9-2.4C79.5,76.4,79.2,76.2,78.4,76.2z"/>
	<path class="st1" d="M115.7,60c-0.7-1-2-1.3-3-0.7l-5.6,3.5c-1,0.7-1.3,2-0.7,3c0.7,1,2,1.3,3,0.7L115,63
		C116,62.4,116.4,61,115.7,60z"/>
	<path class="st1" d="M57.8,60.2l-5.2-4.1c-1-0.8-2.3-0.6-3.1,0.4c-0.8,1-0.6,2.3,0.4,3.1l5.2,4.1c1,0.8,2.3,0.6,3.1-0.4
		C59,62.3,58.8,61,57.8,60.2z"/>
	<path class="st1" d="M66.3,53.5c0.5,1.1,1.8,1.6,2.9,1.1c1.1-0.5,1.6-1.8,1.1-2.9l-2.8-6c-0.5-1.1-1.8-1.6-2.9-1.1
		c-1.1,0.5-1.6,1.8-1.1,2.9L66.3,53.5z"/>
	<path class="st1" d="M96.3,56c1.1,0.6,2.4,0.3,3-0.8l3.4-5.7c0.6-1.1,0.3-2.4-0.8-3c-1.1-0.6-2.4-0.3-3,0.8l-3.4,5.7
		C94.9,54,95.3,55.3,96.3,56z"/>
	<path class="st1" d="M82.9,51.9c1.2,0.1,2.3-0.9,2.3-2.1l0.3-6.6c0.1-1.2-0.9-2.3-2.1-2.3c-1.2-0.1-2.3,0.9-2.3,2.1l-0.3,6.6
		C80.8,50.8,81.7,51.9,82.9,51.9z"/>
	<path class="st1" d="M104.4,79c0-12.8-10.4-23.2-23.2-23.2C68.4,55.8,58,66.2,58,79c0,7.6,3.7,14.7,9.9,19v2.2
		c-1.4,1.1-2.2,2.9-2.2,4.7c0,1,0.2,1.9,0.7,2.8c-0.4,0.8-0.7,1.8-0.7,2.8c0,3.3,2.7,6.1,6.1,6.1h17.7c3.3,0,6.1-2.7,6.1-6.1
		c0-0.9-0.2-1.7-0.6-2.5v-0.5c0.4-0.8,0.6-1.6,0.6-2.5c0-1.8-0.8-3.5-2.2-4.7v-1.5C100.2,94.5,104.4,87,104.4,79z M89.5,113.2H71.8
		c-1.5,0-2.7-1.2-2.7-2.8c0-0.4,0.1-0.8,0.2-1.1H92c0.2,0.3,0.2,0.7,0.2,1.1C92.2,111.9,91,113.2,89.5,113.2z M92,106H69.3
		c-0.2-0.3-0.2-0.7-0.2-1.1c0-0.9,0.4-1.7,1.1-2.2h20.9c0.7,0.5,1.1,1.3,1.1,2.2C92.2,105.3,92.2,105.7,92,106z M90.9,96.3L90,96.8
		v2.6h-6.7l0.4-15.5c2.5-1.2,4.6-2.7,5-3l-2-2.6c-0.6,0.4-1.6,1.2-2.9,1.9l0-1.1c0-0.3-0.1-3.2-2-4.9c-0.8-0.7-2.1-1.4-4.3-1.2
		c-2.6,0.3-3.8,2.6-4.2,4c-0.2,0.6-0.8,3,0.1,5c0.7,1.6,2,2.7,3.6,3.1c1,0.3,2.1,0.2,3.3,0l-0.3,14.4h-8.8v-3.2l-0.8-0.5
		c-5.7-3.7-9.2-9.9-9.2-16.7c0-11,8.9-19.9,19.9-19.9c11,0,19.9,8.9,19.9,19.9C101.1,86.2,97.2,92.8,90.9,96.3z M80.5,81.6
		c-0.9,0.3-1.8,0.4-2.5,0.2c-0.6-0.2-1.1-0.6-1.4-1.3c-0.4-0.8-0.1-2.2,0.1-2.7l0-0.2c0-0.1,0.3-1.3,1.3-1.5c0.2,0,0.3,0,0.5,0
		c0.8,0,1.1,0.3,1.2,0.4c0.7,0.6,0.9,2,0.9,2.4L80.5,81.6z"/>
</g>
</svg>
