<?xml version="1.0" encoding="utf-8"?>
<!-- Generator: Adobe Illustrator 19.2.1, SVG Export Plug-In . SVG Version: 6.00 Build 0)  -->
<svg version="1.1" id="Layer_1" xmlns="http://www.w3.org/2000/svg" xmlns:xlink="http://www.w3.org/1999/xlink" x="0px" y="0px"
	 viewBox="0 0 165.1 157.4" style="enable-background:new 0 0 165.1 157.4;" xml:space="preserve">
<style type="text/css">
	.st0{fill:#F1E9C6;}
</style>
<path class="st0" d="M68.7,54.6c-0.8,0-1.4-0.6-1.4-1.4v-23c0-0.8,0.6-1.4,1.4-1.4s1.4,0.6,1.4,1.4v23C70,53.9,69.5,54.6,68.7,54.6z
	 M97.8,53.2v-23c0-0.8-0.6-1.4-1.4-1.4S95,29.3,95,30.2v23c0,0.8,0.6,1.4,1.4,1.4S97.8,53.9,97.8,53.2z M97.8,70.8L97.8,70.8V83l0,0
	v12.2l0,0v12.2c0,2.9-1.7,5.5-4.4,6.5c-7.1,2.8-9,5.1-9.4,6.4v22.2h-2.8v-22.2c-0.6-1.2-2.5-3.5-9.4-6.2c-2.6-1.1-4.4-3.6-4.4-6.5
	V95.3l0,0V83.1l0,0V70.9l0,0c0,0,0-11.8,0-12.2c0-0.8,0.6-1.4,1.4-1.4s1.4,0.6,1.4,1.4c0,1.8,1.1,3.3,2.6,4c4.9,1.9,8,3.9,9.8,6
	c1.8-2.1,5-4,9.8-6c1.7-0.7,2.6-2.2,2.6-4c0-0.8,0.6-1.4,1.4-1.4s1.4,0.6,1.4,1.4C97.8,59,97.8,70.8,97.8,70.8z M95,88.7
	c0,0.4-1,0.7-1.7,1c-7.1,2.9-9,5.1-9.4,6.4v7.9c1.9-1.5,4.7-3.1,8.5-4.6c1.7-0.7,2.6-2.2,2.6-4l0,0V88.7z M81.1,84.1
	c-1-2.4-5.4-5-9.4-6.7c-0.6-0.3-1.1-0.6-1.7-1V83l0,0c0,1.8,1.1,3.3,2.6,4c3.7,1.5,6.5,3.1,8.5,4.6V84.1z M70,95.2
	c0,1.8,1.1,3.3,2.6,4c3.7,1.5,6.5,3.1,8.5,4.6v-7.9c-0.6-1.2-2.4-3.5-9.4-6.4c-0.6-0.3-1.1-0.6-1.7-1V95.2L70,95.2z M95,76.5
	c0,0.4-1,0.7-1.7,1c-4,1.7-8.5,4.3-9.4,6.7v7.5c1.9-1.5,4.7-3.2,8.5-4.6c1.7-0.7,2.6-2.2,2.6-4l0,0V76.5z M83.9,71.6v8.2
	c2.8-2.5,6.8-4.3,8.5-4.9c1.7-0.7,2.6-2.2,2.6-4l0,0v-6.5c0,0.4-1,0.7-1.7,1C86.3,68.2,84.3,70.4,83.9,71.6z M70,64.3v6.5l0,0
	c0,1.8,1.1,3.3,2.6,4c1.5,0.7,5.5,2.4,8.5,4.9v-8.2c-0.6-1.2-2.4-3.5-9.4-6.4C71.2,65,70.6,64.7,70,64.3z M81.1,116v-7.9
	c-0.6-1.2-2.5-3.5-9.4-6.2c-0.6-0.3-1.1-0.6-1.7-1v6.5c0,1.8,1.1,3.3,2.6,4C76.4,113,79.2,114.5,81.1,116z M95,107.4v-6.5
	c0,0.4-1,0.7-1.7,1c-7.1,2.8-9,5.1-9.4,6.4v7.9c1.9-1.5,4.7-3.1,8.5-4.6C93.9,110.7,95,109.2,95,107.4z M89.5,54.2
	c0,5.3-2.4,7.5-4.9,10c-0.4,0.4-0.8,0.8-1.2,1.2c-0.3,0.3-0.7,0.4-1,0.4l0,0l0,0c-0.4,0-0.7-0.1-1-0.4c-0.4-0.4-0.8-0.8-1.2-1.2
	c-2.5-2.5-4.9-4.7-4.9-10c0-4.7,2.8-8.5,4.6-11.1c0.6-0.8,1.5-2.1,1.5-2.5V16.3c0-0.8,0.6-1.4,1.4-1.4s1.4,0.6,1.4,1.4v24.4
	c0,0.4,0.8,1.5,1.4,2.5C87,45.7,89.5,49.6,89.5,54.2z M82.3,62.2c2.3,0,3.7-4.2,3.7-4.2c0.6-1.1,0.8-2.4,0.8-4
	c0-3.7-2.1-7.1-3.7-9.4c-0.1-0.3-0.3-0.4-0.4-0.7l0,0h-0.1c-0.1,0.3-0.4,0.6-0.6,0.8c-1.8,2.5-4.2,5.7-4.2,9.4c0,1.7,0.3,2.9,0.8,4
	C78.6,58.2,80,62.2,82.3,62.2z"/>
</svg>
