<?xml version="1.0" encoding="utf-8"?>
<!-- Generator: Adobe Illustrator 19.2.1, SVG Export Plug-In . SVG Version: 6.00 Build 0)  -->
<svg version="1.1" id="Layer_1" xmlns="http://www.w3.org/2000/svg" xmlns:xlink="http://www.w3.org/1999/xlink" x="0px" y="0px"
	 viewBox="0 0 165.1 157.4" style="enable-background:new 0 0 165.1 157.4;" xml:space="preserve">
<style type="text/css">
	.st0{fill:#F1E9C6;}
</style>
<path class="st0" d="M122.7,71.9L122.7,71.9c-1.3,0-2.3,0-3.1,0l-1-6.2c2.2,0,4.1,0.1,4.1,0.1l0-3.5L113,62l-0.2-2.1
	c0.9-0.6,2.2-1.5,2.4-1.7c0.5,0,7.5,0.4,7.5,0.4V56l-7.1-0.4l-0.6-3.4c1.8,0.2,3.6,0.1,4.2,0.1c0.3,0.3,3.5,2.9,3.5,2.9v-2.2
	l-1.7-1.1c1.1-0.5,1.6-0.7,1.7-0.8v-2.3l-2.4-1.4l-2-1.2l4.3,0l0-1.8L42.2,44l0,1.8l10.1,0l-4.6,3.7l-0.2-0.2l-5.4-2.1V49l4.1,1.5
	l-2.8,2.2l-1.3-0.3v1.7l1.1,0.3c0,0,1.9,0.9,4.6,1.5l-1.8,1.1l-3.9,0l0,2.6c0,0,3.6,0,3.9,0c0.2,0.1,4,1.3,6.2,2.1
	c-0.6,1.1-1.3,2.1-1.8,2.9c-1.2,0-4.3-1-6.7-2.1c-0.1,0-1.6-0.6-1.6-0.6v2.8l1.1,0.4c0.7,0.3,2.2,0.9,3.7,1.4
	c-2.3,0.7-4.8,1.6-4.8,1.6v2.6l8.8-2.7c0.7,0.2,2.6,0.6,3.7,0.9c-0.3,1-0.8,2.5-1.1,3.7c-2.7-0.1-4.9-0.2-4.9-0.2l-6.5-0.6v4.4
	l6.2,0.5c0.2,0,4,0.4,7.6,0.3c0,1.2,0.1,2.8,0.2,4.1l-14.1,1.2v4.4c0,0,7.4-0.6,12-1c-2.5,3.4-5.5,7.5-5.5,7.5l-6.5,7.8v1.4l0.1,5.5
	l1.1-1.8l4.6-5.5c2.3,0.2,8.2,0.6,12.7-1.2c4.1-1.7,7.5-4.8,9.1-6.6c0.9,0.5,3,1.7,6.2,2.9l-5,17.5h4.4l3.8-16.5
	c3,0.8,6.6,1.5,10.6,1.6l0.8,14.8h3.7l-1.1-14.9c0.2,0,0.5,0,0.7,0l1.9-0.1c3.5-0.2,7.1-0.4,11-1.1c0.3,0.3,0.5,0.6,0.7,0.9
	c2.6,3.3,10,11.4,15.2,15.2v-6c-4.3-3.1-8.8-7.8-11.7-11c3.9-1,7.5-1.8,11.8-4.3v-4.7c-5,2.9-10.5,4.4-14.9,5.2
	c-1.7-2.1-3.8-4.6-5.5-6.5c1.3-0.3,2.1-0.6,2.2-0.6c0,0,8.7-3.1,9.8-3.5c1.2,0.8,4.8,2.7,8.3,3.8V81c-4.1-1.3-7.3-3.2-7.3-3.3
	c0,0-2-1.9-2.8-2.9c1.1,0.1,5.8,0.7,9.9,0.6l0,0 M56.8,69.4c1.8-0.1,6.8-0.5,10.2-2.7c0.6,0.8,1.3,1.5,2.1,2.2
	c-0.4,0.5-0.7,0.9-1,1.3l-1,0.5c0,0-3,1.5-9.2,1.9c-0.6,0.1-1.3,0.1-2,0.1L56.8,69.4z M59,54.2c0.7,0.1,2.2,0.3,3.4,0.3l-1.5,4.7
	l-4.5-0.9C57.3,56.8,58.7,54.6,59,54.2z M51.9,50.5c-0.7-0.1-1.5-0.4-2.2-0.6c2.1-1.7,4.1-3.2,4.3-3.4c1,0.6,2.1,1.1,3.4,1.5l-3,3.2
	C53.4,51,52.5,50.7,51.9,50.5z M59,48.5c1.3,0.3,2.8,0.4,4.5,0.4L62,52.7c-1.5-0.1-3.2-0.4-3.2-0.4c0,0-0.1,0-0.1,0l0,0
	c0,0-1.2-0.3-2.7-0.7L59,48.5z M88.8,45.9l-1.7,1.8l-0.5,0.2c-1.2,0.5-3.8,0.5-4.9,0.5l0-2.5L88.8,45.9z M111.7,78.4l-6.6,2.3
	l-1.8-3.4l5.9-2.4L111.7,78.4z M75.7,79.3l-1-0.5c-2-1.6-3.9-4.3-5-5.9c0.6-0.7,1.1-1.4,1.6-2c1,0.3,3,0.7,6,0.9
	c0.9,0.1,1.6,0.1,2.4,0.1c0.5,0.8,1.4,2,2.8,3c1.1,0.8,2.5,1.4,3.7,1.8c-0.5,1.3-1.1,3.2-1.9,6C79.4,81.3,75.8,79.3,75.7,79.3z
	 M70.2,57.6l-0.1,0.1c-0.7-1.1-1.2-2.6-1.5-4c1-0.2,2-0.5,3-0.8c1.3,0.6,4,1.1,5.6,1.4c-0.8,1.2-2.4,3.6-3.2,4.8
	c-1.8-0.6-3.4-1.3-3.4-1.3L70.2,57.6z M63.6,52.5c0.5-1.3,1.1-2.9,1.3-3.3c0.4,0,0.9-0.1,1.6-0.2c0,0.8,0.1,1.9,0.3,3.1
	C65.5,52.4,64.4,52.5,63.6,52.5z M67.9,48.8c1.5-0.3,3.2-0.8,4.6-1.8l2.7,1.9c-1.2,0.7-3,1.8-3.8,2.1c-1.1,0.4-2.1,0.7-3.1,0.9
	C68.1,50.6,68,49.5,67.9,48.8z M81.5,50.1c0.1,0,2.4,0.1,4.1-0.2c-0.1,0.3-0.1,0.6-0.2,1l-0.3,1.4l-1,0.2c-2.1,0.4-2.6,0.5-5.7,0.2
	c-0.1,0-2.7-0.4-4.8-0.9c1.3-0.7,2.7-1.6,3.1-1.9C77.2,49.9,81.5,50.1,81.5,50.1z M94.2,50.7l0.9,2.9l-3.6,0.4
	c-1.5-0.2-3.8-0.8-5-1.3l0.3-1.3c0.1-0.6,0.2-1.1,0.3-1.6C89,50.8,92.3,50.9,94.2,50.7z M95.6,50.6c1.8-0.1,5.2-0.6,6.6-2.3
	c0.5,0.2,2,0.9,3.2,1.5c-0.6,0.6-1.5,1.4-2.5,2c-1.3,0.8-4,1.4-4.3,1.5l-2.1,0.2C96.3,52.7,95.9,51.5,95.6,50.6z M98.4,66.7l-8-0.7
	l0.3-1.8c1.5,0,4.9-0.1,8.7-1.4c0.8,0.8,1.9,2.1,2.9,3.3L98.4,66.7z M84.4,54.2c0,0,0.9-0.2,1.2-0.2c1.1,0.7,3.3,1.2,4.7,1.5
	c-0.5,1-1.4,2.7-1.9,3.7L88,59.3c0,0-1.9,0.5-4.4,0.7l0.5-5.7C84.2,54.3,84.3,54.3,84.4,54.2z M91.8,55.7c0.3,0,0.9-0.1,1.6-0.2
	l3.1,5.5c-2.9,0.6-5.3,0.6-6.2,0.6l-0.9-1.2L91.8,55.7z M99.8,60L99.8,60l-0.5,0.1c-0.5,0.2-0.9,0.3-1.4,0.4L95,55.4
	c1.7-0.2,3.5-0.4,3.6-0.4c0.2,0.1,3.4,1.3,5.3,2C102.7,57.9,100.7,59.3,99.8,60z M78.8,54.5c2,0.2,2.9,0.2,4,0.1l-0.5,5.6
	c-1,0.1-2,0.1-3,0l0-0.1L77.9,60c-0.7-0.1-1.6-0.2-2.5-0.5L78.8,54.5z M78.3,62.7c3.9,0.5,8.1-0.3,9.5-0.7c0.3,0.4,0.6,0.8,0.9,1.2
	c-0.1,0.8-0.5,2.6-0.5,3l-3.6,1.2c-2.4,0.8-4.1,1-7.2,0.8c-1-0.1-1.9-0.2-2.7-0.3C76.9,64.9,77.9,63.4,78.3,62.7z M88.6,73.7
	L88.6,73.7c-0.9-0.2-3.3-0.9-4.8-1.9c-0.2-0.1-0.3-0.2-0.4-0.3c0.6-0.1,1.3-0.3,2-0.6c0,0,3.2-1,4-1.3c0.2,0,3.6,0.3,6.1,0.5
	l-3.4,4.6c-1.9-0.3-3.1-0.8-3.1-0.8L88.6,73.7z M99.1,70.2c0.7-0.1,4.5-0.7,5.4-0.8c0.4,0.5,1.3,1.5,2.5,2.9
	c-2.1,0.9-5.3,2.2-5.9,2.4l-5.4,0.2C97.1,72.9,98.7,70.6,99.1,70.2z M104.1,64.8c-1-1.2-2.2-2.6-3.1-3.6l3.8-2.8c0,0,5,2,6,2.4
	c0,0.4,0.1,1,0.1,1.4L104.1,64.8z M107.6,56.7c2-1.2,5.3-3.3,6.2-3.8c0.1,0.8,0.4,2,0.5,3l-3.2,2.3L107.6,56.7z M105.8,55.9
	l-4.3-1.6c0.7-0.2,1.5-0.5,2-0.9c1.4-0.8,2.8-2.1,3.5-2.9c1.1,0.3,3.2,0.9,5.4,1.4L105.8,55.9z M107,48.6l-4.1-1.9l0.1-0.8l6,0
	l0.3,3.3C108.3,49,107.4,48.8,107,48.6z M101.5,46.9c-0.5,0.9-2.3,1.5-4.2,1.8l-1.7-2.7l6,0L101.5,46.9z M95.7,48.9
	c-0.3,0-0.6,0-0.9,0.1l0,0c-0.2,0-0.5,0.1-0.8,0.1l-0.3,0l0,0c-1.6,0.1-3.7,0-5.2-0.5c0.8-0.9,2-2.1,2.5-2.6l2.9,0L95.7,48.9z
	 M80.3,48.3L77,48.1l-3.3-2.2l6.6,0L80.3,48.3z M67.7,47l-0.5,0l-2.7,0.1l0,0c-0.2,0-0.4,0-0.5,0l0.2-1.3l7,0
	C70.1,46.4,68.9,46.8,67.7,47z M63.9,54.3c0.8,0,2-0.2,3.3-0.4c0.3,1.5,0.8,3.1,1.5,4.4l-3.8,1.8l-2.7-0.5L63.9,54.3z M70.2,60.4
	c0.9,0.4,3.5,1.4,5.7,1.9c-0.9,1.3-2.2,3.3-3.6,5.2c-0.7-0.2-1.1-0.3-1.1-0.3l-0.8-0.3l0,0.1c-1.8-1.5-3.1-3.6-3.8-4.9
	C67.9,61.5,69.9,60.6,70.2,60.4z M59.7,82.2c-0.1-1.9-0.3-4-0.3-5.3c3.8-0.3,6.3-1.1,7.6-1.6c1,1.7,3.1,4.6,5.4,6.7l-3.9,6.1
	C66,87,62.1,84.1,59.7,82.2z M75.6,84c2.4,1.2,8.3,3.7,15,4c0,0.8-0.1,1.5-0.1,2.2c0,1.6,0.1,2.9,0.2,3.9c-9-0.1-15.9-3.2-18.6-4.7
	C73.3,87.6,74.9,85,75.6,84z M92.4,83.6L92.4,83.6c-1.8,0.1-3.6-0.1-5.4-0.4c1-3.5,1.6-5,1.9-5.7c1.1,0.3,3.3,0.9,6.2,0.9
	c0,0,4.1-0.1,5.3-0.2c0.3,0.7,1.2,2.2,1.8,3.5c-2.4,0.6-6.9,1.7-9.9,1.8V83.6z M116.8,71.5c-1.2-0.1-4.3-0.3-6.8-0.4l-3.2-3.7
	c2.1-0.8,4.8-1.8,5-1.9c0.2,0,1.9,0,4,0.1C116,66.8,116.5,69.6,116.8,71.5z M119.8,48.9l1.5,0.8c-0.5,0.4-1.2,0.7-1.7,0.7v0l-0.2,0
	c0,0-2.5,0.1-4.7-0.1l0,0l0,0c-0.1,0-0.1,0-0.2,0c-1.3-0.1-2.6-0.4-3.8-0.7l-0.4-3.6l4.9,0L119.8,48.9z M62.8,45.8l-0.3,1.4
	c-2.7,0-4.6-0.6-6.4-1.4L62.8,45.8z M48,51.3c0.7,0.2,2.4,0.8,3.6,1c1.3,0.4,4.2,1.2,5.8,1.6l-1,1.5l-0.7,0c-3.7-0.2-3.9-0.2-7.5-1
	c-1.2-0.3-2.3-0.6-3.1-0.9C45.8,53,46.9,52.2,48,51.3z M48.2,57.9l2-1.3c1.8,0.3,2.6,0.4,5.1,0.5L54.8,58l0,0l-0.4,0.6
	c0,0-0.3,0.4-0.7,1.1L48.2,57.9z M52.5,65.8c1.2-1.9,2.7-4.4,3-5c1,0.2,8.1,1.6,8.9,1.8c0.2,0.5,0.6,1.2,1.1,2
	c-3.5,1.9-8.6,2.1-9.4,2.1L52.5,65.8z M59.8,95.4c-2.7,1.1-6.1,1.3-8.6,1.2l0.1-0.1L59,85.7c1.9,1.5,4.9,3.7,7.4,5.1
	C64.9,92.3,62.5,94.2,59.8,95.4z M95.7,93.9L94.1,94c-0.2-1.3-0.3-3.3-0.2-6.3c1.4-0.1,2.9-0.4,4.3-0.7c1,1.1,3.2,3.7,5.3,6.2
	C100.9,93.6,98.3,93.8,95.7,93.9z"/>
</svg>
