<?xml version="1.0" encoding="utf-8"?>
<!-- Generator: Adobe Illustrator 19.2.1, SVG Export Plug-In . SVG Version: 6.00 Build 0)  -->
<svg version="1.1" id="Layer_1" xmlns="http://www.w3.org/2000/svg" xmlns:xlink="http://www.w3.org/1999/xlink" x="0px" y="0px"
	 viewBox="0 0 165.1 157.4" style="enable-background:new 0 0 165.1 157.4;" xml:space="preserve">
<style type="text/css">
	.st0{fill:#F1E9C6;}
</style>
<g>
	<path class="st0" d="M123.9,72.1c0-1.3-1.1-2.4-2.4-2.4h-12.4c-1.3,0-2.4,1.1-2.4,2.4c0,1.3,1.1,2.4,2.4,2.4h6.6l-14.8,14.8
		c-8.2-6.5-20.1-6-27.7,1.6c-8.1,8.1-8.1,21.4,0,29.5s21.4,8.1,29.5,0c7.6-7.6,8.1-19.5,1.6-27.7l14.8-14.8v6.6
		c0,1.3,1.1,2.4,2.4,2.4c1.6,0,2.4-1.4,2.4-2.4V72.1z M99.3,117c-6.3,6.3-16.4,6.3-22.7,0c-6.3-6.3-6.3-16.4,0-22.7
		c6.3-6.3,16.4-6.3,22.7,0S105.6,110.8,99.3,117z"/>
	<path class="st0" d="M91.8,46c-8.1-8.1-21.4-8.1-29.5,0c-7.6,7.6-8.1,19.5-1.6,27.7l-8.1,8.1l-6.3-6.3c-0.9-0.9-2.5-0.9-3.4,0
		c-1,0.9-0.9,2.5,0,3.4l6.3,6.3l-7.4,7.4c-0.9,0.9-0.9,2.5,0,3.4c0.9,0.9,2.5,0.9,3.4,0l7.4-7.4l6.3,6.3c0.9,0.9,2.5,0.9,3.4,0
		c0.9-0.9,0.9-2.5,0-3.4L56,85.2l8.1-8.1c8.2,6.5,20.1,6,27.7-1.6C100,67.4,100,54.1,91.8,46z M91.6,67.7c-0.1,0.2-0.2,0.4-0.3,0.6
		c-0.1,0.2-0.3,0.4-0.4,0.7c-0.1,0.2-0.3,0.5-0.4,0.7c-0.1,0.2-0.3,0.3-0.4,0.5c-0.2,0.3-0.4,0.5-0.6,0.8c-0.1,0.1-0.1,0.2-0.2,0.2
		c-0.3,0.3-0.5,0.6-0.8,0.9c-0.7,0.7-1.4,1.3-2.2,1.8C86.2,74,86.1,74,86,74.1c-0.3,0.2-0.6,0.4-1,0.6c-0.1,0.1-0.3,0.2-0.4,0.2
		c-0.3,0.2-0.6,0.3-0.9,0.4c-0.2,0.1-0.4,0.2-0.6,0.3c-0.3,0.1-0.5,0.2-0.8,0.3c-0.2,0.1-0.5,0.2-0.7,0.3c-0.2,0.1-0.4,0.1-0.7,0.2
		c-0.3,0.1-0.6,0.2-0.9,0.2c-0.2,0-0.4,0.1-0.6,0.1c-0.3,0.1-0.6,0.1-1,0.1c-0.2,0-0.4,0-0.5,0c-0.3,0-0.7,0.1-1,0.1
		c-0.4,0-0.7,0-1.1-0.1c-0.1,0-0.3,0-0.4,0c-0.4,0-0.7-0.1-1.1-0.2c-0.2,0-0.3,0-0.5-0.1c-0.3-0.1-0.6-0.2-1-0.2
		c-0.2,0-0.4-0.1-0.6-0.1c-0.3-0.1-0.5-0.2-0.8-0.3c-0.2-0.1-0.5-0.2-0.7-0.3c-0.2-0.1-0.4-0.2-0.6-0.3c-0.3-0.1-0.6-0.3-0.8-0.4
		c-0.1-0.1-0.3-0.2-0.4-0.2c-0.3-0.2-0.7-0.4-1-0.6c0,0-0.1-0.1-0.1-0.1c-0.8-0.5-1.6-1.2-2.3-1.9c-0.7-0.7-1.4-1.5-1.9-2.4
		c0,0,0,0,0,0c-0.3-0.4-0.6-0.9-0.8-1.3c0,0,0,0,0,0c-0.2-0.4-0.4-0.8-0.6-1.1c-0.1-0.1-0.1-0.2-0.2-0.4c-0.1-0.3-0.2-0.6-0.3-0.9h0
		c-0.5-1.5-0.8-3.1-0.9-4.8h0c0-0.1,0-0.2,0-0.2c0,0,0-0.1,0-0.1c0-0.1,0-0.2,0-0.3c0-0.4,0-0.8,0.1-1.2c0-0.1,0-0.2,0-0.3
		c0.1-0.9,0.3-1.8,0.5-2.7h0c0.5-1.7,1.3-3.4,2.3-4.8h0c0.2-0.2,0.3-0.4,0.5-0.6c0.1-0.1,0.2-0.3,0.3-0.4c0.3-0.4,0.6-0.8,1-1.1
		c1.1-1.1,2.3-2,3.6-2.7c0,0,0.1,0,0.1-0.1c0.4-0.2,0.7-0.4,1.1-0.5c0.1-0.1,0.2-0.1,0.3-0.2c0.3-0.1,0.6-0.2,0.9-0.3
		c0.2-0.1,0.4-0.1,0.6-0.2c0.3-0.1,0.5-0.1,0.8-0.2c0.2-0.1,0.5-0.1,0.7-0.2c0.2,0,0.5-0.1,0.7-0.1c0.3,0,0.6-0.1,0.8-0.1
		c0.2,0,0.5,0,0.7,0c0.3,0,0.6,0,0.9,0c0.4,0,0.8,0,1.2,0.1c0.1,0,0.2,0,0.3,0c0.4,0,0.8,0.1,1.2,0.2c0.1,0,0.2,0,0.4,0.1
		c0.4,0.1,0.7,0.2,1.1,0.3c0.1,0,0.3,0.1,0.4,0.1c0.3,0.1,0.7,0.2,1,0.3c0.2,0.1,0.4,0.1,0.5,0.2c0.3,0.1,0.5,0.2,0.8,0.4
		c0.2,0.1,0.4,0.2,0.6,0.3c0.2,0.1,0.4,0.3,0.6,0.4c0.2,0.1,0.5,0.3,0.7,0.4c0.2,0.1,0.3,0.2,0.5,0.4c0.3,0.2,0.5,0.4,0.8,0.6
		c0.1,0.1,0.1,0.1,0.2,0.2c0.3,0.3,0.6,0.5,0.9,0.8c1.1,1.1,2,2.3,2.7,3.6c0,0,0,0,0,0.1c0.2,0.4,0.4,0.8,0.6,1.2
		c0,0.1,0.1,0.1,0.1,0.2c0.2,0.4,0.3,0.8,0.4,1.1c0,0.1,0.1,0.2,0.1,0.4c0.1,0.4,0.2,0.7,0.3,1.1c0,0.2,0.1,0.3,0.1,0.4
		c0.1,0.4,0.1,0.8,0.2,1.2c0,0.1,0,0.3,0.1,0.4c0.1,0.5,0.1,1.1,0.1,1.6c0,0,0,0,0,0c0,0,0,0.1,0,0.1c0,0.5,0,1-0.1,1.4
		c0,0.3-0.1,0.6-0.1,0.9c0,0.2-0.1,0.4-0.1,0.6c-0.1,0.3-0.2,0.7-0.2,1c0,0.2-0.1,0.4-0.1,0.5c-0.1,0.3-0.2,0.6-0.3,0.9
		c-0.1,0.2-0.1,0.4-0.2,0.6C91.8,67.2,91.7,67.4,91.6,67.7z"/>
</g>
</svg>
