<?xml version="1.0" encoding="utf-8"?>
<!-- Generator: Adobe Illustrator 19.2.1, SVG Export Plug-In . SVG Version: 6.00 Build 0)  -->
<svg version="1.1" id="Layer_1" xmlns="http://www.w3.org/2000/svg" xmlns:xlink="http://www.w3.org/1999/xlink" x="0px" y="0px"
	 viewBox="0 0 165.1 157.4" style="enable-background:new 0 0 165.1 157.4;" xml:space="preserve">
<style type="text/css">
	.st0{fill:#F1E9C6;}
</style>
<g>
	<path class="st0" d="M83.4,89.3c-0.9-0.1-2.2-0.1-3.3-0.5c-2.2-0.7-2.9-2.7-1.6-4.5c0.8-1.1,1.9-2.1,3-2.9c4-2.8,8.5-4.6,13.3-5.3
		c2.6-0.4,5.3,0.3,8,0.9c1.6,0.3,2.1,1.6,1.3,3c-0.7,1.2-1.6,2.3-2.7,3.1C96,86.9,90.1,88.8,83.4,89.3z M80.3,86
		c5.7,2,18.4-2.2,20.8-6.7c-3.8-1.8-7.4-0.7-11,0.7C86.6,81.3,83,82.6,80.3,86z"/>
	<path class="st0" d="M61,92.8c-0.2,2.5-0.1,4.8-2.4,5.6c-2.3,0.8-3.8-0.9-5-2.5c-4-5.5-6.3-11.6-6.5-18.4c0-0.8,0-1.6,0.2-2.4
		c0.7-2.5,2.2-3,4.5-1.6c5.4,3.5,6.9,9.1,8.4,14.8C60.7,89.9,60.8,91.6,61,92.8z M58.1,96c0.1-1.3,0.4-2.4,0.3-3.6
		c-0.4-4.4-1.8-8.6-3.8-12.6c-1-2-2.6-3.1-4.6-4.1C48.6,81.6,53.2,93.4,58.1,96z"/>
	<path class="st0" d="M89.5,60c-0.3,2.3-0.4,4.6-0.8,6.9c-0.2,1.3-0.6,2.5-1.1,3.7c-0.6,1.4-1.4,2.7-3.2,2.8c-1.8,0-2.8-1.2-3.3-2.7
		c-0.8-2.4-1.5-4.8-1.9-7.2c-0.7-4.2-0.5-8.4,0.6-12.6c0.3-1.1,0.7-2.3,1.4-3.3c1.5-2.4,3.2-2.2,4.8,0.2
		C88.5,51.4,89.7,55.5,89.5,60z M84.6,70.8c2.1-3.1,2.2-6.6,2.3-10.1c0.1-4.2-0.1-8.4-3.4-11.7C80.2,53.7,80.7,66.7,84.6,70.8z"/>
	<path class="st0" d="M68.6,108.7c-1.8-0.3-3.6-0.5-5.2-1c-2.6-0.9-3.2-3.2-1.2-5.2c1-1.1,2.3-2,3.7-2.6c5.2-2.5,10.6-3.7,16.4-3.4
		c1.4,0.1,2.8,0.4,4,1c2,0.9,2.2,2.6,0.6,4.1c-2.8,2.8-5.9,5.1-10,5.7C74,107.7,71.3,108.2,68.6,108.7z M63.7,104.8
		c5.8,2.9,16.7,0.2,20.9-5C79.7,97.4,67.5,100.2,63.7,104.8z"/>
	<path class="st0" d="M78.3,73.8c-0.5,5.3-1.7,10.2-4.1,14.8c-0.7,1.3-1.6,2.6-2.7,3.6c-1.8,1.7-3.9,1.1-4.8-1.1
		c-0.4-1-0.6-2.1-0.7-3.2c-0.3-5.1,0.6-10.1,2.7-14.7c1.1-2.4,3.2-4.3,5-6.3c1.2-1.2,2.9-0.7,3.6,1.1C77.8,69.8,78,71.9,78.3,73.8z
		 M74.9,69.4c-4,3.3-4.4,4.1-6,11.6c-0.6,3.1-1.4,6.2,0.3,9.4C73.7,87.4,77,75.2,74.9,69.4z"/>
	<path class="st0" d="M104.7,91c-0.2,1-0.2,2-0.5,3c-1.5,5.4-4.1,10.2-7.9,14.4c-0.9,1-1.9,1.8-3,2.5c-2.7,1.6-4.9,0.4-5-2.7
		c-0.1-1.5,0.2-3,0.6-4.4c1.2-4.3,3.3-8.2,5.8-11.8c1.7-2.4,4.3-3.5,6.7-4.9c1.2-0.7,2.4,0,2.8,1.3C104.6,89.2,104.6,90.1,104.7,91z
		 M101.8,89.9c-5.9,2.2-7.7,7.6-9.8,12.6c-0.9,2-1.8,4.2-0.8,6.6C96.8,106,102.6,95.4,101.8,89.9z"/>
	<path class="st0" d="M57.7,68.4c0.7-6.6,3-12.6,7.2-17.8c0.4-0.5,0.8-0.9,1.3-1.2c1.1-0.8,2.2-1.5,3.6-0.9c1.4,0.6,1.2,1.9,1.5,3.1
		c1.6,7.6-2,13.6-6.1,19.5c-0.6,0.9-1.5,1.6-2.4,2.2c-2.2,1.3-4.2,0.5-4.8-2C57.8,70.3,57.8,69.4,57.7,68.4z M60.7,71.1
		c2.6-1.1,4-2.8,6.1-7.2c1.9-4,3.6-8,1.7-12.5C63.7,54,59.4,64.9,60.7,71.1z"/>
	<path class="st0" d="M107,90.4c0.4-3.3,0.7-5.9,1.2-8.4c0.2-1.2,0.7-2.3,1.2-3.4c0.6-1.2,1.4-2.2,2.9-2.2c1.5,0,1.9,1.3,2.5,2.3
		c4.4,6.9,3.3,14.2,1.4,21.5c-0.5,1.7-1.3,3.5-3.5,3.6c-2.4,0.1-3.4-1.8-3.8-3.6C108,96.7,107.5,93.2,107,90.4z M112,79.4
		c-3.4,6.1-2.8,18.8,0.8,21.6C116.6,95.6,116.2,84.7,112,79.4z"/>
	<path class="st0" d="M111.9,72.9c-6.1-0.5-11.9-2.3-17-5.9c-1.1-0.7-2-1.7-2.7-2.8c-1.3-1.9-0.5-3.5,1.7-4c8.5-2.1,15.5,1.2,22.1,6
		c0.3,0.2,0.6,0.6,0.8,0.9c2,2.5,1.1,4.9-2.1,5.5C113.9,72.9,113,72.8,111.9,72.9z M94.6,62.9c3.2,4.8,15.8,8.9,20.7,6.7
		c-1.3-2.5-3.7-3.6-6.1-4.6C104.6,63,100,60.8,94.6,62.9z"/>
</g>
</svg>
