<?xml version="1.0" encoding="utf-8"?>
<!-- Generator: Adobe Illustrator 19.2.1, SVG Export Plug-In . SVG Version: 6.00 Build 0)  -->
<svg version="1.1" id="Layer_1" xmlns="http://www.w3.org/2000/svg" xmlns:xlink="http://www.w3.org/1999/xlink" x="0px" y="0px"
	 viewBox="0 0 165.1 157.4" style="enable-background:new 0 0 165.1 157.4;" xml:space="preserve">
<style type="text/css">
	.st0{fill:#F1E9C6;}
</style>
<g>
	<path class="st0" d="M82.6,107.3L82.6,107.3c-1.8,0-3.6-1.4-6.3-3.7c1.4,5.7,3.9,9.2,6.3,9.2c2.3,0,4.9-3.5,6.3-9.2
		C86.1,105.9,84.3,107.3,82.6,107.3L82.6,107.3z"/>
	<path class="st0" d="M56,65.2v0.3c0.5,2.7,5,26.9,12.3,31.8c1.4,1,2.7,1.9,3.9,2.9c1.3,1,2.5,2,3.5,2.9c0.2,0.2,0.4,0.3,0.6,0.5
		c2.7,2.3,4.5,3.7,6.2,3.7h0.1h0.1c1.7-0.1,3.5-1.4,6.2-3.7c0.1-0.1,0.3-0.3,0.5-0.5c1-0.9,2.2-1.9,3.5-2.9c1.2-1,2.5-1.9,3.9-2.9
		c7.2-4.9,11.8-29.1,12.3-31.8v-0.3c0.1-5.9-1.6-10.7-5.3-14.2c-5.9-5.6-14.9-6.3-19.1-6.3c-1,0-1.7,0.1-2.1,0.1
		C81,44.6,68.7,44.1,61.4,51C57.6,54.4,55.8,59.2,56,65.2z M87,100.3c-1.7,1.4-3.7,3.2-4.5,3.4c-0.8-0.2-2.8-1.9-4.5-3.4
		c-0.8-0.7-1.7-1.4-2.7-2.2c-0.1-1.2-0.1-2.5-0.1-3.7c0-10.9,3.8-18.4,7.3-18.4c3.5,0,7.2,7.6,7.2,18.4c0,1.3-0.1,2.6-0.1,3.7
		C88.7,98.9,87.8,99.6,87,100.3z M63.8,53.5c6.5-6.1,18.5-5.2,18.6-5.2h0.1h0.1c0.5-0.1,12.2-0.8,18.6,5.2c2.9,2.7,4.3,6.6,4.2,11.4
		c-0.2,1-1.3,6.9-3.2,13.3c-3.4,11.8-6.2,15.1-7.6,16c-0.5,0.4-1,0.7-1.6,1.1c0-0.3,0-0.7,0-1c0-12.4-4.6-21.8-10.7-21.8
		c-6.1,0-10.7,9.4-10.7,21.8c0,0.3,0,0.7,0,1c-0.5-0.4-1-0.7-1.6-1.1c-1.4-1-4.2-4.3-7.6-16c-1.8-6.3-3-12.3-3.2-13.3
		C59.5,60.1,60.9,56.3,63.8,53.5z"/>
</g>
</svg>
