<?xml version="1.0" encoding="utf-8"?>
<!-- Generator: Adobe Illustrator 19.2.1, SVG Export Plug-In . SVG Version: 6.00 Build 0)  -->
<svg version="1.1" id="Layer_1" xmlns="http://www.w3.org/2000/svg" xmlns:xlink="http://www.w3.org/1999/xlink" x="0px" y="0px"
	 viewBox="0 0 165.1 157.4" style="enable-background:new 0 0 165.1 157.4;" xml:space="preserve">
<style type="text/css">
	.st0{fill:#F1E9C6;}
</style>
<path class="st0" d="M67.7,31.7c0.2-1,1.1-1.7,2.1-1.6s1.7,1.1,1.6,2.1c0,0.3-1,7.8,7.5,12.6c0.4,0.2,0.6,0.5,0.8,0.9
	c-1.4,0.5-2.6,1.1-3.6,1.8C66.3,41.3,67.6,32.1,67.7,31.7z M85.4,76.8c1.3,0.5,2.5,1.1,3.6,1.8c8.3-5.3,8.6-12.8,8.4-15.2
	c0,0,0,0,0,0c0,0,0-0.1,0-0.2C97.3,60,96,54,89,49.6c-1.2,0.7-2.5,1.3-3.6,1.8c0.2,0.3,0.4,0.7,0.8,0.9c0.3,0.2,0.5,0.3,0.8,0.5
	h-5.5c-1.1,0-1.9,0.8-1.9,1.9c0,1.1,0.8,1.9,1.9,1.9h9.7c0.6,0.8,1.1,1.5,1.4,2.3H75.8c-1.1,0-1.9,0.8-1.9,1.9
	c0,1.1,0.8,1.9,1.9,1.9h17.6c0.1,0,0.2,0,0.2,0l0,0c0,0.1,0,0.3,0,0.4c0,0.2,0,0.5,0,0.6c0,0.1,0,0.1,0,0.2c0,0.2,0,0.5,0,0.8l0,0
	c0,0-0.3,0-0.4,0H75.8c-1.1,0-1.9,0.8-1.9,1.9c0,1.1,0.8,1.9,1.9,1.9h17.3c-0.3,0.7-0.6,1.5-1.1,2.3l0,0c0,0-0.1,0-0.1,0h-12
	c-1.1,0-1.9,0.8-1.9,1.9s0.8,1.9,1.9,1.9h8.9c-0.8,0.6-1.7,1.3-2.7,1.8C85.8,76.1,85.5,76.4,85.4,76.8z M76.1,109.6
	c1.1-0.6,2.3-1.4,3.6-1.8l0,0c-0.2-0.4-0.5-0.7-0.8-0.9c-7.3-4.2-7.7-10.2-7.6-12.1c0-0.1,0.1-0.3,0.1-0.4c0-0.2,0-0.4,0-0.6
	c0.3-2.7,1.7-7.2,7.5-10.5c0.4-0.2,0.6-0.5,0.8-0.9c-1.2-0.5-2.4-1.1-3.6-1.8C69.1,85,67.8,91,67.6,94.2c0,0.1,0,0.2,0,0.2
	C67.5,96.8,67.8,104.3,76.1,109.6z M89,111.6c-1.4,0.8-2.8,1.5-4.1,2c0.5,0.2,0.9,0.5,1.3,0.7c2.6,1.5,4.2,3.2,5.4,4.8H75.8
	c-1.1,0-1.9,0.8-1.9,1.9c0,1.1,0.8,1.9,1.9,1.9h17.5c0.3,1,0.4,1.9,0.4,2.6c0,1,0.9,1.8,1.9,1.8c0,0,0.1,0,0.1,0
	c1.1,0,1.8-0.9,1.8-2C97.3,122,96,116,89,111.6z M97.5,94.5C97.5,94.5,97.5,94.4,97.5,94.5c0-0.1,0-0.2,0-0.2
	c-0.1-2-0.7-5.1-2.7-8.1c-1.8-2.7-4.4-4.9-7.8-6.6c0,0-0.1,0-0.2-0.1c0,0,0.1,0,0.2,0c-0.4-0.2-0.8-0.4-1.2-0.6c0,0,0.1,0.1,0.1,0.1
	c0,0-0.1,0-0.1,0l0,0c-0.8-0.4-1.7-0.8-2.6-1.1c-13.1-4.5-11.8-14.2-11.8-14.6c0-0.3,0-0.6-0.1-0.8l0,0c0.5-3.5,2.8-9,11.8-12.1
	c0.9-0.3,1.8-0.7,2.6-1c0.4-0.2,0.8-0.4,1.2-0.6l0,0c5.6-2.9,8.2-6.7,9.4-9.7c1.6-3.9,1.1-7.2,1.1-7.4c-0.2-1-1.1-1.7-2.1-1.5
	s-1.7,1.1-1.6,2.1c0,0.1,0.2,1.1,0,2.5l0,0c-0.1,0-0.2,0-0.2,0H75.8c-1.1,0-1.9,0.8-1.9,1.9c0,1.1,0.8,1.9,1.9,1.9h16.7
	c-1.4,2.9-4.4,6.2-10.6,8.4c-0.9,0.3-1.8,0.7-2.6,1c-0.4,0.2-0.8,0.4-1.2,0.6c-3.4,1.7-6,3.9-7.8,6.6c-2.1,3.1-2.6,6.2-2.7,8.2
	c0,0.1,0,0.2,0,0.2c0,0,0,0,0,0c0,0,0,0,0,0l0,0c-0.1,1.2,0,3.7,1.1,6.6c1.2,3,3.8,6.9,9.4,9.7c0.4,0.2,0.8,0.4,1.2,0.6v0.1l0,0
	c0.8,0.4,1.7,0.6,2.6,1c2.3,0.8,4.2,1.7,5.7,2.8h-6.2c-1.1,0-1.9,0.8-1.9,1.9s0.8,1.9,1.9,1.9h9.8c0.1,0,0.3,0,0.4,0l0,0l0,0
	c0.4,0.6,0.8,1.3,1.1,1.9H75.8c-1.1,0-1.9,0.8-1.9,1.9s0.8,1.9,1.9,1.9h17.6c0.1,0,0.2,0,0.3,0l0,0c-0.1,0.2-0.1,0.5,0,0.8
	c0,0.1,0.1,0.7,0.1,1.6l0,0c0,0-0.3,0-0.4,0H75.8c-1.1,0-1.9,0.8-1.9,1.9c0,1.1,0.8,1.9,1.9,1.9h17.1c-0.3,0.7-0.6,1.5-1.2,2.3H79.9
	c-1.1,0-1.9,0.8-1.9,1.9s0.8,1.9,1.9,1.9h8.3c-1.6,1.2-3.6,2.3-6.2,3.2c0,0,0,0-0.1,0h0h0h0l0,0l0,0c-0.9,0.3-1.7,0.6-2.5,1l0,0
	c-0.4,0.2-0.8,0.4-1.2,0.6h0c-3.4,1.7-6,3.9-7.8,6.7c-2.1,3.1-2.6,6.2-2.7,8.2c0,0.8,0.5,1.6,1.2,1.9c0.2,0.1,0.4,0.1,0.6,0.1h0.1
	c0.2,0,0.3,0,0.5-0.1c0.8-0.2,1.4-0.9,1.4-1.8c0.2-3.3,1.9-9.5,11.2-12.9c0.2-0.1,0.4-0.2,0.6-0.2c1.5-0.5,2.9-1.1,4.1-1.8
	c5.4-2.9,7.9-6.6,9.1-9.5C97.5,98.2,97.6,95.7,97.5,94.5L97.5,94.5z"/>
</svg>
