<?xml version="1.0" encoding="utf-8"?>
<!-- Generator: Adobe Illustrator 19.2.1, SVG Export Plug-In . SVG Version: 6.00 Build 0)  -->
<svg version="1.1" id="Layer_1" xmlns="http://www.w3.org/2000/svg" xmlns:xlink="http://www.w3.org/1999/xlink" x="0px" y="0px"
	 viewBox="0 0 165.1 157.4" style="enable-background:new 0 0 165.1 157.4;" xml:space="preserve">
<style type="text/css">
	.st0{fill:#F1E9C6;}
</style>
<path class="st0" d="M96.5,102.1H84.3V53.7c2.2-3,4.3-6.4,5.2-10.7c0.1-0.5,0-1.1-0.4-1.5c-0.3-0.4-0.8-0.6-1.4-0.6H77.3
	c-0.5,0-1.1,0.3-1.4,0.7c-0.3,0.4-0.4,1-0.3,1.5c1.2,4.4,2.8,7.7,5.2,10.6v48.4H68.5c-1,0-1.7,0.8-1.7,1.7v19.2c0,1,0.8,1.7,1.7,1.7
	s1.7-0.8,1.7-1.7v-17.5h3.5v17.5c0,1,0.8,1.7,1.7,1.7c1,0,1.7-0.8,1.7-1.7v-17.5h3.5v17.5c0,1,0.8,1.7,1.7,1.7c1,0,1.7-0.8,1.7-1.7
	v-17.5h3.5v17.5c0,1,0.8,1.7,1.7,1.7c1,0,1.7-0.8,1.7-1.7v-17.5h3.5v17.5c0,1,0.8,1.7,1.7,1.7s1.7-0.8,1.7-1.7v-19.2
	C98.3,102.9,97.5,102.1,96.5,102.1z M85.5,44.4c-0.7,2-1.7,3.9-3,5.8c-1.1-1.7-2.1-3.6-2.8-5.8H85.5z"/>
</svg>
