<?xml version="1.0" encoding="utf-8"?>
<!-- Generator: Adobe Illustrator 19.2.1, SVG Export Plug-In . SVG Version: 6.00 Build 0)  -->
<svg version="1.1" id="Layer_1" xmlns="http://www.w3.org/2000/svg" xmlns:xlink="http://www.w3.org/1999/xlink" x="0px" y="0px"
	 viewBox="0 0 81.4 123.1" style="enable-background:new 0 0 81.4 123.1;" xml:space="preserve">
<style type="text/css">
	.st0{fill-rule:evenodd;clip-rule:evenodd;fill:#7D7D7D;}
	.st1{fill-rule:evenodd;clip-rule:evenodd;fill:#A3A3A2;}
	.st2{fill-rule:evenodd;clip-rule:evenodd;fill:#8B8A8A;}
	.st3{fill:#676868;}
	.st4{fill-rule:evenodd;clip-rule:evenodd;fill:#676868;}
</style>
<g>
	<g>
		<polygon class="st1" points="54.5,4.6 54.4,4.7 54.6,4.8 54.9,4.9 55.1,4.8 55,4.8 54.8,4.6 		"/>
	</g>
	<g>
		<polygon class="st1" points="44.2,0.2 44.3,0.3 44.4,0.3 44.5,0.5 44.5,0.8 44.6,0.9 44.8,0.5 44.7,0.2 44.2,0 		"/>
	</g>
	<g>
		<polygon class="st1" points="59.3,4.3 59.2,4.5 58.9,4.5 58.6,4.4 58.5,4.2 58.4,4.2 58.1,4.3 57.9,4.6 58,4.6 58.5,4.7 58.7,4.7 
			58.9,4.9 59.1,4.9 59.3,4.9 59.6,4.9 59.9,4.6 59.9,4.5 59.8,4.1 59.7,3.9 		"/>
	</g>
	<g>
		<polygon class="st1" points="41.8,-0.1 41.6,-0.2 41.5,-0.3 41.5,0 42,0.6 42.7,0.9 42.9,0.8 42.6,0.5 42,0.2 		"/>
	</g>
	<g>
		<polygon class="st1" points="70.4,10.8 70.6,10.7 70.5,10.7 70.4,10.7 70.3,10.7 70.2,10.8 70,10.8 69.9,11 69.8,11.1 70.3,11 		
			"/>
	</g>
	<g>
		<path class="st1" d="M72,110.1c0.9-0.2,1.9-0.4,2.8-0.4c0.9,0,1.7,0.3,2.4,0.8c0.9,0.5,1.6,1.4,1.7,2.4c0.4,0,0.7-0.2,0.7-0.6
			c-0.4-0.4-0.3-1.1-0.1-1.6c0.3-1,0.8-1.9,1.3-2.8c0.2-0.4,0.5-0.8,0.5-1.3c0-0.7-0.6-1.2-0.7-1.9c0-0.3,0-0.6-0.1-0.8
			c-0.2-0.5-0.8-0.5-1.3-0.7c-0.7-0.3-1.1-1.2-1.2-2c-0.1-0.8,0.2-1.6,0.4-2.4c-1.8-0.1-3.7-0.1-5.5,0.1c-0.2,0-0.4,0-0.6,0
			c-0.5-0.2-0.4-0.9-0.4-1.4c0-1.1-0.6-2.1-1.5-2.6c0.4,0,0.7,0,1.1,0l0.2-0.4c-0.5-0.9-0.8-2-0.7-3c0-0.6,0.1-1.2-0.2-1.6
			c-0.2-0.2-0.5-0.3-0.8-0.4c-1.6-0.4-3.5-0.1-4.6-1.2c-0.3-0.3-0.6-0.8-1-1c-0.4-0.3-0.9-0.3-1.3-0.4c-1.3-0.2-2.5-0.5-3.7-0.9
			c-1.2-0.4-2.2-1-3.3-1.6c-0.8-0.4-1.6-0.9-1.8-1.8c-0.2-0.6,0-1.2,0.1-1.7c0.2-1.4,0.2-2.9-0.1-4.4c0-0.2-0.1-0.4-0.3-0.5
			c-0.1-0.1-0.3-0.1-0.5-0.1c-1.9,0.2-3.7,0.8-5.3,1.9c-0.5,0.4-1,0.8-1.6,1c-0.7,0.2-1.6,0.2-2.2,0.6c-0.5,0.4-0.7,1-1.3,1.3
			c-0.8,0.3-1.7-0.5-2.6-0.7c-1.4-0.2-2.9,1.1-4,0.2c-0.8-0.6-0.5-1.9-0.1-2.8c0.4-0.9,0.7-2.2-0.1-2.8c-0.9,0.9-2.1,1.6-3.3,2
			c-1,0.3-2.2,0.3-2.8-0.5c-0.2-0.3-0.3-0.6-0.5-0.9c-0.6-0.8-1.8-0.7-2.7-0.6c0.5-0.3,0.6-1.1,0.4-1.7s-0.6-1.1-1-1.6
			c-0.4-0.5-0.8-1-1.1-1.6c-0.6-1-1.1-2.3-0.5-3.3c0.5-0.8,1.6-1.2,2-2.1c0.1-0.3,0.2-0.7,0.2-1.1c0.2-1.7,1.1-3.3,2.5-4.3
			c1.1-0.9,2.5-1.3,3.9-1.7c1.4-0.4,3-0.8,4.2-0.1c0.9-0.4,0.7-2.2,0.9-3.1c0.2-1.4,0.5-2.9,0.9-4.3c0.3-1,0.6-2.1,0.7-3.2
			c0-1.2-0.3-2.5-0.7-3.7c-0.7,0-1.4-0.7-1.5-1.4c-0.1-0.7,0.4-1.5,1.1-1.7c0.6-0.2,1.3-0.1,1.9-0.4c-0.3-1-1.6-1-2.6-0.8
			c-0.1-0.9-0.2-1.9,0.5-2.4c0.3-0.2,0.7-0.3,1-0.3c1.4-0.2,2.9-0.2,4.3,0c-0.3-0.2-0.1-0.8,0.3-0.8c0,0.4,0.5,0.6,0.8,0.4
			c0.3-0.1,0.6-0.5,0.8-0.7c0.3-0.3,0.7-0.4,1-0.2c0.1,0.1,0.2,0.2,0.3,0.4c0.4,0.8,0.5,1.7,0.9,2.5c0.7,1.1,2.1,1.8,3.3,1.5
			c0.4-0.1,0.7-0.2,1.1-0.1c0.4,0.1,0.7,0.5,0.5,0.8c1.4-0.9,2.7-1.7,4.1-2.6c0.2-0.1,0.5-0.3,0.6-0.5c0.2-0.2,0.3-0.5,0.4-0.7
			c0.6-0.7,1.8-0.7,2.4-1.5c0.1-0.1,0.1-0.3,0.1-0.4c-0.1-0.2-0.3-0.2-0.5-0.2c-0.6-0.1-1.1-0.2-1.7-0.3c0.4-1-0.2-2.1-0.7-3.1
			c-0.6-0.9-1.2-1.9-1.7-2.8c1.4,0.5,2.8,0.8,4.2,0.8c0.4,0,0.8,0,1.1,0.3c0.2,0.2,0.3,0.4,0.6,0.5c0.5,0.2,0.8-0.4,1.2-0.7
			c0.7-0.7,1.8-0.8,2.8-1c1.6-0.3,3.1-1.2,4.2-2.4c0-1.2-0.8-2.3-1.9-2.6C68.1,22,68,22,67.8,21.8c-0.3-0.3,0-0.8,0.3-1.1
			c0.3-0.3,0.7-0.6,0.7-1c0-0.2-0.1-0.5-0.1-0.7c0-0.5,0.5-0.8,1-0.9c0.5-0.1,1-0.1,1.4-0.3c0.3-0.2,0.6-0.6,0.3-0.9
			c-0.2-0.1-0.4-0.1-0.6-0.2C70,16.6,70,15.6,70.5,15c0.5-0.5,1.2-0.7,1.8-1.2c0.3-0.2,0.5-0.6,0.6-0.9l-0.4-0.2l-0.6,0l-0.2,0.1
			L71.4,13l-1.1-0.2l-0.2,0l-0.6,0.3l-0.5,0l-0.4,0.3l-0.5-0.3L67.8,13l-0.3-0.2l1.3,0l0.2-0.4l0.2-0.4l0.1-0.3l0-0.1l0.1-0.2l0-0.2
			l0.1-0.2l0.2-0.2l0.4-0.2l0.2-0.3l-0.3-0.3l-0.5-0.4l-0.8-0.1l-0.3-0.1l-0.7-0.7l-0.3-0.2l-0.1,0.3l-0.5,0l0,0.2L67.1,9l0,0.2
			L67,9.1L66.9,9l-0.1-0.1l0-0.2l-0.2-0.3l-0.4-0.3l-0.2-0.1l-0.1,0l-0.1,0l0,0.1l-0.1,0.3l0.1,0.2l-0.1,0l-0.1-0.1l-0.1-0.1
			l-0.1,0.2l-0.1,0.1l-0.1,0l-0.1,0l-0.3-0.5l-0.4-0.9l-0.1-0.1l-0.2-0.1l0,0.2l0,0.2l-0.2,0.2l-0.3,0.1l0.2-0.2l0.1-0.3L63.8,7
			l-0.1-0.2l-0.3-0.2l0,0l0-0.1V6.2l-0.3-0.1L63.8,6l1.1,0.1l0.5-0.3l0.7,0l0.4-0.1l0.1-0.2l-1.3,0.1l-1.6-0.2l-0.8,0.1l-0.3,0
			l-0.5,0L61,5.8l-1.3-0.1l-1.1,0.1l-0.3,0l0.2,0.3L58.7,6l1,0.1l0.5,0.2L60,6.3l-0.2,0.1l-1.2,0l-2.3,1.2l-0.3,0l-0.3,0.1l-0.4,0
			l-0.6-0.2l-0.6-0.1l-0.6-0.2l-0.7-0.1l-0.8-0.7l0-0.2L52,6l-0.5-0.2L49,5.9L48.5,6l-1.5,0.2l-1,0.2L45,6.3L44.7,6l-0.2-0.4
			l-0.1-0.4l0.2-0.2l-0.2-0.2l-0.1-0.4L44.1,4l-0.8-0.5L42.6,3l-0.8-0.1l-0.6-0.2l-1,0.1l-0.2,0l-0.2,0l-0.3-0.3l-0.2-0.4l-0.2-0.6
			l-0.1-0.6L39,0.9l-0.2-0.2l-0.3-0.2l-0.4,0.1l-0.3,0.1L37.7,1l-0.3,0.4l0,0.5v0.2l0.3,0.3l1.2-0.1h0.3l0.2,0.4l-0.1,0.2L39,3
			l-0.6-0.3l-0.2,0L38,3l-0.2,0.2l-1.1,0.4l-0.9,0.2l-1.5,0.7l-0.7,0.1l0,0.4l-0.3,0.2l0.1,0.5l0.1,0.3l0.1,0.2l0.3,0.7l0.4,0.4
			l0.2,0.4l0.4,0.6L34.9,9l-0.1,0.7l0,0.6l-0.4,0.4l-0.1,0.2L34.1,11l-0.8,0.3l-0.3,0l-0.2-0.1L32.6,11l-0.1-0.4l0.1-0.3l-0.2-0.2
			L32.1,10l-0.4-0.4l-0.1-0.3l-0.4-0.6l0.5-1l0.2-0.2l0.3-0.5l0.4-0.4l0.2-0.7l0-0.2l-0.3-0.4l-0.1-0.6l0.2,0l0.1-0.1L32.4,4
			l-0.2-0.2l-0.6-0.8l-0.2-0.2V2.5l0.4-0.1L32,2.3L33.4,2l0.3-0.1l0.2-0.2L34,1.5l0.1-0.2l0.5-0.4l-0.1-0.4l-0.4-0.6l-0.8-0.3
			l-0.4,0l-0.4,0.1L31.9,0l0,0.2l-0.1,0.2h-0.3l-0.3,0.1l-0.1,0.4l-0.4,0.6l-0.6,0.3l-0.9,0.3l-2,1.4l-1.3,0.1l-0.4,0l-0.4-0.1
			l-0.5-0.1l-0.3,0.1l-0.2,0.2L24,4.2l-0.3,0.5l-0.2,0.5l-0.2,0.2l-0.2-0.1L23,5L23,4.7l0.3-0.1l0.2,0l0.1-0.1l-0.4,0l-1.3-0.4
			l-0.3,0.2L20.9,5l-0.4,0.3l-0.1,0.2l-0.6,0.4l-0.2,0.3l-0.2,0.7L19,7.3l-0.1,0.2l0.2-0.1l0.3-0.2l0.1,0.1l-0.2,0.3l0,0.5l-0.2,0.5
			L19,8.9l0.2,0.2l0.1,0.4l-0.1,0.3L18.7,10l-0.5-0.1l-0.4,0.2l-0.4,0.3l-0.5,1l-1.4,1l-0.4,0.2l-0.3,0.1l-0.1,0.2l0.2,0.2l0.2,0.2
			l0.2,0.5l0.1,1.1l-0.2,0.2l-0.3,0l-0.1-0.1L14.7,15l0-0.2l0.1-0.1l0.1-0.1l-0.1-0.1l-0.2-0.1L14.4,14l-0.5-0.5l-0.5-0.3l-0.3-0.5
			l-0.1-0.1L12,11.8l-0.5-0.6l-0.9-0.6L9.2,10L8.5,9.9l-0.8,0L7.6,9.9L7.4,9.7L7.1,9.6l-0.3,0L6.3,9.5L5.5,9.4L5.2,9.5L5,9.8
			l-0.5,0.3l-0.2,0.1l-0.2,0.1l-0.5,0.5l-1.4,0.4l-0.4,0.2l-0.4,0.3l-2.8,3.7l0.3,0.5l0.5,0.2l0.3,0.2l0.2,0l0.1-0.2L0,15.5L0,15.4
			l0.2-0.1l0.1-0.1l0.1,0.7l0.4,0.9l0,0.6l0.2,0.2l0.6,0l0.8-0.2l0.2-0.2L2.8,17L3,16.9l0.6,0l0.1-0.1L4,16.6l-0.1-0.3L3.8,16
			l-0.6-0.6l-0.4-0.5l-0.1-0.1l-0.2-0.2l0-0.2l0-0.3L2.6,14l0.1-0.1l0.6-0.1l0.3-0.1l1.3-0.8l-0.2-0.2l0.2-0.2L5,12.2l0.2-0.3
			l0.4-0.2l0.1-0.1l0.2-0.2L6,11.4l0.7,0l0.6,0.1l0.5,0.2L8,12l0.3,0.1l0.2,0.2l0.1,0l0.2,0.1l0.4,0.3l0.2,0.6l0.1,0.2l0.1,0.2
			l0.1,0l0-0.2l-0.1-0.1l0-0.2l0.1,0.1l0.1,0.1l0.3,0l0,0.1l0.1,0.1l0.1-0.1l0.1-0.1l0.2-0.1l0.1,0.3l0.2,0.2l0.6,0.4l0.3,0.3
			l-0.2-0.1l-0.4-0.3l-0.3-0.2l-0.2-0.3l-0.1,0l-0.1,0.2L10,14l0.1,0.4l-0.1,0.2l-0.1,0.1l-0.2,0l-0.2,0l0.2,0.6l0.7,1.2l0.8,1
			l0.1,0.1l0.3,0.3l0.4,0.6l0.1,0.3l0.2,0.1l0.3,0.5l0.3,0l0.2,0.4l0,0.2L13,20.8l-0.1,0l-0.1,0l0,0.4l0.4,0.6l0.3,0.7l-0.3,0.4
			l-0.7,0.5l0.5,0.4l0.1,0.3l0,0.4l0,0.5l0.1,0.8l0.1,0.2l0.1,0.2l-0.1,0.4L13.3,27l-0.1,0.3L13,27.4l-0.1,0.2l-0.2,0.2l0,0.2
			l0.4-0.1l0,0.2l-0.1,0.2l0,0.2l0.2,0.4l0.3-0.4l0.1,0.1L13.5,29l0.2,0.1l0.2,0l0.1-0.2l0.2,0L13.6,30l-0.3,0.4l-0.1,0.4l-0.2,0
			l-0.2,0.4l-0.2,0.3l-0.1,0.3l-0.3,0.1l-0.2,0l0,0.1l0.1,0.3l0,0.1l-0.4,0.3l-0.1,0.1l0,0.1l-0.2,0l-0.1,0.1l-0.1,0.2L11,33.5
			l-0.1,0.1l-0.1,0.1l-0.2,0.1l-0.6-0.1l-0.2,0.2l-0.3-0.1l-0.2,0L9.1,34l-0.2,0.2l-0.1,0.2l0,0.9L9,35.7l-0.1,0.5L8.2,36l-0.6,0.3
			l-0.2,0.4l0.5,0.3L8,37.3l0.1,0.5l-0.3,0.3l-1.1,0.3l-0.8,0.2L5.4,39l-0.4,0l-0.2,0.2l-0.4,0.2l-0.5,0.1l-0.2,0.2l0.1,0.7l0.1,0.6
			l-0.1,0.9l-0.3,0.6l-0.4,0.4l-0.3,0.2l-0.6,0.7l0,0.2l0.3,0.5l0.4,0.1l-0.3,0l-0.3-0.1l-0.2,0.3l-0.2,0.6l-0.2,0.2l-0.8,0.3
			L0.9,46l0.3,0.7l0.1,0.3l-0.1,0.8l0.2,0.7l0,0.4l0,0.5L1,49.7l-0.3,0.2l0,0.2l0.1,0.1l0.3,0.3l0.5,0.2l0.8,0.8l0.2,0.1l0.3,0.1
			l0.1-0.1l0-0.1L3.6,51l0.3-0.5L4,50.4l-0.1,0.7l0.1,0.1l0.2-0.1l0.2-0.4l0-1l0.2-0.3l0,0.1l0,0.2l0.1,0.6l0.3,0.4L5,51.2l-0.3,0.7
			l-0.3,1.1l-0.1,0.2l-0.2,0.2l-0.3,0.2l-0.2,0.2L3,53.9l-0.1,0l-0.6,0.4l-0.5,0.5l-0.5,0.3L1,55.6l-1.2,1.2l-0.2,0.3l-0.2,1.2
			l0.2,0.3l0.3,0.4l0.3,0.5l-0.1,0.3L0,60l0.8,1.1L1,61.6l0,0.4l-0.2,0.3l-0.2,0.1l-0.3-0.2L0,62.5L0,62.7l0.1,0.4l0.3,0.2l0.9,0.5
			l2.4,1.3L4,65.5L4.4,66l0.5,0.6l0.5,0.8l0.1,0.4l0.7,1.4l0.2,0.3l0.5,0.4l0.5,0.6l0.3,0.7l0.6,0.7l0,0.4l0.3,0.8l0.3,0.6l0.5,0.7
			l0.3,1L10,76l0.3,1l0.3,0.6l1.2,2l0.2,0.6l0.1,0.6l0,0.3l1.1,0.8l0.3,0.5l0.2,0.9l0,0.5l0.3,0.2l0.1,0.2l0.2,0.2l0.6,0.5l0.3,0.6
			l0.4,0.7l0.3,0.3l0.2,0.6l0.3,0.4l0.7,0.9l0.1,0.5l-0.3,1l-0.2,0.1l-0.2,0.1l0.3,0.3l0,0.6l0.4,0.3l0.1,0.3l0.5,0.6l0.2,0.5
			l0.7,0.5l0.7,0.4l0.5,0.7l0.4,0.3l0.3,0.5l0.3,0.3l1.9,1l0.6,0.5l0.8,0.3l1.1,0.8l0.3,0.2l1.1,0.4l0.5,0.3l1.1,0.5l0.6,0.3
			l1.1,0.3l0.4,0.2l0.3,0.4l0.5,0.4l0.5,0.2l0.3,0.3l0.3,0.2l0.8,0.3l0.3,0.3l0.1,0.2l0.1,0.7l0.1,0.2l1,0.7l0.4,0.2l0.4,0.4
			l1.1,0.8l0.3,0.2l0.2,0.2l0,0.3c0.2-0.1,0.4-0.2,0.5-0.3c0.8-0.7,0.8-2.2,1.8-2.6c0.2,0.5,0.8,0.6,1.1,1c0.1,0.2,0.1,0.4,0.2,0.6
			c0.2,1.3,0.5,2.5,1,3.7c0.1,0.1,0.1,0.3,0.2,0.3c0.1,0.1,0.3,0.1,0.4,0.1c0.6,0.1,1,0.9,0.6,1.4c-0.1,0.2-0.4,0.4-0.5,0.6
			c-0.1,0.4,0.1,0.9-0.2,1.2c-0.1,0.1-0.2,0.2-0.3,0.3c-0.1,0.1,0,0.3,0,0.4c0.3,1,0.7,1.9,1,2.8c0.4,1,0.8,1.9,1.1,2.9
			c0.4,1.2,0.9,2.3,0.9,3.6c0,0.2,0,0.5,0.2,0.6c0.1,0.1,0.2,0.1,0.3,0.1c0.6,0.1,1.2,0.1,1.7-0.2c0.5-0.3,0.7-0.9,1.1-1.4
			c0.3-0.5,0.9-0.9,1.5-0.7c0.2-0.6,0.2-1.4,1-1.3c0.6,0.1,1.1,0.6,1.8,0.6c0.8,0,1.6-0.1,2.3,0.1c1.2,0.4,1.8,1.7,2.2,2.9
			c0-1.3,0.8-2.6,2-3.1c1.2-0.5,2.7-0.1,3.6,0.8c1.8-2.1,1.4-5.2,2.3-7.8c0.2-0.5,0.4-1,0.9-1.3c0.3-0.2,0.8-0.3,1.2-0.4
			C69,110.8,70.5,110.5,72,110.1z"/>
	</g>
	<g>
		<polygon class="st1" points="69.9,11.2 69.8,11.2 69.5,11.5 69.4,11.6 69.4,12 69.6,11.9 69.9,11.8 70.1,11.6 70.2,11.4 70,11.3 
			70,11.2 		"/>
	</g>
	<g>
		<polygon class="st1" points="7.8,37.7 7.8,37.7 7.5,37.9 7.6,38.1 7.8,38 		"/>
	</g>
	<g>
		<polygon class="st1" points="7.2,13.9 7.2,13.9 7,14 7.1,14.2 7.3,14 		"/>
	</g>
	<g>
		<polygon class="st1" points="7.8,14.1 7.8,13.9 8,13.8 8,13.7 8,13.3 7.9,13.3 7.8,13.3 7.6,13.4 7.6,13.7 7.6,13.8 		"/>
	</g>
	<g>
		<polygon class="st1" points="3.6,52.5 3.7,52.1 3.8,52 4,52 4.3,51.7 4,51.5 3.8,51.5 3.5,51.6 3.3,51.8 3.2,52 3.1,52.4 
			3.1,52.6 3.2,52.6 3.5,52.6 		"/>
	</g>
	<g>
		<polygon class="st1" points="67.8,7.1 67.5,7.1 67.4,7.3 66.5,7.7 67,7.7 67.6,7.8 69,7.7 69.4,7.6 67.8,5.4 67.6,5.4 67.4,5.5 
			67.4,5.6 67.8,5.7 67.9,5.8 68,5.9 68,6.1 67.9,7 		"/>
	</g>
	<g>
		<polygon class="st1" points="10.5,33.6 10.5,33.4 10.5,33.3 10.3,33.3 10.2,33.4 10.3,33.6 10.5,33.7 		"/>
	</g>
</g>
</svg>
