<?xml version="1.0" encoding="utf-8"?>
<!-- Generator: Adobe Illustrator 19.2.1, SVG Export Plug-In . SVG Version: 6.00 Build 0)  -->
<svg version="1.1" id="Layer_1" xmlns="http://www.w3.org/2000/svg" xmlns:xlink="http://www.w3.org/1999/xlink" x="0px" y="0px"
	 viewBox="0 0 51.1 36.7" style="enable-background:new 0 0 51.1 36.7;" xml:space="preserve">
<style type="text/css">
	.st0{fill-rule:evenodd;clip-rule:evenodd;fill:#7D7D7D;}
	.st1{fill-rule:evenodd;clip-rule:evenodd;fill:#A3A3A2;}
	.st2{fill-rule:evenodd;clip-rule:evenodd;fill:#8B8A8A;}
	.st3{fill:#676868;}
	.st4{fill-rule:evenodd;clip-rule:evenodd;fill:#676868;}
</style>
<g>
	<g>
		<polygon class="st0" points="45.1,33 45,33 44.9,33.2 45,33.3 45.1,33.1 		"/>
	</g>
	<g>
		<polygon class="st0" points="45.6,33.2 45.7,33.1 45.9,33 45.9,32.8 45.8,32.5 45.8,32.4 45.6,32.4 45.5,32.5 45.5,32.8 
			45.5,32.9 		"/>
	</g>
	<g>
		<path class="st0" d="M30.2,32.6l0.3,0l0-0.2l0-0.1l-0.4-0.4l-0.2-0.3l0.3,0l0.4,0.2L31,32l0.1,0.3l0,0.5l0.3,0.2l0.3,0.4l0.2,0.4
			l0.1-0.1l0-0.5l0.3-0.2l0.4-0.1l0.5,0.1l0.6,0l0.4-0.1l0,0.3l0.2,0.1l0.2-0.1l0.4,0l0.4,0.2l0.5,0.1l0.1,0.2l0.1,0.2l0.6,1
			l0.5,0.2l0.3,0.2l0.2,0l0.1-0.2l0.1-0.5l0.1-0.2l0.2-0.1l0.1-0.1l0.1,0.7l0.4,0.9l0,0.6l0.2,0.2l0.6,0l0.8-0.2l0.2-0.2l0.1-0.2
			l0.2-0.1l0.6,0l0.1-0.1l0.2-0.2l-0.1-0.3l-0.1-0.2L41,34.5L40.6,34l-0.1-0.1l-0.2-0.2l0-0.2l0-0.3l0.2-0.2l0.1-0.1l0.6-0.1
			l0.3-0.1l1.3-0.8l-0.2-0.2l0.2-0.2l0.1-0.2l0.2-0.3l0.4-0.2l0.1-0.1l0.2-0.2l0.2-0.1l0.7,0l0.6,0.1l0.5,0.2l0.4,0.3l0.3,0.1
			l0.2,0.2l0.1,0l0.2,0.1l0.4,0.3l0.2,0.6l0.1,0.2l0.1,0.2l0.1,0l0-0.2l-0.1-0.1l0-0.2l0.1,0.1l0.1,0.1l0.3,0l0,0.1l0.1,0.1l0.1-0.1
			l0.1-0.1l0.2-0.1l0.1,0.3l0.2,0.2l0.6,0.4l0.3,0.3l-0.2-0.1L49,33.2L48.6,33l-0.2-0.3l-0.1,0l-0.1,0.2l-0.4,0.3l0.1,0.4l-0.1,0.2
			l-0.1,0.1l-0.2,0l-0.2,0l0.2,0.6l0.7,1.2l0.6,0.8c0.1-0.2,0.3-0.4,0.4-0.6c0-0.1,0.1-0.1,0.1-0.2c0.1-0.1,0.3,0,0.4,0.1
			c0.3,0.1,0.5-0.2,0.6-0.4c0.1-0.2,0.2-0.5,0.5-0.6c0.1-0.1,0.2-0.1,0.2-0.2c0.1-0.1,0-0.3,0-0.4c-0.3-1.1-0.7-1.3-0.5-2.4
			c0-0.1,0-0.2,0-0.2L49.8,31l-0.5-0.6l-0.9-0.6l-1.5-0.6l-0.7-0.1l-0.8,0L45.4,29l-0.1-0.2L45,28.7l-0.3,0l-0.5-0.1l-0.8-0.1
			l-0.3,0.1l-0.2,0.3l-0.5,0.3l-0.2,0.1L42,29.4l-0.5,0.5L40,30.3l-0.4,0.2L39,31l-0.8,0.3l-0.5,0.1l-0.5,0l-0.7-0.2L36,30.5
			l-0.3-0.2l-0.1-0.2l-0.2-0.1l0,0.1l0.2,0.2l0.2,0.3l-0.2,0l-0.2,0l-0.6,0.1l-0.2-0.2l-0.4-0.2l0-0.4l0.1-0.1l0-0.1l-0.1-0.1
			L34,29.9l-0.2-0.1l-0.1-0.4l0-0.2l0-0.2l-0.4-0.3L33,28.6l-0.2-0.1l-0.6-0.2L32.2,28L32,27.9l-0.6-0.8L31.1,27L30.3,26L30,25.5
			l-0.4-0.9l0-0.3l-0.1-0.2l-0.1-0.1l-0.2-0.1l-0.2-0.3l-0.2-0.4l-0.1-0.6l0-0.2l0.1-0.3l0.2-0.3l0.1-0.2l0.3-0.3l0-0.3l-0.1-0.3
			l-0.2,0l-0.1-0.1l-0.1-0.1l0.1-0.1l0.2-0.1l0-0.2l0-0.3l0.2,0l0.1,0.1l0.1,0l0-0.7l0.1-0.2L29.2,19l-0.2-0.2l-0.1-0.3l0.1-0.2
			l0.1-0.1l0.2-0.2l0.1-0.3l0.1,0.2l0,0.3l-0.1,0.2l0,0.2l0.1,0.2l0.1,0l0.2-0.1l0-0.4l-0.1-0.3l0.1-1.2l-0.2-1.3l0.3-1.5l0.3-0.9
			l0.2-0.2l0.2-0.3l0.2-0.4l0.1-0.3l-0.4-1.4l-0.1-0.1l-0.1,0l-0.1-0.2l0.1-0.2l0.2-0.1l0.1,0l0,0.3l0.1,0l0.2-0.4l0.1-0.1L31,9.8
			l-0.2-0.2l-0.2-0.1l-0.3-0.6l-1-0.4l-0.1,0l0.4,0.2L29.8,9l-0.1,0l-0.2-0.2l-0.3,0L29.1,9l-0.2,0l-0.1-0.2l-0.2-0.2l-0.2-0.1
			L28,8.3l-0.1,0.1l-0.2,0l0-0.1l0-0.2l0.1-0.1l0.4,0l0.7,0.4l0-0.1l-1.7-1.3l-0.9-0.2l0.1,0.1l0.2,0.1l0,0.1L26.4,7l-0.2,0
			l-0.3-0.3l-1.1-0.4l-0.3,0.1l-0.4,0.2L23,6.6l-1-0.4l-0.7-0.1l0.1,0.1l0.1,0.2l-0.5,0.2l-0.4,0.1L19.9,7l-0.4-0.1l-1,0L18,7.1
			l-1.3-0.3l-0.3,0L16,7l-0.2-0.2l-0.3-0.3l-0.3,0l-0.6,0.1l-0.1,0.1L14.2,7l-0.2,0.1l-0.3,0.2l-0.3-0.1l-1.2-0.7l-0.1,0l0,0
			l0.1,0.1l0.1,0.2l-0.2,0.3l-0.4-0.1l-0.3-0.2l0,0c-0.3,0-0.7,0.1-1,0c0.3-2.2-0.4-4.4-0.1-6.5C9.8,0.2,4.2,0,4.2,0
			c0,0.6,0.1,1.2,0,1.8c0,0.1,0,0.1,0,0.2c0,0-0.1,0-0.2,0c-0.4,0-0.9,0-1.3,0c0.3,0.3,0.7,0.6,1,0.9C4,3.2,4.3,3.5,4.6,3.6
			c0.2,0.1,0.5,0.2,0.6,0.4c0.1,0.2,0.1,0.4,0.2,0.5c0.1,0.1,0.4,0,0.5,0.1C6.2,4.8,6.3,5,6.3,5.3c0,0.2-0.2,0.5-0.3,0.7
			C6,6,5.9,6,5.9,6.1c-0.1,0-0.2,0-0.3,0c-1.3,0-2.5,0-3.8,0C1.3,7,0.8,7.8,0.3,8.7c0,0.1-0.1,0.1-0.1,0.2c0,0.2,0.2,0.3,0.2,0.4
			c0.1,0.1,0,0.3,0,0.5C0.3,10.4,0.1,11,0,11.6l1.1,0.8l0.6,0.4l0.9,0.4l0.8,0.2l1.9,0l0.4,0.1L7,14.1l0.4,0.2L8,14.8l1,0.2L9.9,15
			l1.4,0.7l1.2,0.3l0.1,0l-0.3-0.2L12,15.8l-0.1-0.1l0.3,0l0.6,0.2l0.8,0.2l0.5,0l0.3,0l0.2-0.2l0.2-0.2l-0.1-0.3l0.1,0l0.2,0.1
			l0.2,0.1l0.4-0.1l0.4,0.1l0,0.1l0,0.1l0.1,0.2l0.2,0.3l0.3,0.1l0,0.4l0,0.3l-0.2,0.3h-0.1L16,17l-0.2-0.3l-0.1-0.1l-0.3,0.2l0,0.2
			l0.7,0.5l0.9,0.9l0.2,0.3l0.9,0.6l0.3,0.3l0.3,0.6l0.6,0.8l1.8,1.4l0.5,0.5l0.3,0.4l0,0.1l0,0.1l0,0.2l-0.5,0.2L21.5,24l0.3,0.2
			l0.4,0.2l0.2,0.2l0,0.2l0,0.2l-0.1,0.2l-0.4,0.6l-0.1,0.4l0.2,0.6l0.4,0.6l0.2,0.2l1.1,0.3l0.6,0.7l0.1,0.1l0.1-0.1l0.1-0.2
			l0.2-0.1l0.4-0.4l-0.1-0.2l-0.2-0.2l-0.7-0.3l-0.3-0.3l-0.1-0.5l0.1,0l0.1,0.2l0.6,0.3l1.1,0.7l0.2,0.4l-0.1,0.3l0,0.2l0.3,0.3
			l0.3,0.1l0.9,0.2l0.4,0.3l0.8,0.4l0.5,0.4l0.3,0.4l0.1,0.3l0,0.5l-0.1,0.3L29,31.9l0.4,0.5l0.2,0.1l0.3,0L30.2,32.6z"/>
	</g>
	<g>
		<polygon class="st0" points="35.9,35.3 35.8,35.3 35.6,35.4 35.5,35.7 35.5,35.8 35.5,35.9 35.8,36.2 36.2,36.3 36.4,36.3 
			36.3,36.2 36,36 36,35.8 36.1,35.7 		"/>
	</g>
	<g>
		<polygon class="st0" points="21.3,4.7 21.4,4.8 21.6,4.6 21.7,4.5 21.8,4.4 21.6,4.4 21.4,4.5 		"/>
	</g>
	<g>
		<polygon class="st0" points="34.2,29.3 34.1,29.1 34,29.1 33.9,29.1 34.1,29.4 		"/>
	</g>
	<g>
		<polygon class="st0" points="19.3,5 19,5.2 19.2,5.2 19.7,4.9 20.3,4.7 20,4.7 19.7,4.8 		"/>
	</g>
</g>
</svg>
