<?xml version="1.0" encoding="utf-8"?>
<!-- Generator: Adobe Illustrator 19.2.1, SVG Export Plug-In . SVG Version: 6.00 Build 0)  -->
<svg version="1.1" id="Layer_1" xmlns="http://www.w3.org/2000/svg" xmlns:xlink="http://www.w3.org/1999/xlink" x="0px" y="0px"
	 viewBox="0 0 524 129" style="enable-background:new 0 0 524 129;" xml:space="preserve">
<style type="text/css">
	.st0{opacity:0.46;}
	.st1{fill:#A1A3A6;}
</style>
<g class="st0">
	<path class="st1" d="M14.1,91h17.2V29.4c0-1.9,0.1-3.8,0.1-3.8h-0.2c0,0-0.8,1.4-4,4.7l-9,9l-3.2-3.1l16.3-16.4h4.6V91h16.8v4.3
		H14.1V91z"/>
	<path class="st1" d="M66.4,93.6l2.3-4.2c0,0,4.6,2.7,11.1,2.7c17.6,0,26.4-18.2,27.5-34.8h-0.2c-4.2,6.4-12.5,10.4-21.4,10.4
		c-13.3,0-23.2-9.4-23.2-24.1c0-16.4,10.8-25.2,23.2-25.2c16.8,0,26.5,16,26.5,35.4c0,18.5-9.2,42.9-32.5,42.9
		C71.8,96.7,66.4,93.6,66.4,93.6z M106.8,48.1c0-10.5-8.2-25.2-21.1-25.2c-11.7,0-18.5,8.7-18.5,20.7c0,12.1,7.7,19.6,18.6,19.6
		C97.5,63.1,106.8,54.9,106.8,48.1z"/>
	<path class="st1" d="M123.7,70.5L163,19.7h4.3v49.7h11.2v4.3h-11.2v21.6h-4.6V73.7h-38.9V70.5z M162.6,69.4V33.9
		c0-3,0.3-6.8,0.3-6.8h-0.2c0,0-1.8,2.7-3.8,5.2l-28.8,36.9v0.2H162.6z"/>
	<path class="st1" d="M191.1,61.3c0-18.5,9.2-42.9,32.5-42.9c7.8,0,13.2,3,13.2,3l-2.3,4.2c0,0-4.6-2.7-11.1-2.7
		c-17.6,0-26.4,18.2-27.5,34.8h0.2c4.2-6.4,12.5-10.4,21.4-10.4c13.3,0,23.2,9.4,23.2,24.1c0,16.4-10.8,25.2-23.2,25.2
		C200.8,96.7,191.1,80.7,191.1,61.3z M236,71.5c0-12.1-7.7-19.6-18.6-19.6c-11.7,0-21,8.2-21,15c0,10.5,8.2,25.2,21.1,25.2
		C229.1,92.1,236,83.5,236,71.5z"/>
	<path class="st1" d="M251.7,62.6h29.8v4.3h-29.8V62.6z"/>
	<path class="st1" d="M292,91h17.2V29.4c0-1.9,0.1-3.8,0.1-3.8h-0.2c0,0-0.8,1.4-4,4.7l-9,9l-3.2-3.1l16.3-16.4h4.6V91h16.8v4.3H292
		V91z"/>
	<path class="st1" d="M344.3,93.6l2.3-4.2c0,0,4.6,2.7,11.1,2.7c17.6,0,26.4-18.2,27.5-34.8H385c-4.2,6.4-12.5,10.4-21.4,10.4
		c-13.3,0-23.2-9.4-23.2-24.1c0-16.4,10.8-25.2,23.2-25.2c16.8,0,26.5,16,26.5,35.4c0,18.5-9.2,42.9-32.5,42.9
		C349.7,96.7,344.3,93.6,344.3,93.6z M384.8,48.1c0-10.5-8.2-25.2-21.1-25.2c-11.7,0-18.5,8.7-18.5,20.7c0,12.1,7.7,19.6,18.6,19.6
		C375.5,63.1,384.8,54.9,384.8,48.1z"/>
	<path class="st1" d="M401.6,70.5l39.3-50.8h4.3v49.7h11.2v4.3h-11.2v21.6h-4.6V73.7h-38.9V70.5z M440.6,69.4V33.9
		c0-3,0.3-6.8,0.3-6.8h-0.2c0,0-1.8,2.7-3.8,5.2l-28.8,36.9v0.2H440.6z"/>
	<path class="st1" d="M482.3,52.3c-5.7-3.5-9.8-8.1-9.8-15.5c0-9.5,7.6-18.5,22.3-18.5c14.1,0,22.5,7.9,22.5,19.1
		c0,11.7-9.4,20.7-10.2,21.4c6.4,3.6,11.1,8.3,11.1,16.2c0,11.9-10.7,21.5-24.3,21.5c-12.5,0-25.1-8-25.1-22.9
		C468.8,59.9,482.3,52.3,482.3,52.3z M486.7,54.8c-1.5,0.8-13.1,7.4-13.1,18.9c0,11.6,10.1,18.4,20.2,18.4c9.6,0,19.5-6.9,19.5-16.9
		C513.3,63.9,498.5,60.5,486.7,54.8z M502.7,56.8c1.3-1.2,9.6-9,9.6-19.2c0-9-7.4-14.6-17.6-14.6c-10.9,0-17.4,6.3-17.4,14
		C477.3,48.1,491.2,51.4,502.7,56.8z"/>
</g>
</svg>
