<?xml version="1.0" encoding="utf-8"?>
<!-- Generator: Adobe Illustrator 19.2.1, SVG Export Plug-In . SVG Version: 6.00 Build 0)  -->
<svg version="1.1" id="Layer_1" xmlns="http://www.w3.org/2000/svg" xmlns:xlink="http://www.w3.org/1999/xlink" x="0px" y="0px"
	 viewBox="0 0 45 45" style="enable-background:new 0 0 45 45;" xml:space="preserve">
<style type="text/css">
	.st0{display:none;}
</style>
<g>
	<path d="M22.5,0C22.5,0,22.5,0,22.5,0C10.1,0,0,10.1,0,22.5C0,34.9,10.1,45,22.5,45C34.9,45,45,34.9,45,22.5C45,10.1,34.9,0,22.5,0
		z M19.3,31.8h-12V13.2h11.6v3.9h-7.1v3.4h5.7v3.9h-5.7v3.5h7.5V31.8z M37.2,31.8h-4.6l-5.2-8.7c-0.7-1.2-1.6-3.2-1.6-3.2h-0.1
		c0,0,0.2,2,0.2,3.2v8.7h-4.6V13.1h4.6l5.2,8.7c0.7,1.2,1.6,3.2,1.6,3.2h0.1c0,0-0.2-2-0.2-3.2v-8.7h4.6V31.8z"/>
	<polygon class="st0" points="11.8,24.4 17.5,24.4 17.5,20.5 11.8,20.5 11.8,17.1 18.9,17.1 18.9,13.2 7.3,13.2 7.3,31.8 19.3,31.8 
		19.3,27.9 11.8,27.9 	"/>
	<path class="st0" d="M32.7,21.9c0,1.2,0.2,3.2,0.2,3.2h-0.1c0,0-0.8-2-1.6-3.2l-5.2-8.7h-4.6v18.7H26v-8.7c0-1.2-0.2-3.2-0.2-3.2
		h0.1c0,0,0.8,2,1.6,3.2l5.2,8.7h4.6V13.1h-4.6V21.9z"/>
</g>
</svg>
